<?xml version="1.0" encoding="UTF-8" standalone="no"?>
<!DOCTYPE svg PUBLIC "-//W3C//DTD SVG 1.1//EN"
 "http://www.w3.org/Graphics/SVG/1.1/DTD/svg11.dtd">
<!-- Generated by graphviz version 9.0.0 (20230911.1827)
 -->
<!-- Title: PlayerControllerBase Pages: 1 -->
<svg width="396pt" height="764pt"
 viewBox="0.00 0.00 395.50 764.00" xmlns="http://www.w3.org/2000/svg" xmlns:xlink="http://www.w3.org/1999/xlink">
<g id="graph0" class="graph" transform="scale(1 1) rotate(0) translate(4 760)">
<title>PlayerControllerBase</title>
<!-- Node1 -->
<g id="Node000001" class="node">
<title>Node1</title>
<g id="a_Node000001"><a xlink:title=" ">
<polygon fill="#999999" stroke="none" points="226,-604 119,-604 119,-168 226,-168 226,-604"/>
<text text-anchor="start" x="126.75" y="-590.5" font-family="Helvetica,sans-Serif" font-size="10.00">PlayerControllerBase</text>
<text text-anchor="start" x="123" y="-574.5" font-family="Helvetica,sans-Serif" font-size="10.00">+</text>
<text text-anchor="start" x="133" y="-574.5" font-family="Helvetica,sans-Serif" font-size="10.00">AnimatorParameters</text>
<text text-anchor="start" x="123" y="-558.5" font-family="Helvetica,sans-Serif" font-size="10.00">+</text>
<text text-anchor="start" x="133" y="-558.5" font-family="Helvetica,sans-Serif" font-size="10.00">CameraTarget</text>
<text text-anchor="start" x="123" y="-542.5" font-family="Helvetica,sans-Serif" font-size="10.00">+</text>
<text text-anchor="start" x="133" y="-542.5" font-family="Helvetica,sans-Serif" font-size="10.00">CharController</text>
<text text-anchor="start" x="123" y="-526.5" font-family="Helvetica,sans-Serif" font-size="10.00">+</text>
<text text-anchor="start" x="133" y="-526.5" font-family="Helvetica,sans-Serif" font-size="10.00">DefaultPan</text>
<text text-anchor="start" x="123" y="-510.5" font-family="Helvetica,sans-Serif" font-size="10.00">+</text>
<text text-anchor="start" x="133" y="-510.5" font-family="Helvetica,sans-Serif" font-size="10.00">DefaultRoll</text>
<text text-anchor="start" x="123" y="-494.5" font-family="Helvetica,sans-Serif" font-size="10.00">+</text>
<text text-anchor="start" x="133" y="-494.5" font-family="Helvetica,sans-Serif" font-size="10.00">DefaultTilt</text>
<text text-anchor="start" x="123" y="-478.5" font-family="Helvetica,sans-Serif" font-size="10.00">+</text>
<text text-anchor="start" x="133" y="-478.5" font-family="Helvetica,sans-Serif" font-size="10.00">LookSensitivity</text>
<text text-anchor="start" x="123" y="-462.5" font-family="Helvetica,sans-Serif" font-size="10.00">+</text>
<text text-anchor="start" x="133" y="-462.5" font-family="Helvetica,sans-Serif" font-size="10.00">MotionTarget</text>
<text text-anchor="start" x="123" y="-446.5" font-family="Helvetica,sans-Serif" font-size="10.00">+</text>
<text text-anchor="start" x="133" y="-446.5" font-family="Helvetica,sans-Serif" font-size="10.00">MoveSensitivity</text>
<text text-anchor="start" x="123" y="-430.5" font-family="Helvetica,sans-Serif" font-size="10.00">+</text>
<text text-anchor="start" x="133" y="-430.5" font-family="Helvetica,sans-Serif" font-size="10.00">PlayerIndex</text>
<text text-anchor="start" x="123" y="-414.5" font-family="Helvetica,sans-Serif" font-size="10.00">+</text>
<text text-anchor="start" x="133" y="-414.5" font-family="Helvetica,sans-Serif" font-size="10.00">Velocity</text>
<text text-anchor="start" x="123.38" y="-398.5" font-family="Helvetica,sans-Serif" font-size="10.00">#</text>
<text text-anchor="start" x="133" y="-398.5" font-family="Helvetica,sans-Serif" font-size="10.00">m_Forward</text>
<text text-anchor="start" x="123.38" y="-382.5" font-family="Helvetica,sans-Serif" font-size="10.00">#</text>
<text text-anchor="start" x="133" y="-382.5" font-family="Helvetica,sans-Serif" font-size="10.00">m_Pan</text>
<text text-anchor="start" x="123.38" y="-366.5" font-family="Helvetica,sans-Serif" font-size="10.00">#</text>
<text text-anchor="start" x="133" y="-366.5" font-family="Helvetica,sans-Serif" font-size="10.00">m_Roll</text>
<text text-anchor="start" x="123.38" y="-350.5" font-family="Helvetica,sans-Serif" font-size="10.00">#</text>
<text text-anchor="start" x="133" y="-350.5" font-family="Helvetica,sans-Serif" font-size="10.00">m_Sideways</text>
<text text-anchor="start" x="123.38" y="-334.5" font-family="Helvetica,sans-Serif" font-size="10.00">#</text>
<text text-anchor="start" x="133" y="-334.5" font-family="Helvetica,sans-Serif" font-size="10.00">m_Tilt</text>
<text text-anchor="start" x="123.38" y="-318.5" font-family="Helvetica,sans-Serif" font-size="10.00">#</text>
<text text-anchor="start" x="133" y="-318.5" font-family="Helvetica,sans-Serif" font-size="10.00">m_Vertical</text>
<text text-anchor="start" x="123" y="-302.5" font-family="Helvetica,sans-Serif" font-size="10.00">+</text>
<text text-anchor="start" x="133" y="-302.5" font-family="Helvetica,sans-Serif" font-size="10.00">OnCrouch()</text>
<text text-anchor="start" x="123" y="-286.5" font-family="Helvetica,sans-Serif" font-size="10.00">+</text>
<text text-anchor="start" x="133" y="-286.5" font-family="Helvetica,sans-Serif" font-size="10.00">OnJump()</text>
<text text-anchor="start" x="123" y="-270.5" font-family="Helvetica,sans-Serif" font-size="10.00">+</text>
<text text-anchor="start" x="133" y="-270.5" font-family="Helvetica,sans-Serif" font-size="10.00">OnLook()</text>
<text text-anchor="start" x="123" y="-254.5" font-family="Helvetica,sans-Serif" font-size="10.00">+</text>
<text text-anchor="start" x="133" y="-254.5" font-family="Helvetica,sans-Serif" font-size="10.00">OnMove()</text>
<text text-anchor="start" x="123" y="-238.5" font-family="Helvetica,sans-Serif" font-size="10.00">+</text>
<text text-anchor="start" x="133" y="-238.5" font-family="Helvetica,sans-Serif" font-size="10.00">OnSprint()</text>
<text text-anchor="start" x="123.38" y="-222.5" font-family="Helvetica,sans-Serif" font-size="10.00">#</text>
<text text-anchor="start" x="133" y="-222.5" font-family="Helvetica,sans-Serif" font-size="10.00">Move()</text>
<text text-anchor="start" x="123.38" y="-206.5" font-family="Helvetica,sans-Serif" font-size="10.00">#</text>
<text text-anchor="start" x="133" y="-206.5" font-family="Helvetica,sans-Serif" font-size="10.00">OnDisable()</text>
<text text-anchor="start" x="123.38" y="-190.5" font-family="Helvetica,sans-Serif" font-size="10.00">#</text>
<text text-anchor="start" x="133" y="-190.5" font-family="Helvetica,sans-Serif" font-size="10.00">OnEnable()</text>
<text text-anchor="start" x="123.38" y="-174.5" font-family="Helvetica,sans-Serif" font-size="10.00">#</text>
<text text-anchor="start" x="133" y="-174.5" font-family="Helvetica,sans-Serif" font-size="10.00">Rotate()</text>
<polygon fill="#666666" stroke="#666666" points="119,-586 119,-586 226,-586 226,-586 119,-586"/>
<polygon fill="#666666" stroke="#666666" points="119,-314 119,-314 131,-314 131,-314 119,-314"/>
<polygon fill="#666666" stroke="#666666" points="131,-314 131,-314 226,-314 226,-314 131,-314"/>
<polygon fill="none" stroke="#666666" points="119,-168 119,-604 226,-604 226,-168 119,-168"/>
</a>
</g>
</g>
<!-- Node5 -->
<g id="Node000005" class="node">
<title>Node5</title>
<g id="a_Node000005"><a xlink:href="class_code_smile_1_1_multi_pal_1_1_samples_1_1_robo_kyle_1_1_controller_1_1_dead_player_controller.html" target="_top" xlink:title=" ">
<polygon fill="white" stroke="none" points="101,-124 0,-124 0,-8 101,-8 101,-124"/>
<text text-anchor="start" x="4.75" y="-110.5" font-family="Helvetica,sans-Serif" font-size="10.00">DeadPlayerController</text>
<text text-anchor="start" x="49" y="-94.5" font-family="Helvetica,sans-Serif" font-size="10.00"> </text>
<text text-anchor="start" x="12.5" y="-78.5" font-family="Helvetica,sans-Serif" font-size="10.00">+</text>
<text text-anchor="start" x="31" y="-78.5" font-family="Helvetica,sans-Serif" font-size="10.00">OnCrouch()</text>
<text text-anchor="start" x="12.5" y="-62.5" font-family="Helvetica,sans-Serif" font-size="10.00">+</text>
<text text-anchor="start" x="31" y="-62.5" font-family="Helvetica,sans-Serif" font-size="10.00">OnJump()</text>
<text text-anchor="start" x="12.5" y="-46.5" font-family="Helvetica,sans-Serif" font-size="10.00">+</text>
<text text-anchor="start" x="31" y="-46.5" font-family="Helvetica,sans-Serif" font-size="10.00">OnLook()</text>
<text text-anchor="start" x="12.5" y="-30.5" font-family="Helvetica,sans-Serif" font-size="10.00">+</text>
<text text-anchor="start" x="31" y="-30.5" font-family="Helvetica,sans-Serif" font-size="10.00">OnMove()</text>
<text text-anchor="start" x="12.5" y="-14.5" font-family="Helvetica,sans-Serif" font-size="10.00">+</text>
<text text-anchor="start" x="31" y="-14.5" font-family="Helvetica,sans-Serif" font-size="10.00">OnSprint()</text>
<polygon fill="#bfbfbf" stroke="#bfbfbf" points="0,-106 0,-106 101,-106 101,-106 0,-106"/>
<polygon fill="#bfbfbf" stroke="#bfbfbf" points="0,-90 0,-90 101,-90 101,-90 0,-90"/>
<polygon fill="none" stroke="#bfbfbf" points="0,-8 0,-124 101,-124 101,-8 0,-8"/>
</a>
</g>
</g>
<!-- Node1&#45;&gt;Node5 -->
<g id="edge4_Node000001_Node000005" class="edge">
<title>Node1&#45;&gt;Node5</title>
<g id="a_edge4_Node000001_Node000005"><a xlink:title=" ">
<path fill="none" stroke="#63b8ff" d="M115.08,-235.34C99.81,-195.54 84.24,-154.95 72.22,-123.61"/>
<polygon fill="none" stroke="#63b8ff" points="111.77,-236.49 118.62,-244.57 118.31,-233.98 111.77,-236.49"/>
</a>
</g>
</g>
<!-- Node6 -->
<g id="Node000006" class="node">
<title>Node6</title>
<g id="a_Node000006"><a xlink:href="class_code_smile_1_1_multi_pal_1_1_samples_1_1_robo_kyle_1_1_controller_1_1_falling_player_controller.html" target="_top" xlink:title=" ">
<polygon fill="white" stroke="none" points="226,-124 119,-124 119,-8 226,-8 226,-124"/>
<text text-anchor="start" x="123.75" y="-110.5" font-family="Helvetica,sans-Serif" font-size="10.00">FallingPlayerController</text>
<text text-anchor="start" x="171" y="-94.5" font-family="Helvetica,sans-Serif" font-size="10.00"> </text>
<text text-anchor="start" x="133" y="-78.5" font-family="Helvetica,sans-Serif" font-size="10.00">+</text>
<text text-anchor="start" x="153" y="-78.5" font-family="Helvetica,sans-Serif" font-size="10.00">OnCrouch()</text>
<text text-anchor="start" x="133" y="-62.5" font-family="Helvetica,sans-Serif" font-size="10.00">+</text>
<text text-anchor="start" x="153" y="-62.5" font-family="Helvetica,sans-Serif" font-size="10.00">OnJump()</text>
<text text-anchor="start" x="133" y="-46.5" font-family="Helvetica,sans-Serif" font-size="10.00">+</text>
<text text-anchor="start" x="153" y="-46.5" font-family="Helvetica,sans-Serif" font-size="10.00">OnLook()</text>
<text text-anchor="start" x="133" y="-30.5" font-family="Helvetica,sans-Serif" font-size="10.00">+</text>
<text text-anchor="start" x="153" y="-30.5" font-family="Helvetica,sans-Serif" font-size="10.00">OnMove()</text>
<text text-anchor="start" x="133" y="-14.5" font-family="Helvetica,sans-Serif" font-size="10.00">+</text>
<text text-anchor="start" x="153" y="-14.5" font-family="Helvetica,sans-Serif" font-size="10.00">OnSprint()</text>
<polygon fill="#bfbfbf" stroke="#bfbfbf" points="119,-106 119,-106 226,-106 226,-106 119,-106"/>
<polygon fill="#bfbfbf" stroke="#bfbfbf" points="119,-90 119,-90 226,-90 226,-90 119,-90"/>
<polygon fill="none" stroke="#bfbfbf" points="119,-8 119,-124 226,-124 226,-8 119,-8"/>
</a>
</g>
</g>
<!-- Node1&#45;&gt;Node6 -->
<g id="edge5_Node000001_Node000006" class="edge">
<title>Node1&#45;&gt;Node6</title>
<g id="a_edge5_Node000001_Node000006"><a xlink:title=" ">
<path fill="none" stroke="#63b8ff" d="M172.5,-156.68C172.5,-145 172.5,-133.94 172.5,-123.84"/>
<polygon fill="none" stroke="#63b8ff" points="169,-156.54 172.5,-166.54 176,-156.54 169,-156.54"/>
</a>
</g>
</g>
<!-- Node7 -->
<g id="Node000007" class="node">
<title>Node7</title>
<g id="a_Node000007"><a xlink:href="class_code_smile_1_1_multi_pal_1_1_samples_1_1_robo_kyle_1_1_controller_1_1_simple_player_controller.html" target="_top" xlink:title=" ">
<polygon fill="white" stroke="none" points="353,-132 244,-132 244,0 353,0 353,-132"/>
<text text-anchor="start" x="249" y="-118.5" font-family="Helvetica,sans-Serif" font-size="10.00">SimplePlayerController</text>
<text text-anchor="start" x="297" y="-102.5" font-family="Helvetica,sans-Serif" font-size="10.00"> </text>
<text text-anchor="start" x="258.5" y="-86.5" font-family="Helvetica,sans-Serif" font-size="10.00">+</text>
<text text-anchor="start" x="279" y="-86.5" font-family="Helvetica,sans-Serif" font-size="10.00">OnCrouch()</text>
<text text-anchor="start" x="258.5" y="-70.5" font-family="Helvetica,sans-Serif" font-size="10.00">+</text>
<text text-anchor="start" x="279" y="-70.5" font-family="Helvetica,sans-Serif" font-size="10.00">OnJump()</text>
<text text-anchor="start" x="258.5" y="-54.5" font-family="Helvetica,sans-Serif" font-size="10.00">+</text>
<text text-anchor="start" x="279" y="-54.5" font-family="Helvetica,sans-Serif" font-size="10.00">OnLook()</text>
<text text-anchor="start" x="258.5" y="-38.5" font-family="Helvetica,sans-Serif" font-size="10.00">+</text>
<text text-anchor="start" x="279" y="-38.5" font-family="Helvetica,sans-Serif" font-size="10.00">OnMove()</text>
<text text-anchor="start" x="258.5" y="-22.5" font-family="Helvetica,sans-Serif" font-size="10.00">+</text>
<text text-anchor="start" x="279" y="-22.5" font-family="Helvetica,sans-Serif" font-size="10.00">OnSprint()</text>
<text text-anchor="start" x="258.88" y="-6.5" font-family="Helvetica,sans-Serif" font-size="10.00">#</text>
<text text-anchor="start" x="279" y="-6.5" font-family="Helvetica,sans-Serif" font-size="10.00">OnEnable()</text>
<polygon fill="#bfbfbf" stroke="#bfbfbf" points="244,-114 244,-114 353,-114 353,-114 244,-114"/>
<polygon fill="#bfbfbf" stroke="#bfbfbf" points="244,-98 244,-98 353,-98 353,-98 244,-98"/>
<polygon fill="none" stroke="#bfbfbf" points="244,0 244,-132 353,-132 353,0 244,0"/>
</a>
</g>
</g>
<!-- Node1&#45;&gt;Node7 -->
<g id="edge6_Node000001_Node000007" class="edge">
<title>Node1&#45;&gt;Node7</title>
<g id="a_edge6_Node000001_Node000007"><a xlink:title=" ">
<path fill="none" stroke="#63b8ff" d="M230.14,-239.54C245.08,-201.82 260.43,-163.09 272.79,-131.9"/>
<polygon fill="none" stroke="#63b8ff" points="226.92,-238.15 226.49,-248.73 233.43,-240.72 226.92,-238.15"/>
</a>
</g>
</g>
<!-- Node2 -->
<g id="Node000002" class="node">
<title>Node2</title>
<g id="a_Node000002"><a xlink:title=" ">
<polygon fill="white" stroke="none" points="93.5,-724 17.5,-724 17.5,-672 93.5,-672 93.5,-724"/>
<text text-anchor="start" x="22.5" y="-710.5" font-family="Helvetica,sans-Serif" font-size="10.00">MonoBehaviour</text>
<text text-anchor="start" x="54" y="-694.5" font-family="Helvetica,sans-Serif" font-size="10.00"> </text>
<text text-anchor="start" x="54" y="-678.5" font-family="Helvetica,sans-Serif" font-size="10.00"> </text>
<polygon fill="#bfbfbf" stroke="#bfbfbf" points="17.5,-706 17.5,-706 93.5,-706 93.5,-706 17.5,-706"/>
<polygon fill="#bfbfbf" stroke="#bfbfbf" points="17.5,-690 17.5,-690 93.5,-690 93.5,-690 17.5,-690"/>
<polygon fill="none" stroke="#bfbfbf" points="17.5,-672 17.5,-724 93.5,-724 93.5,-672 17.5,-672"/>
</a>
</g>
</g>
<!-- Node2&#45;&gt;Node1 -->
<g id="edge1_Node000001_Node000002" class="edge">
<title>Node2&#45;&gt;Node1</title>
<g id="a_edge1_Node000001_Node000002"><a xlink:title=" ">
<path fill="none" stroke="#63b8ff" d="M68.8,-661.77C81.17,-628.97 100.46,-577.88 119.05,-528.61"/>
<polygon fill="none" stroke="#63b8ff" points="65.67,-660.15 65.41,-670.74 72.22,-662.62 65.67,-660.15"/>
</a>
</g>
</g>
<!-- Node3 -->
<g id="Node000003" class="node">
<title>Node3</title>
<g id="a_Node000003"><a xlink:href="interface_code_smile_1_1_multi_pal_1_1_input_1_1_generated_input_1_1_i_player_kinematics_actions.html" target="_top" xlink:title=" ">
<polygon fill="white" stroke="none" points="233,-756 112,-756 112,-640 233,-640 233,-756"/>
<text text-anchor="start" x="116.62" y="-742.5" font-family="Helvetica,sans-Serif" font-size="10.00">IPlayerKinematicsActions</text>
<text text-anchor="start" x="171" y="-726.5" font-family="Helvetica,sans-Serif" font-size="10.00"> </text>
<text text-anchor="start" x="129.5" y="-710.5" font-family="Helvetica,sans-Serif" font-size="10.00">+</text>
<text text-anchor="start" x="153" y="-710.5" font-family="Helvetica,sans-Serif" font-size="10.00">OnCrouch()</text>
<text text-anchor="start" x="129.5" y="-694.5" font-family="Helvetica,sans-Serif" font-size="10.00">+</text>
<text text-anchor="start" x="153" y="-694.5" font-family="Helvetica,sans-Serif" font-size="10.00">OnJump()</text>
<text text-anchor="start" x="129.5" y="-678.5" font-family="Helvetica,sans-Serif" font-size="10.00">+</text>
<text text-anchor="start" x="153" y="-678.5" font-family="Helvetica,sans-Serif" font-size="10.00">OnLook()</text>
<text text-anchor="start" x="129.5" y="-662.5" font-family="Helvetica,sans-Serif" font-size="10.00">+</text>
<text text-anchor="start" x="153" y="-662.5" font-family="Helvetica,sans-Serif" font-size="10.00">OnMove()</text>
<text text-anchor="start" x="129.5" y="-646.5" font-family="Helvetica,sans-Serif" font-size="10.00">+</text>
<text text-anchor="start" x="153" y="-646.5" font-family="Helvetica,sans-Serif" font-size="10.00">OnSprint()</text>
<polygon fill="#bfbfbf" stroke="#bfbfbf" points="112,-738 112,-738 233,-738 233,-738 112,-738"/>
<polygon fill="#bfbfbf" stroke="#bfbfbf" points="112,-722 112,-722 233,-722 233,-722 112,-722"/>
<polygon fill="none" stroke="#bfbfbf" points="112,-640 112,-756 233,-756 233,-640 112,-640"/>
</a>
</g>
</g>
<!-- Node3&#45;&gt;Node1 -->
<g id="edge2_Node000001_Node000003" class="edge">
<title>Node3&#45;&gt;Node1</title>
<g id="a_edge2_Node000001_Node000003"><a xlink:title=" ">
<path fill="none" stroke="#63b8ff" d="M172.5,-628.86C172.5,-620.94 172.5,-612.56 172.5,-603.87"/>
<polygon fill="none" stroke="#63b8ff" points="169,-628.63 172.5,-638.63 176,-628.63 169,-628.63"/>
</a>
</g>
</g>
<!-- Node4 -->
<g id="Node000004" class="node">
<title>Node4</title>
<g id="a_Node000004"><a xlink:href="interface_code_smile_1_1_multi_pal_1_1_animation_1_1_i_animator_parameters_provider.html" target="_top" xlink:title=" ">
<polygon fill="white" stroke="none" points="387.5,-724 251.5,-724 251.5,-672 387.5,-672 387.5,-724"/>
<text text-anchor="start" x="256.5" y="-710.5" font-family="Helvetica,sans-Serif" font-size="10.00">IAnimatorParametersProvider</text>
<text text-anchor="start" x="262.5" y="-694.5" font-family="Helvetica,sans-Serif" font-size="10.00">+</text>
<text text-anchor="start" x="279.5" y="-694.5" font-family="Helvetica,sans-Serif" font-size="10.00">AnimatorParameters</text>
<text text-anchor="start" x="318" y="-678.5" font-family="Helvetica,sans-Serif" font-size="10.00"> </text>
<polygon fill="#bfbfbf" stroke="#bfbfbf" points="251.5,-706 251.5,-706 387.5,-706 387.5,-706 251.5,-706"/>
<polygon fill="#bfbfbf" stroke="#bfbfbf" points="251.5,-690 251.5,-690 277.5,-690 277.5,-690 251.5,-690"/>
<polygon fill="#bfbfbf" stroke="#bfbfbf" points="277.5,-690 277.5,-690 387.5,-690 387.5,-690 277.5,-690"/>
<polygon fill="none" stroke="#bfbfbf" points="251.5,-672 251.5,-724 387.5,-724 387.5,-672 251.5,-672"/>
</a>
</g>
</g>
<!-- Node4&#45;&gt;Node1 -->
<g id="edge3_Node000001_Node000004" class="edge">
<title>Node4&#45;&gt;Node1</title>
<g id="a_edge3_Node000001_Node000004"><a xlink:title=" ">
<path fill="none" stroke="#63b8ff" d="M302.81,-661.81C284.2,-622.55 253.13,-557.03 226,-499.81"/>
<polygon fill="none" stroke="#63b8ff" points="299.62,-663.25 307.07,-670.79 305.95,-660.25 299.62,-663.25"/>
</a>
</g>
</g>
</g>
</svg>
