<?xml version="1.0" encoding="UTF-8" standalone="no"?>
<!DOCTYPE svg PUBLIC "-//W3C//DTD SVG 1.1//EN"
 "http://www.w3.org/Graphics/SVG/1.1/DTD/svg11.dtd">
<!-- Generated by graphviz version 9.0.0 (20230911.1827)
 -->
<!-- Title: CompoundCondition Pages: 1 -->
<svg width="119pt" height="252pt"
 viewBox="0.00 0.00 119.00 252.00" xmlns="http://www.w3.org/2000/svg" xmlns:xlink="http://www.w3.org/1999/xlink">

<svg id="main" version="1.1" xmlns="http://www.w3.org/2000/svg" xmlns:xlink="http://www.w3.org/1999/xlink" xml:space="preserve">

<style type="text/css"><![CDATA[
.node, .edge {opacity: 0.7;}
.node.selected, .edge.selected {opacity: 1;}
.edge:hover path { stroke: red; }
.edge:hover polygon { stroke: red; fill: red; }
]]></style>
<script type="application/ecmascript" xlink:href="svg.min.js"/>
<svg id="graph" class="graph">
<g id="graph0" class="graph" transform="scale(1 1) rotate(0) translate(4 248)">
<title>CompoundCondition</title>
<!-- Node1 -->
<g id="Node000001" class="node">
<title>Node1</title>
<g id="a_Node000001"><a xlink:title="Used to combine multiple FSM conditions into a single, named condition.">
<polygon fill="#999999" stroke="none" points="111,-68 0,-68 0,0 111,0 111,-68"/>
<text text-anchor="start" x="12" y="-54.5" font-family="Helvetica,sans-Serif" font-size="10.00">CompoundCondition</text>
<text text-anchor="start" x="54" y="-38.5" font-family="Helvetica,sans-Serif" font-size="10.00"> </text>
<text text-anchor="start" x="4" y="-22.5" font-family="Helvetica,sans-Serif" font-size="10.00">+</text>
<text text-anchor="start" x="14" y="-22.5" font-family="Helvetica,sans-Serif" font-size="10.00">CompoundCondition()</text>
<text text-anchor="start" x="4" y="-6.5" font-family="Helvetica,sans-Serif" font-size="10.00">+</text>
<text text-anchor="start" x="14" y="-6.5" font-family="Helvetica,sans-Serif" font-size="10.00">CompoundCondition()</text>
<polygon fill="#666666" stroke="#666666" points="0,-50 0,-50 111,-50 111,-50 0,-50"/>
<polygon fill="#666666" stroke="#666666" points="0,-34 0,-34 111,-34 111,-34 0,-34"/>
<polygon fill="none" stroke="#666666" points="0,0 0,-68 111,-68 111,0 0,0"/>
</a>
</g>
</g>
<!-- Node2 -->
<g id="Node000002" class="node">
<title>Node2</title>
<g id="a_Node000002"><a xlink:href="interface_code_smile_1_1_statemachine_1_1_i_condition.html" target="_top" xlink:title="Marks a class as a FSM Condition.">
<polygon fill="white" stroke="none" points="81.5,-156 29.5,-156 29.5,-104 81.5,-104 81.5,-156"/>
<text text-anchor="start" x="34.12" y="-142.5" font-family="Helvetica,sans-Serif" font-size="10.00">ICondition</text>
<text text-anchor="start" x="54" y="-126.5" font-family="Helvetica,sans-Serif" font-size="10.00"> </text>
<text text-anchor="start" x="54" y="-110.5" font-family="Helvetica,sans-Serif" font-size="10.00"> </text>
<polygon fill="#666666" stroke="#666666" points="29.5,-138 29.5,-138 81.5,-138 81.5,-138 29.5,-138"/>
<polygon fill="#666666" stroke="#666666" points="29.5,-122 29.5,-122 81.5,-122 81.5,-122 29.5,-122"/>
<polygon fill="none" stroke="#666666" points="29.5,-104 29.5,-156 81.5,-156 81.5,-104 29.5,-104"/>
</a>
</g>
</g>
<!-- Node2&#45;&gt;Node1 -->
<g id="edge1_Node000001_Node000002" class="edge">
<title>Node2&#45;&gt;Node1</title>
<g id="a_edge1_Node000001_Node000002"><a xlink:title=" ">
<path fill="none" stroke="#63b8ff" d="M55.5,-92.97C55.5,-84.65 55.5,-75.84 55.5,-67.67"/>
<polygon fill="none" stroke="#63b8ff" points="52,-92.79 55.5,-102.79 59,-92.79 52,-92.79"/>
</a>
</g>
</g>
<!-- Node3 -->
<g id="Node000003" class="node">
<title>Node3</title>
<g id="a_Node000003"><a xlink:href="interface_code_smile_1_1_statemachine_1_1_i_statemachine_events.html" target="_top" xlink:title="Event methods that the Statemachine calls at specific times.">
<polygon fill="white" stroke="none" points="106,-244 5,-244 5,-192 106,-192 106,-244"/>
<text text-anchor="start" x="9.75" y="-230.5" font-family="Helvetica,sans-Serif" font-size="10.00">IStatemachineEvents</text>
<text text-anchor="start" x="54" y="-214.5" font-family="Helvetica,sans-Serif" font-size="10.00"> </text>
<text text-anchor="start" x="54" y="-198.5" font-family="Helvetica,sans-Serif" font-size="10.00"> </text>
<polygon fill="#666666" stroke="#666666" points="5,-226 5,-226 106,-226 106,-226 5,-226"/>
<polygon fill="#666666" stroke="#666666" points="5,-210 5,-210 106,-210 106,-210 5,-210"/>
<polygon fill="none" stroke="#666666" points="5,-192 5,-244 106,-244 106,-192 5,-192"/>
</a>
</g>
</g>
<!-- Node3&#45;&gt;Node2 -->
<g id="edge2_Node000002_Node000003" class="edge">
<title>Node3&#45;&gt;Node2</title>
<g id="a_edge2_Node000002_Node000003"><a xlink:title=" ">
<path fill="none" stroke="#63b8ff" d="M55.5,-180.66C55.5,-172.29 55.5,-163.57 55.5,-155.82"/>
<polygon fill="none" stroke="#63b8ff" points="52,-180.61 55.5,-190.61 59,-180.61 52,-180.61"/>
</a>
</g>
</g>
</g>
</svg>
</svg>

<style type='text/css'>
<![CDATA[
[data-mouse-over-selected='false'] { opacity: 0.7; }
[data-mouse-over-selected='true']  { opacity: 1.0; }
]]>
</style>
<script type="application/ecmascript"><![CDATA[
document.addEventListener('DOMContentLoaded', (event) => {
  highlightEdges();
  highlightAdjacentNodes();
});
]]></script>
</svg>
