<?xml version="1.0" encoding="UTF-8" standalone="no"?>
<!DOCTYPE svg PUBLIC "-//W3C//DTD SVG 1.1//EN"
 "http://www.w3.org/Graphics/SVG/1.1/DTD/svg11.dtd">
<!-- Generated by graphviz version 9.0.0 (20230911.1827)
 -->
<!-- Title: PrefabsListBase Pages: 1 -->
<svg width="358pt" height="296pt"
 viewBox="0.00 0.00 357.50 296.00" xmlns="http://www.w3.org/2000/svg" xmlns:xlink="http://www.w3.org/1999/xlink">

<svg id="main" version="1.1" xmlns="http://www.w3.org/2000/svg" xmlns:xlink="http://www.w3.org/1999/xlink" xml:space="preserve">

<style type="text/css"><![CDATA[
.node, .edge {opacity: 0.7;}
.node.selected, .edge.selected {opacity: 1;}
.edge:hover path { stroke: red; }
.edge:hover polygon { stroke: red; fill: red; }
]]></style>
<script type="application/ecmascript" xlink:href="svg.min.js"/>
<svg id="graph" class="graph">
<g id="graph0" class="graph" transform="scale(1 1) rotate(0) translate(4 292)">
<title>PrefabsListBase</title>
<!-- Node1 -->
<g id="Node000001" class="node">
<title>Node1</title>
<g id="a_Node000001"><a xlink:title=" ">
<polygon fill="#999999" stroke="none" points="245.5,-200 89.5,-200 89.5,-88 245.5,-88 245.5,-200"/>
<text text-anchor="start" x="131.88" y="-186.5" font-family="Helvetica,sans-Serif" font-size="10.00">PrefabsListBase</text>
<text text-anchor="start" x="93.5" y="-170.5" font-family="Helvetica,sans-Serif" font-size="10.00">+</text>
<text text-anchor="start" x="103.5" y="-170.5" font-family="Helvetica,sans-Serif" font-size="10.00">Count</text>
<text text-anchor="start" x="93.5" y="-154.5" font-family="Helvetica,sans-Serif" font-size="10.00">+</text>
<text text-anchor="start" x="103.5" y="-154.5" font-family="Helvetica,sans-Serif" font-size="10.00">this[Int32 index]</text>
<text text-anchor="start" x="93.88" y="-138.5" font-family="Helvetica,sans-Serif" font-size="10.00">#</text>
<text text-anchor="start" x="103.5" y="-138.5" font-family="Helvetica,sans-Serif" font-size="10.00">m_Prefabs</text>
<text text-anchor="start" x="93.5" y="-122.5" font-family="Helvetica,sans-Serif" font-size="10.00">+</text>
<text text-anchor="start" x="103.5" y="-122.5" font-family="Helvetica,sans-Serif" font-size="10.00">GetEnumerator()</text>
<text text-anchor="start" x="93.5" y="-106.5" font-family="Helvetica,sans-Serif" font-size="10.00">+</text>
<text text-anchor="start" x="103.5" y="-106.5" font-family="Helvetica,sans-Serif" font-size="10.00">ValidatePrefabsHaveComponent</text>
<text text-anchor="start" x="103.5" y="-94.5" font-family="Helvetica,sans-Serif" font-size="10.00">&lt; T &gt;()</text>
<polygon fill="#666666" stroke="#666666" points="89.5,-182 89.5,-182 245.5,-182 245.5,-182 89.5,-182"/>
<polygon fill="#666666" stroke="#666666" points="89.5,-134 89.5,-134 101.5,-134 101.5,-134 89.5,-134"/>
<polygon fill="#666666" stroke="#666666" points="101.5,-134 101.5,-134 245.5,-134 245.5,-134 101.5,-134"/>
<polygon fill="none" stroke="#666666" points="89.5,-88 89.5,-200 245.5,-200 245.5,-88 89.5,-88"/>
</a>
</g>
</g>
<!-- Node4 -->
<g id="Node000004" class="node">
<title>Node4</title>
<g id="a_Node000004"><a xlink:href="class_code_smile_1_1_multi_pal_1_1_settings_1_1_player_avatar_prefabs.html" target="_top" xlink:title=" ">
<polygon fill="white" stroke="none" points="97,-52 0,-52 0,0 97,0 97,-52"/>
<text text-anchor="start" x="4.62" y="-38.5" font-family="Helvetica,sans-Serif" font-size="10.00">PlayerAvatarPrefabs</text>
<text text-anchor="start" x="47" y="-22.5" font-family="Helvetica,sans-Serif" font-size="10.00"> </text>
<text text-anchor="start" x="47" y="-6.5" font-family="Helvetica,sans-Serif" font-size="10.00"> </text>
<polygon fill="#bfbfbf" stroke="#bfbfbf" points="0,-34 0,-34 97,-34 97,-34 0,-34"/>
<polygon fill="#bfbfbf" stroke="#bfbfbf" points="0,-18 0,-18 97,-18 97,-18 0,-18"/>
<polygon fill="none" stroke="#bfbfbf" points="0,0 0,-52 97,-52 97,0 0,0"/>
</a>
</g>
</g>
<!-- Node1&#45;&gt;Node4 -->
<g id="edge3_Node000001_Node000004" class="edge">
<title>Node1&#45;&gt;Node4</title>
<g id="a_edge3_Node000001_Node000004"><a xlink:title=" ">
<path fill="none" stroke="#63b8ff" d="M102.92,-80.05C92.7,-70.09 82.69,-60.32 74.09,-51.94"/>
<polygon fill="none" stroke="#63b8ff" points="100.45,-82.53 110.05,-87 105.33,-77.51 100.45,-82.53"/>
</a>
</g>
</g>
<!-- Node5 -->
<g id="Node000005" class="node">
<title>Node5</title>
<g id="a_Node000005"><a xlink:href="class_code_smile_1_1_multi_pal_1_1_settings_1_1_player_camera_prefabs.html" target="_top" xlink:title=" ">
<polygon fill="white" stroke="none" points="219.5,-52 115.5,-52 115.5,0 219.5,0 219.5,-52"/>
<text text-anchor="start" x="120.25" y="-38.5" font-family="Helvetica,sans-Serif" font-size="10.00">PlayerCameraPrefabs</text>
<text text-anchor="start" x="166" y="-22.5" font-family="Helvetica,sans-Serif" font-size="10.00"> </text>
<text text-anchor="start" x="166" y="-6.5" font-family="Helvetica,sans-Serif" font-size="10.00"> </text>
<polygon fill="#bfbfbf" stroke="#bfbfbf" points="115.5,-34 115.5,-34 219.5,-34 219.5,-34 115.5,-34"/>
<polygon fill="#bfbfbf" stroke="#bfbfbf" points="115.5,-18 115.5,-18 219.5,-18 219.5,-18 115.5,-18"/>
<polygon fill="none" stroke="#bfbfbf" points="115.5,0 115.5,-52 219.5,-52 219.5,0 115.5,0"/>
</a>
</g>
</g>
<!-- Node1&#45;&gt;Node5 -->
<g id="edge4_Node000001_Node000005" class="edge">
<title>Node1&#45;&gt;Node5</title>
<g id="a_edge4_Node000001_Node000005"><a xlink:title=" ">
<path fill="none" stroke="#63b8ff" d="M167.5,-76.8C167.5,-67.98 167.5,-59.41 167.5,-51.94"/>
<polygon fill="none" stroke="#63b8ff" points="164,-76.54 167.5,-86.54 171,-76.54 164,-76.54"/>
</a>
</g>
</g>
<!-- Node6 -->
<g id="Node000006" class="node">
<title>Node6</title>
<g id="a_Node000006"><a xlink:href="class_code_smile_1_1_multi_pal_1_1_settings_1_1_player_controller_prefabs.html" target="_top" xlink:title=" ">
<polygon fill="white" stroke="none" points="349.5,-52 237.5,-52 237.5,0 349.5,0 349.5,-52"/>
<text text-anchor="start" x="242.5" y="-38.5" font-family="Helvetica,sans-Serif" font-size="10.00">PlayerControllerPrefabs</text>
<text text-anchor="start" x="292" y="-22.5" font-family="Helvetica,sans-Serif" font-size="10.00"> </text>
<text text-anchor="start" x="292" y="-6.5" font-family="Helvetica,sans-Serif" font-size="10.00"> </text>
<polygon fill="#bfbfbf" stroke="#bfbfbf" points="237.5,-34 237.5,-34 349.5,-34 349.5,-34 237.5,-34"/>
<polygon fill="#bfbfbf" stroke="#bfbfbf" points="237.5,-18 237.5,-18 349.5,-18 349.5,-18 237.5,-18"/>
<polygon fill="none" stroke="#bfbfbf" points="237.5,0 237.5,-52 349.5,-52 349.5,0 237.5,0"/>
</a>
</g>
</g>
<!-- Node1&#45;&gt;Node6 -->
<g id="edge5_Node000001_Node000006" class="edge">
<title>Node1&#45;&gt;Node6</title>
<g id="a_edge5_Node000001_Node000006"><a xlink:title=" ">
<path fill="none" stroke="#63b8ff" d="M235.56,-80.35C246.49,-70.28 257.21,-60.41 266.41,-51.94"/>
<polygon fill="none" stroke="#63b8ff" points="233.28,-77.68 228.29,-87.03 238.02,-82.83 233.28,-77.68"/>
</a>
</g>
</g>
<!-- Node2 -->
<g id="Node000002" class="node">
<title>Node2</title>
<g id="a_Node000002"><a xlink:title=" ">
<polygon fill="white" stroke="none" points="163.5,-288 81.5,-288 81.5,-236 163.5,-236 163.5,-288"/>
<text text-anchor="start" x="86.5" y="-274.5" font-family="Helvetica,sans-Serif" font-size="10.00">ScriptableObject</text>
<text text-anchor="start" x="121" y="-258.5" font-family="Helvetica,sans-Serif" font-size="10.00"> </text>
<text text-anchor="start" x="121" y="-242.5" font-family="Helvetica,sans-Serif" font-size="10.00"> </text>
<polygon fill="#bfbfbf" stroke="#bfbfbf" points="81.5,-270 81.5,-270 163.5,-270 163.5,-270 81.5,-270"/>
<polygon fill="#bfbfbf" stroke="#bfbfbf" points="81.5,-254 81.5,-254 163.5,-254 163.5,-254 81.5,-254"/>
<polygon fill="none" stroke="#bfbfbf" points="81.5,-236 81.5,-288 163.5,-288 163.5,-236 81.5,-236"/>
</a>
</g>
</g>
<!-- Node2&#45;&gt;Node1 -->
<g id="edge1_Node000001_Node000002" class="edge">
<title>Node2&#45;&gt;Node1</title>
<g id="a_edge1_Node000001_Node000002"><a xlink:title=" ">
<path fill="none" stroke="#63b8ff" d="M136.25,-225.55C139.4,-217.43 142.83,-208.61 146.21,-199.88"/>
<polygon fill="none" stroke="#63b8ff" points="133.05,-224.12 132.7,-234.7 139.58,-226.65 133.05,-224.12"/>
</a>
</g>
</g>
<!-- Node3 -->
<g id="Node000003" class="node">
<title>Node3</title>
<g id="a_Node000003"><a xlink:title=" ">
<polygon fill="white" stroke="none" points="245.5,-288 181.5,-288 181.5,-236 245.5,-236 245.5,-288"/>
<text text-anchor="start" x="186.5" y="-274.5" font-family="Helvetica,sans-Serif" font-size="10.00">IEnumerable</text>
<text text-anchor="start" x="212" y="-258.5" font-family="Helvetica,sans-Serif" font-size="10.00"> </text>
<text text-anchor="start" x="212" y="-242.5" font-family="Helvetica,sans-Serif" font-size="10.00"> </text>
<polygon fill="#bfbfbf" stroke="#bfbfbf" points="181.5,-270 181.5,-270 245.5,-270 245.5,-270 181.5,-270"/>
<polygon fill="#bfbfbf" stroke="#bfbfbf" points="181.5,-254 181.5,-254 245.5,-254 245.5,-254 181.5,-254"/>
<polygon fill="none" stroke="#bfbfbf" points="181.5,-236 181.5,-288 245.5,-288 245.5,-236 181.5,-236"/>
</a>
</g>
</g>
<!-- Node3&#45;&gt;Node1 -->
<g id="edge2_Node000001_Node000003" class="edge">
<title>Node3&#45;&gt;Node1</title>
<g id="a_edge2_Node000001_Node000003"><a xlink:title=" ">
<path fill="none" stroke="#63b8ff" d="M199.44,-225.55C196.22,-217.43 192.72,-208.61 189.26,-199.88"/>
<polygon fill="none" stroke="#63b8ff" points="196.13,-226.7 203.07,-234.71 202.64,-224.12 196.13,-226.7"/>
</a>
</g>
</g>
</g>
</svg>
</svg>

<style type='text/css'>
<![CDATA[
[data-mouse-over-selected='false'] { opacity: 0.7; }
[data-mouse-over-selected='true']  { opacity: 1.0; }
]]>
</style>
<script type="application/ecmascript"><![CDATA[
document.addEventListener('DOMContentLoaded', (event) => {
  highlightEdges();
  highlightAdjacentNodes();
});
]]></script>
</svg>
