<?xml version="1.0" encoding="UTF-8" standalone="no"?>
<!DOCTYPE svg PUBLIC "-//W3C//DTD SVG 1.1//EN"
 "http://www.w3.org/Graphics/SVG/1.1/DTD/svg11.dtd">
<!-- Generated by graphviz version 9.0.0 (20230911.1827)
 -->
<!-- Title: Update Pages: 1 -->
<svg width="244pt" height="90pt"
 viewBox="0.00 0.00 244.00 90.00" xmlns="http://www.w3.org/2000/svg" xmlns:xlink="http://www.w3.org/1999/xlink">
<g id="graph0" class="graph" transform="scale(1 1) rotate(0) translate(4 86)">
<title>Update</title>
<!-- Node1 -->
<g id="Node000001" class="node">
<title>Node1</title>
<g id="a_Node000001"><a xlink:title="Evaluates the statemachine&#39;s states and their transitions.">
<polygon fill="#999999" stroke="#666666" points="46.75,-51 0,-51 0,-31 46.75,-31 46.75,-51"/>
<text text-anchor="middle" x="23.38" y="-37.5" font-family="Helvetica,sans-Serif" font-size="10.00">Update</text>
</a>
</g>
</g>
<!-- Node2 -->
<g id="Node000002" class="node">
<title>Node2</title>
<g id="a_Node000002"><a xlink:href="class_code_smile_1_1_statemachine_1_1_f_s_m_1_1_state_a69d5b2d251d4f8f5663ff2adc397e1e9.html#a69d5b2d251d4f8f5663ff2adc397e1e9" target="_top" xlink:title="Is true if the State has no conditions. It is a so&#45;called final state from which there is no return....">
<polygon fill="white" stroke="#666666" points="236,-82 82.75,-82 82.75,-50 236,-50 236,-82"/>
<text text-anchor="start" x="90.75" y="-68.5" font-family="Helvetica,sans-Serif" font-size="10.00">CodeSmile.Statemachine.FSM.</text>
<text text-anchor="middle" x="159.38" y="-56.5" font-family="Helvetica,sans-Serif" font-size="10.00">State.IsFinalState</text>
</a>
</g>
</g>
<!-- Node1&#45;&gt;Node2 -->
<g id="edge1_Node000001_Node000002" class="edge">
<title>Node1&#45;&gt;Node2</title>
<g id="a_edge1_Node000001_Node000002"><a xlink:title=" ">
<path fill="none" stroke="#63b8ff" d="M47.11,-45.24C54.14,-46.55 62.36,-48.09 71.08,-49.71"/>
<polygon fill="#63b8ff" stroke="#63b8ff" points="70.38,-53.14 80.85,-51.54 71.67,-46.26 70.38,-53.14"/>
</a>
</g>
</g>
<!-- Node3 -->
<g id="Node000003" class="node">
<title>Node3</title>
<g id="a_Node000003"><a xlink:href="class_code_smile_1_1_statemachine_1_1_f_s_m_1_1_state_a85f2deb1cf8b0d00c326783a978137d7.html#a85f2deb1cf8b0d00c326783a978137d7" target="_top" xlink:title="Updating the state will update all its transitions.">
<polygon fill="white" stroke="#666666" points="236,-32 82.75,-32 82.75,0 236,0 236,-32"/>
<text text-anchor="start" x="90.75" y="-18.5" font-family="Helvetica,sans-Serif" font-size="10.00">CodeSmile.Statemachine.FSM.</text>
<text text-anchor="middle" x="159.38" y="-6.5" font-family="Helvetica,sans-Serif" font-size="10.00">State.Update</text>
</a>
</g>
</g>
<!-- Node1&#45;&gt;Node3 -->
<g id="edge2_Node000001_Node000003" class="edge">
<title>Node1&#45;&gt;Node3</title>
<g id="a_edge2_Node000001_Node000003"><a xlink:title=" ">
<path fill="none" stroke="#63b8ff" d="M47.11,-36.76C54.14,-35.45 62.36,-33.91 71.08,-32.29"/>
<polygon fill="#63b8ff" stroke="#63b8ff" points="71.67,-35.74 80.85,-30.46 70.38,-28.86 71.67,-35.74"/>
</a>
</g>
</g>
</g>
</svg>
