<?xml version="1.0" encoding="UTF-8" standalone="no"?>
<!DOCTYPE svg PUBLIC "-//W3C//DTD SVG 1.1//EN"
 "http://www.w3.org/Graphics/SVG/1.1/DTD/svg11.dtd">
<!-- Generated by graphviz version 9.0.0 (20230911.1827)
 -->
<!-- Title: GameStateBase Pages: 1 -->
<svg width="310pt" height="348pt"
 viewBox="0.00 0.00 309.50 348.00" xmlns="http://www.w3.org/2000/svg" xmlns:xlink="http://www.w3.org/1999/xlink">
<g id="graph0" class="graph" transform="scale(1 1) rotate(0) translate(4 344)">
<title>GameStateBase</title>
<!-- Node1 -->
<g id="Node000001" class="node">
<title>Node1</title>
<g id="a_Node000001"><a xlink:title=" ">
<polygon fill="#999999" stroke="none" points="211,-252 104,-252 104,-88 211,-88 211,-252"/>
<text text-anchor="start" x="121.5" y="-238.5" font-family="Helvetica,sans-Serif" font-size="10.00">GameStateBase</text>
<text text-anchor="start" x="108" y="-222.5" font-family="Helvetica,sans-Serif" font-size="10.00">+</text>
<text text-anchor="start" x="118" y="-222.5" font-family="Helvetica,sans-Serif" font-size="10.00">MenuRoot</text>
<text text-anchor="start" x="108" y="-206.5" font-family="Helvetica,sans-Serif" font-size="10.00">+</text>
<text text-anchor="start" x="118" y="-206.5" font-family="Helvetica,sans-Serif" font-size="10.00">ClientSceneRefs</text>
<text text-anchor="start" x="108" y="-190.5" font-family="Helvetica,sans-Serif" font-size="10.00">+</text>
<text text-anchor="start" x="118" y="-190.5" font-family="Helvetica,sans-Serif" font-size="10.00">ClientScenes</text>
<text text-anchor="start" x="108" y="-174.5" font-family="Helvetica,sans-Serif" font-size="10.00">+</text>
<text text-anchor="start" x="118" y="-174.5" font-family="Helvetica,sans-Serif" font-size="10.00">NextState</text>
<text text-anchor="start" x="108" y="-158.5" font-family="Helvetica,sans-Serif" font-size="10.00">+</text>
<text text-anchor="start" x="118" y="-158.5" font-family="Helvetica,sans-Serif" font-size="10.00">NextStateCondition</text>
<text text-anchor="start" x="108" y="-142.5" font-family="Helvetica,sans-Serif" font-size="10.00">+</text>
<text text-anchor="start" x="118" y="-142.5" font-family="Helvetica,sans-Serif" font-size="10.00">ServerSceneRefs</text>
<text text-anchor="start" x="108" y="-126.5" font-family="Helvetica,sans-Serif" font-size="10.00">+</text>
<text text-anchor="start" x="118" y="-126.5" font-family="Helvetica,sans-Serif" font-size="10.00">ServerScenes</text>
<text text-anchor="start" x="108" y="-110.5" font-family="Helvetica,sans-Serif" font-size="10.00">+</text>
<text text-anchor="start" x="118" y="-110.5" font-family="Helvetica,sans-Serif" font-size="10.00">ConditionsSatisfied()</text>
<text text-anchor="start" x="108.38" y="-94.5" font-family="Helvetica,sans-Serif" font-size="10.00">#</text>
<text text-anchor="start" x="118" y="-94.5" font-family="Helvetica,sans-Serif" font-size="10.00">OnValidate()</text>
<polygon fill="#666666" stroke="#666666" points="104,-234 104,-234 211,-234 211,-234 104,-234"/>
<polygon fill="#666666" stroke="#666666" points="104,-122 104,-122 116,-122 116,-122 104,-122"/>
<polygon fill="#666666" stroke="#666666" points="116,-122 116,-122 211,-122 211,-122 116,-122"/>
<polygon fill="none" stroke="#666666" points="104,-88 104,-252 211,-252 211,-88 104,-88"/>
</a>
</g>
</g>
<!-- Node3 -->
<g id="Node000003" class="node">
<title>Node3</title>
<g id="a_Node000003"><a xlink:href="class_code_smile_1_1_multi_pal_1_1_settings_1_1_game_states_1_1_launch_screen_state.html" target="_top" xlink:title=" ">
<polygon fill="white" stroke="none" points="95,-52 0,-52 0,0 95,0 95,-52"/>
<text text-anchor="start" x="4.75" y="-38.5" font-family="Helvetica,sans-Serif" font-size="10.00">LaunchScreenState</text>
<text text-anchor="start" x="46" y="-22.5" font-family="Helvetica,sans-Serif" font-size="10.00"> </text>
<text text-anchor="start" x="46" y="-6.5" font-family="Helvetica,sans-Serif" font-size="10.00"> </text>
<polygon fill="#bfbfbf" stroke="#bfbfbf" points="0,-34 0,-34 95,-34 95,-34 0,-34"/>
<polygon fill="#bfbfbf" stroke="#bfbfbf" points="0,-18 0,-18 95,-18 95,-18 0,-18"/>
<polygon fill="none" stroke="#bfbfbf" points="0,0 0,-52 95,-52 95,0 0,0"/>
</a>
</g>
</g>
<!-- Node1&#45;&gt;Node3 -->
<g id="edge2_Node000001_Node000003" class="edge">
<title>Node1&#45;&gt;Node3</title>
<g id="a_edge2_Node000001_Node000003"><a xlink:title=" ">
<path fill="none" stroke="#63b8ff" d="M97.23,-91.2C86.21,-76.97 75.47,-63.11 66.82,-51.94"/>
<polygon fill="none" stroke="#63b8ff" points="94.29,-93.12 103.18,-98.88 99.83,-88.83 94.29,-93.12"/>
</a>
</g>
</g>
<!-- Node4 -->
<g id="Node000004" class="node">
<title>Node4</title>
<g id="a_Node000004"><a xlink:href="class_code_smile_1_1_multi_pal_1_1_settings_1_1_game_states_1_1_menu_screen_state.html" target="_top" xlink:title=" ">
<polygon fill="white" stroke="none" points="201.5,-52 113.5,-52 113.5,0 201.5,0 201.5,-52"/>
<text text-anchor="start" x="118.5" y="-38.5" font-family="Helvetica,sans-Serif" font-size="10.00">MenuScreenState</text>
<text text-anchor="start" x="156" y="-22.5" font-family="Helvetica,sans-Serif" font-size="10.00"> </text>
<text text-anchor="start" x="156" y="-6.5" font-family="Helvetica,sans-Serif" font-size="10.00"> </text>
<polygon fill="#bfbfbf" stroke="#bfbfbf" points="113.5,-34 113.5,-34 201.5,-34 201.5,-34 113.5,-34"/>
<polygon fill="#bfbfbf" stroke="#bfbfbf" points="113.5,-18 113.5,-18 201.5,-18 201.5,-18 113.5,-18"/>
<polygon fill="none" stroke="#bfbfbf" points="113.5,0 113.5,-52 201.5,-52 201.5,0 113.5,0"/>
</a>
</g>
</g>
<!-- Node1&#45;&gt;Node4 -->
<g id="edge3_Node000001_Node000004" class="edge">
<title>Node1&#45;&gt;Node4</title>
<g id="a_edge3_Node000001_Node000004"><a xlink:title=" ">
<path fill="none" stroke="#63b8ff" d="M157.5,-76.76C157.5,-67.67 157.5,-59.1 157.5,-51.71"/>
<polygon fill="none" stroke="#63b8ff" points="154,-76.53 157.5,-86.53 161,-76.53 154,-76.53"/>
</a>
</g>
</g>
<!-- Node5 -->
<g id="Node000005" class="node">
<title>Node5</title>
<g id="a_Node000005"><a xlink:href="class_code_smile_1_1_multi_pal_1_1_settings_1_1_game_states_1_1_title_screen_state.html" target="_top" xlink:title=" ">
<polygon fill="white" stroke="none" points="301.5,-52 219.5,-52 219.5,0 301.5,0 301.5,-52"/>
<text text-anchor="start" x="224.5" y="-38.5" font-family="Helvetica,sans-Serif" font-size="10.00">TitleScreenState</text>
<text text-anchor="start" x="259" y="-22.5" font-family="Helvetica,sans-Serif" font-size="10.00"> </text>
<text text-anchor="start" x="259" y="-6.5" font-family="Helvetica,sans-Serif" font-size="10.00"> </text>
<polygon fill="#bfbfbf" stroke="#bfbfbf" points="219.5,-34 219.5,-34 301.5,-34 301.5,-34 219.5,-34"/>
<polygon fill="#bfbfbf" stroke="#bfbfbf" points="219.5,-18 219.5,-18 301.5,-18 301.5,-18 219.5,-18"/>
<polygon fill="none" stroke="#bfbfbf" points="219.5,0 219.5,-52 301.5,-52 301.5,0 219.5,0"/>
</a>
</g>
</g>
<!-- Node1&#45;&gt;Node5 -->
<g id="edge4_Node000001_Node000005" class="edge">
<title>Node1&#45;&gt;Node5</title>
<g id="a_edge4_Node000001_Node000005"><a xlink:title=" ">
<path fill="none" stroke="#63b8ff" d="M217.45,-86.35C226.51,-73.86 235.21,-61.86 242.39,-51.97"/>
<polygon fill="none" stroke="#63b8ff" points="214.74,-84.13 211.7,-94.28 220.4,-88.24 214.74,-84.13"/>
</a>
</g>
</g>
<!-- Node2 -->
<g id="Node000002" class="node">
<title>Node2</title>
<g id="a_Node000002"><a xlink:title=" ">
<polygon fill="white" stroke="none" points="198.5,-340 116.5,-340 116.5,-288 198.5,-288 198.5,-340"/>
<text text-anchor="start" x="121.5" y="-326.5" font-family="Helvetica,sans-Serif" font-size="10.00">ScriptableObject</text>
<text text-anchor="start" x="156" y="-310.5" font-family="Helvetica,sans-Serif" font-size="10.00"> </text>
<text text-anchor="start" x="156" y="-294.5" font-family="Helvetica,sans-Serif" font-size="10.00"> </text>
<polygon fill="#bfbfbf" stroke="#bfbfbf" points="116.5,-322 116.5,-322 198.5,-322 198.5,-322 116.5,-322"/>
<polygon fill="#bfbfbf" stroke="#bfbfbf" points="116.5,-306 116.5,-306 198.5,-306 198.5,-306 116.5,-306"/>
<polygon fill="none" stroke="#bfbfbf" points="116.5,-288 116.5,-340 198.5,-340 198.5,-288 116.5,-288"/>
</a>
</g>
</g>
<!-- Node2&#45;&gt;Node1 -->
<g id="edge1_Node000001_Node000002" class="edge">
<title>Node2&#45;&gt;Node1</title>
<g id="a_edge1_Node000001_Node000002"><a xlink:title=" ">
<path fill="none" stroke="#63b8ff" d="M157.5,-276.77C157.5,-269.03 157.5,-260.55 157.5,-251.87"/>
<polygon fill="none" stroke="#63b8ff" points="154,-276.75 157.5,-286.75 161,-276.75 154,-276.75"/>
</a>
</g>
</g>
</g>
</svg>
