<?xml version="1.0" encoding="UTF-8" standalone="no"?>
<!DOCTYPE svg PUBLIC "-//W3C//DTD SVG 1.1//EN"
 "http://www.w3.org/Graphics/SVG/1.1/DTD/svg11.dtd">
<!-- Generated by graphviz version 9.0.0 (20230911.1827)
 -->
<!-- Title: RelayClearAllocationData Pages: 1 -->
<svg width="142pt" height="316pt"
 viewBox="0.00 0.00 142.00 316.00" xmlns="http://www.w3.org/2000/svg" xmlns:xlink="http://www.w3.org/1999/xlink">
<g id="graph0" class="graph" transform="scale(1 1) rotate(0) translate(4 312)">
<title>RelayClearAllocationData</title>
<!-- Node1 -->
<g id="Node000001" class="node">
<title>Node1</title>
<g id="a_Node000001"><a xlink:title=" ">
<polygon fill="#999999" stroke="none" points="134,-68 0,-68 0,0 134,0 134,-68"/>
<text text-anchor="start" x="11.88" y="-54.5" font-family="Helvetica,sans-Serif" font-size="10.00">RelayClearAllocationData</text>
<text text-anchor="start" x="65.5" y="-38.5" font-family="Helvetica,sans-Serif" font-size="10.00"> </text>
<text text-anchor="start" x="4" y="-22.5" font-family="Helvetica,sans-Serif" font-size="10.00">+</text>
<text text-anchor="start" x="14" y="-22.5" font-family="Helvetica,sans-Serif" font-size="10.00">RelayClearAllocationData()</text>
<text text-anchor="start" x="4" y="-6.5" font-family="Helvetica,sans-Serif" font-size="10.00">+</text>
<text text-anchor="start" x="14" y="-6.5" font-family="Helvetica,sans-Serif" font-size="10.00">Execute()</text>
<polygon fill="#666666" stroke="#666666" points="0,-50 0,-50 134,-50 134,-50 0,-50"/>
<polygon fill="#666666" stroke="#666666" points="0,-34 0,-34 134,-34 134,-34 0,-34"/>
<polygon fill="none" stroke="#666666" points="0,0 0,-68 134,-68 134,0 0,0"/>
</a>
</g>
</g>
<!-- Node2 -->
<g id="Node000002" class="node">
<title>Node2</title>
<g id="a_Node000002"><a xlink:href="interface_code_smile_1_1_statemachine_1_1_i_action.html" target="_top" xlink:title=" ">
<polygon fill="white" stroke="none" points="110.5,-172 23.5,-172 23.5,-104 110.5,-104 110.5,-172"/>
<text text-anchor="start" x="52" y="-158.5" font-family="Helvetica,sans-Serif" font-size="10.00">IAction</text>
<text text-anchor="start" x="65.5" y="-142.5" font-family="Helvetica,sans-Serif" font-size="10.00"> </text>
<text text-anchor="start" x="27.5" y="-126.5" font-family="Helvetica,sans-Serif" font-size="10.00">+</text>
<text text-anchor="start" x="37.5" y="-126.5" font-family="Helvetica,sans-Serif" font-size="10.00">Execute()</text>
<text text-anchor="start" x="27.5" y="-110.5" font-family="Helvetica,sans-Serif" font-size="10.00">+</text>
<text text-anchor="start" x="37.5" y="-110.5" font-family="Helvetica,sans-Serif" font-size="10.00">ToDebugString()</text>
<polygon fill="#bfbfbf" stroke="#bfbfbf" points="23.5,-154 23.5,-154 110.5,-154 110.5,-154 23.5,-154"/>
<polygon fill="#bfbfbf" stroke="#bfbfbf" points="23.5,-138 23.5,-138 110.5,-138 110.5,-138 23.5,-138"/>
<polygon fill="none" stroke="#bfbfbf" points="23.5,-104 23.5,-172 110.5,-172 110.5,-104 23.5,-104"/>
</a>
</g>
</g>
<!-- Node2&#45;&gt;Node1 -->
<g id="edge1_Node000001_Node000002" class="edge">
<title>Node2&#45;&gt;Node1</title>
<g id="a_edge1_Node000001_Node000002"><a xlink:title=" ">
<path fill="none" stroke="#63b8ff" d="M67,-92.91C67,-84.47 67,-75.78 67,-67.77"/>
<polygon fill="none" stroke="#63b8ff" points="63.5,-92.65 67,-102.65 70.5,-92.65 63.5,-92.65"/>
</a>
</g>
</g>
<!-- Node3 -->
<g id="Node000003" class="node">
<title>Node3</title>
<g id="a_Node000003"><a xlink:href="interface_code_smile_1_1_statemachine_1_1_i_statemachine_events.html" target="_top" xlink:title="Event methods that the Statemachine calls at specific times.">
<polygon fill="white" stroke="none" points="117.5,-308 16.5,-308 16.5,-208 117.5,-208 117.5,-308"/>
<text text-anchor="start" x="21.25" y="-294.5" font-family="Helvetica,sans-Serif" font-size="10.00">IStatemachineEvents</text>
<text text-anchor="start" x="65.5" y="-278.5" font-family="Helvetica,sans-Serif" font-size="10.00"> </text>
<text text-anchor="start" x="25" y="-262.5" font-family="Helvetica,sans-Serif" font-size="10.00">+</text>
<text text-anchor="start" x="39.5" y="-262.5" font-family="Helvetica,sans-Serif" font-size="10.00">OnEnterState()</text>
<text text-anchor="start" x="25" y="-246.5" font-family="Helvetica,sans-Serif" font-size="10.00">+</text>
<text text-anchor="start" x="39.5" y="-246.5" font-family="Helvetica,sans-Serif" font-size="10.00">OnExitState()</text>
<text text-anchor="start" x="25" y="-230.5" font-family="Helvetica,sans-Serif" font-size="10.00">+</text>
<text text-anchor="start" x="39.5" y="-230.5" font-family="Helvetica,sans-Serif" font-size="10.00">OnStart()</text>
<text text-anchor="start" x="25" y="-214.5" font-family="Helvetica,sans-Serif" font-size="10.00">+</text>
<text text-anchor="start" x="39.5" y="-214.5" font-family="Helvetica,sans-Serif" font-size="10.00">OnStop()</text>
<polygon fill="#666666" stroke="#666666" points="16.5,-290 16.5,-290 117.5,-290 117.5,-290 16.5,-290"/>
<polygon fill="#666666" stroke="#666666" points="16.5,-274 16.5,-274 117.5,-274 117.5,-274 16.5,-274"/>
<polygon fill="none" stroke="#666666" points="16.5,-208 16.5,-308 117.5,-308 117.5,-208 16.5,-208"/>
</a>
</g>
</g>
<!-- Node3&#45;&gt;Node2 -->
<g id="edge2_Node000002_Node000003" class="edge">
<title>Node3&#45;&gt;Node2</title>
<g id="a_edge2_Node000002_Node000003"><a xlink:title=" ">
<path fill="none" stroke="#63b8ff" d="M67,-196.96C67,-188.28 67,-179.62 67,-171.75"/>
<polygon fill="none" stroke="#63b8ff" points="63.5,-196.81 67,-206.81 70.5,-196.81 63.5,-196.81"/>
</a>
</g>
</g>
</g>
</svg>
