<?xml version="1.0" encoding="UTF-8" standalone="no"?>
<!DOCTYPE svg PUBLIC "-//W3C//DTD SVG 1.1//EN"
 "http://www.w3.org/Graphics/SVG/1.1/DTD/svg11.dtd">
<!-- Generated by graphviz version 9.0.0 (20230911.1827)
 -->
<!-- Title: IsSignedIn Pages: 1 -->
<svg width="109pt" height="388pt"
 viewBox="0.00 0.00 109.00 388.00" xmlns="http://www.w3.org/2000/svg" xmlns:xlink="http://www.w3.org/1999/xlink">
<g id="graph0" class="graph" transform="scale(1 1) rotate(0) translate(4 384)">
<title>IsSignedIn</title>
<!-- Node1 -->
<g id="Node000001" class="node">
<title>Node1</title>
<g id="a_Node000001"><a xlink:title=" ">
<polygon fill="#999999" stroke="none" points="85,-140 16,-140 16,-88 85,-88 85,-140"/>
<text text-anchor="start" x="28" y="-126.5" font-family="Helvetica,sans-Serif" font-size="10.00">IsSignedIn</text>
<text text-anchor="start" x="49" y="-110.5" font-family="Helvetica,sans-Serif" font-size="10.00"> </text>
<text text-anchor="start" x="20" y="-94.5" font-family="Helvetica,sans-Serif" font-size="10.00">+</text>
<text text-anchor="start" x="30" y="-94.5" font-family="Helvetica,sans-Serif" font-size="10.00">IsSatisfied()</text>
<polygon fill="#666666" stroke="#666666" points="16,-122 16,-122 85,-122 85,-122 16,-122"/>
<polygon fill="#666666" stroke="#666666" points="16,-106 16,-106 85,-106 85,-106 16,-106"/>
<polygon fill="none" stroke="#666666" points="16,-88 16,-140 85,-140 85,-88 16,-88"/>
</a>
</g>
</g>
<!-- Node4 -->
<g id="Node000004" class="node">
<title>Node4</title>
<g id="a_Node000004"><a xlink:href="class_code_smile_1_1_statemachine_1_1_services_1_1_authentication_1_1_conditions_1_1_is_not_signed_in.html" target="_top" xlink:title=" ">
<polygon fill="white" stroke="none" points="85.5,-52 15.5,-52 15.5,0 85.5,0 85.5,-52"/>
<text text-anchor="start" x="20.5" y="-38.5" font-family="Helvetica,sans-Serif" font-size="10.00">IsNotSignedIn</text>
<text text-anchor="start" x="49" y="-22.5" font-family="Helvetica,sans-Serif" font-size="10.00"> </text>
<text text-anchor="start" x="19.5" y="-6.5" font-family="Helvetica,sans-Serif" font-size="10.00">+</text>
<text text-anchor="start" x="29.5" y="-6.5" font-family="Helvetica,sans-Serif" font-size="10.00">IsSatisfied()</text>
<polygon fill="#bfbfbf" stroke="#bfbfbf" points="15.5,-34 15.5,-34 85.5,-34 85.5,-34 15.5,-34"/>
<polygon fill="#bfbfbf" stroke="#bfbfbf" points="15.5,-18 15.5,-18 85.5,-18 85.5,-18 15.5,-18"/>
<polygon fill="none" stroke="#bfbfbf" points="15.5,0 15.5,-52 85.5,-52 85.5,0 15.5,0"/>
</a>
</g>
</g>
<!-- Node1&#45;&gt;Node4 -->
<g id="edge3_Node000001_Node000004" class="edge">
<title>Node1&#45;&gt;Node4</title>
<g id="a_edge3_Node000001_Node000004"><a xlink:title=" ">
<path fill="none" stroke="#63b8ff" d="M50.5,-76.66C50.5,-68.29 50.5,-59.57 50.5,-51.82"/>
<polygon fill="none" stroke="#63b8ff" points="47,-76.61 50.5,-86.61 54,-76.61 47,-76.61"/>
</a>
</g>
</g>
<!-- Node2 -->
<g id="Node000002" class="node">
<title>Node2</title>
<g id="a_Node000002"><a xlink:href="interface_code_smile_1_1_statemachine_1_1_i_condition.html" target="_top" xlink:title=" ">
<polygon fill="white" stroke="none" points="94,-244 7,-244 7,-176 94,-176 94,-244"/>
<text text-anchor="start" x="29.12" y="-230.5" font-family="Helvetica,sans-Serif" font-size="10.00">ICondition</text>
<text text-anchor="start" x="49" y="-214.5" font-family="Helvetica,sans-Serif" font-size="10.00"> </text>
<text text-anchor="start" x="11" y="-198.5" font-family="Helvetica,sans-Serif" font-size="10.00">+</text>
<text text-anchor="start" x="21" y="-198.5" font-family="Helvetica,sans-Serif" font-size="10.00">IsSatisfied()</text>
<text text-anchor="start" x="11" y="-182.5" font-family="Helvetica,sans-Serif" font-size="10.00">+</text>
<text text-anchor="start" x="21" y="-182.5" font-family="Helvetica,sans-Serif" font-size="10.00">ToDebugString()</text>
<polygon fill="#bfbfbf" stroke="#bfbfbf" points="7,-226 7,-226 94,-226 94,-226 7,-226"/>
<polygon fill="#bfbfbf" stroke="#bfbfbf" points="7,-210 7,-210 94,-210 94,-210 7,-210"/>
<polygon fill="none" stroke="#bfbfbf" points="7,-176 7,-244 94,-244 94,-176 7,-176"/>
</a>
</g>
</g>
<!-- Node2&#45;&gt;Node1 -->
<g id="edge1_Node000001_Node000002" class="edge">
<title>Node2&#45;&gt;Node1</title>
<g id="a_edge1_Node000001_Node000002"><a xlink:title=" ">
<path fill="none" stroke="#63b8ff" d="M50.5,-164.62C50.5,-156.05 50.5,-147.37 50.5,-139.71"/>
<polygon fill="none" stroke="#63b8ff" points="47,-164.61 50.5,-174.61 54,-164.61 47,-164.61"/>
</a>
</g>
</g>
<!-- Node3 -->
<g id="Node000003" class="node">
<title>Node3</title>
<g id="a_Node000003"><a xlink:href="interface_code_smile_1_1_statemachine_1_1_i_statemachine_events.html" target="_top" xlink:title="Event methods that the Statemachine calls at specific times.">
<polygon fill="white" stroke="none" points="101,-380 0,-380 0,-280 101,-280 101,-380"/>
<text text-anchor="start" x="4.75" y="-366.5" font-family="Helvetica,sans-Serif" font-size="10.00">IStatemachineEvents</text>
<text text-anchor="start" x="49" y="-350.5" font-family="Helvetica,sans-Serif" font-size="10.00"> </text>
<text text-anchor="start" x="8.5" y="-334.5" font-family="Helvetica,sans-Serif" font-size="10.00">+</text>
<text text-anchor="start" x="23" y="-334.5" font-family="Helvetica,sans-Serif" font-size="10.00">OnEnterState()</text>
<text text-anchor="start" x="8.5" y="-318.5" font-family="Helvetica,sans-Serif" font-size="10.00">+</text>
<text text-anchor="start" x="23" y="-318.5" font-family="Helvetica,sans-Serif" font-size="10.00">OnExitState()</text>
<text text-anchor="start" x="8.5" y="-302.5" font-family="Helvetica,sans-Serif" font-size="10.00">+</text>
<text text-anchor="start" x="23" y="-302.5" font-family="Helvetica,sans-Serif" font-size="10.00">OnStart()</text>
<text text-anchor="start" x="8.5" y="-286.5" font-family="Helvetica,sans-Serif" font-size="10.00">+</text>
<text text-anchor="start" x="23" y="-286.5" font-family="Helvetica,sans-Serif" font-size="10.00">OnStop()</text>
<polygon fill="#666666" stroke="#666666" points="0,-362 0,-362 101,-362 101,-362 0,-362"/>
<polygon fill="#666666" stroke="#666666" points="0,-346 0,-346 101,-346 101,-346 0,-346"/>
<polygon fill="none" stroke="#666666" points="0,-280 0,-380 101,-380 101,-280 0,-280"/>
</a>
</g>
</g>
<!-- Node3&#45;&gt;Node2 -->
<g id="edge2_Node000002_Node000003" class="edge">
<title>Node3&#45;&gt;Node2</title>
<g id="a_edge2_Node000002_Node000003"><a xlink:title=" ">
<path fill="none" stroke="#63b8ff" d="M50.5,-268.96C50.5,-260.28 50.5,-251.62 50.5,-243.75"/>
<polygon fill="none" stroke="#63b8ff" points="47,-268.81 50.5,-278.81 54,-268.81 47,-268.81"/>
</a>
</g>
</g>
</g>
</svg>
