<?xml version="1.0" encoding="UTF-8" standalone="no"?>
<!DOCTYPE svg PUBLIC "-//W3C//DTD SVG 1.1//EN"
 "http://www.w3.org/Graphics/SVG/1.1/DTD/svg11.dtd">
<!-- Generated by graphviz version 9.0.0 (20230911.1827)
 -->
<!-- Title: RelayCreateOrJoinAllocation Pages: 1 -->
<svg width="155pt" height="324pt"
 viewBox="0.00 0.00 155.00 324.00" xmlns="http://www.w3.org/2000/svg" xmlns:xlink="http://www.w3.org/1999/xlink">
<g id="graph0" class="graph" transform="scale(1 1) rotate(0) translate(4 320)">
<title>RelayCreateOrJoinAllocation</title>
<!-- Node1 -->
<g id="Node000001" class="node">
<title>Node1</title>
<g id="a_Node000001"><a xlink:title="Initializes Relay. Depending on role (server/host or client) this may create an allocation or will tr...">
<polygon fill="#999999" stroke="none" points="147,-52 0,-52 0,0 147,0 147,-52"/>
<text text-anchor="start" x="11.62" y="-38.5" font-family="Helvetica,sans-Serif" font-size="10.00">RelayCreateOrJoinAllocation</text>
<text text-anchor="start" x="72" y="-22.5" font-family="Helvetica,sans-Serif" font-size="10.00"> </text>
<text text-anchor="start" x="4" y="-6.5" font-family="Helvetica,sans-Serif" font-size="10.00">+</text>
<text text-anchor="start" x="14" y="-6.5" font-family="Helvetica,sans-Serif" font-size="10.00">RelayCreateOrJoinAllocation()</text>
<polygon fill="#666666" stroke="#666666" points="0,-34 0,-34 147,-34 147,-34 0,-34"/>
<polygon fill="#666666" stroke="#666666" points="0,-18 0,-18 147,-18 147,-18 0,-18"/>
<polygon fill="none" stroke="#666666" points="0,0 0,-52 147,-52 147,0 0,0"/>
</a>
</g>
</g>
<!-- Node2 -->
<g id="Node000002" class="node">
<title>Node2</title>
<g id="a_Node000002"><a xlink:href="interface_code_smile_1_1_statemachine_1_1_i_async_action.html" target="_top" xlink:title="Marks a class as an asynchronous (awaitable) FSM Action.">
<polygon fill="white" stroke="none" points="107,-140 40,-140 40,-88 107,-88 107,-140"/>
<text text-anchor="start" x="44.62" y="-126.5" font-family="Helvetica,sans-Serif" font-size="10.00">IAsyncAction</text>
<text text-anchor="start" x="72" y="-110.5" font-family="Helvetica,sans-Serif" font-size="10.00"> </text>
<text text-anchor="start" x="72" y="-94.5" font-family="Helvetica,sans-Serif" font-size="10.00"> </text>
<polygon fill="#666666" stroke="#666666" points="40,-122 40,-122 107,-122 107,-122 40,-122"/>
<polygon fill="#666666" stroke="#666666" points="40,-106 40,-106 107,-106 107,-106 40,-106"/>
<polygon fill="none" stroke="#666666" points="40,-88 40,-140 107,-140 107,-88 40,-88"/>
</a>
</g>
</g>
<!-- Node2&#45;&gt;Node1 -->
<g id="edge1_Node000001_Node000002" class="edge">
<title>Node2&#45;&gt;Node1</title>
<g id="a_edge1_Node000001_Node000002"><a xlink:title=" ">
<path fill="none" stroke="#63b8ff" d="M73.5,-76.66C73.5,-68.29 73.5,-59.57 73.5,-51.82"/>
<polygon fill="none" stroke="#63b8ff" points="70,-76.61 73.5,-86.61 77,-76.61 70,-76.61"/>
</a>
</g>
</g>
<!-- Node3 -->
<g id="Node000003" class="node">
<title>Node3</title>
<g id="a_Node000003"><a xlink:href="interface_code_smile_1_1_statemachine_1_1_i_action.html" target="_top" xlink:title="Marks a class as a FSM Action.">
<polygon fill="white" stroke="none" points="93.5,-228 53.5,-228 53.5,-176 93.5,-176 93.5,-228"/>
<text text-anchor="start" x="58.5" y="-214.5" font-family="Helvetica,sans-Serif" font-size="10.00">IAction</text>
<text text-anchor="start" x="72" y="-198.5" font-family="Helvetica,sans-Serif" font-size="10.00"> </text>
<text text-anchor="start" x="72" y="-182.5" font-family="Helvetica,sans-Serif" font-size="10.00"> </text>
<polygon fill="#666666" stroke="#666666" points="53.5,-210 53.5,-210 93.5,-210 93.5,-210 53.5,-210"/>
<polygon fill="#666666" stroke="#666666" points="53.5,-194 53.5,-194 93.5,-194 93.5,-194 53.5,-194"/>
<polygon fill="none" stroke="#666666" points="53.5,-176 53.5,-228 93.5,-228 93.5,-176 53.5,-176"/>
</a>
</g>
</g>
<!-- Node3&#45;&gt;Node2 -->
<g id="edge2_Node000002_Node000003" class="edge">
<title>Node3&#45;&gt;Node2</title>
<g id="a_edge2_Node000002_Node000003"><a xlink:title=" ">
<path fill="none" stroke="#63b8ff" d="M73.5,-164.66C73.5,-156.29 73.5,-147.57 73.5,-139.82"/>
<polygon fill="none" stroke="#63b8ff" points="70,-164.61 73.5,-174.61 77,-164.61 70,-164.61"/>
</a>
</g>
</g>
<!-- Node4 -->
<g id="Node000004" class="node">
<title>Node4</title>
<g id="a_Node000004"><a xlink:href="interface_code_smile_1_1_statemachine_1_1_i_statemachine_events.html" target="_top" xlink:title="Event methods that the Statemachine calls at specific times.">
<polygon fill="white" stroke="none" points="124,-316 23,-316 23,-264 124,-264 124,-316"/>
<text text-anchor="start" x="27.75" y="-302.5" font-family="Helvetica,sans-Serif" font-size="10.00">IStatemachineEvents</text>
<text text-anchor="start" x="72" y="-286.5" font-family="Helvetica,sans-Serif" font-size="10.00"> </text>
<text text-anchor="start" x="72" y="-270.5" font-family="Helvetica,sans-Serif" font-size="10.00"> </text>
<polygon fill="#666666" stroke="#666666" points="23,-298 23,-298 124,-298 124,-298 23,-298"/>
<polygon fill="#666666" stroke="#666666" points="23,-282 23,-282 124,-282 124,-282 23,-282"/>
<polygon fill="none" stroke="#666666" points="23,-264 23,-316 124,-316 124,-264 23,-264"/>
</a>
</g>
</g>
<!-- Node4&#45;&gt;Node3 -->
<g id="edge3_Node000003_Node000004" class="edge">
<title>Node4&#45;&gt;Node3</title>
<g id="a_edge3_Node000003_Node000004"><a xlink:title=" ">
<path fill="none" stroke="#63b8ff" d="M73.5,-252.66C73.5,-244.29 73.5,-235.57 73.5,-227.82"/>
<polygon fill="none" stroke="#63b8ff" points="70,-252.61 73.5,-262.61 77,-252.61 70,-252.61"/>
</a>
</g>
</g>
</g>
</svg>
