<?xml version="1.0" encoding="UTF-8" standalone="no"?>
<!DOCTYPE svg PUBLIC "-//W3C//DTD SVG 1.1//EN"
 "http://www.w3.org/Graphics/SVG/1.1/DTD/svg11.dtd">
<!-- Generated by graphviz version 9.0.0 (20230911.1827)
 -->
<!-- Title: OnWentOffline Pages: 1 -->
<svg width="130pt" height="236pt"
 viewBox="0.00 0.00 130.00 236.00" xmlns="http://www.w3.org/2000/svg" xmlns:xlink="http://www.w3.org/1999/xlink">

<svg id="main" version="1.1" xmlns="http://www.w3.org/2000/svg" xmlns:xlink="http://www.w3.org/1999/xlink" xml:space="preserve">

<style type="text/css"><![CDATA[
.node, .edge {opacity: 0.7;}
.node.selected, .edge.selected {opacity: 1;}
.edge:hover path { stroke: red; }
.edge:hover polygon { stroke: red; fill: red; }
]]></style>
<script type="application/ecmascript" xlink:href="svg.min.js"/>
<svg id="graph" class="graph">
<g id="graph0" class="graph" transform="scale(1 1) rotate(0) translate(4 232)">
<title>OnWentOffline</title>
<!-- Node1 -->
<g id="Node000001" class="node">
<title>Node1</title>
<g id="a_Node000001"><a xlink:title=" ">
<polygon fill="#999999" stroke="none" points="97.5,-52 24.5,-52 24.5,0 97.5,0 97.5,-52"/>
<text text-anchor="start" x="29.5" y="-38.5" font-family="Helvetica,sans-Serif" font-size="10.00">OnWentOffline</text>
<text text-anchor="start" x="59.5" y="-22.5" font-family="Helvetica,sans-Serif" font-size="10.00"> </text>
<text text-anchor="start" x="59.5" y="-6.5" font-family="Helvetica,sans-Serif" font-size="10.00"> </text>
<polygon fill="#666666" stroke="#666666" points="24.5,-34 24.5,-34 97.5,-34 97.5,-34 24.5,-34"/>
<polygon fill="#666666" stroke="#666666" points="24.5,-18 24.5,-18 97.5,-18 97.5,-18 24.5,-18"/>
<polygon fill="none" stroke="#666666" points="24.5,0 24.5,-52 97.5,-52 97.5,0 24.5,0"/>
</a>
</g>
</g>
<!-- Node2 -->
<g id="Node000002" class="node">
<title>Node2</title>
<g id="a_Node000002"><a xlink:href="class_code_smile_1_1_multi_pal_1_1_settings_1_1_game_state_condition_base.html" target="_top" xlink:title=" ">
<polygon fill="white" stroke="none" points="122,-140 0,-140 0,-88 122,-88 122,-140"/>
<text text-anchor="start" x="4.75" y="-126.5" font-family="Helvetica,sans-Serif" font-size="10.00">GameStateConditionBase</text>
<text text-anchor="start" x="59.5" y="-110.5" font-family="Helvetica,sans-Serif" font-size="10.00"> </text>
<text text-anchor="start" x="59.5" y="-94.5" font-family="Helvetica,sans-Serif" font-size="10.00"> </text>
<polygon fill="#bfbfbf" stroke="#bfbfbf" points="0,-122 0,-122 122,-122 122,-122 0,-122"/>
<polygon fill="#bfbfbf" stroke="#bfbfbf" points="0,-106 0,-106 122,-106 122,-106 0,-106"/>
<polygon fill="none" stroke="#bfbfbf" points="0,-88 0,-140 122,-140 122,-88 0,-88"/>
</a>
</g>
</g>
<!-- Node2&#45;&gt;Node1 -->
<g id="edge1_Node000001_Node000002" class="edge">
<title>Node2&#45;&gt;Node1</title>
<g id="a_edge1_Node000001_Node000002"><a xlink:title=" ">
<path fill="none" stroke="#63b8ff" d="M61,-76.66C61,-68.29 61,-59.57 61,-51.82"/>
<polygon fill="none" stroke="#63b8ff" points="57.5,-76.61 61,-86.61 64.5,-76.61 57.5,-76.61"/>
</a>
</g>
</g>
<!-- Node3 -->
<g id="Node000003" class="node">
<title>Node3</title>
<g id="a_Node000003"><a xlink:title=" ">
<polygon fill="white" stroke="none" points="102,-228 20,-228 20,-176 102,-176 102,-228"/>
<text text-anchor="start" x="25" y="-214.5" font-family="Helvetica,sans-Serif" font-size="10.00">ScriptableObject</text>
<text text-anchor="start" x="59.5" y="-198.5" font-family="Helvetica,sans-Serif" font-size="10.00"> </text>
<text text-anchor="start" x="59.5" y="-182.5" font-family="Helvetica,sans-Serif" font-size="10.00"> </text>
<polygon fill="#bfbfbf" stroke="#bfbfbf" points="20,-210 20,-210 102,-210 102,-210 20,-210"/>
<polygon fill="#bfbfbf" stroke="#bfbfbf" points="20,-194 20,-194 102,-194 102,-194 20,-194"/>
<polygon fill="none" stroke="#bfbfbf" points="20,-176 20,-228 102,-228 102,-176 20,-176"/>
</a>
</g>
</g>
<!-- Node3&#45;&gt;Node2 -->
<g id="edge2_Node000002_Node000003" class="edge">
<title>Node3&#45;&gt;Node2</title>
<g id="a_edge2_Node000002_Node000003"><a xlink:title=" ">
<path fill="none" stroke="#63b8ff" d="M61,-164.66C61,-156.29 61,-147.57 61,-139.82"/>
<polygon fill="none" stroke="#63b8ff" points="57.5,-164.61 61,-174.61 64.5,-164.61 57.5,-164.61"/>
</a>
</g>
</g>
</g>
</svg>
</svg>

<style type='text/css'>
<![CDATA[
[data-mouse-over-selected='false'] { opacity: 0.7; }
[data-mouse-over-selected='true']  { opacity: 1.0; }
]]>
</style>
<script type="application/ecmascript"><![CDATA[
document.addEventListener('DOMContentLoaded', (event) => {
  highlightEdges();
  highlightAdjacentNodes();
});
]]></script>
</svg>
