<?xml version="1.0" encoding="UTF-8" standalone="no"?>
<!DOCTYPE svg PUBLIC "-//W3C//DTD SVG 1.1//EN"
 "http://www.w3.org/Graphics/SVG/1.1/DTD/svg11.dtd">
<!-- Generated by graphviz version 9.0.0 (20230911.1827)
 -->
<!-- Title: SceneReference Pages: 1 -->
<svg width="153pt" height="228pt"
 viewBox="0.00 0.00 153.00 228.00" xmlns="http://www.w3.org/2000/svg" xmlns:xlink="http://www.w3.org/1999/xlink">
<g id="graph0" class="graph" transform="scale(1 1) rotate(0) translate(4 224)">
<title>SceneReference</title>
<!-- Node1 -->
<g id="Node000001" class="node">
<title>Node1</title>
<g id="a_Node000001"><a xlink:title="Represents a SceneAsset at runtime by serializing only the scene name and path at runtime,...">
<polygon fill="#999999" stroke="none" points="120,-132 25,-132 25,0 120,0 120,-132"/>
<text text-anchor="start" x="36.88" y="-118.5" font-family="Helvetica,sans-Serif" font-size="10.00">SceneReference</text>
<text text-anchor="start" x="29" y="-102.5" font-family="Helvetica,sans-Serif" font-size="10.00">+</text>
<text text-anchor="start" x="39" y="-102.5" font-family="Helvetica,sans-Serif" font-size="10.00">IsValid</text>
<text text-anchor="start" x="29" y="-86.5" font-family="Helvetica,sans-Serif" font-size="10.00">+</text>
<text text-anchor="start" x="39" y="-86.5" font-family="Helvetica,sans-Serif" font-size="10.00">RuntimeScene</text>
<text text-anchor="start" x="29" y="-70.5" font-family="Helvetica,sans-Serif" font-size="10.00">+</text>
<text text-anchor="start" x="39" y="-70.5" font-family="Helvetica,sans-Serif" font-size="10.00">SceneName</text>
<text text-anchor="start" x="29" y="-54.5" font-family="Helvetica,sans-Serif" font-size="10.00">+</text>
<text text-anchor="start" x="39" y="-54.5" font-family="Helvetica,sans-Serif" font-size="10.00">ScenePath</text>
<text text-anchor="start" x="29" y="-38.5" font-family="Helvetica,sans-Serif" font-size="10.00">+</text>
<text text-anchor="start" x="39" y="-38.5" font-family="Helvetica,sans-Serif" font-size="10.00">SceneReference()</text>
<text text-anchor="start" x="29" y="-22.5" font-family="Helvetica,sans-Serif" font-size="10.00">+</text>
<text text-anchor="start" x="39" y="-22.5" font-family="Helvetica,sans-Serif" font-size="10.00">SceneReference()</text>
<text text-anchor="start" x="29" y="-6.5" font-family="Helvetica,sans-Serif" font-size="10.00">+</text>
<text text-anchor="start" x="39" y="-6.5" font-family="Helvetica,sans-Serif" font-size="10.00">OnValidate()</text>
<polygon fill="#666666" stroke="#666666" points="25,-114 25,-114 120,-114 120,-114 25,-114"/>
<polygon fill="#666666" stroke="#666666" points="25,-50 25,-50 37,-50 37,-50 25,-50"/>
<polygon fill="#666666" stroke="#666666" points="37,-50 37,-50 120,-50 120,-50 37,-50"/>
<polygon fill="none" stroke="#666666" points="25,0 25,-132 120,-132 120,0 25,0"/>
</a>
</g>
</g>
<!-- Node2 -->
<g id="Node000002" class="node">
<title>Node2</title>
<g id="a_Node000002"><a xlink:title=" ">
<polygon fill="white" stroke="none" points="145,-220 0,-220 0,-168 145,-168 145,-220"/>
<text text-anchor="start" x="5" y="-206.5" font-family="Helvetica,sans-Serif" font-size="10.00">IEquatable&lt; SceneReference &gt;</text>
<text text-anchor="start" x="71" y="-190.5" font-family="Helvetica,sans-Serif" font-size="10.00"> </text>
<text text-anchor="start" x="71" y="-174.5" font-family="Helvetica,sans-Serif" font-size="10.00"> </text>
<polygon fill="#bfbfbf" stroke="#bfbfbf" points="0,-202 0,-202 145,-202 145,-202 0,-202"/>
<polygon fill="#bfbfbf" stroke="#bfbfbf" points="0,-186 0,-186 145,-186 145,-186 0,-186"/>
<polygon fill="none" stroke="#bfbfbf" points="0,-168 0,-220 145,-220 145,-168 0,-168"/>
</a>
</g>
</g>
<!-- Node2&#45;&gt;Node1 -->
<g id="edge1_Node000001_Node000002" class="edge">
<title>Node2&#45;&gt;Node1</title>
<g id="a_edge1_Node000001_Node000002"><a xlink:title=" ">
<path fill="none" stroke="#63b8ff" d="M72.5,-156.79C72.5,-148.94 72.5,-140.4 72.5,-131.82"/>
<polygon fill="none" stroke="#63b8ff" points="69,-156.59 72.5,-166.59 76,-156.59 69,-156.59"/>
</a>
</g>
</g>
</g>
</svg>
