<?xml version="1.0" encoding="UTF-8" standalone="no"?>
<!DOCTYPE svg PUBLIC "-//W3C//DTD SVG 1.1//EN"
 "http://www.w3.org/Graphics/SVG/1.1/DTD/svg11.dtd">
<!-- Generated by graphviz version 9.0.0 (20230911.1827)
 -->
<!-- Title: GetInt Pages: 1 -->
<svg width="268pt" height="152pt"
 viewBox="0.00 0.00 268.00 152.00" xmlns="http://www.w3.org/2000/svg" xmlns:xlink="http://www.w3.org/1999/xlink">
<g id="graph0" class="graph" transform="scale(1 1) rotate(0) translate(4 148)">
<title>GetInt</title>
<!-- Node1 -->
<g id="Node000001" class="node">
<title>Node1</title>
<g id="a_Node000001"><a xlink:title="Gets the argument&#39;s value. If the argument was not specified, returns the default value.">
<polygon fill="#999999" stroke="#666666" points="260,-88 217.75,-88 217.75,-68 260,-68 260,-88"/>
<text text-anchor="middle" x="238.88" y="-74.5" font-family="Helvetica,sans-Serif" font-size="10.00">GetInt</text>
</a>
</g>
</g>
<!-- Node2 -->
<g id="Node000002" class="node">
<title>Node2</title>
<g id="a_Node000002"><a xlink:href="struct_code_smile_1_1_statemachine_1_1_netcode_1_1_netcode_config_a8ef954534c21c943bcb4afc8838d6b7e.html#a8ef954534c21c943bcb4afc8838d6b7e" target="_top" xlink:title="Create a NetcodeConfig from command line parameters. Omitted parameters will use default values.">
<polygon fill="white" stroke="#666666" points="175,-144 6.75,-144 6.75,-112 175,-112 175,-144"/>
<text text-anchor="start" x="14.75" y="-130.5" font-family="Helvetica,sans-Serif" font-size="10.00">CodeSmile.Statemachine.Netcode.</text>
<text text-anchor="middle" x="90.88" y="-118.5" font-family="Helvetica,sans-Serif" font-size="10.00">NetcodeConfig.FromCmdArgs</text>
</a>
</g>
</g>
<!-- Node1&#45;&gt;Node2 -->
<g id="edge1_Node000001_Node000002" class="edge">
<title>Node1&#45;&gt;Node2</title>
<g id="a_edge1_Node000001_Node000002"><a xlink:title=" ">
<path fill="none" stroke="#63b8ff" d="M207.17,-92.66C199,-96.28 190.13,-99.99 181.75,-103 173.37,-106.01 164.44,-108.89 155.59,-111.54"/>
<polygon fill="#63b8ff" stroke="#63b8ff" points="208.36,-95.96 216.01,-88.63 205.46,-89.59 208.36,-95.96"/>
</a>
</g>
</g>
<!-- Node3 -->
<g id="Node000003" class="node">
<title>Node3</title>
<g id="a_Node000003"><a xlink:href="struct_code_smile_1_1_statemachine_1_1_netcode_1_1_relay_config_aee8c740c5bf1c5ae8ba8a93cbec1e6ed.html#aee8c740c5bf1c5ae8ba8a93cbec1e6ed" target="_top" xlink:title="Creates a RelayConfig from command line arguments. Omitted parameters will use default values.">
<polygon fill="white" stroke="#666666" points="175,-94 6.75,-94 6.75,-62 175,-62 175,-94"/>
<text text-anchor="start" x="14.75" y="-80.5" font-family="Helvetica,sans-Serif" font-size="10.00">CodeSmile.Statemachine.Netcode.</text>
<text text-anchor="middle" x="90.88" y="-68.5" font-family="Helvetica,sans-Serif" font-size="10.00">RelayConfig.FromCmdArgs</text>
</a>
</g>
</g>
<!-- Node1&#45;&gt;Node3 -->
<g id="edge2_Node000001_Node000003" class="edge">
<title>Node1&#45;&gt;Node3</title>
<g id="a_edge2_Node000001_Node000003"><a xlink:title=" ">
<path fill="none" stroke="#63b8ff" d="M205.93,-78C196.67,-78 186.1,-78 175.22,-78"/>
<polygon fill="#63b8ff" stroke="#63b8ff" points="205.75,-81.5 215.75,-78 205.75,-74.5 205.75,-81.5"/>
</a>
</g>
</g>
<!-- Node4 -->
<g id="Node000004" class="node">
<title>Node4</title>
<g id="a_Node000004"><a xlink:href="struct_code_smile_1_1_statemachine_1_1_netcode_1_1_transport_config_a2eda7e08f5a1c19078e54ec81951abbc.html#a2eda7e08f5a1c19078e54ec81951abbc" target="_top" xlink:title="Creates a TransportConfig instance from current NetworkManager Transport settings and then have comma...">
<polygon fill="white" stroke="#666666" points="181.75,-44 0,-44 0,0 181.75,0 181.75,-44"/>
<text text-anchor="start" x="8" y="-30.5" font-family="Helvetica,sans-Serif" font-size="10.00">CodeSmile.Statemachine.Netcode.</text>
<text text-anchor="start" x="8" y="-18.5" font-family="Helvetica,sans-Serif" font-size="10.00">TransportConfig.FromNetworkManager</text>
<text text-anchor="middle" x="90.88" y="-6.5" font-family="Helvetica,sans-Serif" font-size="10.00">WithCmdArgOverrides</text>
</a>
</g>
</g>
<!-- Node1&#45;&gt;Node4 -->
<g id="edge3_Node000001_Node000004" class="edge">
<title>Node1&#45;&gt;Node4</title>
<g id="a_edge3_Node000001_Node000004"><a xlink:title=" ">
<path fill="none" stroke="#63b8ff" d="M207.04,-63.69C198.87,-60.06 190.03,-56.26 181.75,-53 174.38,-50.09 166.61,-47.19 158.86,-44.38"/>
<polygon fill="#63b8ff" stroke="#63b8ff" points="205.33,-66.76 215.89,-67.68 208.21,-60.38 205.33,-66.76"/>
</a>
</g>
</g>
</g>
</svg>
