<?xml version="1.0" encoding="UTF-8" standalone="no"?>
<!DOCTYPE svg PUBLIC "-//W3C//DTD SVG 1.1//EN"
 "http://www.w3.org/Graphics/SVG/1.1/DTD/svg11.dtd">
<!-- Generated by graphviz version 9.0.0 (20230911.1827)
 -->
<!-- Title: RelayCreateOrJoinAllocation Pages: 1 -->
<svg width="155pt" height="404pt"
 viewBox="0.00 0.00 155.00 404.00" xmlns="http://www.w3.org/2000/svg" xmlns:xlink="http://www.w3.org/1999/xlink">
<g id="graph0" class="graph" transform="scale(1 1) rotate(0) translate(4 400)">
<title>RelayCreateOrJoinAllocation</title>
<!-- Node1 -->
<g id="Node000001" class="node">
<title>Node1</title>
<g id="a_Node000001"><a xlink:title=" ">
<polygon fill="#999999" stroke="none" points="147,-68 0,-68 0,0 147,0 147,-68"/>
<text text-anchor="start" x="11.62" y="-54.5" font-family="Helvetica,sans-Serif" font-size="10.00">RelayCreateOrJoinAllocation</text>
<text text-anchor="start" x="72" y="-38.5" font-family="Helvetica,sans-Serif" font-size="10.00"> </text>
<text text-anchor="start" x="4" y="-22.5" font-family="Helvetica,sans-Serif" font-size="10.00">+</text>
<text text-anchor="start" x="14" y="-22.5" font-family="Helvetica,sans-Serif" font-size="10.00">RelayCreateOrJoinAllocation()</text>
<text text-anchor="start" x="4" y="-6.5" font-family="Helvetica,sans-Serif" font-size="10.00">+</text>
<text text-anchor="start" x="14" y="-6.5" font-family="Helvetica,sans-Serif" font-size="10.00">ExecuteAsync()</text>
<polygon fill="#666666" stroke="#666666" points="0,-50 0,-50 147,-50 147,-50 0,-50"/>
<polygon fill="#666666" stroke="#666666" points="0,-34 0,-34 147,-34 147,-34 0,-34"/>
<polygon fill="none" stroke="#666666" points="0,0 0,-68 147,-68 147,0 0,0"/>
</a>
</g>
</g>
<!-- Node2 -->
<g id="Node000002" class="node">
<title>Node2</title>
<g id="a_Node000002"><a xlink:href="interface_code_smile_1_1_statemachine_1_1_i_async_action.html" target="_top" xlink:title=" ">
<polygon fill="white" stroke="none" points="117,-156 30,-156 30,-104 117,-104 117,-156"/>
<text text-anchor="start" x="44.62" y="-142.5" font-family="Helvetica,sans-Serif" font-size="10.00">IAsyncAction</text>
<text text-anchor="start" x="72" y="-126.5" font-family="Helvetica,sans-Serif" font-size="10.00"> </text>
<text text-anchor="start" x="34" y="-110.5" font-family="Helvetica,sans-Serif" font-size="10.00">+</text>
<text text-anchor="start" x="44" y="-110.5" font-family="Helvetica,sans-Serif" font-size="10.00">ExecuteAsync()</text>
<polygon fill="#bfbfbf" stroke="#bfbfbf" points="30,-138 30,-138 117,-138 117,-138 30,-138"/>
<polygon fill="#bfbfbf" stroke="#bfbfbf" points="30,-122 30,-122 117,-122 117,-122 30,-122"/>
<polygon fill="none" stroke="#bfbfbf" points="30,-104 30,-156 117,-156 117,-104 30,-104"/>
</a>
</g>
</g>
<!-- Node2&#45;&gt;Node1 -->
<g id="edge1_Node000001_Node000002" class="edge">
<title>Node2&#45;&gt;Node1</title>
<g id="a_edge1_Node000001_Node000002"><a xlink:title=" ">
<path fill="none" stroke="#63b8ff" d="M73.5,-92.97C73.5,-84.65 73.5,-75.84 73.5,-67.67"/>
<polygon fill="none" stroke="#63b8ff" points="70,-92.79 73.5,-102.79 77,-92.79 70,-92.79"/>
</a>
</g>
</g>
<!-- Node3 -->
<g id="Node000003" class="node">
<title>Node3</title>
<g id="a_Node000003"><a xlink:href="interface_code_smile_1_1_statemachine_1_1_i_action.html" target="_top" xlink:title=" ">
<polygon fill="white" stroke="none" points="117,-260 30,-260 30,-192 117,-192 117,-260"/>
<text text-anchor="start" x="58.5" y="-246.5" font-family="Helvetica,sans-Serif" font-size="10.00">IAction</text>
<text text-anchor="start" x="72" y="-230.5" font-family="Helvetica,sans-Serif" font-size="10.00"> </text>
<text text-anchor="start" x="34" y="-214.5" font-family="Helvetica,sans-Serif" font-size="10.00">+</text>
<text text-anchor="start" x="44" y="-214.5" font-family="Helvetica,sans-Serif" font-size="10.00">Execute()</text>
<text text-anchor="start" x="34" y="-198.5" font-family="Helvetica,sans-Serif" font-size="10.00">+</text>
<text text-anchor="start" x="44" y="-198.5" font-family="Helvetica,sans-Serif" font-size="10.00">ToDebugString()</text>
<polygon fill="#bfbfbf" stroke="#bfbfbf" points="30,-242 30,-242 117,-242 117,-242 30,-242"/>
<polygon fill="#bfbfbf" stroke="#bfbfbf" points="30,-226 30,-226 117,-226 117,-226 30,-226"/>
<polygon fill="none" stroke="#bfbfbf" points="30,-192 30,-260 117,-260 117,-192 30,-192"/>
</a>
</g>
</g>
<!-- Node3&#45;&gt;Node2 -->
<g id="edge2_Node000002_Node000003" class="edge">
<title>Node3&#45;&gt;Node2</title>
<g id="a_edge2_Node000002_Node000003"><a xlink:title=" ">
<path fill="none" stroke="#63b8ff" d="M73.5,-180.62C73.5,-172.05 73.5,-163.37 73.5,-155.71"/>
<polygon fill="none" stroke="#63b8ff" points="70,-180.61 73.5,-190.61 77,-180.61 70,-180.61"/>
</a>
</g>
</g>
<!-- Node4 -->
<g id="Node000004" class="node">
<title>Node4</title>
<g id="a_Node000004"><a xlink:href="interface_code_smile_1_1_statemachine_1_1_i_statemachine_events.html" target="_top" xlink:title="Event methods that the Statemachine calls at specific times.">
<polygon fill="white" stroke="none" points="124,-396 23,-396 23,-296 124,-296 124,-396"/>
<text text-anchor="start" x="27.75" y="-382.5" font-family="Helvetica,sans-Serif" font-size="10.00">IStatemachineEvents</text>
<text text-anchor="start" x="72" y="-366.5" font-family="Helvetica,sans-Serif" font-size="10.00"> </text>
<text text-anchor="start" x="31.5" y="-350.5" font-family="Helvetica,sans-Serif" font-size="10.00">+</text>
<text text-anchor="start" x="46" y="-350.5" font-family="Helvetica,sans-Serif" font-size="10.00">OnEnterState()</text>
<text text-anchor="start" x="31.5" y="-334.5" font-family="Helvetica,sans-Serif" font-size="10.00">+</text>
<text text-anchor="start" x="46" y="-334.5" font-family="Helvetica,sans-Serif" font-size="10.00">OnExitState()</text>
<text text-anchor="start" x="31.5" y="-318.5" font-family="Helvetica,sans-Serif" font-size="10.00">+</text>
<text text-anchor="start" x="46" y="-318.5" font-family="Helvetica,sans-Serif" font-size="10.00">OnStart()</text>
<text text-anchor="start" x="31.5" y="-302.5" font-family="Helvetica,sans-Serif" font-size="10.00">+</text>
<text text-anchor="start" x="46" y="-302.5" font-family="Helvetica,sans-Serif" font-size="10.00">OnStop()</text>
<polygon fill="#666666" stroke="#666666" points="23,-378 23,-378 124,-378 124,-378 23,-378"/>
<polygon fill="#666666" stroke="#666666" points="23,-362 23,-362 124,-362 124,-362 23,-362"/>
<polygon fill="none" stroke="#666666" points="23,-296 23,-396 124,-396 124,-296 23,-296"/>
</a>
</g>
</g>
<!-- Node4&#45;&gt;Node3 -->
<g id="edge3_Node000003_Node000004" class="edge">
<title>Node4&#45;&gt;Node3</title>
<g id="a_edge3_Node000003_Node000004"><a xlink:title=" ">
<path fill="none" stroke="#63b8ff" d="M73.5,-284.96C73.5,-276.28 73.5,-267.62 73.5,-259.75"/>
<polygon fill="none" stroke="#63b8ff" points="70,-284.81 73.5,-294.81 77,-284.81 70,-284.81"/>
</a>
</g>
</g>
</g>
</svg>
