<?xml version="1.0" encoding="UTF-8" standalone="no"?>
<!DOCTYPE svg PUBLIC "-//W3C//DTD SVG 1.1//EN"
 "http://www.w3.org/Graphics/SVG/1.1/DTD/svg11.dtd">
<!-- Generated by graphviz version 9.0.0 (20230911.1827)
 -->
<!-- Title: CompoundCondition Pages: 1 -->
<svg width="119pt" height="348pt"
 viewBox="0.00 0.00 119.00 348.00" xmlns="http://www.w3.org/2000/svg" xmlns:xlink="http://www.w3.org/1999/xlink">
<g id="graph0" class="graph" transform="scale(1 1) rotate(0) translate(4 344)">
<title>CompoundCondition</title>
<!-- Node1 -->
<g id="Node000001" class="node">
<title>Node1</title>
<g id="a_Node000001"><a xlink:title=" ">
<polygon fill="#999999" stroke="none" points="111,-100 0,-100 0,0 111,0 111,-100"/>
<text text-anchor="start" x="12" y="-86.5" font-family="Helvetica,sans-Serif" font-size="10.00">CompoundCondition</text>
<text text-anchor="start" x="54" y="-70.5" font-family="Helvetica,sans-Serif" font-size="10.00"> </text>
<text text-anchor="start" x="4" y="-54.5" font-family="Helvetica,sans-Serif" font-size="10.00">+</text>
<text text-anchor="start" x="14" y="-54.5" font-family="Helvetica,sans-Serif" font-size="10.00">CompoundCondition()</text>
<text text-anchor="start" x="4" y="-38.5" font-family="Helvetica,sans-Serif" font-size="10.00">+</text>
<text text-anchor="start" x="14" y="-38.5" font-family="Helvetica,sans-Serif" font-size="10.00">CompoundCondition()</text>
<text text-anchor="start" x="4" y="-22.5" font-family="Helvetica,sans-Serif" font-size="10.00">+</text>
<text text-anchor="start" x="14" y="-22.5" font-family="Helvetica,sans-Serif" font-size="10.00">IsSatisfied()</text>
<text text-anchor="start" x="4" y="-6.5" font-family="Helvetica,sans-Serif" font-size="10.00">+</text>
<text text-anchor="start" x="14" y="-6.5" font-family="Helvetica,sans-Serif" font-size="10.00">ToDebugString()</text>
<polygon fill="#666666" stroke="#666666" points="0,-82 0,-82 111,-82 111,-82 0,-82"/>
<polygon fill="#666666" stroke="#666666" points="0,-66 0,-66 111,-66 111,-66 0,-66"/>
<polygon fill="none" stroke="#666666" points="0,0 0,-100 111,-100 111,0 0,0"/>
</a>
</g>
</g>
<!-- Node2 -->
<g id="Node000002" class="node">
<title>Node2</title>
<g id="a_Node000002"><a xlink:href="interface_code_smile_1_1_statemachine_1_1_i_condition.html" target="_top" xlink:title=" ">
<polygon fill="white" stroke="none" points="99,-204 12,-204 12,-136 99,-136 99,-204"/>
<text text-anchor="start" x="34.12" y="-190.5" font-family="Helvetica,sans-Serif" font-size="10.00">ICondition</text>
<text text-anchor="start" x="54" y="-174.5" font-family="Helvetica,sans-Serif" font-size="10.00"> </text>
<text text-anchor="start" x="16" y="-158.5" font-family="Helvetica,sans-Serif" font-size="10.00">+</text>
<text text-anchor="start" x="26" y="-158.5" font-family="Helvetica,sans-Serif" font-size="10.00">IsSatisfied()</text>
<text text-anchor="start" x="16" y="-142.5" font-family="Helvetica,sans-Serif" font-size="10.00">+</text>
<text text-anchor="start" x="26" y="-142.5" font-family="Helvetica,sans-Serif" font-size="10.00">ToDebugString()</text>
<polygon fill="#bfbfbf" stroke="#bfbfbf" points="12,-186 12,-186 99,-186 99,-186 12,-186"/>
<polygon fill="#bfbfbf" stroke="#bfbfbf" points="12,-170 12,-170 99,-170 99,-170 12,-170"/>
<polygon fill="none" stroke="#bfbfbf" points="12,-136 12,-204 99,-204 99,-136 12,-136"/>
</a>
</g>
</g>
<!-- Node2&#45;&gt;Node1 -->
<g id="edge1_Node000001_Node000002" class="edge">
<title>Node2&#45;&gt;Node1</title>
<g id="a_edge1_Node000001_Node000002"><a xlink:title=" ">
<path fill="none" stroke="#63b8ff" d="M55.5,-124.83C55.5,-116.59 55.5,-107.94 55.5,-99.58"/>
<polygon fill="none" stroke="#63b8ff" points="52,-124.62 55.5,-134.62 59,-124.62 52,-124.62"/>
</a>
</g>
</g>
<!-- Node3 -->
<g id="Node000003" class="node">
<title>Node3</title>
<g id="a_Node000003"><a xlink:href="interface_code_smile_1_1_statemachine_1_1_i_statemachine_events.html" target="_top" xlink:title="Event methods that the Statemachine calls at specific times.">
<polygon fill="white" stroke="none" points="106,-340 5,-340 5,-240 106,-240 106,-340"/>
<text text-anchor="start" x="9.75" y="-326.5" font-family="Helvetica,sans-Serif" font-size="10.00">IStatemachineEvents</text>
<text text-anchor="start" x="54" y="-310.5" font-family="Helvetica,sans-Serif" font-size="10.00"> </text>
<text text-anchor="start" x="13.5" y="-294.5" font-family="Helvetica,sans-Serif" font-size="10.00">+</text>
<text text-anchor="start" x="28" y="-294.5" font-family="Helvetica,sans-Serif" font-size="10.00">OnEnterState()</text>
<text text-anchor="start" x="13.5" y="-278.5" font-family="Helvetica,sans-Serif" font-size="10.00">+</text>
<text text-anchor="start" x="28" y="-278.5" font-family="Helvetica,sans-Serif" font-size="10.00">OnExitState()</text>
<text text-anchor="start" x="13.5" y="-262.5" font-family="Helvetica,sans-Serif" font-size="10.00">+</text>
<text text-anchor="start" x="28" y="-262.5" font-family="Helvetica,sans-Serif" font-size="10.00">OnStart()</text>
<text text-anchor="start" x="13.5" y="-246.5" font-family="Helvetica,sans-Serif" font-size="10.00">+</text>
<text text-anchor="start" x="28" y="-246.5" font-family="Helvetica,sans-Serif" font-size="10.00">OnStop()</text>
<polygon fill="#666666" stroke="#666666" points="5,-322 5,-322 106,-322 106,-322 5,-322"/>
<polygon fill="#666666" stroke="#666666" points="5,-306 5,-306 106,-306 106,-306 5,-306"/>
<polygon fill="none" stroke="#666666" points="5,-240 5,-340 106,-340 106,-240 5,-240"/>
</a>
</g>
</g>
<!-- Node3&#45;&gt;Node2 -->
<g id="edge2_Node000002_Node000003" class="edge">
<title>Node3&#45;&gt;Node2</title>
<g id="a_edge2_Node000002_Node000003"><a xlink:title=" ">
<path fill="none" stroke="#63b8ff" d="M55.5,-228.96C55.5,-220.28 55.5,-211.62 55.5,-203.75"/>
<polygon fill="none" stroke="#63b8ff" points="52,-228.81 55.5,-238.81 59,-228.81 52,-228.81"/>
</a>
</g>
</g>
</g>
</svg>
