<?xml version="1.0" encoding="UTF-8" standalone="no"?>
<!DOCTYPE svg PUBLIC "-//W3C//DTD SVG 1.1//EN"
 "http://www.w3.org/Graphics/SVG/1.1/DTD/svg11.dtd">
<!-- Generated by graphviz version 9.0.0 (20230911.1827)
 -->
<!-- Title: VariableBase Pages: 1 -->
<svg width="402pt" height="228pt"
 viewBox="0.00 0.00 402.00 228.00" xmlns="http://www.w3.org/2000/svg" xmlns:xlink="http://www.w3.org/1999/xlink">

<svg id="main" version="1.1" xmlns="http://www.w3.org/2000/svg" xmlns:xlink="http://www.w3.org/1999/xlink" xml:space="preserve">

<style type="text/css"><![CDATA[
.node, .edge {opacity: 0.7;}
.node.selected, .edge.selected {opacity: 1;}
.edge:hover path { stroke: red; }
.edge:hover polygon { stroke: red; fill: red; }
]]></style>
<script type="application/ecmascript" xlink:href="svg.min.js"/>
<svg id="graph" class="graph">
<g id="graph0" class="graph" transform="scale(1 1) rotate(0) translate(4 224)">
<title>VariableBase</title>
<!-- Node1 -->
<g id="Node000001" class="node">
<title>Node1</title>
<g id="a_Node000001"><a xlink:title="Base class for all FSM variables.">
<polygon fill="#999999" stroke="none" points="239,-220 154,-220 154,-136 239,-136 239,-220"/>
<text text-anchor="start" x="167.62" y="-206.5" font-family="Helvetica,sans-Serif" font-size="10.00">VariableBase</text>
<text text-anchor="start" x="195" y="-190.5" font-family="Helvetica,sans-Serif" font-size="10.00"> </text>
<text text-anchor="start" x="158" y="-174.5" font-family="Helvetica,sans-Serif" font-size="10.00">+</text>
<text text-anchor="start" x="168" y="-174.5" font-family="Helvetica,sans-Serif" font-size="10.00">DivideValue()</text>
<text text-anchor="start" x="158" y="-158.5" font-family="Helvetica,sans-Serif" font-size="10.00">+</text>
<text text-anchor="start" x="168" y="-158.5" font-family="Helvetica,sans-Serif" font-size="10.00">MultiplyValue()</text>
<text text-anchor="start" x="158" y="-142.5" font-family="Helvetica,sans-Serif" font-size="10.00">+</text>
<text text-anchor="start" x="168" y="-142.5" font-family="Helvetica,sans-Serif" font-size="10.00">SubtractValue()</text>
<polygon fill="#666666" stroke="#666666" points="154,-202 154,-202 239,-202 239,-202 154,-202"/>
<polygon fill="#666666" stroke="#666666" points="154,-186 154,-186 239,-186 239,-186 154,-186"/>
<polygon fill="none" stroke="#666666" points="154,-136 154,-220 239,-220 239,-136 154,-136"/>
</a>
</g>
</g>
<!-- Node2 -->
<g id="Node000002" class="node">
<title>Node2</title>
<g id="a_Node000002"><a xlink:href="class_code_smile_1_1_statemachine_1_1_bool_var.html" target="_top" xlink:title="Represents a boolean FSM variable.">
<polygon fill="white" stroke="none" points="85,-100 0,-100 0,0 85,0 85,-100"/>
<text text-anchor="start" x="25.25" y="-86.5" font-family="Helvetica,sans-Serif" font-size="10.00">BoolVar</text>
<text text-anchor="start" x="4" y="-70.5" font-family="Helvetica,sans-Serif" font-size="10.00">+</text>
<text text-anchor="start" x="14" y="-70.5" font-family="Helvetica,sans-Serif" font-size="10.00">Value</text>
<text text-anchor="start" x="4" y="-54.5" font-family="Helvetica,sans-Serif" font-size="10.00">+</text>
<text text-anchor="start" x="14" y="-54.5" font-family="Helvetica,sans-Serif" font-size="10.00">BoolVar()</text>
<text text-anchor="start" x="4" y="-38.5" font-family="Helvetica,sans-Serif" font-size="10.00">+</text>
<text text-anchor="start" x="14" y="-38.5" font-family="Helvetica,sans-Serif" font-size="10.00">DivideValue()</text>
<text text-anchor="start" x="4" y="-22.5" font-family="Helvetica,sans-Serif" font-size="10.00">+</text>
<text text-anchor="start" x="14" y="-22.5" font-family="Helvetica,sans-Serif" font-size="10.00">MultiplyValue()</text>
<text text-anchor="start" x="4" y="-6.5" font-family="Helvetica,sans-Serif" font-size="10.00">+</text>
<text text-anchor="start" x="14" y="-6.5" font-family="Helvetica,sans-Serif" font-size="10.00">SubtractValue()</text>
<polygon fill="#666666" stroke="#666666" points="0,-82 0,-82 85,-82 85,-82 0,-82"/>
<polygon fill="#666666" stroke="#666666" points="0,-66 0,-66 12,-66 12,-66 0,-66"/>
<polygon fill="#666666" stroke="#666666" points="12,-66 12,-66 85,-66 85,-66 12,-66"/>
<polygon fill="none" stroke="#666666" points="0,0 0,-100 85,-100 85,0 0,0"/>
</a>
</g>
</g>
<!-- Node1&#45;&gt;Node2 -->
<g id="edge1_Node000001_Node000002" class="edge">
<title>Node1&#45;&gt;Node2</title>
<g id="a_edge1_Node000001_Node000002"><a xlink:title=" ">
<path fill="none" stroke="#63b8ff" d="M145.12,-140.52C128.32,-128.09 109.8,-113.83 93.5,-100 90.69,-97.62 87.84,-95.12 85,-92.57"/>
<polygon fill="none" stroke="#63b8ff" points="142.89,-143.23 153.03,-146.33 147.04,-137.59 142.89,-143.23"/>
</a>
</g>
</g>
<!-- Node3 -->
<g id="Node000003" class="node">
<title>Node3</title>
<g id="a_Node000003"><a xlink:href="class_code_smile_1_1_statemachine_1_1_float_var.html" target="_top" xlink:title="Represents a float FSM variable.">
<polygon fill="white" stroke="none" points="188,-100 103,-100 103,0 188,0 188,-100"/>
<text text-anchor="start" x="127.12" y="-86.5" font-family="Helvetica,sans-Serif" font-size="10.00">FloatVar</text>
<text text-anchor="start" x="107" y="-70.5" font-family="Helvetica,sans-Serif" font-size="10.00">+</text>
<text text-anchor="start" x="117" y="-70.5" font-family="Helvetica,sans-Serif" font-size="10.00">Value</text>
<text text-anchor="start" x="107" y="-54.5" font-family="Helvetica,sans-Serif" font-size="10.00">+</text>
<text text-anchor="start" x="117" y="-54.5" font-family="Helvetica,sans-Serif" font-size="10.00">FloatVar()</text>
<text text-anchor="start" x="107" y="-38.5" font-family="Helvetica,sans-Serif" font-size="10.00">+</text>
<text text-anchor="start" x="117" y="-38.5" font-family="Helvetica,sans-Serif" font-size="10.00">DivideValue()</text>
<text text-anchor="start" x="107" y="-22.5" font-family="Helvetica,sans-Serif" font-size="10.00">+</text>
<text text-anchor="start" x="117" y="-22.5" font-family="Helvetica,sans-Serif" font-size="10.00">MultiplyValue()</text>
<text text-anchor="start" x="107" y="-6.5" font-family="Helvetica,sans-Serif" font-size="10.00">+</text>
<text text-anchor="start" x="117" y="-6.5" font-family="Helvetica,sans-Serif" font-size="10.00">SubtractValue()</text>
<polygon fill="#666666" stroke="#666666" points="103,-82 103,-82 188,-82 188,-82 103,-82"/>
<polygon fill="#666666" stroke="#666666" points="103,-66 103,-66 115,-66 115,-66 103,-66"/>
<polygon fill="#666666" stroke="#666666" points="115,-66 115,-66 188,-66 188,-66 115,-66"/>
<polygon fill="none" stroke="#666666" points="103,0 103,-100 188,-100 188,0 103,0"/>
</a>
</g>
</g>
<!-- Node1&#45;&gt;Node3 -->
<g id="edge2_Node000001_Node000003" class="edge">
<title>Node1&#45;&gt;Node3</title>
<g id="a_edge2_Node000001_Node000003"><a xlink:title=" ">
<path fill="none" stroke="#63b8ff" d="M175.64,-125.47C172.18,-116.92 168.6,-108.08 165.17,-99.61"/>
<polygon fill="none" stroke="#63b8ff" points="172.38,-126.73 179.37,-134.69 178.87,-124.11 172.38,-126.73"/>
</a>
</g>
</g>
<!-- Node4 -->
<g id="Node000004" class="node">
<title>Node4</title>
<g id="a_Node000004"><a xlink:href="class_code_smile_1_1_statemachine_1_1_int_var.html" target="_top" xlink:title="Represents an integer FSM variable.">
<polygon fill="white" stroke="none" points="291,-100 206,-100 206,0 291,0 291,-100"/>
<text text-anchor="start" x="235.75" y="-86.5" font-family="Helvetica,sans-Serif" font-size="10.00">IntVar</text>
<text text-anchor="start" x="210" y="-70.5" font-family="Helvetica,sans-Serif" font-size="10.00">+</text>
<text text-anchor="start" x="220" y="-70.5" font-family="Helvetica,sans-Serif" font-size="10.00">Value</text>
<text text-anchor="start" x="210" y="-54.5" font-family="Helvetica,sans-Serif" font-size="10.00">+</text>
<text text-anchor="start" x="220" y="-54.5" font-family="Helvetica,sans-Serif" font-size="10.00">IntVar()</text>
<text text-anchor="start" x="210" y="-38.5" font-family="Helvetica,sans-Serif" font-size="10.00">+</text>
<text text-anchor="start" x="220" y="-38.5" font-family="Helvetica,sans-Serif" font-size="10.00">DivideValue()</text>
<text text-anchor="start" x="210" y="-22.5" font-family="Helvetica,sans-Serif" font-size="10.00">+</text>
<text text-anchor="start" x="220" y="-22.5" font-family="Helvetica,sans-Serif" font-size="10.00">MultiplyValue()</text>
<text text-anchor="start" x="210" y="-6.5" font-family="Helvetica,sans-Serif" font-size="10.00">+</text>
<text text-anchor="start" x="220" y="-6.5" font-family="Helvetica,sans-Serif" font-size="10.00">SubtractValue()</text>
<polygon fill="#666666" stroke="#666666" points="206,-82 206,-82 291,-82 291,-82 206,-82"/>
<polygon fill="#666666" stroke="#666666" points="206,-66 206,-66 218,-66 218,-66 206,-66"/>
<polygon fill="#666666" stroke="#666666" points="218,-66 218,-66 291,-66 291,-66 218,-66"/>
<polygon fill="none" stroke="#666666" points="206,0 206,-100 291,-100 291,0 206,0"/>
</a>
</g>
</g>
<!-- Node1&#45;&gt;Node4 -->
<g id="edge3_Node000001_Node000004" class="edge">
<title>Node1&#45;&gt;Node4</title>
<g id="a_edge3_Node000001_Node000004"><a xlink:title=" ">
<path fill="none" stroke="#63b8ff" d="M217.77,-125.47C221.29,-116.92 224.94,-108.08 228.44,-99.61"/>
<polygon fill="none" stroke="#63b8ff" points="214.54,-124.11 213.96,-134.69 221.01,-126.78 214.54,-124.11"/>
</a>
</g>
</g>
<!-- Node5 -->
<g id="Node000005" class="node">
<title>Node5</title>
<g id="a_Node000005"><a xlink:href="class_code_smile_1_1_statemachine_1_1_var.html" target="_top" xlink:title="Represents a generic (struct) FSM variable.">
<polygon fill="white" stroke="none" points="394,-100 309,-100 309,0 394,0 394,-100"/>
<text text-anchor="start" x="332.38" y="-86.5" font-family="Helvetica,sans-Serif" font-size="10.00">Var&lt; T &gt;</text>
<text text-anchor="start" x="313" y="-70.5" font-family="Helvetica,sans-Serif" font-size="10.00">+</text>
<text text-anchor="start" x="323" y="-70.5" font-family="Helvetica,sans-Serif" font-size="10.00">Value</text>
<text text-anchor="start" x="313" y="-54.5" font-family="Helvetica,sans-Serif" font-size="10.00">+</text>
<text text-anchor="start" x="323" y="-54.5" font-family="Helvetica,sans-Serif" font-size="10.00">Var()</text>
<text text-anchor="start" x="313" y="-38.5" font-family="Helvetica,sans-Serif" font-size="10.00">+</text>
<text text-anchor="start" x="323" y="-38.5" font-family="Helvetica,sans-Serif" font-size="10.00">DivideValue()</text>
<text text-anchor="start" x="313" y="-22.5" font-family="Helvetica,sans-Serif" font-size="10.00">+</text>
<text text-anchor="start" x="323" y="-22.5" font-family="Helvetica,sans-Serif" font-size="10.00">MultiplyValue()</text>
<text text-anchor="start" x="313" y="-6.5" font-family="Helvetica,sans-Serif" font-size="10.00">+</text>
<text text-anchor="start" x="323" y="-6.5" font-family="Helvetica,sans-Serif" font-size="10.00">SubtractValue()</text>
<polygon fill="#666666" stroke="#666666" points="309,-82 309,-82 394,-82 394,-82 309,-82"/>
<polygon fill="#666666" stroke="#666666" points="309,-66 309,-66 321,-66 321,-66 309,-66"/>
<polygon fill="#666666" stroke="#666666" points="321,-66 321,-66 394,-66 394,-66 321,-66"/>
<polygon fill="none" stroke="#666666" points="309,0 309,-100 394,-100 394,0 309,0"/>
</a>
</g>
</g>
<!-- Node1&#45;&gt;Node5 -->
<g id="edge4_Node000001_Node000005" class="edge">
<title>Node1&#45;&gt;Node5</title>
<g id="a_edge4_Node000001_Node000005"><a xlink:title=" ">
<path fill="none" stroke="#63b8ff" d="M248.19,-140.74C265.21,-128.28 283.99,-113.94 300.5,-100 303.31,-97.62 306.17,-95.13 309.02,-92.58"/>
<polygon fill="none" stroke="#63b8ff" points="246.2,-137.86 240.16,-146.57 250.31,-143.53 246.2,-137.86"/>
</a>
</g>
</g>
</g>
</svg>
</svg>

<style type='text/css'>
<![CDATA[
[data-mouse-over-selected='false'] { opacity: 0.7; }
[data-mouse-over-selected='true']  { opacity: 1.0; }
]]>
</style>
<script type="application/ecmascript"><![CDATA[
document.addEventListener('DOMContentLoaded', (event) => {
  highlightEdges();
  highlightAdjacentNodes();
});
]]></script>
</svg>
