<?xml version="1.0" encoding="UTF-8" standalone="no"?>
<!DOCTYPE svg PUBLIC "-//W3C//DTD SVG 1.1//EN"
 "http://www.w3.org/Graphics/SVG/1.1/DTD/svg11.dtd">
<!-- Generated by graphviz version 9.0.0 (20230911.1827)
 -->
<!-- Title: PlayerControllerPrefabs Pages: 1 -->
<svg width="172pt" height="296pt"
 viewBox="0.00 0.00 172.00 296.00" xmlns="http://www.w3.org/2000/svg" xmlns:xlink="http://www.w3.org/1999/xlink">
<g id="graph0" class="graph" transform="scale(1 1) rotate(0) translate(4 292)">
<title>PlayerControllerPrefabs</title>
<!-- Node1 -->
<g id="Node000001" class="node">
<title>Node1</title>
<g id="a_Node000001"><a xlink:title=" ">
<polygon fill="#999999" stroke="none" points="142,-52 30,-52 30,0 142,0 142,-52"/>
<text text-anchor="start" x="35" y="-38.5" font-family="Helvetica,sans-Serif" font-size="10.00">PlayerControllerPrefabs</text>
<text text-anchor="start" x="84.5" y="-22.5" font-family="Helvetica,sans-Serif" font-size="10.00"> </text>
<text text-anchor="start" x="84.5" y="-6.5" font-family="Helvetica,sans-Serif" font-size="10.00"> </text>
<polygon fill="#666666" stroke="#666666" points="30,-34 30,-34 142,-34 142,-34 30,-34"/>
<polygon fill="#666666" stroke="#666666" points="30,-18 30,-18 142,-18 142,-18 30,-18"/>
<polygon fill="none" stroke="#666666" points="30,0 30,-52 142,-52 142,0 30,0"/>
</a>
</g>
</g>
<!-- Node2 -->
<g id="Node000002" class="node">
<title>Node2</title>
<g id="a_Node000002"><a xlink:href="class_code_smile_1_1_multi_pal_1_1_settings_1_1_prefabs_list_base.html" target="_top" xlink:title=" ">
<polygon fill="white" stroke="none" points="164,-200 8,-200 8,-88 164,-88 164,-200"/>
<text text-anchor="start" x="50.38" y="-186.5" font-family="Helvetica,sans-Serif" font-size="10.00">PrefabsListBase</text>
<text text-anchor="start" x="12" y="-170.5" font-family="Helvetica,sans-Serif" font-size="10.00">+</text>
<text text-anchor="start" x="22" y="-170.5" font-family="Helvetica,sans-Serif" font-size="10.00">Count</text>
<text text-anchor="start" x="12" y="-154.5" font-family="Helvetica,sans-Serif" font-size="10.00">+</text>
<text text-anchor="start" x="22" y="-154.5" font-family="Helvetica,sans-Serif" font-size="10.00">this[Int32 index]</text>
<text text-anchor="start" x="12.38" y="-138.5" font-family="Helvetica,sans-Serif" font-size="10.00">#</text>
<text text-anchor="start" x="22" y="-138.5" font-family="Helvetica,sans-Serif" font-size="10.00">m_Prefabs</text>
<text text-anchor="start" x="12" y="-122.5" font-family="Helvetica,sans-Serif" font-size="10.00">+</text>
<text text-anchor="start" x="22" y="-122.5" font-family="Helvetica,sans-Serif" font-size="10.00">GetEnumerator()</text>
<text text-anchor="start" x="12" y="-106.5" font-family="Helvetica,sans-Serif" font-size="10.00">+</text>
<text text-anchor="start" x="22" y="-106.5" font-family="Helvetica,sans-Serif" font-size="10.00">ValidatePrefabsHaveComponent</text>
<text text-anchor="start" x="22" y="-94.5" font-family="Helvetica,sans-Serif" font-size="10.00">&lt; T &gt;()</text>
<polygon fill="#bfbfbf" stroke="#bfbfbf" points="8,-182 8,-182 164,-182 164,-182 8,-182"/>
<polygon fill="#bfbfbf" stroke="#bfbfbf" points="8,-134 8,-134 20,-134 20,-134 8,-134"/>
<polygon fill="#bfbfbf" stroke="#bfbfbf" points="20,-134 20,-134 164,-134 164,-134 20,-134"/>
<polygon fill="none" stroke="#bfbfbf" points="8,-88 8,-200 164,-200 164,-88 8,-88"/>
</a>
</g>
</g>
<!-- Node2&#45;&gt;Node1 -->
<g id="edge1_Node000001_Node000002" class="edge">
<title>Node2&#45;&gt;Node1</title>
<g id="a_edge1_Node000001_Node000002"><a xlink:title=" ">
<path fill="none" stroke="#63b8ff" d="M86,-76.8C86,-67.98 86,-59.41 86,-51.94"/>
<polygon fill="none" stroke="#63b8ff" points="82.5,-76.54 86,-86.54 89.5,-76.54 82.5,-76.54"/>
</a>
</g>
</g>
<!-- Node3 -->
<g id="Node000003" class="node">
<title>Node3</title>
<g id="a_Node000003"><a xlink:title=" ">
<polygon fill="white" stroke="none" points="82,-288 0,-288 0,-236 82,-236 82,-288"/>
<text text-anchor="start" x="5" y="-274.5" font-family="Helvetica,sans-Serif" font-size="10.00">ScriptableObject</text>
<text text-anchor="start" x="39.5" y="-258.5" font-family="Helvetica,sans-Serif" font-size="10.00"> </text>
<text text-anchor="start" x="39.5" y="-242.5" font-family="Helvetica,sans-Serif" font-size="10.00"> </text>
<polygon fill="#bfbfbf" stroke="#bfbfbf" points="0,-270 0,-270 82,-270 82,-270 0,-270"/>
<polygon fill="#bfbfbf" stroke="#bfbfbf" points="0,-254 0,-254 82,-254 82,-254 0,-254"/>
<polygon fill="none" stroke="#bfbfbf" points="0,-236 0,-288 82,-288 82,-236 0,-236"/>
</a>
</g>
</g>
<!-- Node3&#45;&gt;Node2 -->
<g id="edge2_Node000002_Node000003" class="edge">
<title>Node3&#45;&gt;Node2</title>
<g id="a_edge2_Node000002_Node000003"><a xlink:title=" ">
<path fill="none" stroke="#63b8ff" d="M54.75,-225.55C57.9,-217.43 61.33,-208.61 64.71,-199.88"/>
<polygon fill="none" stroke="#63b8ff" points="51.55,-224.12 51.2,-234.7 58.08,-226.65 51.55,-224.12"/>
</a>
</g>
</g>
<!-- Node4 -->
<g id="Node000004" class="node">
<title>Node4</title>
<g id="a_Node000004"><a xlink:title=" ">
<polygon fill="white" stroke="none" points="164,-288 100,-288 100,-236 164,-236 164,-288"/>
<text text-anchor="start" x="105" y="-274.5" font-family="Helvetica,sans-Serif" font-size="10.00">IEnumerable</text>
<text text-anchor="start" x="130.5" y="-258.5" font-family="Helvetica,sans-Serif" font-size="10.00"> </text>
<text text-anchor="start" x="130.5" y="-242.5" font-family="Helvetica,sans-Serif" font-size="10.00"> </text>
<polygon fill="#bfbfbf" stroke="#bfbfbf" points="100,-270 100,-270 164,-270 164,-270 100,-270"/>
<polygon fill="#bfbfbf" stroke="#bfbfbf" points="100,-254 100,-254 164,-254 164,-254 100,-254"/>
<polygon fill="none" stroke="#bfbfbf" points="100,-236 100,-288 164,-288 164,-236 100,-236"/>
</a>
</g>
</g>
<!-- Node4&#45;&gt;Node2 -->
<g id="edge3_Node000002_Node000004" class="edge">
<title>Node4&#45;&gt;Node2</title>
<g id="a_edge3_Node000002_Node000004"><a xlink:title=" ">
<path fill="none" stroke="#63b8ff" d="M117.94,-225.55C114.72,-217.43 111.22,-208.61 107.76,-199.88"/>
<polygon fill="none" stroke="#63b8ff" points="114.63,-226.7 121.57,-234.71 121.14,-224.12 114.63,-226.7"/>
</a>
</g>
</g>
</g>
</svg>
