<?xml version="1.0" encoding="UTF-8" standalone="no"?>
<!DOCTYPE svg PUBLIC "-//W3C//DTD SVG 1.1//EN"
 "http://www.w3.org/Graphics/SVG/1.1/DTD/svg11.dtd">
<!-- Generated by graphviz version 9.0.0 (20230911.1827)
 -->
<!-- Title: CouchPlayers Pages: 1 -->
<svg width="178pt" height="244pt"
 viewBox="0.00 0.00 177.50 244.00" xmlns="http://www.w3.org/2000/svg" xmlns:xlink="http://www.w3.org/1999/xlink">
<g id="graph0" class="graph" transform="scale(1 1) rotate(0) translate(4 240)">
<title>CouchPlayers</title>
<!-- Node1 -->
<g id="Node000001" class="node">
<title>Node1</title>
<g id="a_Node000001"><a xlink:title="Represents the group of players (1&#45;4) playing on a single client.">
<polygon fill="#999999" stroke="none" points="147,-148 34,-148 34,0 147,0 147,-148"/>
<text text-anchor="start" x="60.12" y="-134.5" font-family="Helvetica,sans-Serif" font-size="10.00">CouchPlayers</text>
<text text-anchor="start" x="38" y="-118.5" font-family="Helvetica,sans-Serif" font-size="10.00">+</text>
<text text-anchor="start" x="48" y="-118.5" font-family="Helvetica,sans-Serif" font-size="10.00">PlayerCount</text>
<text text-anchor="start" x="38" y="-102.5" font-family="Helvetica,sans-Serif" font-size="10.00">+</text>
<text text-anchor="start" x="48" y="-102.5" font-family="Helvetica,sans-Serif" font-size="10.00">this[Int32 index]</text>
<text text-anchor="start" x="38" y="-86.5" font-family="Helvetica,sans-Serif" font-size="10.00">+</text>
<text text-anchor="start" x="48" y="-86.5" font-family="Helvetica,sans-Serif" font-size="10.00">GetEnumerator()</text>
<text text-anchor="start" x="38" y="-70.5" font-family="Helvetica,sans-Serif" font-size="10.00">+</text>
<text text-anchor="start" x="48" y="-70.5" font-family="Helvetica,sans-Serif" font-size="10.00">OnNetworkDespawn()</text>
<text text-anchor="start" x="38" y="-54.5" font-family="Helvetica,sans-Serif" font-size="10.00">+</text>
<text text-anchor="start" x="48" y="-54.5" font-family="Helvetica,sans-Serif" font-size="10.00">OnNetworkSpawn()</text>
<text text-anchor="start" x="38" y="-38.5" font-family="Helvetica,sans-Serif" font-size="10.00">+</text>
<text text-anchor="start" x="48" y="-38.5" font-family="Helvetica,sans-Serif" font-size="10.00">StartSpawnPlayers()</text>
<text text-anchor="start" x="38" y="-22.5" font-family="Helvetica,sans-Serif" font-size="10.00">~</text>
<text text-anchor="start" x="48" y="-22.5" font-family="Helvetica,sans-Serif" font-size="10.00">RemotePlayerJoined()</text>
<text text-anchor="start" x="38" y="-6.5" font-family="Helvetica,sans-Serif" font-size="10.00">~</text>
<text text-anchor="start" x="48" y="-6.5" font-family="Helvetica,sans-Serif" font-size="10.00">RemotePlayerLeft()</text>
<polygon fill="#666666" stroke="#666666" points="34,-130 34,-130 147,-130 147,-130 34,-130"/>
<polygon fill="#666666" stroke="#666666" points="34,-98 34,-98 46,-98 46,-98 34,-98"/>
<polygon fill="#666666" stroke="#666666" points="46,-98 46,-98 147,-98 147,-98 46,-98"/>
<polygon fill="none" stroke="#666666" points="34,0 34,-148 147,-148 147,0 34,0"/>
</a>
</g>
</g>
<!-- Node2 -->
<g id="Node000002" class="node">
<title>Node2</title>
<g id="a_Node000002"><a xlink:title=" ">
<polygon fill="white" stroke="none" points="87,-236 0,-236 0,-184 87,-184 87,-236"/>
<text text-anchor="start" x="4.88" y="-222.5" font-family="Helvetica,sans-Serif" font-size="10.00">NetworkBehaviour</text>
<text text-anchor="start" x="42" y="-206.5" font-family="Helvetica,sans-Serif" font-size="10.00"> </text>
<text text-anchor="start" x="42" y="-190.5" font-family="Helvetica,sans-Serif" font-size="10.00"> </text>
<polygon fill="#bfbfbf" stroke="#bfbfbf" points="0,-218 0,-218 87,-218 87,-218 0,-218"/>
<polygon fill="#bfbfbf" stroke="#bfbfbf" points="0,-202 0,-202 87,-202 87,-202 0,-202"/>
<polygon fill="none" stroke="#bfbfbf" points="0,-184 0,-236 87,-236 87,-184 0,-184"/>
</a>
</g>
</g>
<!-- Node2&#45;&gt;Node1 -->
<g id="edge1_Node000001_Node000002" class="edge">
<title>Node2&#45;&gt;Node1</title>
<g id="a_edge1_Node000001_Node000002"><a xlink:title=" ">
<path fill="none" stroke="#63b8ff" d="M55.98,-173.43C58.77,-165.47 61.83,-156.75 64.94,-147.88"/>
<polygon fill="none" stroke="#63b8ff" points="52.74,-172.09 52.73,-182.68 59.34,-174.4 52.74,-172.09"/>
</a>
</g>
</g>
<!-- Node3 -->
<g id="Node000003" class="node">
<title>Node3</title>
<g id="a_Node000003"><a xlink:title=" ">
<polygon fill="white" stroke="none" points="169.5,-236 105.5,-236 105.5,-184 169.5,-184 169.5,-236"/>
<text text-anchor="start" x="110.5" y="-222.5" font-family="Helvetica,sans-Serif" font-size="10.00">IEnumerable</text>
<text text-anchor="start" x="136" y="-206.5" font-family="Helvetica,sans-Serif" font-size="10.00"> </text>
<text text-anchor="start" x="136" y="-190.5" font-family="Helvetica,sans-Serif" font-size="10.00"> </text>
<polygon fill="#bfbfbf" stroke="#bfbfbf" points="105.5,-218 105.5,-218 169.5,-218 169.5,-218 105.5,-218"/>
<polygon fill="#bfbfbf" stroke="#bfbfbf" points="105.5,-202 105.5,-202 169.5,-202 169.5,-202 105.5,-202"/>
<polygon fill="none" stroke="#bfbfbf" points="105.5,-184 105.5,-236 169.5,-236 169.5,-184 105.5,-184"/>
</a>
</g>
</g>
<!-- Node3&#45;&gt;Node1 -->
<g id="edge2_Node000001_Node000003" class="edge">
<title>Node3&#45;&gt;Node1</title>
<g id="a_edge2_Node000001_Node000003"><a xlink:title=" ">
<path fill="none" stroke="#63b8ff" d="M125.02,-173.43C122.23,-165.47 119.17,-156.75 116.06,-147.88"/>
<polygon fill="none" stroke="#63b8ff" points="121.66,-174.4 128.27,-182.68 128.26,-172.09 121.66,-174.4"/>
</a>
</g>
</g>
</g>
</svg>
