<?xml version="1.0" encoding="UTF-8" standalone="no"?>
<!DOCTYPE svg PUBLIC "-//W3C//DTD SVG 1.1//EN"
 "http://www.w3.org/Graphics/SVG/1.1/DTD/svg11.dtd">
<!-- Generated by graphviz version 9.0.0 (20230911.1827)
 -->
<!-- Title: GameStateConditionBase Pages: 1 -->
<svg width="287pt" height="236pt"
 viewBox="0.00 0.00 287.00 236.00" xmlns="http://www.w3.org/2000/svg" xmlns:xlink="http://www.w3.org/1999/xlink">

<svg id="main" version="1.1" xmlns="http://www.w3.org/2000/svg" xmlns:xlink="http://www.w3.org/1999/xlink" xml:space="preserve">

<style type="text/css"><![CDATA[
.node, .edge {opacity: 0.7;}
.node.selected, .edge.selected {opacity: 1;}
.edge:hover path { stroke: red; }
.edge:hover polygon { stroke: red; fill: red; }
]]></style>
<script type="application/ecmascript" xlink:href="svg.min.js"/>
<svg id="graph" class="graph">
<g id="graph0" class="graph" transform="scale(1 1) rotate(0) translate(4 232)">
<title>GameStateConditionBase</title>
<!-- Node1 -->
<g id="Node000001" class="node">
<title>Node1</title>
<g id="a_Node000001"><a xlink:title=" ">
<polygon fill="#999999" stroke="none" points="212.5,-140 90.5,-140 90.5,-88 212.5,-88 212.5,-140"/>
<text text-anchor="start" x="95.25" y="-126.5" font-family="Helvetica,sans-Serif" font-size="10.00">GameStateConditionBase</text>
<text text-anchor="start" x="150" y="-110.5" font-family="Helvetica,sans-Serif" font-size="10.00"> </text>
<text text-anchor="start" x="150" y="-94.5" font-family="Helvetica,sans-Serif" font-size="10.00"> </text>
<polygon fill="#666666" stroke="#666666" points="90.5,-122 90.5,-122 212.5,-122 212.5,-122 90.5,-122"/>
<polygon fill="#666666" stroke="#666666" points="90.5,-106 90.5,-106 212.5,-106 212.5,-106 90.5,-106"/>
<polygon fill="none" stroke="#666666" points="90.5,-88 90.5,-140 212.5,-140 212.5,-88 90.5,-88"/>
</a>
</g>
</g>
<!-- Node3 -->
<g id="Node000003" class="node">
<title>Node3</title>
<g id="a_Node000003"><a xlink:href="class_code_smile_1_1_multi_pal_1_1_settings_1_1_game_states_1_1_on_timeout_condition.html" target="_top" xlink:title=" ">
<polygon fill="white" stroke="none" points="97,-52 0,-52 0,0 97,0 97,-52"/>
<text text-anchor="start" x="4.62" y="-38.5" font-family="Helvetica,sans-Serif" font-size="10.00">OnTimeoutCondition</text>
<text text-anchor="start" x="47" y="-22.5" font-family="Helvetica,sans-Serif" font-size="10.00"> </text>
<text text-anchor="start" x="47" y="-6.5" font-family="Helvetica,sans-Serif" font-size="10.00"> </text>
<polygon fill="#bfbfbf" stroke="#bfbfbf" points="0,-34 0,-34 97,-34 97,-34 0,-34"/>
<polygon fill="#bfbfbf" stroke="#bfbfbf" points="0,-18 0,-18 97,-18 97,-18 0,-18"/>
<polygon fill="none" stroke="#bfbfbf" points="0,0 0,-52 97,-52 97,0 0,0"/>
</a>
</g>
</g>
<!-- Node1&#45;&gt;Node3 -->
<g id="edge2_Node000001_Node000003" class="edge">
<title>Node1&#45;&gt;Node3</title>
<g id="a_edge2_Node000001_Node000003"><a xlink:title=" ">
<path fill="none" stroke="#63b8ff" d="M113.11,-80.95C101.58,-71.32 89.11,-60.91 78.22,-51.82"/>
<polygon fill="none" stroke="#63b8ff" points="110.63,-83.43 120.55,-87.16 115.11,-78.06 110.63,-83.43"/>
</a>
</g>
</g>
<!-- Node4 -->
<g id="Node000004" class="node">
<title>Node4</title>
<g id="a_Node000004"><a xlink:href="class_code_smile_1_1_multi_pal_1_1_settings_1_1_game_states_1_1_on_went_offline.html" target="_top" xlink:title=" ">
<polygon fill="white" stroke="none" points="188,-52 115,-52 115,0 188,0 188,-52"/>
<text text-anchor="start" x="120" y="-38.5" font-family="Helvetica,sans-Serif" font-size="10.00">OnWentOffline</text>
<text text-anchor="start" x="150" y="-22.5" font-family="Helvetica,sans-Serif" font-size="10.00"> </text>
<text text-anchor="start" x="150" y="-6.5" font-family="Helvetica,sans-Serif" font-size="10.00"> </text>
<polygon fill="#bfbfbf" stroke="#bfbfbf" points="115,-34 115,-34 188,-34 188,-34 115,-34"/>
<polygon fill="#bfbfbf" stroke="#bfbfbf" points="115,-18 115,-18 188,-18 188,-18 115,-18"/>
<polygon fill="none" stroke="#bfbfbf" points="115,0 115,-52 188,-52 188,0 115,0"/>
</a>
</g>
</g>
<!-- Node1&#45;&gt;Node4 -->
<g id="edge3_Node000001_Node000004" class="edge">
<title>Node1&#45;&gt;Node4</title>
<g id="a_edge3_Node000001_Node000004"><a xlink:title=" ">
<path fill="none" stroke="#63b8ff" d="M151.5,-76.66C151.5,-68.29 151.5,-59.57 151.5,-51.82"/>
<polygon fill="none" stroke="#63b8ff" points="148,-76.61 151.5,-86.61 155,-76.61 148,-76.61"/>
</a>
</g>
</g>
<!-- Node5 -->
<g id="Node000005" class="node">
<title>Node5</title>
<g id="a_Node000005"><a xlink:href="class_code_smile_1_1_multi_pal_1_1_settings_1_1_game_states_1_1_on_went_online.html" target="_top" xlink:title=" ">
<polygon fill="white" stroke="none" points="279,-52 206,-52 206,0 279,0 279,-52"/>
<text text-anchor="start" x="210.62" y="-38.5" font-family="Helvetica,sans-Serif" font-size="10.00">OnWentOnline</text>
<text text-anchor="start" x="241" y="-22.5" font-family="Helvetica,sans-Serif" font-size="10.00"> </text>
<text text-anchor="start" x="241" y="-6.5" font-family="Helvetica,sans-Serif" font-size="10.00"> </text>
<polygon fill="#bfbfbf" stroke="#bfbfbf" points="206,-34 206,-34 279,-34 279,-34 206,-34"/>
<polygon fill="#bfbfbf" stroke="#bfbfbf" points="206,-18 206,-18 279,-18 279,-18 206,-18"/>
<polygon fill="none" stroke="#bfbfbf" points="206,0 206,-52 279,-52 279,0 206,0"/>
</a>
</g>
</g>
<!-- Node1&#45;&gt;Node5 -->
<g id="edge4_Node000001_Node000005" class="edge">
<title>Node1&#45;&gt;Node5</title>
<g id="a_edge4_Node000001_Node000005"><a xlink:title=" ">
<path fill="none" stroke="#63b8ff" d="M186.01,-80.38C196.03,-70.91 206.81,-60.73 216.24,-51.82"/>
<polygon fill="none" stroke="#63b8ff" points="183.78,-77.67 178.92,-87.09 188.59,-82.76 183.78,-77.67"/>
</a>
</g>
</g>
<!-- Node2 -->
<g id="Node000002" class="node">
<title>Node2</title>
<g id="a_Node000002"><a xlink:title=" ">
<polygon fill="white" stroke="none" points="192.5,-228 110.5,-228 110.5,-176 192.5,-176 192.5,-228"/>
<text text-anchor="start" x="115.5" y="-214.5" font-family="Helvetica,sans-Serif" font-size="10.00">ScriptableObject</text>
<text text-anchor="start" x="150" y="-198.5" font-family="Helvetica,sans-Serif" font-size="10.00"> </text>
<text text-anchor="start" x="150" y="-182.5" font-family="Helvetica,sans-Serif" font-size="10.00"> </text>
<polygon fill="#bfbfbf" stroke="#bfbfbf" points="110.5,-210 110.5,-210 192.5,-210 192.5,-210 110.5,-210"/>
<polygon fill="#bfbfbf" stroke="#bfbfbf" points="110.5,-194 110.5,-194 192.5,-194 192.5,-194 110.5,-194"/>
<polygon fill="none" stroke="#bfbfbf" points="110.5,-176 110.5,-228 192.5,-228 192.5,-176 110.5,-176"/>
</a>
</g>
</g>
<!-- Node2&#45;&gt;Node1 -->
<g id="edge1_Node000001_Node000002" class="edge">
<title>Node2&#45;&gt;Node1</title>
<g id="a_edge1_Node000001_Node000002"><a xlink:title=" ">
<path fill="none" stroke="#63b8ff" d="M151.5,-164.66C151.5,-156.29 151.5,-147.57 151.5,-139.82"/>
<polygon fill="none" stroke="#63b8ff" points="148,-164.61 151.5,-174.61 155,-164.61 148,-164.61"/>
</a>
</g>
</g>
</g>
</svg>
</svg>

<style type='text/css'>
<![CDATA[
[data-mouse-over-selected='false'] { opacity: 0.7; }
[data-mouse-over-selected='true']  { opacity: 1.0; }
]]>
</style>
<script type="application/ecmascript"><![CDATA[
document.addEventListener('DOMContentLoaded', (event) => {
  highlightEdges();
  highlightAdjacentNodes();
});
]]></script>
</svg>
