<?xml version="1.0" encoding="UTF-8" standalone="no"?>
<!DOCTYPE svg PUBLIC "-//W3C//DTD SVG 1.1//EN"
 "http://www.w3.org/Graphics/SVG/1.1/DTD/svg11.dtd">
<!-- Generated by graphviz version 9.0.0 (20230911.1827)
 -->
<!-- Title: IsNotNetcodeRole Pages: 1 -->
<svg width="110pt" height="452pt"
 viewBox="0.00 0.00 110.00 452.00" xmlns="http://www.w3.org/2000/svg" xmlns:xlink="http://www.w3.org/1999/xlink">
<g id="graph0" class="graph" transform="scale(1 1) rotate(0) translate(4 448)">
<title>IsNotNetcodeRole</title>
<!-- Node1 -->
<g id="Node000001" class="node">
<title>Node1</title>
<g id="a_Node000001"><a xlink:title=" ">
<polygon fill="#999999" stroke="none" points="102,-84 0,-84 0,0 102,0 102,-84"/>
<text text-anchor="start" x="12" y="-70.5" font-family="Helvetica,sans-Serif" font-size="10.00">IsNotNetcodeRole</text>
<text text-anchor="start" x="49.5" y="-54.5" font-family="Helvetica,sans-Serif" font-size="10.00"> </text>
<text text-anchor="start" x="4" y="-38.5" font-family="Helvetica,sans-Serif" font-size="10.00">+</text>
<text text-anchor="start" x="14" y="-38.5" font-family="Helvetica,sans-Serif" font-size="10.00">IsNotNetcodeRole()</text>
<text text-anchor="start" x="4" y="-22.5" font-family="Helvetica,sans-Serif" font-size="10.00">+</text>
<text text-anchor="start" x="14" y="-22.5" font-family="Helvetica,sans-Serif" font-size="10.00">IsSatisfied()</text>
<text text-anchor="start" x="4" y="-6.5" font-family="Helvetica,sans-Serif" font-size="10.00">+</text>
<text text-anchor="start" x="14" y="-6.5" font-family="Helvetica,sans-Serif" font-size="10.00">ToDebugString()</text>
<polygon fill="#666666" stroke="#666666" points="0,-66 0,-66 102,-66 102,-66 0,-66"/>
<polygon fill="#666666" stroke="#666666" points="0,-50 0,-50 102,-50 102,-50 0,-50"/>
<polygon fill="none" stroke="#666666" points="0,0 0,-84 102,-84 102,0 0,0"/>
</a>
</g>
</g>
<!-- Node2 -->
<g id="Node000002" class="node">
<title>Node2</title>
<g id="a_Node000002"><a xlink:href="class_code_smile_1_1_statemachine_1_1_netcode_1_1_conditions_1_1_is_netcode_role.html" target="_top" xlink:title=" ">
<polygon fill="white" stroke="none" points="94.5,-204 7.5,-204 7.5,-120 94.5,-120 94.5,-204"/>
<text text-anchor="start" x="19.5" y="-190.5" font-family="Helvetica,sans-Serif" font-size="10.00">IsNetcodeRole</text>
<text text-anchor="start" x="11.88" y="-174.5" font-family="Helvetica,sans-Serif" font-size="10.00">#</text>
<text text-anchor="start" x="21.5" y="-174.5" font-family="Helvetica,sans-Serif" font-size="10.00">m_Role</text>
<text text-anchor="start" x="11.5" y="-158.5" font-family="Helvetica,sans-Serif" font-size="10.00">+</text>
<text text-anchor="start" x="21.5" y="-158.5" font-family="Helvetica,sans-Serif" font-size="10.00">IsNetcodeRole()</text>
<text text-anchor="start" x="11.5" y="-142.5" font-family="Helvetica,sans-Serif" font-size="10.00">+</text>
<text text-anchor="start" x="21.5" y="-142.5" font-family="Helvetica,sans-Serif" font-size="10.00">IsSatisfied()</text>
<text text-anchor="start" x="11.5" y="-126.5" font-family="Helvetica,sans-Serif" font-size="10.00">+</text>
<text text-anchor="start" x="21.5" y="-126.5" font-family="Helvetica,sans-Serif" font-size="10.00">ToDebugString()</text>
<polygon fill="#bfbfbf" stroke="#bfbfbf" points="7.5,-186 7.5,-186 94.5,-186 94.5,-186 7.5,-186"/>
<polygon fill="#bfbfbf" stroke="#bfbfbf" points="7.5,-170 7.5,-170 19.5,-170 19.5,-170 7.5,-170"/>
<polygon fill="#bfbfbf" stroke="#bfbfbf" points="19.5,-170 19.5,-170 94.5,-170 94.5,-170 19.5,-170"/>
<polygon fill="none" stroke="#bfbfbf" points="7.5,-120 7.5,-204 94.5,-204 94.5,-120 7.5,-120"/>
</a>
</g>
</g>
<!-- Node2&#45;&gt;Node1 -->
<g id="edge1_Node000001_Node000002" class="edge">
<title>Node2&#45;&gt;Node1</title>
<g id="a_edge1_Node000001_Node000002"><a xlink:title=" ">
<path fill="none" stroke="#63b8ff" d="M51,-108.55C51,-100.27 51,-91.83 51,-83.87"/>
<polygon fill="none" stroke="#63b8ff" points="47.5,-108.55 51,-118.55 54.5,-108.55 47.5,-108.55"/>
</a>
</g>
</g>
<!-- Node3 -->
<g id="Node000003" class="node">
<title>Node3</title>
<g id="a_Node000003"><a xlink:href="interface_code_smile_1_1_statemachine_1_1_i_condition.html" target="_top" xlink:title=" ">
<polygon fill="white" stroke="none" points="94.5,-308 7.5,-308 7.5,-240 94.5,-240 94.5,-308"/>
<text text-anchor="start" x="29.62" y="-294.5" font-family="Helvetica,sans-Serif" font-size="10.00">ICondition</text>
<text text-anchor="start" x="49.5" y="-278.5" font-family="Helvetica,sans-Serif" font-size="10.00"> </text>
<text text-anchor="start" x="11.5" y="-262.5" font-family="Helvetica,sans-Serif" font-size="10.00">+</text>
<text text-anchor="start" x="21.5" y="-262.5" font-family="Helvetica,sans-Serif" font-size="10.00">IsSatisfied()</text>
<text text-anchor="start" x="11.5" y="-246.5" font-family="Helvetica,sans-Serif" font-size="10.00">+</text>
<text text-anchor="start" x="21.5" y="-246.5" font-family="Helvetica,sans-Serif" font-size="10.00">ToDebugString()</text>
<polygon fill="#bfbfbf" stroke="#bfbfbf" points="7.5,-290 7.5,-290 94.5,-290 94.5,-290 7.5,-290"/>
<polygon fill="#bfbfbf" stroke="#bfbfbf" points="7.5,-274 7.5,-274 94.5,-274 94.5,-274 7.5,-274"/>
<polygon fill="none" stroke="#bfbfbf" points="7.5,-240 7.5,-308 94.5,-308 94.5,-240 7.5,-240"/>
</a>
</g>
</g>
<!-- Node3&#45;&gt;Node2 -->
<g id="edge2_Node000002_Node000003" class="edge">
<title>Node3&#45;&gt;Node2</title>
<g id="a_edge2_Node000002_Node000003"><a xlink:title=" ">
<path fill="none" stroke="#63b8ff" d="M51,-228.95C51,-220.7 51,-212.12 51,-203.97"/>
<polygon fill="none" stroke="#63b8ff" points="47.5,-228.78 51,-238.78 54.5,-228.78 47.5,-228.78"/>
</a>
</g>
</g>
<!-- Node4 -->
<g id="Node000004" class="node">
<title>Node4</title>
<g id="a_Node000004"><a xlink:href="interface_code_smile_1_1_statemachine_1_1_i_statemachine_events.html" target="_top" xlink:title="Event methods that the Statemachine calls at specific times.">
<polygon fill="white" stroke="none" points="101.5,-444 0.5,-444 0.5,-344 101.5,-344 101.5,-444"/>
<text text-anchor="start" x="5.25" y="-430.5" font-family="Helvetica,sans-Serif" font-size="10.00">IStatemachineEvents</text>
<text text-anchor="start" x="49.5" y="-414.5" font-family="Helvetica,sans-Serif" font-size="10.00"> </text>
<text text-anchor="start" x="9" y="-398.5" font-family="Helvetica,sans-Serif" font-size="10.00">+</text>
<text text-anchor="start" x="23.5" y="-398.5" font-family="Helvetica,sans-Serif" font-size="10.00">OnEnterState()</text>
<text text-anchor="start" x="9" y="-382.5" font-family="Helvetica,sans-Serif" font-size="10.00">+</text>
<text text-anchor="start" x="23.5" y="-382.5" font-family="Helvetica,sans-Serif" font-size="10.00">OnExitState()</text>
<text text-anchor="start" x="9" y="-366.5" font-family="Helvetica,sans-Serif" font-size="10.00">+</text>
<text text-anchor="start" x="23.5" y="-366.5" font-family="Helvetica,sans-Serif" font-size="10.00">OnStart()</text>
<text text-anchor="start" x="9" y="-350.5" font-family="Helvetica,sans-Serif" font-size="10.00">+</text>
<text text-anchor="start" x="23.5" y="-350.5" font-family="Helvetica,sans-Serif" font-size="10.00">OnStop()</text>
<polygon fill="#666666" stroke="#666666" points="0.5,-426 0.5,-426 101.5,-426 101.5,-426 0.5,-426"/>
<polygon fill="#666666" stroke="#666666" points="0.5,-410 0.5,-410 101.5,-410 101.5,-410 0.5,-410"/>
<polygon fill="none" stroke="#666666" points="0.5,-344 0.5,-444 101.5,-444 101.5,-344 0.5,-344"/>
</a>
</g>
</g>
<!-- Node4&#45;&gt;Node3 -->
<g id="edge3_Node000003_Node000004" class="edge">
<title>Node4&#45;&gt;Node3</title>
<g id="a_edge3_Node000003_Node000004"><a xlink:title=" ">
<path fill="none" stroke="#63b8ff" d="M51,-332.96C51,-324.28 51,-315.62 51,-307.75"/>
<polygon fill="none" stroke="#63b8ff" points="47.5,-332.81 51,-342.81 54.5,-332.81 47.5,-332.81"/>
</a>
</g>
</g>
</g>
</svg>
