<?xml version="1.0" encoding="UTF-8" standalone="no"?>
<!DOCTYPE svg PUBLIC "-//W3C//DTD SVG 1.1//EN"
 "http://www.w3.org/Graphics/SVG/1.1/DTD/svg11.dtd">
<!-- Generated by graphviz version 9.0.0 (20230911.1827)
 -->
<!-- Title: IsNetworkManagerSingletonAssigned Pages: 1 -->
<svg width="138pt" height="248pt"
 viewBox="0.00 0.00 138.00 248.00" xmlns="http://www.w3.org/2000/svg" xmlns:xlink="http://www.w3.org/1999/xlink">

<svg id="main" version="1.1" xmlns="http://www.w3.org/2000/svg" xmlns:xlink="http://www.w3.org/1999/xlink" xml:space="preserve">

<style type="text/css"><![CDATA[
.node, .edge {opacity: 0.7;}
.node.selected, .edge.selected {opacity: 1;}
.edge:hover path { stroke: red; }
.edge:hover polygon { stroke: red; fill: red; }
]]></style>
<script type="application/ecmascript" xlink:href="svg.min.js"/>
<svg id="graph" class="graph">
<g id="graph0" class="graph" transform="scale(1 1) rotate(0) translate(4 244)">
<title>IsNetworkManagerSingletonAssigned</title>
<!-- Node1 -->
<g id="Node000001" class="node">
<title>Node1</title>
<g id="a_Node000001"><a xlink:title="Is true once NetworkManager singleton no longer returns null.">
<polygon fill="#999999" stroke="none" points="130,-64 0,-64 0,0 130,0 130,-64"/>
<text text-anchor="start" x="4.62" y="-50.5" font-family="Helvetica,sans-Serif" font-size="10.00">IsNetworkManagerSingleton</text>
<text text-anchor="start" x="44.75" y="-38.5" font-family="Helvetica,sans-Serif" font-size="10.00">Assigned</text>
<text text-anchor="start" x="63.5" y="-22.5" font-family="Helvetica,sans-Serif" font-size="10.00"> </text>
<text text-anchor="start" x="63.5" y="-6.5" font-family="Helvetica,sans-Serif" font-size="10.00"> </text>
<polygon fill="#666666" stroke="#666666" points="0,-34 0,-34 130,-34 130,-34 0,-34"/>
<polygon fill="#666666" stroke="#666666" points="0,-18 0,-18 130,-18 130,-18 0,-18"/>
<polygon fill="none" stroke="#666666" points="0,0 0,-64 130,-64 130,0 0,0"/>
</a>
</g>
</g>
<!-- Node2 -->
<g id="Node000002" class="node">
<title>Node2</title>
<g id="a_Node000002"><a xlink:href="interface_code_smile_1_1_statemachine_1_1_i_condition.html" target="_top" xlink:title="Marks a class as a FSM Condition.">
<polygon fill="white" stroke="none" points="91,-152 39,-152 39,-100 91,-100 91,-152"/>
<text text-anchor="start" x="43.62" y="-138.5" font-family="Helvetica,sans-Serif" font-size="10.00">ICondition</text>
<text text-anchor="start" x="63.5" y="-122.5" font-family="Helvetica,sans-Serif" font-size="10.00"> </text>
<text text-anchor="start" x="63.5" y="-106.5" font-family="Helvetica,sans-Serif" font-size="10.00"> </text>
<polygon fill="#666666" stroke="#666666" points="39,-134 39,-134 91,-134 91,-134 39,-134"/>
<polygon fill="#666666" stroke="#666666" points="39,-118 39,-118 91,-118 91,-118 39,-118"/>
<polygon fill="none" stroke="#666666" points="39,-100 39,-152 91,-152 91,-100 39,-100"/>
</a>
</g>
</g>
<!-- Node2&#45;&gt;Node1 -->
<g id="edge1_Node000001_Node000002" class="edge">
<title>Node2&#45;&gt;Node1</title>
<g id="a_edge1_Node000001_Node000002"><a xlink:title=" ">
<path fill="none" stroke="#63b8ff" d="M65,-89.06C65,-80.78 65,-72.04 65,-63.98"/>
<polygon fill="none" stroke="#63b8ff" points="61.5,-88.83 65,-98.83 68.5,-88.83 61.5,-88.83"/>
</a>
</g>
</g>
<!-- Node3 -->
<g id="Node000003" class="node">
<title>Node3</title>
<g id="a_Node000003"><a xlink:href="interface_code_smile_1_1_statemachine_1_1_i_statemachine_events.html" target="_top" xlink:title="Event methods that the Statemachine calls at specific times.">
<polygon fill="white" stroke="none" points="115.5,-240 14.5,-240 14.5,-188 115.5,-188 115.5,-240"/>
<text text-anchor="start" x="19.25" y="-226.5" font-family="Helvetica,sans-Serif" font-size="10.00">IStatemachineEvents</text>
<text text-anchor="start" x="63.5" y="-210.5" font-family="Helvetica,sans-Serif" font-size="10.00"> </text>
<text text-anchor="start" x="63.5" y="-194.5" font-family="Helvetica,sans-Serif" font-size="10.00"> </text>
<polygon fill="#666666" stroke="#666666" points="14.5,-222 14.5,-222 115.5,-222 115.5,-222 14.5,-222"/>
<polygon fill="#666666" stroke="#666666" points="14.5,-206 14.5,-206 115.5,-206 115.5,-206 14.5,-206"/>
<polygon fill="none" stroke="#666666" points="14.5,-188 14.5,-240 115.5,-240 115.5,-188 14.5,-188"/>
</a>
</g>
</g>
<!-- Node3&#45;&gt;Node2 -->
<g id="edge2_Node000002_Node000003" class="edge">
<title>Node3&#45;&gt;Node2</title>
<g id="a_edge2_Node000002_Node000003"><a xlink:title=" ">
<path fill="none" stroke="#63b8ff" d="M65,-176.66C65,-168.29 65,-159.57 65,-151.82"/>
<polygon fill="none" stroke="#63b8ff" points="61.5,-176.61 65,-186.61 68.5,-176.61 61.5,-176.61"/>
</a>
</g>
</g>
</g>
</svg>
</svg>

<style type='text/css'>
<![CDATA[
[data-mouse-over-selected='false'] { opacity: 0.7; }
[data-mouse-over-selected='true']  { opacity: 1.0; }
]]>
</style>
<script type="application/ecmascript"><![CDATA[
document.addEventListener('DOMContentLoaded', (event) => {
  highlightEdges();
  highlightAdjacentNodes();
});
]]></script>
</svg>
