<?xml version="1.0" encoding="UTF-8" standalone="no"?>
<!DOCTYPE svg PUBLIC "-//W3C//DTD SVG 1.1//EN"
 "http://www.w3.org/Graphics/SVG/1.1/DTD/svg11.dtd">
<!-- Generated by graphviz version 9.0.0 (20230911.1827)
 -->
<!-- Title: PrefabsListBase Pages: 1 -->
<svg width="172pt" height="208pt"
 viewBox="0.00 0.00 172.00 208.00" xmlns="http://www.w3.org/2000/svg" xmlns:xlink="http://www.w3.org/1999/xlink">
<g id="graph0" class="graph" transform="scale(1 1) rotate(0) translate(4 204)">
<title>PrefabsListBase</title>
<!-- Node1 -->
<g id="Node000001" class="node">
<title>Node1</title>
<g id="a_Node000001"><a xlink:title=" ">
<polygon fill="#999999" stroke="none" points="164,-112 8,-112 8,0 164,0 164,-112"/>
<text text-anchor="start" x="50.38" y="-98.5" font-family="Helvetica,sans-Serif" font-size="10.00">PrefabsListBase</text>
<text text-anchor="start" x="12" y="-82.5" font-family="Helvetica,sans-Serif" font-size="10.00">+</text>
<text text-anchor="start" x="22" y="-82.5" font-family="Helvetica,sans-Serif" font-size="10.00">Count</text>
<text text-anchor="start" x="12" y="-66.5" font-family="Helvetica,sans-Serif" font-size="10.00">+</text>
<text text-anchor="start" x="22" y="-66.5" font-family="Helvetica,sans-Serif" font-size="10.00">this[Int32 index]</text>
<text text-anchor="start" x="12.38" y="-50.5" font-family="Helvetica,sans-Serif" font-size="10.00">#</text>
<text text-anchor="start" x="22" y="-50.5" font-family="Helvetica,sans-Serif" font-size="10.00">m_Prefabs</text>
<text text-anchor="start" x="12" y="-34.5" font-family="Helvetica,sans-Serif" font-size="10.00">+</text>
<text text-anchor="start" x="22" y="-34.5" font-family="Helvetica,sans-Serif" font-size="10.00">GetEnumerator()</text>
<text text-anchor="start" x="12" y="-18.5" font-family="Helvetica,sans-Serif" font-size="10.00">+</text>
<text text-anchor="start" x="22" y="-18.5" font-family="Helvetica,sans-Serif" font-size="10.00">ValidatePrefabsHaveComponent</text>
<text text-anchor="start" x="22" y="-6.5" font-family="Helvetica,sans-Serif" font-size="10.00">&lt; T &gt;()</text>
<polygon fill="#666666" stroke="#666666" points="8,-94 8,-94 164,-94 164,-94 8,-94"/>
<polygon fill="#666666" stroke="#666666" points="8,-46 8,-46 20,-46 20,-46 8,-46"/>
<polygon fill="#666666" stroke="#666666" points="20,-46 20,-46 164,-46 164,-46 20,-46"/>
<polygon fill="none" stroke="#666666" points="8,0 8,-112 164,-112 164,0 8,0"/>
</a>
</g>
</g>
<!-- Node2 -->
<g id="Node000002" class="node">
<title>Node2</title>
<g id="a_Node000002"><a xlink:title=" ">
<polygon fill="white" stroke="none" points="82,-200 0,-200 0,-148 82,-148 82,-200"/>
<text text-anchor="start" x="5" y="-186.5" font-family="Helvetica,sans-Serif" font-size="10.00">ScriptableObject</text>
<text text-anchor="start" x="39.5" y="-170.5" font-family="Helvetica,sans-Serif" font-size="10.00"> </text>
<text text-anchor="start" x="39.5" y="-154.5" font-family="Helvetica,sans-Serif" font-size="10.00"> </text>
<polygon fill="#bfbfbf" stroke="#bfbfbf" points="0,-182 0,-182 82,-182 82,-182 0,-182"/>
<polygon fill="#bfbfbf" stroke="#bfbfbf" points="0,-166 0,-166 82,-166 82,-166 0,-166"/>
<polygon fill="none" stroke="#bfbfbf" points="0,-148 0,-200 82,-200 82,-148 0,-148"/>
</a>
</g>
</g>
<!-- Node2&#45;&gt;Node1 -->
<g id="edge1_Node000001_Node000002" class="edge">
<title>Node2&#45;&gt;Node1</title>
<g id="a_edge1_Node000001_Node000002"><a xlink:title=" ">
<path fill="none" stroke="#63b8ff" d="M54.75,-137.55C57.9,-129.43 61.33,-120.61 64.71,-111.88"/>
<polygon fill="none" stroke="#63b8ff" points="51.55,-136.12 51.2,-146.7 58.08,-138.65 51.55,-136.12"/>
</a>
</g>
</g>
<!-- Node3 -->
<g id="Node000003" class="node">
<title>Node3</title>
<g id="a_Node000003"><a xlink:title=" ">
<polygon fill="white" stroke="none" points="164,-200 100,-200 100,-148 164,-148 164,-200"/>
<text text-anchor="start" x="105" y="-186.5" font-family="Helvetica,sans-Serif" font-size="10.00">IEnumerable</text>
<text text-anchor="start" x="130.5" y="-170.5" font-family="Helvetica,sans-Serif" font-size="10.00"> </text>
<text text-anchor="start" x="130.5" y="-154.5" font-family="Helvetica,sans-Serif" font-size="10.00"> </text>
<polygon fill="#bfbfbf" stroke="#bfbfbf" points="100,-182 100,-182 164,-182 164,-182 100,-182"/>
<polygon fill="#bfbfbf" stroke="#bfbfbf" points="100,-166 100,-166 164,-166 164,-166 100,-166"/>
<polygon fill="none" stroke="#bfbfbf" points="100,-148 100,-200 164,-200 164,-148 100,-148"/>
</a>
</g>
</g>
<!-- Node3&#45;&gt;Node1 -->
<g id="edge2_Node000001_Node000003" class="edge">
<title>Node3&#45;&gt;Node1</title>
<g id="a_edge2_Node000001_Node000003"><a xlink:title=" ">
<path fill="none" stroke="#63b8ff" d="M117.94,-137.55C114.72,-129.43 111.22,-120.61 107.76,-111.88"/>
<polygon fill="none" stroke="#63b8ff" points="114.63,-138.7 121.57,-146.71 121.14,-136.12 114.63,-138.7"/>
</a>
</g>
</g>
</g>
</svg>
