<?xml version="1.0" encoding="UTF-8" standalone="no"?>
<!DOCTYPE svg PUBLIC "-//W3C//DTD SVG 1.1//EN"
 "http://www.w3.org/Graphics/SVG/1.1/DTD/svg11.dtd">
<!-- Generated by graphviz version 9.0.0 (20230911.1827)
 -->
<!-- Title: IsLocalClientDisconnected Pages: 1 -->
<svg width="132pt" height="324pt"
 viewBox="0.00 0.00 132.00 324.00" xmlns="http://www.w3.org/2000/svg" xmlns:xlink="http://www.w3.org/1999/xlink">
<g id="graph0" class="graph" transform="scale(1 1) rotate(0) translate(4 320)">
<title>IsLocalClientDisconnected</title>
<!-- Node1 -->
<g id="Node000001" class="node">
<title>Node1</title>
<g id="a_Node000001"><a xlink:title="Tests if the client that this script executes on is not connected to a network session.">
<polygon fill="#999999" stroke="none" points="124,-52 0,-52 0,0 124,0 124,-52"/>
<text text-anchor="start" x="4.62" y="-38.5" font-family="Helvetica,sans-Serif" font-size="10.00">IsLocalClientDisconnected</text>
<text text-anchor="start" x="60.5" y="-22.5" font-family="Helvetica,sans-Serif" font-size="10.00"> </text>
<text text-anchor="start" x="60.5" y="-6.5" font-family="Helvetica,sans-Serif" font-size="10.00"> </text>
<polygon fill="#666666" stroke="#666666" points="0,-34 0,-34 124,-34 124,-34 0,-34"/>
<polygon fill="#666666" stroke="#666666" points="0,-18 0,-18 124,-18 124,-18 0,-18"/>
<polygon fill="none" stroke="#666666" points="0,0 0,-52 124,-52 124,0 0,0"/>
</a>
</g>
</g>
<!-- Node2 -->
<g id="Node000002" class="node">
<title>Node2</title>
<g id="a_Node000002"><a xlink:href="class_code_smile_1_1_statemachine_1_1_netcode_1_1_conditions_1_1_is_local_client_connected.html" target="_top" xlink:title="Tests if the client that this script executes on is currently connected to a network session.">
<polygon fill="white" stroke="none" points="118,-140 6,-140 6,-88 118,-88 118,-140"/>
<text text-anchor="start" x="11" y="-126.5" font-family="Helvetica,sans-Serif" font-size="10.00">IsLocalClientConnected</text>
<text text-anchor="start" x="60.5" y="-110.5" font-family="Helvetica,sans-Serif" font-size="10.00"> </text>
<text text-anchor="start" x="60.5" y="-94.5" font-family="Helvetica,sans-Serif" font-size="10.00"> </text>
<polygon fill="#666666" stroke="#666666" points="6,-122 6,-122 118,-122 118,-122 6,-122"/>
<polygon fill="#666666" stroke="#666666" points="6,-106 6,-106 118,-106 118,-106 6,-106"/>
<polygon fill="none" stroke="#666666" points="6,-88 6,-140 118,-140 118,-88 6,-88"/>
</a>
</g>
</g>
<!-- Node2&#45;&gt;Node1 -->
<g id="edge1_Node000001_Node000002" class="edge">
<title>Node2&#45;&gt;Node1</title>
<g id="a_edge1_Node000001_Node000002"><a xlink:title=" ">
<path fill="none" stroke="#63b8ff" d="M62,-76.66C62,-68.29 62,-59.57 62,-51.82"/>
<polygon fill="none" stroke="#63b8ff" points="58.5,-76.61 62,-86.61 65.5,-76.61 58.5,-76.61"/>
</a>
</g>
</g>
<!-- Node3 -->
<g id="Node000003" class="node">
<title>Node3</title>
<g id="a_Node000003"><a xlink:href="interface_code_smile_1_1_statemachine_1_1_i_condition.html" target="_top" xlink:title="Marks a class as a FSM Condition.">
<polygon fill="white" stroke="none" points="88,-228 36,-228 36,-176 88,-176 88,-228"/>
<text text-anchor="start" x="40.62" y="-214.5" font-family="Helvetica,sans-Serif" font-size="10.00">ICondition</text>
<text text-anchor="start" x="60.5" y="-198.5" font-family="Helvetica,sans-Serif" font-size="10.00"> </text>
<text text-anchor="start" x="60.5" y="-182.5" font-family="Helvetica,sans-Serif" font-size="10.00"> </text>
<polygon fill="#666666" stroke="#666666" points="36,-210 36,-210 88,-210 88,-210 36,-210"/>
<polygon fill="#666666" stroke="#666666" points="36,-194 36,-194 88,-194 88,-194 36,-194"/>
<polygon fill="none" stroke="#666666" points="36,-176 36,-228 88,-228 88,-176 36,-176"/>
</a>
</g>
</g>
<!-- Node3&#45;&gt;Node2 -->
<g id="edge2_Node000002_Node000003" class="edge">
<title>Node3&#45;&gt;Node2</title>
<g id="a_edge2_Node000002_Node000003"><a xlink:title=" ">
<path fill="none" stroke="#63b8ff" d="M62,-164.66C62,-156.29 62,-147.57 62,-139.82"/>
<polygon fill="none" stroke="#63b8ff" points="58.5,-164.61 62,-174.61 65.5,-164.61 58.5,-164.61"/>
</a>
</g>
</g>
<!-- Node4 -->
<g id="Node000004" class="node">
<title>Node4</title>
<g id="a_Node000004"><a xlink:href="interface_code_smile_1_1_statemachine_1_1_i_statemachine_events.html" target="_top" xlink:title="Event methods that the Statemachine calls at specific times.">
<polygon fill="white" stroke="none" points="112.5,-316 11.5,-316 11.5,-264 112.5,-264 112.5,-316"/>
<text text-anchor="start" x="16.25" y="-302.5" font-family="Helvetica,sans-Serif" font-size="10.00">IStatemachineEvents</text>
<text text-anchor="start" x="60.5" y="-286.5" font-family="Helvetica,sans-Serif" font-size="10.00"> </text>
<text text-anchor="start" x="60.5" y="-270.5" font-family="Helvetica,sans-Serif" font-size="10.00"> </text>
<polygon fill="#666666" stroke="#666666" points="11.5,-298 11.5,-298 112.5,-298 112.5,-298 11.5,-298"/>
<polygon fill="#666666" stroke="#666666" points="11.5,-282 11.5,-282 112.5,-282 112.5,-282 11.5,-282"/>
<polygon fill="none" stroke="#666666" points="11.5,-264 11.5,-316 112.5,-316 112.5,-264 11.5,-264"/>
</a>
</g>
</g>
<!-- Node4&#45;&gt;Node3 -->
<g id="edge3_Node000003_Node000004" class="edge">
<title>Node4&#45;&gt;Node3</title>
<g id="a_edge3_Node000003_Node000004"><a xlink:title=" ">
<path fill="none" stroke="#63b8ff" d="M62,-252.66C62,-244.29 62,-235.57 62,-227.82"/>
<polygon fill="none" stroke="#63b8ff" points="58.5,-252.61 62,-262.61 65.5,-252.61 58.5,-252.61"/>
</a>
</g>
</g>
</g>
</svg>
