<?xml version="1.0" encoding="UTF-8" standalone="no"?>
<!DOCTYPE svg PUBLIC "-//W3C//DTD SVG 1.1//EN"
 "http://www.w3.org/Graphics/SVG/1.1/DTD/svg11.dtd">
<!-- Generated by graphviz version 9.0.0 (20230911.1827)
 -->
<!-- Title: SceneReference Pages: 1 -->
<svg width="153pt" height="324pt"
 viewBox="0.00 0.00 153.00 324.00" xmlns="http://www.w3.org/2000/svg" xmlns:xlink="http://www.w3.org/1999/xlink">
<g id="graph0" class="graph" transform="scale(1 1) rotate(0) translate(4 320)">
<title>SceneReference</title>
<!-- Node1 -->
<g id="Node000001" class="node">
<title>Node1</title>
<g id="a_Node000001"><a xlink:title="Allows drag &amp; drop of scene assets in the Inspector and serializes the scene&#39;s name for runtime scene...">
<polygon fill="#999999" stroke="none" points="120,-228 25,-228 25,0 120,0 120,-228"/>
<text text-anchor="start" x="36.88" y="-214.5" font-family="Helvetica,sans-Serif" font-size="10.00">SceneReference</text>
<text text-anchor="start" x="29" y="-198.5" font-family="Helvetica,sans-Serif" font-size="10.00">+</text>
<text text-anchor="start" x="39" y="-198.5" font-family="Helvetica,sans-Serif" font-size="10.00">IsValid</text>
<text text-anchor="start" x="29" y="-182.5" font-family="Helvetica,sans-Serif" font-size="10.00">+</text>
<text text-anchor="start" x="39" y="-182.5" font-family="Helvetica,sans-Serif" font-size="10.00">RuntimeScene</text>
<text text-anchor="start" x="29" y="-166.5" font-family="Helvetica,sans-Serif" font-size="10.00">+</text>
<text text-anchor="start" x="39" y="-166.5" font-family="Helvetica,sans-Serif" font-size="10.00">SceneName</text>
<text text-anchor="start" x="29" y="-150.5" font-family="Helvetica,sans-Serif" font-size="10.00">+</text>
<text text-anchor="start" x="39" y="-150.5" font-family="Helvetica,sans-Serif" font-size="10.00">ScenePath</text>
<text text-anchor="start" x="29" y="-134.5" font-family="Helvetica,sans-Serif" font-size="10.00">+</text>
<text text-anchor="start" x="39" y="-134.5" font-family="Helvetica,sans-Serif" font-size="10.00">SceneReference()</text>
<text text-anchor="start" x="29" y="-118.5" font-family="Helvetica,sans-Serif" font-size="10.00">+</text>
<text text-anchor="start" x="39" y="-118.5" font-family="Helvetica,sans-Serif" font-size="10.00">SceneReference()</text>
<text text-anchor="start" x="29" y="-102.5" font-family="Helvetica,sans-Serif" font-size="10.00">+</text>
<text text-anchor="start" x="39" y="-102.5" font-family="Helvetica,sans-Serif" font-size="10.00">Equals()</text>
<text text-anchor="start" x="29" y="-86.5" font-family="Helvetica,sans-Serif" font-size="10.00">+</text>
<text text-anchor="start" x="39" y="-86.5" font-family="Helvetica,sans-Serif" font-size="10.00">Equals()</text>
<text text-anchor="start" x="29" y="-70.5" font-family="Helvetica,sans-Serif" font-size="10.00">+</text>
<text text-anchor="start" x="39" y="-70.5" font-family="Helvetica,sans-Serif" font-size="10.00">GetHashCode()</text>
<text text-anchor="start" x="29" y="-54.5" font-family="Helvetica,sans-Serif" font-size="10.00">+</text>
<text text-anchor="start" x="39" y="-54.5" font-family="Helvetica,sans-Serif" font-size="10.00">OnValidate()</text>
<text text-anchor="start" x="29" y="-38.5" font-family="Helvetica,sans-Serif" font-size="10.00">+</text>
<text text-anchor="start" x="39" y="-38.5" font-family="Helvetica,sans-Serif" font-size="10.00">ToString()</text>
<text text-anchor="start" x="29" y="-22.5" font-family="Helvetica,sans-Serif" font-size="10.00">+</text>
<text text-anchor="start" x="39" y="-22.5" font-family="Helvetica,sans-Serif" font-size="10.00">operator!=()</text>
<text text-anchor="start" x="29" y="-6.5" font-family="Helvetica,sans-Serif" font-size="10.00">+</text>
<text text-anchor="start" x="39" y="-6.5" font-family="Helvetica,sans-Serif" font-size="10.00">operator==()</text>
<polygon fill="#666666" stroke="#666666" points="25,-210 25,-210 120,-210 120,-210 25,-210"/>
<polygon fill="#666666" stroke="#666666" points="25,-146 25,-146 37,-146 37,-146 25,-146"/>
<polygon fill="#666666" stroke="#666666" points="37,-146 37,-146 120,-146 120,-146 37,-146"/>
<polygon fill="none" stroke="#666666" points="25,0 25,-228 120,-228 120,0 25,0"/>
</a>
</g>
</g>
<!-- Node2 -->
<g id="Node000002" class="node">
<title>Node2</title>
<g id="a_Node000002"><a xlink:title=" ">
<polygon fill="white" stroke="none" points="145,-316 0,-316 0,-264 145,-264 145,-316"/>
<text text-anchor="start" x="5" y="-302.5" font-family="Helvetica,sans-Serif" font-size="10.00">IEquatable&lt; SceneReference &gt;</text>
<text text-anchor="start" x="71" y="-286.5" font-family="Helvetica,sans-Serif" font-size="10.00"> </text>
<text text-anchor="start" x="71" y="-270.5" font-family="Helvetica,sans-Serif" font-size="10.00"> </text>
<polygon fill="#bfbfbf" stroke="#bfbfbf" points="0,-298 0,-298 145,-298 145,-298 0,-298"/>
<polygon fill="#bfbfbf" stroke="#bfbfbf" points="0,-282 0,-282 145,-282 145,-282 0,-282"/>
<polygon fill="none" stroke="#bfbfbf" points="0,-264 0,-316 145,-316 145,-264 0,-264"/>
</a>
</g>
</g>
<!-- Node2&#45;&gt;Node1 -->
<g id="edge1_Node000001_Node000002" class="edge">
<title>Node2&#45;&gt;Node1</title>
<g id="a_edge1_Node000001_Node000002"><a xlink:title=" ">
<path fill="none" stroke="#63b8ff" d="M72.5,-252.72C72.5,-245.03 72.5,-236.53 72.5,-227.64"/>
<polygon fill="none" stroke="#63b8ff" points="69,-252.56 72.5,-262.56 76,-252.56 69,-252.56"/>
</a>
</g>
</g>
</g>
</svg>
