<?xml version="1.0" encoding="UTF-8" standalone="no"?>
<!DOCTYPE svg PUBLIC "-//W3C//DTD SVG 1.1//EN"
 "http://www.w3.org/Graphics/SVG/1.1/DTD/svg11.dtd">
<!-- Generated by graphviz version 9.0.0 (20230911.1827)
 -->
<!-- Title: GameStateConditionBase Pages: 1 -->
<svg width="307pt" height="300pt"
 viewBox="0.00 0.00 307.00 300.00" xmlns="http://www.w3.org/2000/svg" xmlns:xlink="http://www.w3.org/1999/xlink">
<g id="graph0" class="graph" transform="scale(1 1) rotate(0) translate(4 296)">
<title>GameStateConditionBase</title>
<!-- Node1 -->
<g id="Node000001" class="node">
<title>Node1</title>
<g id="a_Node000001"><a xlink:title=" ">
<polygon fill="#999999" stroke="none" points="217.5,-204 95.5,-204 95.5,-120 217.5,-120 217.5,-204"/>
<text text-anchor="start" x="100.25" y="-190.5" font-family="Helvetica,sans-Serif" font-size="10.00">GameStateConditionBase</text>
<text text-anchor="start" x="155" y="-174.5" font-family="Helvetica,sans-Serif" font-size="10.00"> </text>
<text text-anchor="start" x="109" y="-158.5" font-family="Helvetica,sans-Serif" font-size="10.00">+</text>
<text text-anchor="start" x="128.5" y="-158.5" font-family="Helvetica,sans-Serif" font-size="10.00">IsSatisfied()</text>
<text text-anchor="start" x="109" y="-142.5" font-family="Helvetica,sans-Serif" font-size="10.00">+</text>
<text text-anchor="start" x="128.5" y="-142.5" font-family="Helvetica,sans-Serif" font-size="10.00">OnEnterState()</text>
<text text-anchor="start" x="109" y="-126.5" font-family="Helvetica,sans-Serif" font-size="10.00">+</text>
<text text-anchor="start" x="128.5" y="-126.5" font-family="Helvetica,sans-Serif" font-size="10.00">OnExitState()</text>
<polygon fill="#666666" stroke="#666666" points="95.5,-186 95.5,-186 217.5,-186 217.5,-186 95.5,-186"/>
<polygon fill="#666666" stroke="#666666" points="95.5,-170 95.5,-170 217.5,-170 217.5,-170 95.5,-170"/>
<polygon fill="none" stroke="#666666" points="95.5,-120 95.5,-204 217.5,-204 217.5,-120 95.5,-120"/>
</a>
</g>
</g>
<!-- Node3 -->
<g id="Node000003" class="node">
<title>Node3</title>
<g id="a_Node000003"><a xlink:href="class_code_smile_1_1_multi_pal_1_1_settings_1_1_game_states_1_1_on_timeout_condition.html" target="_top" xlink:title=" ">
<polygon fill="white" stroke="none" points="97,-76 0,-76 0,-8 97,-8 97,-76"/>
<text text-anchor="start" x="4.62" y="-62.5" font-family="Helvetica,sans-Serif" font-size="10.00">OnTimeoutCondition</text>
<text text-anchor="start" x="47" y="-46.5" font-family="Helvetica,sans-Serif" font-size="10.00"> </text>
<text text-anchor="start" x="7.5" y="-30.5" font-family="Helvetica,sans-Serif" font-size="10.00">+</text>
<text text-anchor="start" x="21" y="-30.5" font-family="Helvetica,sans-Serif" font-size="10.00">IsSatisfied()</text>
<text text-anchor="start" x="7.5" y="-14.5" font-family="Helvetica,sans-Serif" font-size="10.00">+</text>
<text text-anchor="start" x="21" y="-14.5" font-family="Helvetica,sans-Serif" font-size="10.00">OnEnterState()</text>
<polygon fill="#bfbfbf" stroke="#bfbfbf" points="0,-58 0,-58 97,-58 97,-58 0,-58"/>
<polygon fill="#bfbfbf" stroke="#bfbfbf" points="0,-42 0,-42 97,-42 97,-42 0,-42"/>
<polygon fill="none" stroke="#bfbfbf" points="0,-8 0,-76 97,-76 97,-8 0,-8"/>
</a>
</g>
</g>
<!-- Node1&#45;&gt;Node3 -->
<g id="edge2_Node000001_Node000003" class="edge">
<title>Node1&#45;&gt;Node3</title>
<g id="a_edge2_Node000001_Node000003"><a xlink:title=" ">
<path fill="none" stroke="#63b8ff" d="M111.43,-111.75C100.29,-99.59 88.63,-86.85 78.42,-75.69"/>
<polygon fill="none" stroke="#63b8ff" points="108.67,-113.93 118.01,-118.94 113.84,-109.2 108.67,-113.93"/>
</a>
</g>
</g>
<!-- Node4 -->
<g id="Node000004" class="node">
<title>Node4</title>
<g id="a_Node000004"><a xlink:href="class_code_smile_1_1_multi_pal_1_1_settings_1_1_game_states_1_1_on_went_offline.html" target="_top" xlink:title=" ">
<polygon fill="white" stroke="none" points="198,-84 115,-84 115,0 198,0 198,-84"/>
<text text-anchor="start" x="125" y="-70.5" font-family="Helvetica,sans-Serif" font-size="10.00">OnWentOffline</text>
<text text-anchor="start" x="155" y="-54.5" font-family="Helvetica,sans-Serif" font-size="10.00"> </text>
<text text-anchor="start" x="119" y="-38.5" font-family="Helvetica,sans-Serif" font-size="10.00">+</text>
<text text-anchor="start" x="129" y="-38.5" font-family="Helvetica,sans-Serif" font-size="10.00">IsSatisfied()</text>
<text text-anchor="start" x="119" y="-22.5" font-family="Helvetica,sans-Serif" font-size="10.00">+</text>
<text text-anchor="start" x="129" y="-22.5" font-family="Helvetica,sans-Serif" font-size="10.00">OnEnterState()</text>
<text text-anchor="start" x="119" y="-6.5" font-family="Helvetica,sans-Serif" font-size="10.00">+</text>
<text text-anchor="start" x="129" y="-6.5" font-family="Helvetica,sans-Serif" font-size="10.00">OnExitState()</text>
<polygon fill="#bfbfbf" stroke="#bfbfbf" points="115,-66 115,-66 198,-66 198,-66 115,-66"/>
<polygon fill="#bfbfbf" stroke="#bfbfbf" points="115,-50 115,-50 198,-50 198,-50 115,-50"/>
<polygon fill="none" stroke="#bfbfbf" points="115,0 115,-84 198,-84 198,0 115,0"/>
</a>
</g>
</g>
<!-- Node1&#45;&gt;Node4 -->
<g id="edge3_Node000001_Node000004" class="edge">
<title>Node1&#45;&gt;Node4</title>
<g id="a_edge3_Node000001_Node000004"><a xlink:title=" ">
<path fill="none" stroke="#63b8ff" d="M156.5,-108.55C156.5,-100.27 156.5,-91.83 156.5,-83.87"/>
<polygon fill="none" stroke="#63b8ff" points="153,-108.55 156.5,-118.55 160,-108.55 153,-108.55"/>
</a>
</g>
</g>
<!-- Node5 -->
<g id="Node000005" class="node">
<title>Node5</title>
<g id="a_Node000005"><a xlink:href="class_code_smile_1_1_multi_pal_1_1_settings_1_1_game_states_1_1_on_went_online.html" target="_top" xlink:title=" ">
<polygon fill="white" stroke="none" points="299,-84 216,-84 216,0 299,0 299,-84"/>
<text text-anchor="start" x="225.62" y="-70.5" font-family="Helvetica,sans-Serif" font-size="10.00">OnWentOnline</text>
<text text-anchor="start" x="256" y="-54.5" font-family="Helvetica,sans-Serif" font-size="10.00"> </text>
<text text-anchor="start" x="220" y="-38.5" font-family="Helvetica,sans-Serif" font-size="10.00">+</text>
<text text-anchor="start" x="230" y="-38.5" font-family="Helvetica,sans-Serif" font-size="10.00">IsSatisfied()</text>
<text text-anchor="start" x="220" y="-22.5" font-family="Helvetica,sans-Serif" font-size="10.00">+</text>
<text text-anchor="start" x="230" y="-22.5" font-family="Helvetica,sans-Serif" font-size="10.00">OnEnterState()</text>
<text text-anchor="start" x="220" y="-6.5" font-family="Helvetica,sans-Serif" font-size="10.00">+</text>
<text text-anchor="start" x="230" y="-6.5" font-family="Helvetica,sans-Serif" font-size="10.00">OnExitState()</text>
<polygon fill="#bfbfbf" stroke="#bfbfbf" points="216,-66 216,-66 299,-66 299,-66 216,-66"/>
<polygon fill="#bfbfbf" stroke="#bfbfbf" points="216,-50 216,-50 299,-50 299,-50 216,-50"/>
<polygon fill="none" stroke="#bfbfbf" points="216,0 216,-84 299,-84 299,0 216,0"/>
</a>
</g>
</g>
<!-- Node1&#45;&gt;Node5 -->
<g id="edge4_Node000001_Node000005" class="edge">
<title>Node1&#45;&gt;Node5</title>
<g id="a_edge4_Node000001_Node000005"><a xlink:title=" ">
<path fill="none" stroke="#63b8ff" d="M198.96,-111.39C206.81,-102.22 214.92,-92.74 222.52,-83.87"/>
<polygon fill="none" stroke="#63b8ff" points="196.37,-109.04 192.53,-118.91 201.69,-113.59 196.37,-109.04"/>
</a>
</g>
</g>
<!-- Node2 -->
<g id="Node000002" class="node">
<title>Node2</title>
<g id="a_Node000002"><a xlink:title=" ">
<polygon fill="white" stroke="none" points="197.5,-292 115.5,-292 115.5,-240 197.5,-240 197.5,-292"/>
<text text-anchor="start" x="120.5" y="-278.5" font-family="Helvetica,sans-Serif" font-size="10.00">ScriptableObject</text>
<text text-anchor="start" x="155" y="-262.5" font-family="Helvetica,sans-Serif" font-size="10.00"> </text>
<text text-anchor="start" x="155" y="-246.5" font-family="Helvetica,sans-Serif" font-size="10.00"> </text>
<polygon fill="#bfbfbf" stroke="#bfbfbf" points="115.5,-274 115.5,-274 197.5,-274 197.5,-274 115.5,-274"/>
<polygon fill="#bfbfbf" stroke="#bfbfbf" points="115.5,-258 115.5,-258 197.5,-258 197.5,-258 115.5,-258"/>
<polygon fill="none" stroke="#bfbfbf" points="115.5,-240 115.5,-292 197.5,-292 197.5,-240 115.5,-240"/>
</a>
</g>
</g>
<!-- Node2&#45;&gt;Node1 -->
<g id="edge1_Node000001_Node000002" class="edge">
<title>Node2&#45;&gt;Node1</title>
<g id="a_edge1_Node000001_Node000002"><a xlink:title=" ">
<path fill="none" stroke="#63b8ff" d="M156.5,-228.77C156.5,-220.75 156.5,-212.19 156.5,-203.99"/>
<polygon fill="none" stroke="#63b8ff" points="153,-228.53 156.5,-238.53 160,-228.53 153,-228.53"/>
</a>
</g>
</g>
</g>
</svg>
