<?xml version="1.0" encoding="UTF-8" standalone="no"?>
<!DOCTYPE svg PUBLIC "-//W3C//DTD SVG 1.1//EN"
 "http://www.w3.org/Graphics/SVG/1.1/DTD/svg11.dtd">
<!-- Generated by graphviz version 9.0.0 (20230911.1827)
 -->
<!-- Title: RelayClearAllocationData Pages: 1 -->
<svg width="142pt" height="236pt"
 viewBox="0.00 0.00 142.00 236.00" xmlns="http://www.w3.org/2000/svg" xmlns:xlink="http://www.w3.org/1999/xlink">
<g id="graph0" class="graph" transform="scale(1 1) rotate(0) translate(4 232)">
<title>RelayClearAllocationData</title>
<!-- Node1 -->
<g id="Node000001" class="node">
<title>Node1</title>
<g id="a_Node000001"><a xlink:title="Clears the allocations from the RelayConfig variable.">
<polygon fill="#999999" stroke="none" points="134,-52 0,-52 0,0 134,0 134,-52"/>
<text text-anchor="start" x="11.88" y="-38.5" font-family="Helvetica,sans-Serif" font-size="10.00">RelayClearAllocationData</text>
<text text-anchor="start" x="65.5" y="-22.5" font-family="Helvetica,sans-Serif" font-size="10.00"> </text>
<text text-anchor="start" x="4" y="-6.5" font-family="Helvetica,sans-Serif" font-size="10.00">+</text>
<text text-anchor="start" x="14" y="-6.5" font-family="Helvetica,sans-Serif" font-size="10.00">RelayClearAllocationData()</text>
<polygon fill="#666666" stroke="#666666" points="0,-34 0,-34 134,-34 134,-34 0,-34"/>
<polygon fill="#666666" stroke="#666666" points="0,-18 0,-18 134,-18 134,-18 0,-18"/>
<polygon fill="none" stroke="#666666" points="0,0 0,-52 134,-52 134,0 0,0"/>
</a>
</g>
</g>
<!-- Node2 -->
<g id="Node000002" class="node">
<title>Node2</title>
<g id="a_Node000002"><a xlink:href="interface_code_smile_1_1_statemachine_1_1_i_action.html" target="_top" xlink:title="Marks a class as a FSM Action.">
<polygon fill="white" stroke="none" points="87,-140 47,-140 47,-88 87,-88 87,-140"/>
<text text-anchor="start" x="52" y="-126.5" font-family="Helvetica,sans-Serif" font-size="10.00">IAction</text>
<text text-anchor="start" x="65.5" y="-110.5" font-family="Helvetica,sans-Serif" font-size="10.00"> </text>
<text text-anchor="start" x="65.5" y="-94.5" font-family="Helvetica,sans-Serif" font-size="10.00"> </text>
<polygon fill="#666666" stroke="#666666" points="47,-122 47,-122 87,-122 87,-122 47,-122"/>
<polygon fill="#666666" stroke="#666666" points="47,-106 47,-106 87,-106 87,-106 47,-106"/>
<polygon fill="none" stroke="#666666" points="47,-88 47,-140 87,-140 87,-88 47,-88"/>
</a>
</g>
</g>
<!-- Node2&#45;&gt;Node1 -->
<g id="edge1_Node000001_Node000002" class="edge">
<title>Node2&#45;&gt;Node1</title>
<g id="a_edge1_Node000001_Node000002"><a xlink:title=" ">
<path fill="none" stroke="#63b8ff" d="M67,-76.66C67,-68.29 67,-59.57 67,-51.82"/>
<polygon fill="none" stroke="#63b8ff" points="63.5,-76.61 67,-86.61 70.5,-76.61 63.5,-76.61"/>
</a>
</g>
</g>
<!-- Node3 -->
<g id="Node000003" class="node">
<title>Node3</title>
<g id="a_Node000003"><a xlink:href="interface_code_smile_1_1_statemachine_1_1_i_statemachine_events.html" target="_top" xlink:title="Event methods that the Statemachine calls at specific times.">
<polygon fill="white" stroke="none" points="117.5,-228 16.5,-228 16.5,-176 117.5,-176 117.5,-228"/>
<text text-anchor="start" x="21.25" y="-214.5" font-family="Helvetica,sans-Serif" font-size="10.00">IStatemachineEvents</text>
<text text-anchor="start" x="65.5" y="-198.5" font-family="Helvetica,sans-Serif" font-size="10.00"> </text>
<text text-anchor="start" x="65.5" y="-182.5" font-family="Helvetica,sans-Serif" font-size="10.00"> </text>
<polygon fill="#666666" stroke="#666666" points="16.5,-210 16.5,-210 117.5,-210 117.5,-210 16.5,-210"/>
<polygon fill="#666666" stroke="#666666" points="16.5,-194 16.5,-194 117.5,-194 117.5,-194 16.5,-194"/>
<polygon fill="none" stroke="#666666" points="16.5,-176 16.5,-228 117.5,-228 117.5,-176 16.5,-176"/>
</a>
</g>
</g>
<!-- Node3&#45;&gt;Node2 -->
<g id="edge2_Node000002_Node000003" class="edge">
<title>Node3&#45;&gt;Node2</title>
<g id="a_edge2_Node000002_Node000003"><a xlink:title=" ">
<path fill="none" stroke="#63b8ff" d="M67,-164.66C67,-156.29 67,-147.57 67,-139.82"/>
<polygon fill="none" stroke="#63b8ff" points="63.5,-164.61 67,-174.61 70.5,-164.61 63.5,-164.61"/>
</a>
</g>
</g>
</g>
</svg>
