<?xml version="1.0" encoding="UTF-8" standalone="no"?>
<!DOCTYPE svg PUBLIC "-//W3C//DTD SVG 1.1//EN"
 "http://www.w3.org/Graphics/SVG/1.1/DTD/svg11.dtd">
<!-- Generated by graphviz version 9.0.0 (20230911.1827)
 -->
<!-- Title: IngameGuiController Pages: 1 -->
<svg width="105pt" height="148pt"
 viewBox="0.00 0.00 105.00 148.00" xmlns="http://www.w3.org/2000/svg" xmlns:xlink="http://www.w3.org/1999/xlink">
<g id="graph0" class="graph" transform="scale(1 1) rotate(0) translate(4 144)">
<title>IngameGuiController</title>
<!-- Node1 -->
<g id="Node000001" class="node">
<title>Node1</title>
<g id="a_Node000001"><a xlink:title=" ">
<polygon fill="#999999" stroke="none" points="97,-52 0,-52 0,0 97,0 97,-52"/>
<text text-anchor="start" x="4.62" y="-38.5" font-family="Helvetica,sans-Serif" font-size="10.00">IngameGuiController</text>
<text text-anchor="start" x="47" y="-22.5" font-family="Helvetica,sans-Serif" font-size="10.00"> </text>
<text text-anchor="start" x="47" y="-6.5" font-family="Helvetica,sans-Serif" font-size="10.00"> </text>
<polygon fill="#666666" stroke="#666666" points="0,-34 0,-34 97,-34 97,-34 0,-34"/>
<polygon fill="#666666" stroke="#666666" points="0,-18 0,-18 97,-18 97,-18 0,-18"/>
<polygon fill="none" stroke="#666666" points="0,0 0,-52 97,-52 97,0 0,0"/>
</a>
</g>
</g>
<!-- Node2 -->
<g id="Node000002" class="node">
<title>Node2</title>
<g id="a_Node000002"><a xlink:title=" ">
<polygon fill="white" stroke="none" points="86.5,-140 10.5,-140 10.5,-88 86.5,-88 86.5,-140"/>
<text text-anchor="start" x="15.5" y="-126.5" font-family="Helvetica,sans-Serif" font-size="10.00">MonoBehaviour</text>
<text text-anchor="start" x="47" y="-110.5" font-family="Helvetica,sans-Serif" font-size="10.00"> </text>
<text text-anchor="start" x="47" y="-94.5" font-family="Helvetica,sans-Serif" font-size="10.00"> </text>
<polygon fill="#bfbfbf" stroke="#bfbfbf" points="10.5,-122 10.5,-122 86.5,-122 86.5,-122 10.5,-122"/>
<polygon fill="#bfbfbf" stroke="#bfbfbf" points="10.5,-106 10.5,-106 86.5,-106 86.5,-106 10.5,-106"/>
<polygon fill="none" stroke="#bfbfbf" points="10.5,-88 10.5,-140 86.5,-140 86.5,-88 10.5,-88"/>
</a>
</g>
</g>
<!-- Node2&#45;&gt;Node1 -->
<g id="edge1_Node000001_Node000002" class="edge">
<title>Node2&#45;&gt;Node1</title>
<g id="a_edge1_Node000001_Node000002"><a xlink:title=" ">
<path fill="none" stroke="#63b8ff" d="M48.5,-76.66C48.5,-68.29 48.5,-59.57 48.5,-51.82"/>
<polygon fill="none" stroke="#63b8ff" points="45,-76.61 48.5,-86.61 52,-76.61 45,-76.61"/>
</a>
</g>
</g>
</g>
</svg>
