<?xml version="1.0" encoding="UTF-8" standalone="no"?>
<!DOCTYPE svg PUBLIC "-//W3C//DTD SVG 1.1//EN"
 "http://www.w3.org/Graphics/SVG/1.1/DTD/svg11.dtd">
<!-- Generated by graphviz version 9.0.0 (20230911.1827)
 -->
<!-- Title: OnTimeoutCondition Pages: 1 -->
<svg width="130pt" height="284pt"
 viewBox="0.00 0.00 130.00 284.00" xmlns="http://www.w3.org/2000/svg" xmlns:xlink="http://www.w3.org/1999/xlink">

<svg id="main" version="1.1" xmlns="http://www.w3.org/2000/svg" xmlns:xlink="http://www.w3.org/1999/xlink" xml:space="preserve">

<style type="text/css"><![CDATA[
.node, .edge {opacity: 0.7;}
.node.selected, .edge.selected {opacity: 1;}
.edge:hover path { stroke: red; }
.edge:hover polygon { stroke: red; fill: red; }
]]></style>
<script type="application/ecmascript" xlink:href="svg.min.js"/>
<svg id="graph" class="graph">
<g id="graph0" class="graph" transform="scale(1 1) rotate(0) translate(4 280)">
<title>OnTimeoutCondition</title>
<!-- Node1 -->
<g id="Node000001" class="node">
<title>Node1</title>
<g id="a_Node000001"><a xlink:title=" ">
<polygon fill="#999999" stroke="none" points="109.5,-68 12.5,-68 12.5,0 109.5,0 109.5,-68"/>
<text text-anchor="start" x="17.12" y="-54.5" font-family="Helvetica,sans-Serif" font-size="10.00">OnTimeoutCondition</text>
<text text-anchor="start" x="59.5" y="-38.5" font-family="Helvetica,sans-Serif" font-size="10.00"> </text>
<text text-anchor="start" x="20" y="-22.5" font-family="Helvetica,sans-Serif" font-size="10.00">+</text>
<text text-anchor="start" x="33.5" y="-22.5" font-family="Helvetica,sans-Serif" font-size="10.00">IsSatisfied()</text>
<text text-anchor="start" x="20" y="-6.5" font-family="Helvetica,sans-Serif" font-size="10.00">+</text>
<text text-anchor="start" x="33.5" y="-6.5" font-family="Helvetica,sans-Serif" font-size="10.00">OnEnterState()</text>
<polygon fill="#666666" stroke="#666666" points="12.5,-50 12.5,-50 109.5,-50 109.5,-50 12.5,-50"/>
<polygon fill="#666666" stroke="#666666" points="12.5,-34 12.5,-34 109.5,-34 109.5,-34 12.5,-34"/>
<polygon fill="none" stroke="#666666" points="12.5,0 12.5,-68 109.5,-68 109.5,0 12.5,0"/>
</a>
</g>
</g>
<!-- Node2 -->
<g id="Node000002" class="node">
<title>Node2</title>
<g id="a_Node000002"><a xlink:href="class_code_smile_1_1_multi_pal_1_1_settings_1_1_game_state_condition_base.html" target="_top" xlink:title=" ">
<polygon fill="white" stroke="none" points="122,-188 0,-188 0,-104 122,-104 122,-188"/>
<text text-anchor="start" x="4.75" y="-174.5" font-family="Helvetica,sans-Serif" font-size="10.00">GameStateConditionBase</text>
<text text-anchor="start" x="59.5" y="-158.5" font-family="Helvetica,sans-Serif" font-size="10.00"> </text>
<text text-anchor="start" x="13.5" y="-142.5" font-family="Helvetica,sans-Serif" font-size="10.00">+</text>
<text text-anchor="start" x="33" y="-142.5" font-family="Helvetica,sans-Serif" font-size="10.00">IsSatisfied()</text>
<text text-anchor="start" x="13.5" y="-126.5" font-family="Helvetica,sans-Serif" font-size="10.00">+</text>
<text text-anchor="start" x="33" y="-126.5" font-family="Helvetica,sans-Serif" font-size="10.00">OnEnterState()</text>
<text text-anchor="start" x="13.5" y="-110.5" font-family="Helvetica,sans-Serif" font-size="10.00">+</text>
<text text-anchor="start" x="33" y="-110.5" font-family="Helvetica,sans-Serif" font-size="10.00">OnExitState()</text>
<polygon fill="#bfbfbf" stroke="#bfbfbf" points="0,-170 0,-170 122,-170 122,-170 0,-170"/>
<polygon fill="#bfbfbf" stroke="#bfbfbf" points="0,-154 0,-154 122,-154 122,-154 0,-154"/>
<polygon fill="none" stroke="#bfbfbf" points="0,-104 0,-188 122,-188 122,-104 0,-104"/>
</a>
</g>
</g>
<!-- Node2&#45;&gt;Node1 -->
<g id="edge1_Node000001_Node000002" class="edge">
<title>Node2&#45;&gt;Node1</title>
<g id="a_edge1_Node000001_Node000002"><a xlink:title=" ">
<path fill="none" stroke="#63b8ff" d="M61,-92.61C61,-84.14 61,-75.58 61,-67.75"/>
<polygon fill="none" stroke="#63b8ff" points="57.5,-92.53 61,-102.53 64.5,-92.53 57.5,-92.53"/>
</a>
</g>
</g>
<!-- Node3 -->
<g id="Node000003" class="node">
<title>Node3</title>
<g id="a_Node000003"><a xlink:title=" ">
<polygon fill="white" stroke="none" points="102,-276 20,-276 20,-224 102,-224 102,-276"/>
<text text-anchor="start" x="25" y="-262.5" font-family="Helvetica,sans-Serif" font-size="10.00">ScriptableObject</text>
<text text-anchor="start" x="59.5" y="-246.5" font-family="Helvetica,sans-Serif" font-size="10.00"> </text>
<text text-anchor="start" x="59.5" y="-230.5" font-family="Helvetica,sans-Serif" font-size="10.00"> </text>
<polygon fill="#bfbfbf" stroke="#bfbfbf" points="20,-258 20,-258 102,-258 102,-258 20,-258"/>
<polygon fill="#bfbfbf" stroke="#bfbfbf" points="20,-242 20,-242 102,-242 102,-242 20,-242"/>
<polygon fill="none" stroke="#bfbfbf" points="20,-224 20,-276 102,-276 102,-224 20,-224"/>
</a>
</g>
</g>
<!-- Node3&#45;&gt;Node2 -->
<g id="edge2_Node000002_Node000003" class="edge">
<title>Node3&#45;&gt;Node2</title>
<g id="a_edge2_Node000002_Node000003"><a xlink:title=" ">
<path fill="none" stroke="#63b8ff" d="M61,-212.77C61,-204.75 61,-196.19 61,-187.99"/>
<polygon fill="none" stroke="#63b8ff" points="57.5,-212.53 61,-222.53 64.5,-212.53 57.5,-212.53"/>
</a>
</g>
</g>
</g>
</svg>
</svg>

<style type='text/css'>
<![CDATA[
[data-mouse-over-selected='false'] { opacity: 0.7; }
[data-mouse-over-selected='true']  { opacity: 1.0; }
]]>
</style>
<script type="application/ecmascript"><![CDATA[
document.addEventListener('DOMContentLoaded', (event) => {
  highlightEdges();
  highlightAdjacentNodes();
});
]]></script>
</svg>
