<?xml version="1.0" encoding="UTF-8" standalone="no"?>
<!DOCTYPE svg PUBLIC "-//W3C//DTD SVG 1.1//EN"
 "http://www.w3.org/Graphics/SVG/1.1/DTD/svg11.dtd">
<!-- Generated by graphviz version 9.0.0 (20230911.1827)
 -->
<!-- Title: LambdaCondition Pages: 1 -->
<svg width="109pt" height="252pt"
 viewBox="0.00 0.00 109.00 252.00" xmlns="http://www.w3.org/2000/svg" xmlns:xlink="http://www.w3.org/1999/xlink">
<g id="graph0" class="graph" transform="scale(1 1) rotate(0) translate(4 248)">
<title>LambdaCondition</title>
<!-- Node1 -->
<g id="Node000001" class="node">
<title>Node1</title>
<g id="a_Node000001"><a xlink:title="Generic Condition that simply executes a lambda (System.Func&lt;bool&gt;).">
<polygon fill="#999999" stroke="none" points="100,-68 1,-68 1,0 100,0 100,-68"/>
<text text-anchor="start" x="13" y="-54.5" font-family="Helvetica,sans-Serif" font-size="10.00">LambdaCondition</text>
<text text-anchor="start" x="49" y="-38.5" font-family="Helvetica,sans-Serif" font-size="10.00"> </text>
<text text-anchor="start" x="5" y="-22.5" font-family="Helvetica,sans-Serif" font-size="10.00">+</text>
<text text-anchor="start" x="15" y="-22.5" font-family="Helvetica,sans-Serif" font-size="10.00">LambdaCondition()</text>
<text text-anchor="start" x="5" y="-6.5" font-family="Helvetica,sans-Serif" font-size="10.00">+</text>
<text text-anchor="start" x="15" y="-6.5" font-family="Helvetica,sans-Serif" font-size="10.00">LambdaCondition()</text>
<polygon fill="#666666" stroke="#666666" points="1,-50 1,-50 100,-50 100,-50 1,-50"/>
<polygon fill="#666666" stroke="#666666" points="1,-34 1,-34 100,-34 100,-34 1,-34"/>
<polygon fill="none" stroke="#666666" points="1,0 1,-68 100,-68 100,0 1,0"/>
</a>
</g>
</g>
<!-- Node2 -->
<g id="Node000002" class="node">
<title>Node2</title>
<g id="a_Node000002"><a xlink:href="interface_code_smile_1_1_statemachine_1_1_i_condition.html" target="_top" xlink:title="Marks a class as a FSM Condition.">
<polygon fill="white" stroke="none" points="76.5,-156 24.5,-156 24.5,-104 76.5,-104 76.5,-156"/>
<text text-anchor="start" x="29.12" y="-142.5" font-family="Helvetica,sans-Serif" font-size="10.00">ICondition</text>
<text text-anchor="start" x="49" y="-126.5" font-family="Helvetica,sans-Serif" font-size="10.00"> </text>
<text text-anchor="start" x="49" y="-110.5" font-family="Helvetica,sans-Serif" font-size="10.00"> </text>
<polygon fill="#666666" stroke="#666666" points="24.5,-138 24.5,-138 76.5,-138 76.5,-138 24.5,-138"/>
<polygon fill="#666666" stroke="#666666" points="24.5,-122 24.5,-122 76.5,-122 76.5,-122 24.5,-122"/>
<polygon fill="none" stroke="#666666" points="24.5,-104 24.5,-156 76.5,-156 76.5,-104 24.5,-104"/>
</a>
</g>
</g>
<!-- Node2&#45;&gt;Node1 -->
<g id="edge1_Node000001_Node000002" class="edge">
<title>Node2&#45;&gt;Node1</title>
<g id="a_edge1_Node000001_Node000002"><a xlink:title=" ">
<path fill="none" stroke="#63b8ff" d="M50.5,-92.97C50.5,-84.65 50.5,-75.84 50.5,-67.67"/>
<polygon fill="none" stroke="#63b8ff" points="47,-92.79 50.5,-102.79 54,-92.79 47,-92.79"/>
</a>
</g>
</g>
<!-- Node3 -->
<g id="Node000003" class="node">
<title>Node3</title>
<g id="a_Node000003"><a xlink:href="interface_code_smile_1_1_statemachine_1_1_i_statemachine_events.html" target="_top" xlink:title="Event methods that the Statemachine calls at specific times.">
<polygon fill="white" stroke="none" points="101,-244 0,-244 0,-192 101,-192 101,-244"/>
<text text-anchor="start" x="4.75" y="-230.5" font-family="Helvetica,sans-Serif" font-size="10.00">IStatemachineEvents</text>
<text text-anchor="start" x="49" y="-214.5" font-family="Helvetica,sans-Serif" font-size="10.00"> </text>
<text text-anchor="start" x="49" y="-198.5" font-family="Helvetica,sans-Serif" font-size="10.00"> </text>
<polygon fill="#666666" stroke="#666666" points="0,-226 0,-226 101,-226 101,-226 0,-226"/>
<polygon fill="#666666" stroke="#666666" points="0,-210 0,-210 101,-210 101,-210 0,-210"/>
<polygon fill="none" stroke="#666666" points="0,-192 0,-244 101,-244 101,-192 0,-192"/>
</a>
</g>
</g>
<!-- Node3&#45;&gt;Node2 -->
<g id="edge2_Node000002_Node000003" class="edge">
<title>Node3&#45;&gt;Node2</title>
<g id="a_edge2_Node000002_Node000003"><a xlink:title=" ">
<path fill="none" stroke="#63b8ff" d="M50.5,-180.66C50.5,-172.29 50.5,-163.57 50.5,-155.82"/>
<polygon fill="none" stroke="#63b8ff" points="47,-180.61 50.5,-190.61 54,-180.61 47,-180.61"/>
</a>
</g>
</g>
</g>
</svg>
