<?xml version="1.0" encoding="UTF-8" standalone="no"?>
<!DOCTYPE svg PUBLIC "-//W3C//DTD SVG 1.1//EN"
 "http://www.w3.org/Graphics/SVG/1.1/DTD/svg11.dtd">
<!-- Generated by graphviz version 9.0.0 (20230911.1827)
 -->
<!-- Title: KyleAnimatorController Pages: 1 -->
<svg width="244pt" height="380pt"
 viewBox="0.00 0.00 243.50 380.00" xmlns="http://www.w3.org/2000/svg" xmlns:xlink="http://www.w3.org/1999/xlink">
<g id="graph0" class="graph" transform="scale(1 1) rotate(0) translate(4 376)">
<title>KyleAnimatorController</title>
<!-- Node1 -->
<g id="Node000001" class="node">
<title>Node1</title>
<g id="a_Node000001"><a xlink:title=" ">
<polygon fill="#999999" stroke="none" points="171.5,-208 30.5,-208 30.5,0 171.5,0 171.5,-208"/>
<text text-anchor="start" x="51.12" y="-194.5" font-family="Helvetica,sans-Serif" font-size="10.00">KyleAnimatorController</text>
<text text-anchor="start" x="34.5" y="-178.5" font-family="Helvetica,sans-Serif" font-size="10.00">+</text>
<text text-anchor="start" x="44.5" y="-178.5" font-family="Helvetica,sans-Serif" font-size="10.00">InputMagnitude</text>
<text text-anchor="start" x="34.5" y="-162.5" font-family="Helvetica,sans-Serif" font-size="10.00">+</text>
<text text-anchor="start" x="44.5" y="-162.5" font-family="Helvetica,sans-Serif" font-size="10.00">IsFalling</text>
<text text-anchor="start" x="34.5" y="-146.5" font-family="Helvetica,sans-Serif" font-size="10.00">+</text>
<text text-anchor="start" x="44.5" y="-146.5" font-family="Helvetica,sans-Serif" font-size="10.00">IsGrounded</text>
<text text-anchor="start" x="34.5" y="-130.5" font-family="Helvetica,sans-Serif" font-size="10.00">+</text>
<text text-anchor="start" x="44.5" y="-130.5" font-family="Helvetica,sans-Serif" font-size="10.00">IsOwner</text>
<text text-anchor="start" x="34.5" y="-114.5" font-family="Helvetica,sans-Serif" font-size="10.00">+</text>
<text text-anchor="start" x="44.5" y="-114.5" font-family="Helvetica,sans-Serif" font-size="10.00">MoveSpeed</text>
<text text-anchor="start" x="34.5" y="-98.5" font-family="Helvetica,sans-Serif" font-size="10.00">+</text>
<text text-anchor="start" x="44.5" y="-98.5" font-family="Helvetica,sans-Serif" font-size="10.00">PlayerIndex</text>
<text text-anchor="start" x="34.5" y="-82.5" font-family="Helvetica,sans-Serif" font-size="10.00">+</text>
<text text-anchor="start" x="44.5" y="-82.5" font-family="Helvetica,sans-Serif" font-size="10.00">TriggerJump</text>
<text text-anchor="start" x="34.5" y="-66.5" font-family="Helvetica,sans-Serif" font-size="10.00">+</text>
<text text-anchor="start" x="44.5" y="-66.5" font-family="Helvetica,sans-Serif" font-size="10.00">Init()</text>
<text text-anchor="start" x="34.5" y="-50.5" font-family="Helvetica,sans-Serif" font-size="10.00">+</text>
<text text-anchor="start" x="44.5" y="-50.5" font-family="Helvetica,sans-Serif" font-size="10.00">OnPlayerDeath()</text>
<text text-anchor="start" x="34.5" y="-34.5" font-family="Helvetica,sans-Serif" font-size="10.00">+</text>
<text text-anchor="start" x="44.5" y="-34.5" font-family="Helvetica,sans-Serif" font-size="10.00">OnPlayerRespawn()</text>
<text text-anchor="start" x="34.5" y="-18.5" font-family="Helvetica,sans-Serif" font-size="10.00">+</text>
<text text-anchor="start" x="44.5" y="-18.5" font-family="Helvetica,sans-Serif" font-size="10.00">RemoteAnimatorParameters</text>
<text text-anchor="start" x="44.5" y="-6.5" font-family="Helvetica,sans-Serif" font-size="10.00">Received()</text>
<polygon fill="#666666" stroke="#666666" points="30.5,-190 30.5,-190 171.5,-190 171.5,-190 30.5,-190"/>
<polygon fill="#666666" stroke="#666666" points="30.5,-78 30.5,-78 42.5,-78 42.5,-78 30.5,-78"/>
<polygon fill="#666666" stroke="#666666" points="42.5,-78 42.5,-78 171.5,-78 171.5,-78 42.5,-78"/>
<polygon fill="none" stroke="#666666" points="30.5,0 30.5,-208 171.5,-208 171.5,0 30.5,0"/>
</a>
</g>
</g>
<!-- Node2 -->
<g id="Node000002" class="node">
<title>Node2</title>
<g id="a_Node000002"><a xlink:title=" ">
<polygon fill="white" stroke="none" points="76,-334 0,-334 0,-282 76,-282 76,-334"/>
<text text-anchor="start" x="5" y="-320.5" font-family="Helvetica,sans-Serif" font-size="10.00">MonoBehaviour</text>
<text text-anchor="start" x="36.5" y="-304.5" font-family="Helvetica,sans-Serif" font-size="10.00"> </text>
<text text-anchor="start" x="36.5" y="-288.5" font-family="Helvetica,sans-Serif" font-size="10.00"> </text>
<polygon fill="#bfbfbf" stroke="#bfbfbf" points="0,-316 0,-316 76,-316 76,-316 0,-316"/>
<polygon fill="#bfbfbf" stroke="#bfbfbf" points="0,-300 0,-300 76,-300 76,-300 0,-300"/>
<polygon fill="none" stroke="#bfbfbf" points="0,-282 0,-334 76,-334 76,-282 0,-282"/>
</a>
</g>
</g>
<!-- Node2&#45;&gt;Node1 -->
<g id="edge1_Node000001_Node000002" class="edge">
<title>Node2&#45;&gt;Node1</title>
<g id="a_edge1_Node000001_Node000002"><a xlink:title=" ">
<path fill="none" stroke="#63b8ff" d="M49.08,-271.48C54.66,-253.58 61.75,-230.86 68.88,-208"/>
<polygon fill="none" stroke="#63b8ff" points="45.81,-270.2 46.18,-280.79 52.49,-272.28 45.81,-270.2"/>
</a>
</g>
</g>
<!-- Node3 -->
<g id="Node000003" class="node">
<title>Node3</title>
<g id="a_Node000003"><a xlink:href="interface_code_smile_1_1_multi_pal_1_1_animation_1_1_i_animator_controller.html" target="_top" xlink:title=" ">
<polygon fill="white" stroke="none" points="235.5,-372 94.5,-372 94.5,-244 235.5,-244 235.5,-372"/>
<text text-anchor="start" x="123.75" y="-358.5" font-family="Helvetica,sans-Serif" font-size="10.00">IAnimatorController</text>
<text text-anchor="start" x="98.5" y="-342.5" font-family="Helvetica,sans-Serif" font-size="10.00">+</text>
<text text-anchor="start" x="108.5" y="-342.5" font-family="Helvetica,sans-Serif" font-size="10.00">IsOwner</text>
<text text-anchor="start" x="98.5" y="-326.5" font-family="Helvetica,sans-Serif" font-size="10.00">+</text>
<text text-anchor="start" x="108.5" y="-326.5" font-family="Helvetica,sans-Serif" font-size="10.00">PlayerIndex</text>
<text text-anchor="start" x="98.5" y="-310.5" font-family="Helvetica,sans-Serif" font-size="10.00">+</text>
<text text-anchor="start" x="108.5" y="-310.5" font-family="Helvetica,sans-Serif" font-size="10.00">Init()</text>
<text text-anchor="start" x="98.5" y="-294.5" font-family="Helvetica,sans-Serif" font-size="10.00">+</text>
<text text-anchor="start" x="108.5" y="-294.5" font-family="Helvetica,sans-Serif" font-size="10.00">OnPlayerDeath()</text>
<text text-anchor="start" x="98.5" y="-278.5" font-family="Helvetica,sans-Serif" font-size="10.00">+</text>
<text text-anchor="start" x="108.5" y="-278.5" font-family="Helvetica,sans-Serif" font-size="10.00">OnPlayerRespawn()</text>
<text text-anchor="start" x="98.5" y="-262.5" font-family="Helvetica,sans-Serif" font-size="10.00">+</text>
<text text-anchor="start" x="108.5" y="-262.5" font-family="Helvetica,sans-Serif" font-size="10.00">RemoteAnimatorParameters</text>
<text text-anchor="start" x="108.5" y="-250.5" font-family="Helvetica,sans-Serif" font-size="10.00">Received()</text>
<polygon fill="#bfbfbf" stroke="#bfbfbf" points="94.5,-354 94.5,-354 235.5,-354 235.5,-354 94.5,-354"/>
<polygon fill="#bfbfbf" stroke="#bfbfbf" points="94.5,-322 94.5,-322 106.5,-322 106.5,-322 94.5,-322"/>
<polygon fill="#bfbfbf" stroke="#bfbfbf" points="106.5,-322 106.5,-322 235.5,-322 235.5,-322 106.5,-322"/>
<polygon fill="none" stroke="#bfbfbf" points="94.5,-244 94.5,-372 235.5,-372 235.5,-244 94.5,-244"/>
</a>
</g>
</g>
<!-- Node3&#45;&gt;Node1 -->
<g id="edge2_Node000001_Node000003" class="edge">
<title>Node3&#45;&gt;Node1</title>
<g id="a_edge2_Node000001_Node000003"><a xlink:title=" ">
<path fill="none" stroke="#63b8ff" d="M141.68,-233.41C139.04,-225.07 136.32,-216.46 133.58,-207.84"/>
<polygon fill="none" stroke="#63b8ff" points="138.29,-234.27 144.64,-242.75 144.96,-232.16 138.29,-234.27"/>
</a>
</g>
</g>
</g>
</svg>
