<?xml version="1.0" encoding="UTF-8" standalone="no"?>
<!DOCTYPE svg PUBLIC "-//W3C//DTD SVG 1.1//EN"
 "http://www.w3.org/Graphics/SVG/1.1/DTD/svg11.dtd">
<!-- Generated by graphviz version 9.0.0 (20230911.1827)
 -->
<!-- Title: SignInAnonymously Pages: 1 -->
<svg width="109pt" height="324pt"
 viewBox="0.00 0.00 109.00 324.00" xmlns="http://www.w3.org/2000/svg" xmlns:xlink="http://www.w3.org/1999/xlink">
<g id="graph0" class="graph" transform="scale(1 1) rotate(0) translate(4 320)">
<title>SignInAnonymously</title>
<!-- Node1 -->
<g id="Node000001" class="node">
<title>Node1</title>
<g id="a_Node000001"><a xlink:title="Calls SignInAnonymouslyAsync.">
<polygon fill="#999999" stroke="none" points="98.5,-52 2.5,-52 2.5,0 98.5,0 98.5,-52"/>
<text text-anchor="start" x="7.38" y="-38.5" font-family="Helvetica,sans-Serif" font-size="10.00">SignInAnonymously</text>
<text text-anchor="start" x="49" y="-22.5" font-family="Helvetica,sans-Serif" font-size="10.00"> </text>
<text text-anchor="start" x="49" y="-6.5" font-family="Helvetica,sans-Serif" font-size="10.00"> </text>
<polygon fill="#666666" stroke="#666666" points="2.5,-34 2.5,-34 98.5,-34 98.5,-34 2.5,-34"/>
<polygon fill="#666666" stroke="#666666" points="2.5,-18 2.5,-18 98.5,-18 98.5,-18 2.5,-18"/>
<polygon fill="none" stroke="#666666" points="2.5,0 2.5,-52 98.5,-52 98.5,0 2.5,0"/>
</a>
</g>
</g>
<!-- Node2 -->
<g id="Node000002" class="node">
<title>Node2</title>
<g id="a_Node000002"><a xlink:href="interface_code_smile_1_1_statemachine_1_1_i_async_action.html" target="_top" xlink:title="Marks a class as an asynchronous (awaitable) FSM Action.">
<polygon fill="white" stroke="none" points="84,-140 17,-140 17,-88 84,-88 84,-140"/>
<text text-anchor="start" x="21.62" y="-126.5" font-family="Helvetica,sans-Serif" font-size="10.00">IAsyncAction</text>
<text text-anchor="start" x="49" y="-110.5" font-family="Helvetica,sans-Serif" font-size="10.00"> </text>
<text text-anchor="start" x="49" y="-94.5" font-family="Helvetica,sans-Serif" font-size="10.00"> </text>
<polygon fill="#666666" stroke="#666666" points="17,-122 17,-122 84,-122 84,-122 17,-122"/>
<polygon fill="#666666" stroke="#666666" points="17,-106 17,-106 84,-106 84,-106 17,-106"/>
<polygon fill="none" stroke="#666666" points="17,-88 17,-140 84,-140 84,-88 17,-88"/>
</a>
</g>
</g>
<!-- Node2&#45;&gt;Node1 -->
<g id="edge1_Node000001_Node000002" class="edge">
<title>Node2&#45;&gt;Node1</title>
<g id="a_edge1_Node000001_Node000002"><a xlink:title=" ">
<path fill="none" stroke="#63b8ff" d="M50.5,-76.66C50.5,-68.29 50.5,-59.57 50.5,-51.82"/>
<polygon fill="none" stroke="#63b8ff" points="47,-76.61 50.5,-86.61 54,-76.61 47,-76.61"/>
</a>
</g>
</g>
<!-- Node3 -->
<g id="Node000003" class="node">
<title>Node3</title>
<g id="a_Node000003"><a xlink:href="interface_code_smile_1_1_statemachine_1_1_i_action.html" target="_top" xlink:title="Marks a class as a FSM Action.">
<polygon fill="white" stroke="none" points="70.5,-228 30.5,-228 30.5,-176 70.5,-176 70.5,-228"/>
<text text-anchor="start" x="35.5" y="-214.5" font-family="Helvetica,sans-Serif" font-size="10.00">IAction</text>
<text text-anchor="start" x="49" y="-198.5" font-family="Helvetica,sans-Serif" font-size="10.00"> </text>
<text text-anchor="start" x="49" y="-182.5" font-family="Helvetica,sans-Serif" font-size="10.00"> </text>
<polygon fill="#666666" stroke="#666666" points="30.5,-210 30.5,-210 70.5,-210 70.5,-210 30.5,-210"/>
<polygon fill="#666666" stroke="#666666" points="30.5,-194 30.5,-194 70.5,-194 70.5,-194 30.5,-194"/>
<polygon fill="none" stroke="#666666" points="30.5,-176 30.5,-228 70.5,-228 70.5,-176 30.5,-176"/>
</a>
</g>
</g>
<!-- Node3&#45;&gt;Node2 -->
<g id="edge2_Node000002_Node000003" class="edge">
<title>Node3&#45;&gt;Node2</title>
<g id="a_edge2_Node000002_Node000003"><a xlink:title=" ">
<path fill="none" stroke="#63b8ff" d="M50.5,-164.66C50.5,-156.29 50.5,-147.57 50.5,-139.82"/>
<polygon fill="none" stroke="#63b8ff" points="47,-164.61 50.5,-174.61 54,-164.61 47,-164.61"/>
</a>
</g>
</g>
<!-- Node4 -->
<g id="Node000004" class="node">
<title>Node4</title>
<g id="a_Node000004"><a xlink:href="interface_code_smile_1_1_statemachine_1_1_i_statemachine_events.html" target="_top" xlink:title="Event methods that the Statemachine calls at specific times.">
<polygon fill="white" stroke="none" points="101,-316 0,-316 0,-264 101,-264 101,-316"/>
<text text-anchor="start" x="4.75" y="-302.5" font-family="Helvetica,sans-Serif" font-size="10.00">IStatemachineEvents</text>
<text text-anchor="start" x="49" y="-286.5" font-family="Helvetica,sans-Serif" font-size="10.00"> </text>
<text text-anchor="start" x="49" y="-270.5" font-family="Helvetica,sans-Serif" font-size="10.00"> </text>
<polygon fill="#666666" stroke="#666666" points="0,-298 0,-298 101,-298 101,-298 0,-298"/>
<polygon fill="#666666" stroke="#666666" points="0,-282 0,-282 101,-282 101,-282 0,-282"/>
<polygon fill="none" stroke="#666666" points="0,-264 0,-316 101,-316 101,-264 0,-264"/>
</a>
</g>
</g>
<!-- Node4&#45;&gt;Node3 -->
<g id="edge3_Node000003_Node000004" class="edge">
<title>Node4&#45;&gt;Node3</title>
<g id="a_edge3_Node000003_Node000004"><a xlink:title=" ">
<path fill="none" stroke="#63b8ff" d="M50.5,-252.66C50.5,-244.29 50.5,-235.57 50.5,-227.82"/>
<polygon fill="none" stroke="#63b8ff" points="47,-252.61 50.5,-262.61 54,-252.61 47,-252.61"/>
</a>
</g>
</g>
</g>
</svg>
