<?xml version="1.0" encoding="UTF-8" standalone="no"?>
<!DOCTYPE svg PUBLIC "-//W3C//DTD SVG 1.1//EN"
 "http://www.w3.org/Graphics/SVG/1.1/DTD/svg11.dtd">
<!-- Generated by graphviz version 9.0.0 (20230911.1827)
 -->
<!-- Title: U:/Netcode/WriteBetterNetcode/WriteBetterNetcode/Assets/CodeSmile/MultiPal/Scripts/Runtime Pages: 1 -->
<!--zoomable 96 -->

<svg id="main" version="1.1" xmlns="http://www.w3.org/2000/svg" xmlns:xlink="http://www.w3.org/1999/xlink" xml:space="preserve" onload="init(evt)">

<style type="text/css"><![CDATA[
.node, .edge {opacity: 0.7;}
.node.selected, .edge.selected {opacity: 1;}
.edge:hover path { stroke: red; }
.edge:hover polygon { stroke: red; fill: red; }
]]></style>

<defs>
  <circle id="rim" cx="0" cy="0" r="7"/>
  <circle id="rim2" cx="0" cy="0" r="3.5"/>
  <g id="zoomPlus">
    <use xlink:href="#rim" fill="#404040"><set attributeName="fill" to="#808080" begin="zoomplus.mouseover" end="zoomplus.mouseout"/></use>
    <path d="M-4,0h8M0,-4v8" fill="none" stroke="white" stroke-width="1.5" pointer-events="none"/>
  </g>
  <g id="zoomMin">
    <use xlink:href="#rim" fill="#404040"><set attributeName="fill" to="#808080" begin="zoomminus.mouseover" end="zoomminus.mouseout"/></use>
    <path d="M-4,0h8" fill="none" stroke="white" stroke-width="1.5" pointer-events="none"/>
  </g>
  <g id="arrowUp" transform="translate(30 24)">
    <use xlink:href="#rim"/>
    <path pointer-events="none" fill="none" stroke="white" stroke-width="1.5" d="M0,-3.0v7 M-2.5,-0.5L0,-3.0L2.5,-0.5"/>
  </g>
  <g id="arrowRight" transform="rotate(90) translate(36 -43)">
    <use xlink:href="#rim"/>
    <path pointer-events="none" fill="none" stroke="white" stroke-width="1.5" d="M0,-3.0v7 M-2.5,-0.5L0,-3.0L2.5,-0.5"/>
  </g>
  <g id="arrowDown" transform="rotate(180) translate(-30 -48)">
    <use xlink:href="#rim"/>
    <path pointer-events="none" fill="none" stroke="white" stroke-width="1.5" d="M0,-3.0v7 M-2.5,-0.5L0,-3.0L2.5,-0.5"/>
  </g>
  <g id="arrowLeft" transform="rotate(270) translate(-36 17)">
    <use xlink:href="#rim"/>
    <path pointer-events="none" fill="none" stroke="white" stroke-width="1.5" d="M0,-3.0v7 M-2.5,-0.5L0,-3.0L2.5,-0.5"/>
  </g>
  <g id="resetDef">
    <use xlink:href="#rim2" fill="#404040"><set attributeName="fill" to="#808080" begin="reset.mouseover" end="reset.mouseout"/></use>
  </g>
</defs>
<script type="application/ecmascript">
var viewWidth = 1000;
var viewHeight = 96;
var sectionId = 'dynsection-0';
</script>
<script type="application/ecmascript" xlink:href="svg.min.js"/>
<svg id="graph" class="graph">
<g id="viewport">
<title>U:/Netcode/WriteBetterNetcode/WriteBetterNetcode/Assets/CodeSmile/MultiPal/Scripts/Runtime</title>
<g id="clust1" class="cluster">
<title>clusterdir_f844410edfcec14fee4184d12c3006aa</title>
<g id="a_clust1"><a xlink:href="dir_f844410edfcec14fee4184d12c3006aa.html" target="_top" xlink:title="Scripts">
<polygon fill="#f0efed" stroke="#7f7f7f" stroke-dasharray="5,2" points="8,-8 8,-80 984,-80 984,-8 8,-8"/>
<text text-anchor="middle" x="496" y="-66.5" font-family="Helvetica,sans-Serif" font-size="10.00">Scripts</text>
</a>
</g>
</g>
<g id="clust2" class="cluster">
<title>clusterdir_5a122539a9238de90617935e47feaaff</title>
<g id="a_clust2"><a xlink:href="dir_5a122539a9238de90617935e47feaaff.html" target="_top">
<polygon fill="#f0efed" stroke="#404040" stroke-width="2" points="16,-16 16,-52 976,-52 976,-16 16,-16"/>
</a>
</g>
</g>
<!-- dir_5a122539a9238de90617935e47feaaff -->
<g id="node1" class="node">
<title>dir_5a122539a9238de90617935e47feaaff</title>
<text text-anchor="middle" x="942" y="-30.5" font-family="Helvetica,sans-Serif" font-size="10.00">Runtime</text>
</g>
<!-- dir_00bb2044141a532d05deabd440bf98f8 -->
<g id="node2" class="node">
<title>dir_00bb2044141a532d05deabd440bf98f8</title>
<g id="a_node2"><a xlink:href="dir_00bb2044141a532d05deabd440bf98f8.html" target="_top" xlink:title="Animation">
<polygon fill="#b6b0a7" stroke="#404040" points="897.75,-44 838.25,-44 838.25,-24 897.75,-24 897.75,-44"/>
<text text-anchor="middle" x="868" y="-30.5" font-family="Helvetica,sans-Serif" font-size="10.00">Animation</text>
</a>
</g>
</g>
<!-- dir_03ec8af4feb77a0f1fc339d7f583f7b8 -->
<g id="node3" class="node">
<title>dir_03ec8af4feb77a0f1fc339d7f583f7b8</title>
<g id="a_node3"><a xlink:href="dir_03ec8af4feb77a0f1fc339d7f583f7b8.html" target="_top" xlink:title="Cinecam">
<polygon fill="#b6b0a7" stroke="#404040" points="820.12,-44 765.88,-44 765.88,-24 820.12,-24 820.12,-44"/>
<text text-anchor="middle" x="793" y="-30.5" font-family="Helvetica,sans-Serif" font-size="10.00">Cinecam</text>
</a>
</g>
</g>
<!-- dir_b8cd06361b6b73473a4d59d8399281f7 -->
<g id="node4" class="node">
<title>dir_b8cd06361b6b73473a4d59d8399281f7</title>
<g id="a_node4"><a xlink:href="dir_b8cd06361b6b73473a4d59d8399281f7.html" target="_top" xlink:title="Design">
<polygon fill="#b6b0a7" stroke="#404040" points="748,-44 702,-44 702,-24 748,-24 748,-44"/>
<text text-anchor="middle" x="725" y="-30.5" font-family="Helvetica,sans-Serif" font-size="10.00">Design</text>
</a>
</g>
</g>
<!-- dir_ba3ff9cbef62b2c92f492f39367d6203 -->
<g id="node5" class="node">
<title>dir_ba3ff9cbef62b2c92f492f39367d6203</title>
<g id="a_node5"><a xlink:href="dir_ba3ff9cbef62b2c92f492f39367d6203.html" target="_top" xlink:title="GameState">
<polygon fill="#b6b0a7" stroke="#404040" points="683.75,-44 618.25,-44 618.25,-24 683.75,-24 683.75,-44"/>
<text text-anchor="middle" x="651" y="-30.5" font-family="Helvetica,sans-Serif" font-size="10.00">GameState</text>
</a>
</g>
</g>
<!-- dir_d6bb3362b0e88868be7ae8415f80a235 -->
<g id="node6" class="node">
<title>dir_d6bb3362b0e88868be7ae8415f80a235</title>
<g id="a_node6"><a xlink:href="dir_d6bb3362b0e88868be7ae8415f80a235.html" target="_top" xlink:title="GUI">
<polygon fill="#b6b0a7" stroke="#404040" points="600.25,-44 567.75,-44 567.75,-24 600.25,-24 600.25,-44"/>
<text text-anchor="middle" x="584" y="-30.5" font-family="Helvetica,sans-Serif" font-size="10.00">GUI</text>
</a>
</g>
</g>
<!-- dir_c76e3005e92df9228b8af41bf8271108 -->
<g id="node7" class="node">
<title>dir_c76e3005e92df9228b8af41bf8271108</title>
<g id="a_node7"><a xlink:href="dir_c76e3005e92df9228b8af41bf8271108.html" target="_top" xlink:title="Input">
<polygon fill="#b6b0a7" stroke="#404040" points="549.5,-44 512.5,-44 512.5,-24 549.5,-24 549.5,-44"/>
<text text-anchor="middle" x="531" y="-30.5" font-family="Helvetica,sans-Serif" font-size="10.00">Input</text>
</a>
</g>
</g>
<!-- dir_0c7e630de281ce9bfb25bccc7313b577 -->
<g id="node8" class="node">
<title>dir_0c7e630de281ce9bfb25bccc7313b577</title>
<g id="a_node8"><a xlink:href="dir_0c7e630de281ce9bfb25bccc7313b577.html" target="_top" xlink:title="Netcode">
<polygon fill="#b6b0a7" stroke="#404040" points="494,-44 442,-44 442,-24 494,-24 494,-44"/>
<text text-anchor="middle" x="468" y="-30.5" font-family="Helvetica,sans-Serif" font-size="10.00">Netcode</text>
</a>
</g>
</g>
<!-- dir_253b427cfe4580afe5cd4455a61a2fd2 -->
<g id="node9" class="node">
<title>dir_253b427cfe4580afe5cd4455a61a2fd2</title>
<g id="a_node9"><a xlink:href="dir_253b427cfe4580afe5cd4455a61a2fd2.html" target="_top" xlink:title="PlayerController">
<polygon fill="#b6b0a7" stroke="#404040" points="423.5,-44 338.5,-44 338.5,-24 423.5,-24 423.5,-44"/>
<text text-anchor="middle" x="381" y="-30.5" font-family="Helvetica,sans-Serif" font-size="10.00">PlayerController</text>
</a>
</g>
</g>
<!-- dir_de2509a98aa790b83deb532f82ca2bad -->
<g id="node10" class="node">
<title>dir_de2509a98aa790b83deb532f82ca2bad</title>
<g id="a_node10"><a xlink:href="dir_de2509a98aa790b83deb532f82ca2bad.html" target="_top" xlink:title="Players">
<polygon fill="#b6b0a7" stroke="#404040" points="320.5,-44 271.5,-44 271.5,-24 320.5,-24 320.5,-44"/>
<text text-anchor="middle" x="296" y="-30.5" font-family="Helvetica,sans-Serif" font-size="10.00">Players</text>
</a>
</g>
</g>
<!-- dir_0a7f94206e84cb3c0233e5d1483507f9 -->
<g id="node11" class="node">
<title>dir_0a7f94206e84cb3c0233e5d1483507f9</title>
<g id="a_node11"><a xlink:href="dir_0a7f94206e84cb3c0233e5d1483507f9.html" target="_top" xlink:title="Scene">
<polygon fill="#b6b0a7" stroke="#404040" points="253.88,-44 210.12,-44 210.12,-24 253.88,-24 253.88,-44"/>
<text text-anchor="middle" x="232" y="-30.5" font-family="Helvetica,sans-Serif" font-size="10.00">Scene</text>
</a>
</g>
</g>
<!-- dir_3cc8dfeeade77faf364f30765ae2cc0b -->
<g id="node12" class="node">
<title>dir_3cc8dfeeade77faf364f30765ae2cc0b</title>
<g id="a_node12"><a xlink:href="dir_3cc8dfeeade77faf364f30765ae2cc0b.html" target="_top" xlink:title="Settings">
<polygon fill="#b6b0a7" stroke="#404040" points="192,-44 140,-44 140,-24 192,-24 192,-44"/>
<text text-anchor="middle" x="166" y="-30.5" font-family="Helvetica,sans-Serif" font-size="10.00">Settings</text>
</a>
</g>
</g>
<!-- dir_04d096b2c20def0fd902598c1330fbd2 -->
<g id="node13" class="node">
<title>dir_04d096b2c20def0fd902598c1330fbd2</title>
<g id="a_node13"><a xlink:href="dir_04d096b2c20def0fd902598c1330fbd2.html" target="_top" xlink:title="Stats">
<polygon fill="#b6b0a7" stroke="#404040" points="121.62,-44 82.38,-44 82.38,-24 121.62,-24 121.62,-44"/>
<text text-anchor="middle" x="102" y="-30.5" font-family="Helvetica,sans-Serif" font-size="10.00">Stats</text>
</a>
</g>
</g>
<!-- dir_c62790db028330f1f18691c1e1679218 -->
<g id="node14" class="node">
<title>dir_c62790db028330f1f18691c1e1679218</title>
<g id="a_node14"><a xlink:href="dir_c62790db028330f1f18691c1e1679218.html" target="_top" xlink:title="Utility">
<polygon fill="#b6b0a7" stroke="#404040" points="64.38,-44 23.62,-44 23.62,-24 64.38,-24 64.38,-44"/>
<text text-anchor="middle" x="44" y="-30.5" font-family="Helvetica,sans-Serif" font-size="10.00">Utility</text>
</a>
</g>
</g>
</g>
</svg>

<g id="navigator" transform="translate(0 0)" fill="#404254">
  <rect fill="#f2f5e9" fill-opacity="0.5" stroke="#606060" stroke-width=".5" x="0" y="0" width="60" height="60"/>
  <use id="zoomplus" xlink:href="#zoomPlus" x="17" y="9" onmousedown="handleZoom(evt,'in')"/>
  <use id="zoomminus" xlink:href="#zoomMin" x="42" y="9" onmousedown="handleZoom(evt,'out')"/>
  <use id="reset" xlink:href="#resetDef" x="30" y="36" onmousedown="handleReset()"/>
   <use id="arrowup" xlink:href="#arrowUp" x="0" y="0" onmousedown="handlePan(0,-1)"/>
  <use id="arrowright" xlink:href="#arrowRight" x="0" y="0" onmousedown="handlePan(1,0)"/>
  <use id="arrowdown" xlink:href="#arrowDown" x="0" y="0" onmousedown="handlePan(0,1)"/>
  <use id="arrowleft" xlink:href="#arrowLeft" x="0" y="0" onmousedown="handlePan(-1,0)"/>
</g>
<svg viewBox="0 0 15 15" width="100%" height="30px" preserveAspectRatio="xMaxYMin meet">
 <g id="arrow_out" transform="scale(0.3 0.3)">
  <a xlink:href="dir_5a122539a9238de90617935e47feaaff_dep_org.svg" target="_base">
   <rect id="button" ry="5" rx="5" y="6" x="6" height="38" width="38"
        fill="#f2f5e9" fill-opacity="0.5" stroke="#606060" stroke-width="1.0"/>
   <path id="arrow"
     d="M 11.500037,31.436501 C 11.940474,20.09759 22.043105,11.32322 32.158766,21.979434 L 37.068811,17.246167 C 37.068811,17.246167 37.088388,32 37.088388,32 L 22.160133,31.978069 C 22.160133,31.978069 26.997745,27.140456 26.997745,27.140456 C 18.528582,18.264221 13.291696,25.230495 11.500037,31.436501 z"
     style="fill:#404040;"/>
  </a>
 </g>
</svg>

<style type='text/css'>
<![CDATA[
[data-mouse-over-selected='false'] { opacity: 0.7; }
[data-mouse-over-selected='true']  { opacity: 1.0; }
]]>
</style>
<script type="application/ecmascript"><![CDATA[
document.addEventListener('DOMContentLoaded', (event) => {
  highlightEdges();
  highlightAdjacentNodes();
});
]]></script>
</svg>
