<?xml version="1.0" encoding="UTF-8" standalone="no"?>
<!DOCTYPE svg PUBLIC "-//W3C//DTD SVG 1.1//EN"
 "http://www.w3.org/Graphics/SVG/1.1/DTD/svg11.dtd">
<!-- Generated by graphviz version 9.0.0 (20230911.1827)
 -->
<!-- Title: U:/Netcode/WriteBetterNetcode/WriteBetterNetcode/Assets/CodeSmile/Core/Statemachine Pages: 1 -->
<!--zoomable 96 -->

<svg id="main" version="1.1" xmlns="http://www.w3.org/2000/svg" xmlns:xlink="http://www.w3.org/1999/xlink" xml:space="preserve" onload="init(evt)">

<style type="text/css"><![CDATA[
.node, .edge {opacity: 0.7;}
.node.selected, .edge.selected {opacity: 1;}
.edge:hover path { stroke: red; }
.edge:hover polygon { stroke: red; fill: red; }
]]></style>

<defs>
  <circle id="rim" cx="0" cy="0" r="7"/>
  <circle id="rim2" cx="0" cy="0" r="3.5"/>
  <g id="zoomPlus">
    <use xlink:href="#rim" fill="#404040"><set attributeName="fill" to="#808080" begin="zoomplus.mouseover" end="zoomplus.mouseout"/></use>
    <path d="M-4,0h8M0,-4v8" fill="none" stroke="white" stroke-width="1.5" pointer-events="none"/>
  </g>
  <g id="zoomMin">
    <use xlink:href="#rim" fill="#404040"><set attributeName="fill" to="#808080" begin="zoomminus.mouseover" end="zoomminus.mouseout"/></use>
    <path d="M-4,0h8" fill="none" stroke="white" stroke-width="1.5" pointer-events="none"/>
  </g>
  <g id="arrowUp" transform="translate(30 24)">
    <use xlink:href="#rim"/>
    <path pointer-events="none" fill="none" stroke="white" stroke-width="1.5" d="M0,-3.0v7 M-2.5,-0.5L0,-3.0L2.5,-0.5"/>
  </g>
  <g id="arrowRight" transform="rotate(90) translate(36 -43)">
    <use xlink:href="#rim"/>
    <path pointer-events="none" fill="none" stroke="white" stroke-width="1.5" d="M0,-3.0v7 M-2.5,-0.5L0,-3.0L2.5,-0.5"/>
  </g>
  <g id="arrowDown" transform="rotate(180) translate(-30 -48)">
    <use xlink:href="#rim"/>
    <path pointer-events="none" fill="none" stroke="white" stroke-width="1.5" d="M0,-3.0v7 M-2.5,-0.5L0,-3.0L2.5,-0.5"/>
  </g>
  <g id="arrowLeft" transform="rotate(270) translate(-36 17)">
    <use xlink:href="#rim"/>
    <path pointer-events="none" fill="none" stroke="white" stroke-width="1.5" d="M0,-3.0v7 M-2.5,-0.5L0,-3.0L2.5,-0.5"/>
  </g>
  <g id="resetDef">
    <use xlink:href="#rim2" fill="#404040"><set attributeName="fill" to="#808080" begin="reset.mouseover" end="reset.mouseout"/></use>
  </g>
</defs>
<script type="application/ecmascript">
var viewWidth = 547;
var viewHeight = 96;
var sectionId = 'dynsection-0';
</script>
<script type="application/ecmascript" xlink:href="svg.min.js"/>
<svg id="graph" class="graph">
<g id="viewport">
<title>U:/Netcode/WriteBetterNetcode/WriteBetterNetcode/Assets/CodeSmile/Core/Statemachine</title>
<g id="clust1" class="cluster">
<title>clusterdir_7ba5e9ab6a367f0152b6a873a88d99b3</title>
<g id="a_clust1"><a xlink:href="dir_7ba5e9ab6a367f0152b6a873a88d99b3.html" target="_top" xlink:title="Core">
<polygon fill="#f0efed" stroke="#7f7f7f" stroke-dasharray="5,2" points="8,-8 8,-80 531,-80 531,-8 8,-8"/>
<text text-anchor="middle" x="269.5" y="-66.5" font-family="Helvetica,sans-Serif" font-size="10.00">Core</text>
</a>
</g>
</g>
<g id="clust2" class="cluster">
<title>clusterdir_d3ae71e36e879ec036190bbbff7a5109</title>
<g id="a_clust2"><a xlink:href="dir_d3ae71e36e879ec036190bbbff7a5109.html" target="_top">
<polygon fill="#f0efed" stroke="#404040" stroke-width="2" points="16,-16 16,-52 523,-52 523,-16 16,-16"/>
</a>
</g>
</g>
<!-- dir_d3ae71e36e879ec036190bbbff7a5109 -->
<g id="node1" class="node">
<title>dir_d3ae71e36e879ec036190bbbff7a5109</title>
<text text-anchor="middle" x="477" y="-30.5" font-family="Helvetica,sans-Serif" font-size="10.00">Statemachine</text>
</g>
<!-- dir_a5e8db92bc697d1a5c5c5bd05d49ee9f -->
<g id="node2" class="node">
<title>dir_a5e8db92bc697d1a5c5c5bd05d49ee9f</title>
<g id="a_node2"><a xlink:href="dir_a5e8db92bc697d1a5c5c5bd05d49ee9f.html" target="_top" xlink:title="Actions">
<polygon fill="#b6b0a7" stroke="#404040" points="420.5,-44 371.5,-44 371.5,-24 420.5,-24 420.5,-44"/>
<text text-anchor="middle" x="396" y="-30.5" font-family="Helvetica,sans-Serif" font-size="10.00">Actions</text>
</a>
</g>
</g>
<!-- dir_a0b0b655e65cd304fc4cc41db4f44b48 -->
<g id="node3" class="node">
<title>dir_a0b0b655e65cd304fc4cc41db4f44b48</title>
<g id="a_node3"><a xlink:href="dir_a0b0b655e65cd304fc4cc41db4f44b48.html" target="_top" xlink:title="Conditions">
<polygon fill="#b6b0a7" stroke="#404040" points="353.88,-44 292.12,-44 292.12,-24 353.88,-24 353.88,-44"/>
<text text-anchor="middle" x="323" y="-30.5" font-family="Helvetica,sans-Serif" font-size="10.00">Conditions</text>
</a>
</g>
</g>
<!-- dir_88e6388a918fc0d261858e15f1836d22 -->
<g id="node4" class="node">
<title>dir_88e6388a918fc0d261858e15f1836d22</title>
<g id="a_node4"><a xlink:href="dir_88e6388a918fc0d261858e15f1836d22.html" target="_top" xlink:title="Netcode">
<polygon fill="#b6b0a7" stroke="#404040" points="274,-44 222,-44 222,-24 274,-24 274,-44"/>
<text text-anchor="middle" x="248" y="-30.5" font-family="Helvetica,sans-Serif" font-size="10.00">Netcode</text>
</a>
</g>
</g>
<!-- dir_11fecbc355fdcff4f025fbb48e29ae24 -->
<g id="node5" class="node">
<title>dir_11fecbc355fdcff4f025fbb48e29ae24</title>
<g id="a_node5"><a xlink:href="dir_11fecbc355fdcff4f025fbb48e29ae24.html" target="_top" xlink:title="Services">
<polygon fill="#b6b0a7" stroke="#404040" points="204.38,-44 151.62,-44 151.62,-24 204.38,-24 204.38,-44"/>
<text text-anchor="middle" x="178" y="-30.5" font-family="Helvetica,sans-Serif" font-size="10.00">Services</text>
</a>
</g>
</g>
<!-- dir_a720877db29ce8ae90aa174a324802ce -->
<g id="node6" class="node">
<title>dir_a720877db29ce8ae90aa174a324802ce</title>
<g id="a_node6"><a xlink:href="dir_a720877db29ce8ae90aa174a324802ce.html" target="_top" xlink:title="Tests">
<polygon fill="#b6b0a7" stroke="#404040" points="134,-44 94,-44 94,-24 134,-24 134,-44"/>
<text text-anchor="middle" x="114" y="-30.5" font-family="Helvetica,sans-Serif" font-size="10.00">Tests</text>
</a>
</g>
</g>
<!-- dir_a6d78f0aba266ca4d3b38dbb604c5cbd -->
<g id="node7" class="node">
<title>dir_a6d78f0aba266ca4d3b38dbb604c5cbd</title>
<g id="a_node7"><a xlink:href="dir_a6d78f0aba266ca4d3b38dbb604c5cbd.html" target="_top" xlink:title="Variable">
<polygon fill="#b6b0a7" stroke="#404040" points="75.62,-44 24.38,-44 24.38,-24 75.62,-24 75.62,-44"/>
<text text-anchor="middle" x="50" y="-30.5" font-family="Helvetica,sans-Serif" font-size="10.00">Variable</text>
</a>
</g>
</g>
</g>
</svg>

<g id="navigator" transform="translate(0 0)" fill="#404254">
  <rect fill="#f2f5e9" fill-opacity="0.5" stroke="#606060" stroke-width=".5" x="0" y="0" width="60" height="60"/>
  <use id="zoomplus" xlink:href="#zoomPlus" x="17" y="9" onmousedown="handleZoom(evt,'in')"/>
  <use id="zoomminus" xlink:href="#zoomMin" x="42" y="9" onmousedown="handleZoom(evt,'out')"/>
  <use id="reset" xlink:href="#resetDef" x="30" y="36" onmousedown="handleReset()"/>
   <use id="arrowup" xlink:href="#arrowUp" x="0" y="0" onmousedown="handlePan(0,-1)"/>
  <use id="arrowright" xlink:href="#arrowRight" x="0" y="0" onmousedown="handlePan(1,0)"/>
  <use id="arrowdown" xlink:href="#arrowDown" x="0" y="0" onmousedown="handlePan(0,1)"/>
  <use id="arrowleft" xlink:href="#arrowLeft" x="0" y="0" onmousedown="handlePan(-1,0)"/>
</g>
<svg viewBox="0 0 15 15" width="100%" height="30px" preserveAspectRatio="xMaxYMin meet">
 <g id="arrow_out" transform="scale(0.3 0.3)">
  <a xlink:href="dir_d3ae71e36e879ec036190bbbff7a5109_dep_org.svg" target="_base">
   <rect id="button" ry="5" rx="5" y="6" x="6" height="38" width="38"
        fill="#f2f5e9" fill-opacity="0.5" stroke="#606060" stroke-width="1.0"/>
   <path id="arrow"
     d="M 11.500037,31.436501 C 11.940474,20.09759 22.043105,11.32322 32.158766,21.979434 L 37.068811,17.246167 C 37.068811,17.246167 37.088388,32 37.088388,32 L 22.160133,31.978069 C 22.160133,31.978069 26.997745,27.140456 26.997745,27.140456 C 18.528582,18.264221 13.291696,25.230495 11.500037,31.436501 z"
     style="fill:#404040;"/>
  </a>
 </g>
</svg>

<style type='text/css'>
<![CDATA[
[data-mouse-over-selected='false'] { opacity: 0.7; }
[data-mouse-over-selected='true']  { opacity: 1.0; }
]]>
</style>
<script type="application/ecmascript"><![CDATA[
document.addEventListener('DOMContentLoaded', (event) => {
  highlightEdges();
  highlightAdjacentNodes();
});
]]></script>
</svg>
