<?xml version="1.0" encoding="UTF-8" standalone="no"?>
<!DOCTYPE svg PUBLIC "-//W3C//DTD SVG 1.1//EN"
 "http://www.w3.org/Graphics/SVG/1.1/DTD/svg11.dtd">
<!-- Generated by graphviz version 9.0.0 (20230911.1827)
 -->
<!-- Title: IPlayerComponent Pages: 1 -->
<!--zoomable 388 -->

<svg id="main" version="1.1" xmlns="http://www.w3.org/2000/svg" xmlns:xlink="http://www.w3.org/1999/xlink" xml:space="preserve" onload="init(evt)">

<style type="text/css"><![CDATA[
.node, .edge {opacity: 0.7;}
.node.selected, .edge.selected {opacity: 1;}
.edge:hover path { stroke: red; }
.edge:hover polygon { stroke: red; fill: red; }
]]></style>

<defs>
  <circle id="rim" cx="0" cy="0" r="7"/>
  <circle id="rim2" cx="0" cy="0" r="3.5"/>
  <g id="zoomPlus">
    <use xlink:href="#rim" fill="#404040"><set attributeName="fill" to="#808080" begin="zoomplus.mouseover" end="zoomplus.mouseout"/></use>
    <path d="M-4,0h8M0,-4v8" fill="none" stroke="white" stroke-width="1.5" pointer-events="none"/>
  </g>
  <g id="zoomMin">
    <use xlink:href="#rim" fill="#404040"><set attributeName="fill" to="#808080" begin="zoomminus.mouseover" end="zoomminus.mouseout"/></use>
    <path d="M-4,0h8" fill="none" stroke="white" stroke-width="1.5" pointer-events="none"/>
  </g>
  <g id="arrowUp" transform="translate(30 24)">
    <use xlink:href="#rim"/>
    <path pointer-events="none" fill="none" stroke="white" stroke-width="1.5" d="M0,-3.0v7 M-2.5,-0.5L0,-3.0L2.5,-0.5"/>
  </g>
  <g id="arrowRight" transform="rotate(90) translate(36 -43)">
    <use xlink:href="#rim"/>
    <path pointer-events="none" fill="none" stroke="white" stroke-width="1.5" d="M0,-3.0v7 M-2.5,-0.5L0,-3.0L2.5,-0.5"/>
  </g>
  <g id="arrowDown" transform="rotate(180) translate(-30 -48)">
    <use xlink:href="#rim"/>
    <path pointer-events="none" fill="none" stroke="white" stroke-width="1.5" d="M0,-3.0v7 M-2.5,-0.5L0,-3.0L2.5,-0.5"/>
  </g>
  <g id="arrowLeft" transform="rotate(270) translate(-36 17)">
    <use xlink:href="#rim"/>
    <path pointer-events="none" fill="none" stroke="white" stroke-width="1.5" d="M0,-3.0v7 M-2.5,-0.5L0,-3.0L2.5,-0.5"/>
  </g>
  <g id="resetDef">
    <use xlink:href="#rim2" fill="#404040"><set attributeName="fill" to="#808080" begin="reset.mouseover" end="reset.mouseout"/></use>
  </g>
</defs>
<script type="application/ecmascript">
var viewWidth = 792;
var viewHeight = 388;
var sectionId = 'dynsection-0';
</script>
<script type="application/ecmascript" xlink:href="svg.min.js"/>
<svg id="graph" class="graph">
<g id="viewport">
<title>IPlayerComponent</title>
<!-- Node1 -->
<g id="Node000001" class="node">
<title>Node1</title>
<g id="a_Node000001"><a xlink:title=" ">
<polygon fill="#999999" stroke="none" points="471,-380 367,-380 367,-280 471,-280 471,-380"/>
<text text-anchor="start" x="379.25" y="-366.5" font-family="Helvetica,sans-Serif" font-size="10.00">IPlayerComponent</text>
<text text-anchor="start" x="417.5" y="-350.5" font-family="Helvetica,sans-Serif" font-size="10.00"> </text>
<text text-anchor="start" x="371" y="-334.5" font-family="Helvetica,sans-Serif" font-size="10.00">+</text>
<text text-anchor="start" x="381" y="-334.5" font-family="Helvetica,sans-Serif" font-size="10.00">OnPlayerDeath()</text>
<text text-anchor="start" x="371" y="-318.5" font-family="Helvetica,sans-Serif" font-size="10.00">+</text>
<text text-anchor="start" x="381" y="-318.5" font-family="Helvetica,sans-Serif" font-size="10.00">OnPlayerDespawn()</text>
<text text-anchor="start" x="371" y="-302.5" font-family="Helvetica,sans-Serif" font-size="10.00">+</text>
<text text-anchor="start" x="381" y="-302.5" font-family="Helvetica,sans-Serif" font-size="10.00">OnPlayerRespawn()</text>
<text text-anchor="start" x="371" y="-286.5" font-family="Helvetica,sans-Serif" font-size="10.00">+</text>
<text text-anchor="start" x="381" y="-286.5" font-family="Helvetica,sans-Serif" font-size="10.00">OnPlayerSpawn()</text>
<polygon fill="#666666" stroke="#666666" points="367,-362 367,-362 471,-362 471,-362 367,-362"/>
<polygon fill="#666666" stroke="#666666" points="367,-346 367,-346 471,-346 471,-346 367,-346"/>
<polygon fill="none" stroke="#666666" points="367,-280 367,-380 471,-380 471,-280 367,-280"/>
</a>
</g>
</g>
<!-- Node2 -->
<g id="Node000002" class="node">
<title>Node2</title>
<g id="a_Node000002"><a xlink:href="class_code_smile_1_1_multi_pal_1_1_players_1_1_player.html" target="_top" xlink:title=" ">
<polygon fill="white" stroke="none" points="144,-244 0,-244 0,0 144,0 144,-244"/>
<text text-anchor="start" x="58.12" y="-230.5" font-family="Helvetica,sans-Serif" font-size="10.00">Player</text>
<text text-anchor="start" x="4" y="-214.5" font-family="Helvetica,sans-Serif" font-size="10.00">+</text>
<text text-anchor="start" x="14" y="-214.5" font-family="Helvetica,sans-Serif" font-size="10.00">AvatarIndex</text>
<text text-anchor="start" x="4" y="-198.5" font-family="Helvetica,sans-Serif" font-size="10.00">+</text>
<text text-anchor="start" x="14" y="-198.5" font-family="Helvetica,sans-Serif" font-size="10.00">Camera</text>
<text text-anchor="start" x="4" y="-182.5" font-family="Helvetica,sans-Serif" font-size="10.00">+</text>
<text text-anchor="start" x="14" y="-182.5" font-family="Helvetica,sans-Serif" font-size="10.00">PlayerIndex</text>
<text text-anchor="start" x="4" y="-166.5" font-family="Helvetica,sans-Serif" font-size="10.00">+</text>
<text text-anchor="start" x="14" y="-166.5" font-family="Helvetica,sans-Serif" font-size="10.00">OnCloseIngameMenu()</text>
<text text-anchor="start" x="4" y="-150.5" font-family="Helvetica,sans-Serif" font-size="10.00">+</text>
<text text-anchor="start" x="14" y="-150.5" font-family="Helvetica,sans-Serif" font-size="10.00">OnNetworkDespawn()</text>
<text text-anchor="start" x="4" y="-134.5" font-family="Helvetica,sans-Serif" font-size="10.00">+</text>
<text text-anchor="start" x="14" y="-134.5" font-family="Helvetica,sans-Serif" font-size="10.00">OnNetworkSpawn()</text>
<text text-anchor="start" x="4" y="-118.5" font-family="Helvetica,sans-Serif" font-size="10.00">+</text>
<text text-anchor="start" x="14" y="-118.5" font-family="Helvetica,sans-Serif" font-size="10.00">OnOpenIngameMenu()</text>
<text text-anchor="start" x="4" y="-102.5" font-family="Helvetica,sans-Serif" font-size="10.00">+</text>
<text text-anchor="start" x="14" y="-102.5" font-family="Helvetica,sans-Serif" font-size="10.00">OnPlayerDespawn()</text>
<text text-anchor="start" x="4" y="-86.5" font-family="Helvetica,sans-Serif" font-size="10.00">+</text>
<text text-anchor="start" x="14" y="-86.5" font-family="Helvetica,sans-Serif" font-size="10.00">OnPlayerSpawn()</text>
<text text-anchor="start" x="4" y="-70.5" font-family="Helvetica,sans-Serif" font-size="10.00">~</text>
<text text-anchor="start" x="14" y="-70.5" font-family="Helvetica,sans-Serif" font-size="10.00">Die()</text>
<text text-anchor="start" x="4" y="-54.5" font-family="Helvetica,sans-Serif" font-size="10.00">~</text>
<text text-anchor="start" x="14" y="-54.5" font-family="Helvetica,sans-Serif" font-size="10.00">RequestToggleIngameMenu()</text>
<text text-anchor="start" x="4" y="-38.5" font-family="Helvetica,sans-Serif" font-size="10.00">~</text>
<text text-anchor="start" x="14" y="-38.5" font-family="Helvetica,sans-Serif" font-size="10.00">Respawn()</text>
<text text-anchor="start" x="4" y="-22.5" font-family="Helvetica,sans-Serif" font-size="10.00">~</text>
<text text-anchor="start" x="14" y="-22.5" font-family="Helvetica,sans-Serif" font-size="10.00">SwitchCamera()</text>
<text text-anchor="start" x="4" y="-6.5" font-family="Helvetica,sans-Serif" font-size="10.00">~</text>
<text text-anchor="start" x="14" y="-6.5" font-family="Helvetica,sans-Serif" font-size="10.00">SwitchController()</text>
<polygon fill="#bfbfbf" stroke="#bfbfbf" points="0,-226 0,-226 144,-226 144,-226 0,-226"/>
<polygon fill="#bfbfbf" stroke="#bfbfbf" points="0,-178 0,-178 12,-178 12,-178 0,-178"/>
<polygon fill="#bfbfbf" stroke="#bfbfbf" points="12,-178 12,-178 144,-178 144,-178 12,-178"/>
<polygon fill="none" stroke="#bfbfbf" points="0,0 0,-244 144,-244 144,0 0,0"/>
</a>
</g>
</g>
<!-- Node1&#45;&gt;Node2 -->
<g id="edge1_Node000001_Node000002" class="edge">
<title>Node1&#45;&gt;Node2</title>
<g id="a_edge1_Node000001_Node000002"><a xlink:title=" ">
<path fill="none" stroke="#63b8ff" d="M355.93,-320.92C298.32,-310.92 213.2,-289.3 153,-244 149.87,-241.64 146.82,-239.13 143.86,-236.49"/>
<polygon fill="none" stroke="#63b8ff" points="355.14,-324.34 365.58,-322.52 356.29,-317.43 355.14,-324.34"/>
</a>
</g>
</g>
<!-- Node3 -->
<g id="Node000003" class="node">
<title>Node3</title>
<g id="a_Node000003"><a xlink:title=" ">
<polygon fill="white" stroke="none" points="287.5,-196 162.5,-196 162.5,-48 287.5,-48 287.5,-196"/>
<text text-anchor="start" x="197.62" y="-182.5" font-family="Helvetica,sans-Serif" font-size="10.00">PlayerAvatar</text>
<text text-anchor="start" x="166.5" y="-166.5" font-family="Helvetica,sans-Serif" font-size="10.00">+</text>
<text text-anchor="start" x="176.5" y="-166.5" font-family="Helvetica,sans-Serif" font-size="10.00">NextIndex</text>
<text text-anchor="start" x="166.5" y="-150.5" font-family="Helvetica,sans-Serif" font-size="10.00">+</text>
<text text-anchor="start" x="176.5" y="-150.5" font-family="Helvetica,sans-Serif" font-size="10.00">PreviousIndex</text>
<text text-anchor="start" x="166.5" y="-134.5" font-family="Helvetica,sans-Serif" font-size="10.00">+</text>
<text text-anchor="start" x="176.5" y="-134.5" font-family="Helvetica,sans-Serif" font-size="10.00">OnPlayerDeath()</text>
<text text-anchor="start" x="166.5" y="-118.5" font-family="Helvetica,sans-Serif" font-size="10.00">+</text>
<text text-anchor="start" x="176.5" y="-118.5" font-family="Helvetica,sans-Serif" font-size="10.00">OnPlayerDespawn()</text>
<text text-anchor="start" x="166.5" y="-102.5" font-family="Helvetica,sans-Serif" font-size="10.00">+</text>
<text text-anchor="start" x="176.5" y="-102.5" font-family="Helvetica,sans-Serif" font-size="10.00">OnPlayerRespawn()</text>
<text text-anchor="start" x="166.5" y="-86.5" font-family="Helvetica,sans-Serif" font-size="10.00">+</text>
<text text-anchor="start" x="176.5" y="-86.5" font-family="Helvetica,sans-Serif" font-size="10.00">OnPlayerSpawn()</text>
<text text-anchor="start" x="166.5" y="-70.5" font-family="Helvetica,sans-Serif" font-size="10.00">~</text>
<text text-anchor="start" x="176.5" y="-70.5" font-family="Helvetica,sans-Serif" font-size="10.00">OnAvatarIndexChanged()</text>
<text text-anchor="start" x="166.5" y="-54.5" font-family="Helvetica,sans-Serif" font-size="10.00">~</text>
<text text-anchor="start" x="176.5" y="-54.5" font-family="Helvetica,sans-Serif" font-size="10.00">SetAvatar()</text>
<polygon fill="#bfbfbf" stroke="#bfbfbf" points="162.5,-178 162.5,-178 287.5,-178 287.5,-178 162.5,-178"/>
<polygon fill="#bfbfbf" stroke="#bfbfbf" points="162.5,-146 162.5,-146 174.5,-146 174.5,-146 162.5,-146"/>
<polygon fill="#bfbfbf" stroke="#bfbfbf" points="174.5,-146 174.5,-146 287.5,-146 287.5,-146 174.5,-146"/>
<polygon fill="none" stroke="#bfbfbf" points="162.5,-48 162.5,-196 287.5,-196 287.5,-48 162.5,-48"/>
</a>
</g>
</g>
<!-- Node1&#45;&gt;Node3 -->
<g id="edge2_Node000001_Node000003" class="edge">
<title>Node1&#45;&gt;Node3</title>
<g id="a_edge2_Node000001_Node000003"><a xlink:title=" ">
<path fill="none" stroke="#63b8ff" d="M357.72,-293.71C336.93,-279.91 314.54,-262.84 297,-244 283.76,-229.77 271.8,-212.72 261.6,-195.95"/>
<polygon fill="none" stroke="#63b8ff" points="355.58,-296.5 365.88,-299 359.39,-290.62 355.58,-296.5"/>
</a>
</g>
</g>
<!-- Node4 -->
<g id="Node000004" class="node">
<title>Node4</title>
<g id="a_Node000004"><a xlink:href="class_code_smile_1_1_multi_pal_1_1_players_1_1_player_camera.html" target="_top" xlink:title=" ">
<polygon fill="white" stroke="none" points="410,-164 306,-164 306,-80 410,-80 410,-164"/>
<text text-anchor="start" x="327.25" y="-150.5" font-family="Helvetica,sans-Serif" font-size="10.00">PlayerCamera</text>
<text text-anchor="start" x="310" y="-134.5" font-family="Helvetica,sans-Serif" font-size="10.00">+</text>
<text text-anchor="start" x="320" y="-134.5" font-family="Helvetica,sans-Serif" font-size="10.00">LookAtTarget</text>
<text text-anchor="start" x="310" y="-118.5" font-family="Helvetica,sans-Serif" font-size="10.00">+</text>
<text text-anchor="start" x="320" y="-118.5" font-family="Helvetica,sans-Serif" font-size="10.00">TrackingTarget</text>
<text text-anchor="start" x="310" y="-102.5" font-family="Helvetica,sans-Serif" font-size="10.00">+</text>
<text text-anchor="start" x="320" y="-102.5" font-family="Helvetica,sans-Serif" font-size="10.00">OnPlayerDespawn()</text>
<text text-anchor="start" x="310" y="-86.5" font-family="Helvetica,sans-Serif" font-size="10.00">+</text>
<text text-anchor="start" x="320" y="-86.5" font-family="Helvetica,sans-Serif" font-size="10.00">OnPlayerSpawn()</text>
<polygon fill="#bfbfbf" stroke="#bfbfbf" points="306,-146 306,-146 410,-146 410,-146 306,-146"/>
<polygon fill="#bfbfbf" stroke="#bfbfbf" points="306,-114 306,-114 318,-114 318,-114 306,-114"/>
<polygon fill="#bfbfbf" stroke="#bfbfbf" points="318,-114 318,-114 410,-114 410,-114 318,-114"/>
<polygon fill="none" stroke="#bfbfbf" points="306,-80 306,-164 410,-164 410,-80 306,-80"/>
</a>
</g>
</g>
<!-- Node1&#45;&gt;Node4 -->
<g id="edge3_Node000001_Node000004" class="edge">
<title>Node1&#45;&gt;Node4</title>
<g id="a_edge3_Node000001_Node000004"><a xlink:title=" ">
<path fill="none" stroke="#63b8ff" d="M401.37,-269.48C391.34,-235.59 379.03,-194.03 370.09,-163.84"/>
<polygon fill="none" stroke="#63b8ff" points="397.92,-270.13 404.11,-278.73 404.63,-268.15 397.92,-270.13"/>
</a>
</g>
</g>
<!-- Node5 -->
<g id="Node000005" class="node">
<title>Node5</title>
<g id="a_Node000005"><a xlink:href="class_code_smile_1_1_multi_pal_1_1_players_1_1_player_interaction.html" target="_top" xlink:title=" ">
<polygon fill="white" stroke="none" points="532,-172 428,-172 428,-72 532,-72 532,-172"/>
<text text-anchor="start" x="443.62" y="-158.5" font-family="Helvetica,sans-Serif" font-size="10.00">PlayerInteraction</text>
<text text-anchor="start" x="478.5" y="-142.5" font-family="Helvetica,sans-Serif" font-size="10.00"> </text>
<text text-anchor="start" x="432" y="-126.5" font-family="Helvetica,sans-Serif" font-size="10.00">+</text>
<text text-anchor="start" x="442" y="-126.5" font-family="Helvetica,sans-Serif" font-size="10.00">OnAttack()</text>
<text text-anchor="start" x="432" y="-110.5" font-family="Helvetica,sans-Serif" font-size="10.00">+</text>
<text text-anchor="start" x="442" y="-110.5" font-family="Helvetica,sans-Serif" font-size="10.00">OnInteract()</text>
<text text-anchor="start" x="432" y="-94.5" font-family="Helvetica,sans-Serif" font-size="10.00">+</text>
<text text-anchor="start" x="442" y="-94.5" font-family="Helvetica,sans-Serif" font-size="10.00">OnPlayerDespawn()</text>
<text text-anchor="start" x="432" y="-78.5" font-family="Helvetica,sans-Serif" font-size="10.00">+</text>
<text text-anchor="start" x="442" y="-78.5" font-family="Helvetica,sans-Serif" font-size="10.00">OnPlayerSpawn()</text>
<polygon fill="#bfbfbf" stroke="#bfbfbf" points="428,-154 428,-154 532,-154 532,-154 428,-154"/>
<polygon fill="#bfbfbf" stroke="#bfbfbf" points="428,-138 428,-138 532,-138 532,-138 428,-138"/>
<polygon fill="none" stroke="#bfbfbf" points="428,-72 428,-172 532,-172 532,-72 428,-72"/>
</a>
</g>
</g>
<!-- Node1&#45;&gt;Node5 -->
<g id="edge4_Node000001_Node000005" class="edge">
<title>Node1&#45;&gt;Node5</title>
<g id="a_edge4_Node000001_Node000005"><a xlink:title=" ">
<path fill="none" stroke="#63b8ff" d="M436.62,-269.51C445.79,-238.52 456.87,-201.09 465.54,-171.83"/>
<polygon fill="none" stroke="#63b8ff" points="433.37,-268.15 433.89,-278.73 440.08,-270.13 433.37,-268.15"/>
</a>
</g>
</g>
<!-- Node6 -->
<g id="Node000006" class="node">
<title>Node6</title>
<g id="a_Node000006"><a xlink:href="class_code_smile_1_1_multi_pal_1_1_players_1_1_player_ui.html" target="_top" xlink:title=" ">
<polygon fill="white" stroke="none" points="654,-196 550,-196 550,-48 654,-48 654,-196"/>
<text text-anchor="start" x="583.62" y="-182.5" font-family="Helvetica,sans-Serif" font-size="10.00">PlayerUi</text>
<text text-anchor="start" x="600.5" y="-166.5" font-family="Helvetica,sans-Serif" font-size="10.00"> </text>
<text text-anchor="start" x="554" y="-150.5" font-family="Helvetica,sans-Serif" font-size="10.00">+</text>
<text text-anchor="start" x="564" y="-150.5" font-family="Helvetica,sans-Serif" font-size="10.00">OnDown()</text>
<text text-anchor="start" x="554" y="-134.5" font-family="Helvetica,sans-Serif" font-size="10.00">+</text>
<text text-anchor="start" x="564" y="-134.5" font-family="Helvetica,sans-Serif" font-size="10.00">OnNext()</text>
<text text-anchor="start" x="554" y="-118.5" font-family="Helvetica,sans-Serif" font-size="10.00">+</text>
<text text-anchor="start" x="564" y="-118.5" font-family="Helvetica,sans-Serif" font-size="10.00">OnPlayerDespawn()</text>
<text text-anchor="start" x="554" y="-102.5" font-family="Helvetica,sans-Serif" font-size="10.00">+</text>
<text text-anchor="start" x="564" y="-102.5" font-family="Helvetica,sans-Serif" font-size="10.00">OnPlayerSpawn()</text>
<text text-anchor="start" x="554" y="-86.5" font-family="Helvetica,sans-Serif" font-size="10.00">+</text>
<text text-anchor="start" x="564" y="-86.5" font-family="Helvetica,sans-Serif" font-size="10.00">OnPrevious()</text>
<text text-anchor="start" x="554" y="-70.5" font-family="Helvetica,sans-Serif" font-size="10.00">+</text>
<text text-anchor="start" x="564" y="-70.5" font-family="Helvetica,sans-Serif" font-size="10.00">OnRequestMenu()</text>
<text text-anchor="start" x="554" y="-54.5" font-family="Helvetica,sans-Serif" font-size="10.00">+</text>
<text text-anchor="start" x="564" y="-54.5" font-family="Helvetica,sans-Serif" font-size="10.00">OnUp()</text>
<polygon fill="#bfbfbf" stroke="#bfbfbf" points="550,-178 550,-178 654,-178 654,-178 550,-178"/>
<polygon fill="#bfbfbf" stroke="#bfbfbf" points="550,-162 550,-162 654,-162 654,-162 550,-162"/>
<polygon fill="none" stroke="#bfbfbf" points="550,-48 550,-196 654,-196 654,-48 550,-48"/>
</a>
</g>
</g>
<!-- Node1&#45;&gt;Node6 -->
<g id="edge5_Node000001_Node000006" class="edge">
<title>Node1&#45;&gt;Node6</title>
<g id="a_edge5_Node000001_Node000006"><a xlink:title=" ">
<path fill="none" stroke="#63b8ff" d="M480.48,-294.74C501.5,-280.94 523.98,-263.61 541,-244 553.33,-229.78 563.92,-212.64 572.64,-195.78"/>
<polygon fill="none" stroke="#63b8ff" points="478.76,-291.69 472.22,-300.02 482.53,-297.58 478.76,-291.69"/>
</a>
</g>
</g>
<!-- Node7 -->
<g id="Node000007" class="node">
<title>Node7</title>
<g id="a_Node000007"><a xlink:title=" ">
<polygon fill="white" stroke="none" points="783.5,-172 672.5,-172 672.5,-72 783.5,-72 783.5,-172"/>
<text text-anchor="start" x="704" y="-158.5" font-family="Helvetica,sans-Serif" font-size="10.00">PlayerVars</text>
<text text-anchor="start" x="676.5" y="-142.5" font-family="Helvetica,sans-Serif" font-size="10.00">+</text>
<text text-anchor="start" x="686.5" y="-142.5" font-family="Helvetica,sans-Serif" font-size="10.00">AvatarIndex</text>
<text text-anchor="start" x="676.5" y="-126.5" font-family="Helvetica,sans-Serif" font-size="10.00">+</text>
<text text-anchor="start" x="686.5" y="-126.5" font-family="Helvetica,sans-Serif" font-size="10.00">OnNetworkDespawn()</text>
<text text-anchor="start" x="676.5" y="-110.5" font-family="Helvetica,sans-Serif" font-size="10.00">+</text>
<text text-anchor="start" x="686.5" y="-110.5" font-family="Helvetica,sans-Serif" font-size="10.00">OnNetworkSpawn()</text>
<text text-anchor="start" x="676.5" y="-94.5" font-family="Helvetica,sans-Serif" font-size="10.00">+</text>
<text text-anchor="start" x="686.5" y="-94.5" font-family="Helvetica,sans-Serif" font-size="10.00">OnPlayerDespawn()</text>
<text text-anchor="start" x="676.5" y="-78.5" font-family="Helvetica,sans-Serif" font-size="10.00">+</text>
<text text-anchor="start" x="686.5" y="-78.5" font-family="Helvetica,sans-Serif" font-size="10.00">OnPlayerSpawn()</text>
<polygon fill="#bfbfbf" stroke="#bfbfbf" points="672.5,-154 672.5,-154 783.5,-154 783.5,-154 672.5,-154"/>
<polygon fill="#bfbfbf" stroke="#bfbfbf" points="672.5,-138 672.5,-138 684.5,-138 684.5,-138 672.5,-138"/>
<polygon fill="#bfbfbf" stroke="#bfbfbf" points="684.5,-138 684.5,-138 783.5,-138 783.5,-138 684.5,-138"/>
<polygon fill="none" stroke="#bfbfbf" points="672.5,-72 672.5,-172 783.5,-172 783.5,-72 672.5,-72"/>
</a>
</g>
</g>
<!-- Node1&#45;&gt;Node7 -->
<g id="edge6_Node000001_Node000007" class="edge">
<title>Node1&#45;&gt;Node7</title>
<g id="a_edge6_Node000001_Node000007"><a xlink:title=" ">
<path fill="none" stroke="#63b8ff" d="M481.72,-320.17C535.13,-309.85 611.24,-288.18 663,-244 685.22,-225.04 701.06,-196.51 711.53,-171.93"/>
<polygon fill="none" stroke="#63b8ff" points="481.37,-316.68 472.17,-321.93 482.64,-323.56 481.37,-316.68"/>
</a>
</g>
</g>
</g>
</svg>

<g id="navigator" transform="translate(0 0)" fill="#404254">
  <rect fill="#f2f5e9" fill-opacity="0.5" stroke="#606060" stroke-width=".5" x="0" y="0" width="60" height="60"/>
  <use id="zoomplus" xlink:href="#zoomPlus" x="17" y="9" onmousedown="handleZoom(evt,'in')"/>
  <use id="zoomminus" xlink:href="#zoomMin" x="42" y="9" onmousedown="handleZoom(evt,'out')"/>
  <use id="reset" xlink:href="#resetDef" x="30" y="36" onmousedown="handleReset()"/>
   <use id="arrowup" xlink:href="#arrowUp" x="0" y="0" onmousedown="handlePan(0,-1)"/>
  <use id="arrowright" xlink:href="#arrowRight" x="0" y="0" onmousedown="handlePan(1,0)"/>
  <use id="arrowdown" xlink:href="#arrowDown" x="0" y="0" onmousedown="handlePan(0,1)"/>
  <use id="arrowleft" xlink:href="#arrowLeft" x="0" y="0" onmousedown="handlePan(-1,0)"/>
</g>
<svg viewBox="0 0 15 15" width="100%" height="30px" preserveAspectRatio="xMaxYMin meet">
 <g id="arrow_out" transform="scale(0.3 0.3)">
  <a xlink:href="interface_code_smile_1_1_multi_pal_1_1_players_1_1_i_player_component__inherit__graph_org.svg" target="_base">
   <rect id="button" ry="5" rx="5" y="6" x="6" height="38" width="38"
        fill="#f2f5e9" fill-opacity="0.5" stroke="#606060" stroke-width="1.0"/>
   <path id="arrow"
     d="M 11.500037,31.436501 C 11.940474,20.09759 22.043105,11.32322 32.158766,21.979434 L 37.068811,17.246167 C 37.068811,17.246167 37.088388,32 37.088388,32 L 22.160133,31.978069 C 22.160133,31.978069 26.997745,27.140456 26.997745,27.140456 C 18.528582,18.264221 13.291696,25.230495 11.500037,31.436501 z"
     style="fill:#404040;"/>
  </a>
 </g>
</svg>

<style type='text/css'>
<![CDATA[
[data-mouse-over-selected='false'] { opacity: 0.7; }
[data-mouse-over-selected='true']  { opacity: 1.0; }
]]>
</style>
<script type="application/ecmascript"><![CDATA[
document.addEventListener('DOMContentLoaded', (event) => {
  highlightEdges();
  highlightAdjacentNodes();
});
]]></script>
</svg>
