<?xml version="1.0" encoding="UTF-8" standalone="no"?>
<!DOCTYPE svg PUBLIC "-//W3C//DTD SVG 1.1//EN"
 "http://www.w3.org/Graphics/SVG/1.1/DTD/svg11.dtd">
<!-- Generated by graphviz version 9.0.0 (20230911.1827)
 -->
<!-- Title: IAnimatorParametersProvider Pages: 1 -->
<svg width="144pt" height="532pt"
 viewBox="0.00 0.00 144.00 532.00" xmlns="http://www.w3.org/2000/svg" xmlns:xlink="http://www.w3.org/1999/xlink">
<g id="graph0" class="graph" transform="scale(1 1) rotate(0) translate(4 528)">
<title>IAnimatorParametersProvider</title>
<!-- Node1 -->
<g id="Node000001" class="node">
<title>Node1</title>
<g id="a_Node000001"><a xlink:title=" ">
<polygon fill="#999999" stroke="none" points="136,-524 0,-524 0,-472 136,-472 136,-524"/>
<text text-anchor="start" x="5" y="-510.5" font-family="Helvetica,sans-Serif" font-size="10.00">IAnimatorParametersProvider</text>
<text text-anchor="start" x="11" y="-494.5" font-family="Helvetica,sans-Serif" font-size="10.00">+</text>
<text text-anchor="start" x="28" y="-494.5" font-family="Helvetica,sans-Serif" font-size="10.00">AnimatorParameters</text>
<text text-anchor="start" x="66.5" y="-478.5" font-family="Helvetica,sans-Serif" font-size="10.00"> </text>
<polygon fill="#666666" stroke="#666666" points="0,-506 0,-506 136,-506 136,-506 0,-506"/>
<polygon fill="#666666" stroke="#666666" points="0,-490 0,-490 26,-490 26,-490 0,-490"/>
<polygon fill="#666666" stroke="#666666" points="26,-490 26,-490 136,-490 136,-490 26,-490"/>
<polygon fill="none" stroke="#666666" points="0,-472 0,-524 136,-524 136,-472 0,-472"/>
</a>
</g>
</g>
<!-- Node2 -->
<g id="Node000002" class="node">
<title>Node2</title>
<g id="a_Node000002"><a xlink:href="class_code_smile_1_1_multi_pal_1_1_player_controller_1_1_player_controller_base.html" target="_top" xlink:title=" ">
<polygon fill="white" stroke="none" points="121.5,-436 14.5,-436 14.5,0 121.5,0 121.5,-436"/>
<text text-anchor="start" x="22.25" y="-422.5" font-family="Helvetica,sans-Serif" font-size="10.00">PlayerControllerBase</text>
<text text-anchor="start" x="18.5" y="-406.5" font-family="Helvetica,sans-Serif" font-size="10.00">+</text>
<text text-anchor="start" x="28.5" y="-406.5" font-family="Helvetica,sans-Serif" font-size="10.00">AnimatorParameters</text>
<text text-anchor="start" x="18.5" y="-390.5" font-family="Helvetica,sans-Serif" font-size="10.00">+</text>
<text text-anchor="start" x="28.5" y="-390.5" font-family="Helvetica,sans-Serif" font-size="10.00">CameraTarget</text>
<text text-anchor="start" x="18.5" y="-374.5" font-family="Helvetica,sans-Serif" font-size="10.00">+</text>
<text text-anchor="start" x="28.5" y="-374.5" font-family="Helvetica,sans-Serif" font-size="10.00">CharController</text>
<text text-anchor="start" x="18.5" y="-358.5" font-family="Helvetica,sans-Serif" font-size="10.00">+</text>
<text text-anchor="start" x="28.5" y="-358.5" font-family="Helvetica,sans-Serif" font-size="10.00">DefaultPan</text>
<text text-anchor="start" x="18.5" y="-342.5" font-family="Helvetica,sans-Serif" font-size="10.00">+</text>
<text text-anchor="start" x="28.5" y="-342.5" font-family="Helvetica,sans-Serif" font-size="10.00">DefaultRoll</text>
<text text-anchor="start" x="18.5" y="-326.5" font-family="Helvetica,sans-Serif" font-size="10.00">+</text>
<text text-anchor="start" x="28.5" y="-326.5" font-family="Helvetica,sans-Serif" font-size="10.00">DefaultTilt</text>
<text text-anchor="start" x="18.5" y="-310.5" font-family="Helvetica,sans-Serif" font-size="10.00">+</text>
<text text-anchor="start" x="28.5" y="-310.5" font-family="Helvetica,sans-Serif" font-size="10.00">LookSensitivity</text>
<text text-anchor="start" x="18.5" y="-294.5" font-family="Helvetica,sans-Serif" font-size="10.00">+</text>
<text text-anchor="start" x="28.5" y="-294.5" font-family="Helvetica,sans-Serif" font-size="10.00">MotionTarget</text>
<text text-anchor="start" x="18.5" y="-278.5" font-family="Helvetica,sans-Serif" font-size="10.00">+</text>
<text text-anchor="start" x="28.5" y="-278.5" font-family="Helvetica,sans-Serif" font-size="10.00">MoveSensitivity</text>
<text text-anchor="start" x="18.5" y="-262.5" font-family="Helvetica,sans-Serif" font-size="10.00">+</text>
<text text-anchor="start" x="28.5" y="-262.5" font-family="Helvetica,sans-Serif" font-size="10.00">PlayerIndex</text>
<text text-anchor="start" x="18.5" y="-246.5" font-family="Helvetica,sans-Serif" font-size="10.00">+</text>
<text text-anchor="start" x="28.5" y="-246.5" font-family="Helvetica,sans-Serif" font-size="10.00">Velocity</text>
<text text-anchor="start" x="18.88" y="-230.5" font-family="Helvetica,sans-Serif" font-size="10.00">#</text>
<text text-anchor="start" x="28.5" y="-230.5" font-family="Helvetica,sans-Serif" font-size="10.00">m_Forward</text>
<text text-anchor="start" x="18.88" y="-214.5" font-family="Helvetica,sans-Serif" font-size="10.00">#</text>
<text text-anchor="start" x="28.5" y="-214.5" font-family="Helvetica,sans-Serif" font-size="10.00">m_Pan</text>
<text text-anchor="start" x="18.88" y="-198.5" font-family="Helvetica,sans-Serif" font-size="10.00">#</text>
<text text-anchor="start" x="28.5" y="-198.5" font-family="Helvetica,sans-Serif" font-size="10.00">m_Roll</text>
<text text-anchor="start" x="18.88" y="-182.5" font-family="Helvetica,sans-Serif" font-size="10.00">#</text>
<text text-anchor="start" x="28.5" y="-182.5" font-family="Helvetica,sans-Serif" font-size="10.00">m_Sideways</text>
<text text-anchor="start" x="18.88" y="-166.5" font-family="Helvetica,sans-Serif" font-size="10.00">#</text>
<text text-anchor="start" x="28.5" y="-166.5" font-family="Helvetica,sans-Serif" font-size="10.00">m_Tilt</text>
<text text-anchor="start" x="18.88" y="-150.5" font-family="Helvetica,sans-Serif" font-size="10.00">#</text>
<text text-anchor="start" x="28.5" y="-150.5" font-family="Helvetica,sans-Serif" font-size="10.00">m_Vertical</text>
<text text-anchor="start" x="18.5" y="-134.5" font-family="Helvetica,sans-Serif" font-size="10.00">+</text>
<text text-anchor="start" x="28.5" y="-134.5" font-family="Helvetica,sans-Serif" font-size="10.00">OnCrouch()</text>
<text text-anchor="start" x="18.5" y="-118.5" font-family="Helvetica,sans-Serif" font-size="10.00">+</text>
<text text-anchor="start" x="28.5" y="-118.5" font-family="Helvetica,sans-Serif" font-size="10.00">OnJump()</text>
<text text-anchor="start" x="18.5" y="-102.5" font-family="Helvetica,sans-Serif" font-size="10.00">+</text>
<text text-anchor="start" x="28.5" y="-102.5" font-family="Helvetica,sans-Serif" font-size="10.00">OnLook()</text>
<text text-anchor="start" x="18.5" y="-86.5" font-family="Helvetica,sans-Serif" font-size="10.00">+</text>
<text text-anchor="start" x="28.5" y="-86.5" font-family="Helvetica,sans-Serif" font-size="10.00">OnMove()</text>
<text text-anchor="start" x="18.5" y="-70.5" font-family="Helvetica,sans-Serif" font-size="10.00">+</text>
<text text-anchor="start" x="28.5" y="-70.5" font-family="Helvetica,sans-Serif" font-size="10.00">OnSprint()</text>
<text text-anchor="start" x="18.88" y="-54.5" font-family="Helvetica,sans-Serif" font-size="10.00">#</text>
<text text-anchor="start" x="28.5" y="-54.5" font-family="Helvetica,sans-Serif" font-size="10.00">Move()</text>
<text text-anchor="start" x="18.88" y="-38.5" font-family="Helvetica,sans-Serif" font-size="10.00">#</text>
<text text-anchor="start" x="28.5" y="-38.5" font-family="Helvetica,sans-Serif" font-size="10.00">OnDisable()</text>
<text text-anchor="start" x="18.88" y="-22.5" font-family="Helvetica,sans-Serif" font-size="10.00">#</text>
<text text-anchor="start" x="28.5" y="-22.5" font-family="Helvetica,sans-Serif" font-size="10.00">OnEnable()</text>
<text text-anchor="start" x="18.88" y="-6.5" font-family="Helvetica,sans-Serif" font-size="10.00">#</text>
<text text-anchor="start" x="28.5" y="-6.5" font-family="Helvetica,sans-Serif" font-size="10.00">Rotate()</text>
<polygon fill="#bfbfbf" stroke="#bfbfbf" points="14.5,-418 14.5,-418 121.5,-418 121.5,-418 14.5,-418"/>
<polygon fill="#bfbfbf" stroke="#bfbfbf" points="14.5,-146 14.5,-146 26.5,-146 26.5,-146 14.5,-146"/>
<polygon fill="#bfbfbf" stroke="#bfbfbf" points="26.5,-146 26.5,-146 121.5,-146 121.5,-146 26.5,-146"/>
<polygon fill="none" stroke="#bfbfbf" points="14.5,0 14.5,-436 121.5,-436 121.5,0 14.5,0"/>
</a>
</g>
</g>
<!-- Node1&#45;&gt;Node2 -->
<g id="edge1_Node000001_Node000002" class="edge">
<title>Node1&#45;&gt;Node2</title>
<g id="a_edge1_Node000001_Node000002"><a xlink:title=" ">
<path fill="none" stroke="#63b8ff" d="M68,-460.93C68,-453.39 68,-444.94 68,-435.83"/>
<polygon fill="none" stroke="#63b8ff" points="64.5,-460.82 68,-470.82 71.5,-460.82 64.5,-460.82"/>
</a>
</g>
</g>
</g>
</svg>
