<?xml version="1.0" encoding="UTF-8" standalone="no"?>
<!DOCTYPE svg PUBLIC "-//W3C//DTD SVG 1.1//EN"
 "http://www.w3.org/Graphics/SVG/1.1/DTD/svg11.dtd">
<!-- Generated by graphviz version 9.0.0 (20230911.1827)
 -->
<!-- Title: IAsyncAction Pages: 1 -->
<svg width="375pt" height="404pt"
 viewBox="0.00 0.00 374.50 404.00" xmlns="http://www.w3.org/2000/svg" xmlns:xlink="http://www.w3.org/1999/xlink">
<g id="graph0" class="graph" transform="scale(1 1) rotate(0) translate(4 400)">
<title>IAsyncAction</title>
<!-- Node1 -->
<g id="Node000001" class="node">
<title>Node1</title>
<g id="a_Node000001"><a xlink:title=" ">
<polygon fill="#999999" stroke="none" points="201.5,-156 114.5,-156 114.5,-104 201.5,-104 201.5,-156"/>
<text text-anchor="start" x="129.12" y="-142.5" font-family="Helvetica,sans-Serif" font-size="10.00">IAsyncAction</text>
<text text-anchor="start" x="156.5" y="-126.5" font-family="Helvetica,sans-Serif" font-size="10.00"> </text>
<text text-anchor="start" x="118.5" y="-110.5" font-family="Helvetica,sans-Serif" font-size="10.00">+</text>
<text text-anchor="start" x="128.5" y="-110.5" font-family="Helvetica,sans-Serif" font-size="10.00">ExecuteAsync()</text>
<polygon fill="#666666" stroke="#666666" points="114.5,-138 114.5,-138 201.5,-138 201.5,-138 114.5,-138"/>
<polygon fill="#666666" stroke="#666666" points="114.5,-122 114.5,-122 201.5,-122 201.5,-122 114.5,-122"/>
<polygon fill="none" stroke="#666666" points="114.5,-104 114.5,-156 201.5,-156 201.5,-104 114.5,-104"/>
</a>
</g>
</g>
<!-- Node4 -->
<g id="Node000004" class="node">
<title>Node4</title>
<g id="a_Node000004"><a xlink:href="class_code_smile_1_1_statemachine_1_1_services_1_1_authentication_1_1_actions_1_1_sign_in_anonymously.html" target="_top" xlink:title=" ">
<polygon fill="white" stroke="none" points="96,-60 0,-60 0,-8 96,-8 96,-60"/>
<text text-anchor="start" x="4.88" y="-46.5" font-family="Helvetica,sans-Serif" font-size="10.00">SignInAnonymously</text>
<text text-anchor="start" x="46.5" y="-30.5" font-family="Helvetica,sans-Serif" font-size="10.00"> </text>
<text text-anchor="start" x="6" y="-14.5" font-family="Helvetica,sans-Serif" font-size="10.00">+</text>
<text text-anchor="start" x="18" y="-14.5" font-family="Helvetica,sans-Serif" font-size="10.00">ExecuteAsync()</text>
<polygon fill="#bfbfbf" stroke="#bfbfbf" points="0,-42 0,-42 96,-42 96,-42 0,-42"/>
<polygon fill="#bfbfbf" stroke="#bfbfbf" points="0,-26 0,-26 96,-26 96,-26 0,-26"/>
<polygon fill="none" stroke="#bfbfbf" points="0,-8 0,-60 96,-60 96,-8 0,-8"/>
</a>
</g>
</g>
<!-- Node1&#45;&gt;Node4 -->
<g id="edge3_Node000001_Node000004" class="edge">
<title>Node1&#45;&gt;Node4</title>
<g id="a_edge3_Node000001_Node000004"><a xlink:title=" ">
<path fill="none" stroke="#63b8ff" d="M120.24,-96.74C106.07,-84.62 90.19,-71.06 76.94,-59.73"/>
<polygon fill="none" stroke="#63b8ff" points="117.78,-99.24 127.66,-103.07 122.33,-93.92 117.78,-99.24"/>
</a>
</g>
</g>
<!-- Node5 -->
<g id="Node000005" class="node">
<title>Node5</title>
<g id="a_Node000005"><a xlink:href="class_code_smile_1_1_statemachine_1_1_services_1_1_core_1_1_actions_1_1_unity_services_init.html" target="_top" xlink:title=" ">
<polygon fill="white" stroke="none" points="201.5,-60 114.5,-60 114.5,-8 201.5,-8 201.5,-60"/>
<text text-anchor="start" x="122" y="-46.5" font-family="Helvetica,sans-Serif" font-size="10.00">UnityServicesInit</text>
<text text-anchor="start" x="156.5" y="-30.5" font-family="Helvetica,sans-Serif" font-size="10.00"> </text>
<text text-anchor="start" x="118.5" y="-14.5" font-family="Helvetica,sans-Serif" font-size="10.00">+</text>
<text text-anchor="start" x="128.5" y="-14.5" font-family="Helvetica,sans-Serif" font-size="10.00">ExecuteAsync()</text>
<polygon fill="#bfbfbf" stroke="#bfbfbf" points="114.5,-42 114.5,-42 201.5,-42 201.5,-42 114.5,-42"/>
<polygon fill="#bfbfbf" stroke="#bfbfbf" points="114.5,-26 114.5,-26 201.5,-26 201.5,-26 114.5,-26"/>
<polygon fill="none" stroke="#bfbfbf" points="114.5,-8 114.5,-60 201.5,-60 201.5,-8 114.5,-8"/>
</a>
</g>
</g>
<!-- Node1&#45;&gt;Node5 -->
<g id="edge4_Node000001_Node000005" class="edge">
<title>Node1&#45;&gt;Node5</title>
<g id="a_edge4_Node000001_Node000005"><a xlink:title=" ">
<path fill="none" stroke="#63b8ff" d="M158,-92.8C158,-81.79 158,-69.94 158,-59.86"/>
<polygon fill="none" stroke="#63b8ff" points="154.5,-92.79 158,-102.79 161.5,-92.79 154.5,-92.79"/>
</a>
</g>
</g>
<!-- Node6 -->
<g id="Node000006" class="node">
<title>Node6</title>
<g id="a_Node000006"><a xlink:href="class_code_smile_1_1_statemachine_1_1_services_1_1_relay_1_1_actions_1_1_relay_create_or_join_allocation.html" target="_top" xlink:title=" ">
<polygon fill="white" stroke="none" points="366.5,-68 219.5,-68 219.5,0 366.5,0 366.5,-68"/>
<text text-anchor="start" x="231.12" y="-54.5" font-family="Helvetica,sans-Serif" font-size="10.00">RelayCreateOrJoinAllocation</text>
<text text-anchor="start" x="291.5" y="-38.5" font-family="Helvetica,sans-Serif" font-size="10.00"> </text>
<text text-anchor="start" x="223.5" y="-22.5" font-family="Helvetica,sans-Serif" font-size="10.00">+</text>
<text text-anchor="start" x="233.5" y="-22.5" font-family="Helvetica,sans-Serif" font-size="10.00">RelayCreateOrJoinAllocation()</text>
<text text-anchor="start" x="223.5" y="-6.5" font-family="Helvetica,sans-Serif" font-size="10.00">+</text>
<text text-anchor="start" x="233.5" y="-6.5" font-family="Helvetica,sans-Serif" font-size="10.00">ExecuteAsync()</text>
<polygon fill="#bfbfbf" stroke="#bfbfbf" points="219.5,-50 219.5,-50 366.5,-50 366.5,-50 219.5,-50"/>
<polygon fill="#bfbfbf" stroke="#bfbfbf" points="219.5,-34 219.5,-34 366.5,-34 366.5,-34 219.5,-34"/>
<polygon fill="none" stroke="#bfbfbf" points="219.5,0 219.5,-68 366.5,-68 366.5,0 219.5,0"/>
</a>
</g>
</g>
<!-- Node1&#45;&gt;Node6 -->
<g id="edge5_Node000001_Node000006" class="edge">
<title>Node1&#45;&gt;Node6</title>
<g id="a_edge5_Node000001_Node000006"><a xlink:title=" ">
<path fill="none" stroke="#63b8ff" d="M203.08,-97.61C216.81,-88.05 231.94,-77.52 245.81,-67.86"/>
<polygon fill="none" stroke="#63b8ff" points="201.27,-94.61 195.07,-103.19 205.27,-100.35 201.27,-94.61"/>
</a>
</g>
</g>
<!-- Node2 -->
<g id="Node000002" class="node">
<title>Node2</title>
<g id="a_Node000002"><a xlink:href="interface_code_smile_1_1_statemachine_1_1_i_action.html" target="_top" xlink:title=" ">
<polygon fill="white" stroke="none" points="201.5,-260 114.5,-260 114.5,-192 201.5,-192 201.5,-260"/>
<text text-anchor="start" x="143" y="-246.5" font-family="Helvetica,sans-Serif" font-size="10.00">IAction</text>
<text text-anchor="start" x="156.5" y="-230.5" font-family="Helvetica,sans-Serif" font-size="10.00"> </text>
<text text-anchor="start" x="118.5" y="-214.5" font-family="Helvetica,sans-Serif" font-size="10.00">+</text>
<text text-anchor="start" x="128.5" y="-214.5" font-family="Helvetica,sans-Serif" font-size="10.00">Execute()</text>
<text text-anchor="start" x="118.5" y="-198.5" font-family="Helvetica,sans-Serif" font-size="10.00">+</text>
<text text-anchor="start" x="128.5" y="-198.5" font-family="Helvetica,sans-Serif" font-size="10.00">ToDebugString()</text>
<polygon fill="#bfbfbf" stroke="#bfbfbf" points="114.5,-242 114.5,-242 201.5,-242 201.5,-242 114.5,-242"/>
<polygon fill="#bfbfbf" stroke="#bfbfbf" points="114.5,-226 114.5,-226 201.5,-226 201.5,-226 114.5,-226"/>
<polygon fill="none" stroke="#bfbfbf" points="114.5,-192 114.5,-260 201.5,-260 201.5,-192 114.5,-192"/>
</a>
</g>
</g>
<!-- Node2&#45;&gt;Node1 -->
<g id="edge1_Node000001_Node000002" class="edge">
<title>Node2&#45;&gt;Node1</title>
<g id="a_edge1_Node000001_Node000002"><a xlink:title=" ">
<path fill="none" stroke="#63b8ff" d="M158,-180.62C158,-172.05 158,-163.37 158,-155.71"/>
<polygon fill="none" stroke="#63b8ff" points="154.5,-180.61 158,-190.61 161.5,-180.61 154.5,-180.61"/>
</a>
</g>
</g>
<!-- Node3 -->
<g id="Node000003" class="node">
<title>Node3</title>
<g id="a_Node000003"><a xlink:href="interface_code_smile_1_1_statemachine_1_1_i_statemachine_events.html" target="_top" xlink:title="Event methods that the Statemachine calls at specific times.">
<polygon fill="white" stroke="none" points="208.5,-396 107.5,-396 107.5,-296 208.5,-296 208.5,-396"/>
<text text-anchor="start" x="112.25" y="-382.5" font-family="Helvetica,sans-Serif" font-size="10.00">IStatemachineEvents</text>
<text text-anchor="start" x="156.5" y="-366.5" font-family="Helvetica,sans-Serif" font-size="10.00"> </text>
<text text-anchor="start" x="116" y="-350.5" font-family="Helvetica,sans-Serif" font-size="10.00">+</text>
<text text-anchor="start" x="130.5" y="-350.5" font-family="Helvetica,sans-Serif" font-size="10.00">OnEnterState()</text>
<text text-anchor="start" x="116" y="-334.5" font-family="Helvetica,sans-Serif" font-size="10.00">+</text>
<text text-anchor="start" x="130.5" y="-334.5" font-family="Helvetica,sans-Serif" font-size="10.00">OnExitState()</text>
<text text-anchor="start" x="116" y="-318.5" font-family="Helvetica,sans-Serif" font-size="10.00">+</text>
<text text-anchor="start" x="130.5" y="-318.5" font-family="Helvetica,sans-Serif" font-size="10.00">OnStart()</text>
<text text-anchor="start" x="116" y="-302.5" font-family="Helvetica,sans-Serif" font-size="10.00">+</text>
<text text-anchor="start" x="130.5" y="-302.5" font-family="Helvetica,sans-Serif" font-size="10.00">OnStop()</text>
<polygon fill="#666666" stroke="#666666" points="107.5,-378 107.5,-378 208.5,-378 208.5,-378 107.5,-378"/>
<polygon fill="#666666" stroke="#666666" points="107.5,-362 107.5,-362 208.5,-362 208.5,-362 107.5,-362"/>
<polygon fill="none" stroke="#666666" points="107.5,-296 107.5,-396 208.5,-396 208.5,-296 107.5,-296"/>
</a>
</g>
</g>
<!-- Node3&#45;&gt;Node2 -->
<g id="edge2_Node000002_Node000003" class="edge">
<title>Node3&#45;&gt;Node2</title>
<g id="a_edge2_Node000002_Node000003"><a xlink:title=" ">
<path fill="none" stroke="#63b8ff" d="M158,-284.96C158,-276.28 158,-267.62 158,-259.75"/>
<polygon fill="none" stroke="#63b8ff" points="154.5,-284.81 158,-294.81 161.5,-284.81 154.5,-284.81"/>
</a>
</g>
</g>
</g>
</svg>
