<?xml version="1.0" encoding="UTF-8" standalone="no"?>
<!DOCTYPE svg PUBLIC "-//W3C//DTD SVG 1.1//EN"
 "http://www.w3.org/Graphics/SVG/1.1/DTD/svg11.dtd">
<!-- Generated by graphviz version 9.0.0 (20230911.1827)
 -->
<!-- Title: IAction Pages: 1 -->
<svg width="1831pt" height="516pt"
 viewBox="0.00 0.00 1830.50 516.00" xmlns="http://www.w3.org/2000/svg" xmlns:xlink="http://www.w3.org/1999/xlink">
<g id="graph0" class="graph" transform="scale(1 1) rotate(0) translate(4 512)">
<title>IAction</title>
<!-- Node1 -->
<g id="Node000001" class="node">
<title>Node1</title>
<g id="a_Node000001"><a xlink:title=" ">
<polygon fill="#999999" stroke="none" points="982.5,-372 895.5,-372 895.5,-304 982.5,-304 982.5,-372"/>
<text text-anchor="start" x="924" y="-358.5" font-family="Helvetica,sans-Serif" font-size="10.00">IAction</text>
<text text-anchor="start" x="937.5" y="-342.5" font-family="Helvetica,sans-Serif" font-size="10.00"> </text>
<text text-anchor="start" x="899.5" y="-326.5" font-family="Helvetica,sans-Serif" font-size="10.00">+</text>
<text text-anchor="start" x="909.5" y="-326.5" font-family="Helvetica,sans-Serif" font-size="10.00">Execute()</text>
<text text-anchor="start" x="899.5" y="-310.5" font-family="Helvetica,sans-Serif" font-size="10.00">+</text>
<text text-anchor="start" x="909.5" y="-310.5" font-family="Helvetica,sans-Serif" font-size="10.00">ToDebugString()</text>
<polygon fill="#666666" stroke="#666666" points="895.5,-354 895.5,-354 982.5,-354 982.5,-354 895.5,-354"/>
<polygon fill="#666666" stroke="#666666" points="895.5,-338 895.5,-338 982.5,-338 982.5,-338 895.5,-338"/>
<polygon fill="none" stroke="#666666" points="895.5,-304 895.5,-372 982.5,-372 982.5,-304 895.5,-304"/>
</a>
</g>
</g>
<!-- Node3 -->
<g id="Node000003" class="node">
<title>Node3</title>
<g id="a_Node000003"><a xlink:href="class_code_smile_1_1_statemachine_1_1_actions_1_1_compound_action.html" target="_top" xlink:title=" ">
<polygon fill="white" stroke="none" points="98,-236 0,-236 0,-136 98,-136 98,-236"/>
<text text-anchor="start" x="11.88" y="-222.5" font-family="Helvetica,sans-Serif" font-size="10.00">CompoundAction</text>
<text text-anchor="start" x="47.5" y="-206.5" font-family="Helvetica,sans-Serif" font-size="10.00"> </text>
<text text-anchor="start" x="4" y="-190.5" font-family="Helvetica,sans-Serif" font-size="10.00">+</text>
<text text-anchor="start" x="14" y="-190.5" font-family="Helvetica,sans-Serif" font-size="10.00">CompoundAction()</text>
<text text-anchor="start" x="4" y="-174.5" font-family="Helvetica,sans-Serif" font-size="10.00">+</text>
<text text-anchor="start" x="14" y="-174.5" font-family="Helvetica,sans-Serif" font-size="10.00">CompoundAction()</text>
<text text-anchor="start" x="4" y="-158.5" font-family="Helvetica,sans-Serif" font-size="10.00">+</text>
<text text-anchor="start" x="14" y="-158.5" font-family="Helvetica,sans-Serif" font-size="10.00">Execute()</text>
<text text-anchor="start" x="4" y="-142.5" font-family="Helvetica,sans-Serif" font-size="10.00">+</text>
<text text-anchor="start" x="14" y="-142.5" font-family="Helvetica,sans-Serif" font-size="10.00">ToDebugString()</text>
<polygon fill="#bfbfbf" stroke="#bfbfbf" points="0,-218 0,-218 98,-218 98,-218 0,-218"/>
<polygon fill="#bfbfbf" stroke="#bfbfbf" points="0,-202 0,-202 98,-202 98,-202 0,-202"/>
<polygon fill="none" stroke="#bfbfbf" points="0,-136 0,-236 98,-236 98,-136 0,-136"/>
</a>
</g>
</g>
<!-- Node1&#45;&gt;Node3 -->
<g id="edge2_Node000001_Node000003" class="edge">
<title>Node1&#45;&gt;Node3</title>
<g id="a_edge2_Node000001_Node000003"><a xlink:title=" ">
<path fill="none" stroke="#63b8ff" d="M884.21,-335.11C709.71,-328.74 174.39,-306.24 107,-268 93.61,-260.4 82.52,-248.3 73.75,-235.74"/>
<polygon fill="none" stroke="#63b8ff" points="884.03,-338.61 894.15,-335.47 884.28,-331.61 884.03,-338.61"/>
</a>
</g>
</g>
<!-- Node4 -->
<g id="Node000004" class="node">
<title>Node4</title>
<g id="a_Node000004"><a xlink:href="class_code_smile_1_1_statemachine_1_1_actions_1_1_lambda_action.html" target="_top" xlink:title="Generic Action that simply executes a lambda.">
<polygon fill="white" stroke="none" points="203.5,-236 116.5,-236 116.5,-136 203.5,-136 203.5,-236"/>
<text text-anchor="start" x="128.88" y="-222.5" font-family="Helvetica,sans-Serif" font-size="10.00">LambdaAction</text>
<text text-anchor="start" x="158.5" y="-206.5" font-family="Helvetica,sans-Serif" font-size="10.00"> </text>
<text text-anchor="start" x="120.5" y="-190.5" font-family="Helvetica,sans-Serif" font-size="10.00">+</text>
<text text-anchor="start" x="130.5" y="-190.5" font-family="Helvetica,sans-Serif" font-size="10.00">LambdaAction()</text>
<text text-anchor="start" x="120.5" y="-174.5" font-family="Helvetica,sans-Serif" font-size="10.00">+</text>
<text text-anchor="start" x="130.5" y="-174.5" font-family="Helvetica,sans-Serif" font-size="10.00">LambdaAction()</text>
<text text-anchor="start" x="120.5" y="-158.5" font-family="Helvetica,sans-Serif" font-size="10.00">+</text>
<text text-anchor="start" x="130.5" y="-158.5" font-family="Helvetica,sans-Serif" font-size="10.00">Execute()</text>
<text text-anchor="start" x="120.5" y="-142.5" font-family="Helvetica,sans-Serif" font-size="10.00">+</text>
<text text-anchor="start" x="130.5" y="-142.5" font-family="Helvetica,sans-Serif" font-size="10.00">ToDebugString()</text>
<polygon fill="#666666" stroke="#666666" points="116.5,-218 116.5,-218 203.5,-218 203.5,-218 116.5,-218"/>
<polygon fill="#666666" stroke="#666666" points="116.5,-202 116.5,-202 203.5,-202 203.5,-202 116.5,-202"/>
<polygon fill="none" stroke="#666666" points="116.5,-136 116.5,-236 203.5,-236 203.5,-136 116.5,-136"/>
</a>
</g>
</g>
<!-- Node1&#45;&gt;Node4 -->
<g id="edge3_Node000001_Node000004" class="edge">
<title>Node1&#45;&gt;Node4</title>
<g id="a_edge3_Node000001_Node000004"><a xlink:title=" ">
<path fill="none" stroke="#63b8ff" d="M884.18,-334.55C724.77,-327.05 269.03,-302.76 212,-268 199.44,-260.35 189.37,-248.38 181.57,-235.98"/>
<polygon fill="none" stroke="#63b8ff" points="883.92,-338.04 894.07,-335.01 884.24,-331.05 883.92,-338.04"/>
</a>
</g>
</g>
<!-- Node5 -->
<g id="Node000005" class="node">
<title>Node5</title>
<g id="a_Node000005"><a xlink:href="interface_code_smile_1_1_statemachine_1_1_i_async_action.html" target="_top" xlink:title=" ">
<polygon fill="white" stroke="none" points="308.5,-212 221.5,-212 221.5,-160 308.5,-160 308.5,-212"/>
<text text-anchor="start" x="236.12" y="-198.5" font-family="Helvetica,sans-Serif" font-size="10.00">IAsyncAction</text>
<text text-anchor="start" x="263.5" y="-182.5" font-family="Helvetica,sans-Serif" font-size="10.00"> </text>
<text text-anchor="start" x="225.5" y="-166.5" font-family="Helvetica,sans-Serif" font-size="10.00">+</text>
<text text-anchor="start" x="235.5" y="-166.5" font-family="Helvetica,sans-Serif" font-size="10.00">ExecuteAsync()</text>
<polygon fill="#bfbfbf" stroke="#bfbfbf" points="221.5,-194 221.5,-194 308.5,-194 308.5,-194 221.5,-194"/>
<polygon fill="#bfbfbf" stroke="#bfbfbf" points="221.5,-178 221.5,-178 308.5,-178 308.5,-178 221.5,-178"/>
<polygon fill="none" stroke="#bfbfbf" points="221.5,-160 221.5,-212 308.5,-212 308.5,-160 221.5,-160"/>
</a>
</g>
</g>
<!-- Node1&#45;&gt;Node5 -->
<g id="edge4_Node000001_Node000005" class="edge">
<title>Node1&#45;&gt;Node5</title>
<g id="a_edge4_Node000001_Node000005"><a xlink:title=" ">
<path fill="none" stroke="#63b8ff" d="M884.39,-336.79C750.94,-335.36 412.31,-325.96 318,-268 297.1,-255.15 282.8,-230.61 274.37,-211.9"/>
<polygon fill="none" stroke="#63b8ff" points="884.35,-340.29 894.38,-336.88 884.42,-333.29 884.35,-340.29"/>
</a>
</g>
</g>
<!-- Node9 -->
<g id="Node000009" class="node">
<title>Node9</title>
<g id="a_Node000009"><a xlink:href="class_code_smile_1_1_statemachine_1_1_netcode_1_1_actions_1_1_network_start.html" target="_top" xlink:title=" ">
<polygon fill="white" stroke="none" points="407,-220 327,-220 327,-152 407,-152 407,-220"/>
<text text-anchor="start" x="338.88" y="-206.5" font-family="Helvetica,sans-Serif" font-size="10.00">NetworkStart</text>
<text text-anchor="start" x="365.5" y="-190.5" font-family="Helvetica,sans-Serif" font-size="10.00"> </text>
<text text-anchor="start" x="331" y="-174.5" font-family="Helvetica,sans-Serif" font-size="10.00">+</text>
<text text-anchor="start" x="341" y="-174.5" font-family="Helvetica,sans-Serif" font-size="10.00">NetworkStart()</text>
<text text-anchor="start" x="331" y="-158.5" font-family="Helvetica,sans-Serif" font-size="10.00">+</text>
<text text-anchor="start" x="341" y="-158.5" font-family="Helvetica,sans-Serif" font-size="10.00">Execute()</text>
<polygon fill="#bfbfbf" stroke="#bfbfbf" points="327,-202 327,-202 407,-202 407,-202 327,-202"/>
<polygon fill="#bfbfbf" stroke="#bfbfbf" points="327,-186 327,-186 407,-186 407,-186 327,-186"/>
<polygon fill="none" stroke="#bfbfbf" points="327,-152 327,-220 407,-220 407,-152 327,-152"/>
</a>
</g>
</g>
<!-- Node1&#45;&gt;Node9 -->
<g id="edge8_Node000001_Node000009" class="edge">
<title>Node1&#45;&gt;Node9</title>
<g id="a_edge8_Node000001_Node000009"><a xlink:title=" ">
<path fill="none" stroke="#63b8ff" d="M884.32,-335.68C766.33,-331.91 492.32,-317.89 416,-268 398.67,-256.67 386.53,-236.87 378.66,-219.68"/>
<polygon fill="none" stroke="#63b8ff" points="883.96,-339.17 894.06,-335.98 884.17,-332.18 883.96,-339.17"/>
</a>
</g>
</g>
<!-- Node10 -->
<g id="Node000010" class="node">
<title>Node10</title>
<g id="a_Node000010"><a xlink:href="class_code_smile_1_1_statemachine_1_1_netcode_1_1_actions_1_1_network_stop.html" target="_top" xlink:title=" ">
<polygon fill="white" stroke="none" points="504.5,-220 425.5,-220 425.5,-152 504.5,-152 504.5,-220"/>
<text text-anchor="start" x="437.25" y="-206.5" font-family="Helvetica,sans-Serif" font-size="10.00">NetworkStop</text>
<text text-anchor="start" x="463.5" y="-190.5" font-family="Helvetica,sans-Serif" font-size="10.00"> </text>
<text text-anchor="start" x="429.5" y="-174.5" font-family="Helvetica,sans-Serif" font-size="10.00">+</text>
<text text-anchor="start" x="439.5" y="-174.5" font-family="Helvetica,sans-Serif" font-size="10.00">NetworkStop()</text>
<text text-anchor="start" x="429.5" y="-158.5" font-family="Helvetica,sans-Serif" font-size="10.00">+</text>
<text text-anchor="start" x="439.5" y="-158.5" font-family="Helvetica,sans-Serif" font-size="10.00">Execute()</text>
<polygon fill="#bfbfbf" stroke="#bfbfbf" points="425.5,-202 425.5,-202 504.5,-202 504.5,-202 425.5,-202"/>
<polygon fill="#bfbfbf" stroke="#bfbfbf" points="425.5,-186 425.5,-186 504.5,-186 504.5,-186 425.5,-186"/>
<polygon fill="none" stroke="#bfbfbf" points="425.5,-152 425.5,-220 504.5,-220 504.5,-152 425.5,-152"/>
</a>
</g>
</g>
<!-- Node1&#45;&gt;Node10 -->
<g id="edge9_Node000001_Node000010" class="edge">
<title>Node1&#45;&gt;Node10</title>
<g id="a_edge9_Node000001_Node000010"><a xlink:title=" ">
<path fill="none" stroke="#63b8ff" d="M884.35,-333.79C783.64,-326.96 573.59,-308.23 514,-268 496.97,-256.5 484.89,-236.92 476.99,-219.89"/>
<polygon fill="none" stroke="#63b8ff" points="884.06,-337.28 894.27,-334.44 884.52,-330.29 884.06,-337.28"/>
</a>
</g>
</g>
<!-- Node11 -->
<g id="Node000011" class="node">
<title>Node11</title>
<g id="a_Node000011"><a xlink:href="class_code_smile_1_1_statemachine_1_1_netcode_1_1_actions_1_1_set_netcode_role.html" target="_top" xlink:title=" ">
<polygon fill="white" stroke="none" points="617,-228 523,-228 523,-144 617,-144 617,-228"/>
<text text-anchor="start" x="534.75" y="-214.5" font-family="Helvetica,sans-Serif" font-size="10.00">SetNetcodeRole</text>
<text text-anchor="start" x="568.5" y="-198.5" font-family="Helvetica,sans-Serif" font-size="10.00"> </text>
<text text-anchor="start" x="527" y="-182.5" font-family="Helvetica,sans-Serif" font-size="10.00">+</text>
<text text-anchor="start" x="537" y="-182.5" font-family="Helvetica,sans-Serif" font-size="10.00">SetNetcodeRole()</text>
<text text-anchor="start" x="527" y="-166.5" font-family="Helvetica,sans-Serif" font-size="10.00">+</text>
<text text-anchor="start" x="537" y="-166.5" font-family="Helvetica,sans-Serif" font-size="10.00">Execute()</text>
<text text-anchor="start" x="527" y="-150.5" font-family="Helvetica,sans-Serif" font-size="10.00">+</text>
<text text-anchor="start" x="537" y="-150.5" font-family="Helvetica,sans-Serif" font-size="10.00">ToDebugString()</text>
<polygon fill="#bfbfbf" stroke="#bfbfbf" points="523,-210 523,-210 617,-210 617,-210 523,-210"/>
<polygon fill="#bfbfbf" stroke="#bfbfbf" points="523,-194 523,-194 617,-194 617,-194 523,-194"/>
<polygon fill="none" stroke="#bfbfbf" points="523,-144 523,-228 617,-228 617,-144 523,-144"/>
</a>
</g>
</g>
<!-- Node1&#45;&gt;Node11 -->
<g id="edge10_Node000001_Node000011" class="edge">
<title>Node1&#45;&gt;Node11</title>
<g id="a_edge10_Node000001_Node000011"><a xlink:title=" ">
<path fill="none" stroke="#63b8ff" d="M884.23,-336.76C817.78,-333.98 704.87,-320.97 626,-268 611.1,-257.99 599,-242.57 589.91,-227.85"/>
<polygon fill="none" stroke="#63b8ff" points="884.05,-340.26 894.16,-337.11 884.29,-333.26 884.05,-340.26"/>
</a>
</g>
</g>
<!-- Node12 -->
<g id="Node000012" class="node">
<title>Node12</title>
<g id="a_Node000012"><a xlink:href="class_code_smile_1_1_statemachine_1_1_netcode_1_1_actions_1_1_transport_setup.html" target="_top" xlink:title=" ">
<polygon fill="white" stroke="none" points="725,-220 635,-220 635,-152 725,-152 725,-220"/>
<text text-anchor="start" x="647" y="-206.5" font-family="Helvetica,sans-Serif" font-size="10.00">TransportSetup</text>
<text text-anchor="start" x="678.5" y="-190.5" font-family="Helvetica,sans-Serif" font-size="10.00"> </text>
<text text-anchor="start" x="639" y="-174.5" font-family="Helvetica,sans-Serif" font-size="10.00">+</text>
<text text-anchor="start" x="649" y="-174.5" font-family="Helvetica,sans-Serif" font-size="10.00">TransportSetup()</text>
<text text-anchor="start" x="639" y="-158.5" font-family="Helvetica,sans-Serif" font-size="10.00">+</text>
<text text-anchor="start" x="649" y="-158.5" font-family="Helvetica,sans-Serif" font-size="10.00">Execute()</text>
<polygon fill="#bfbfbf" stroke="#bfbfbf" points="635,-202 635,-202 725,-202 725,-202 635,-202"/>
<polygon fill="#bfbfbf" stroke="#bfbfbf" points="635,-186 635,-186 725,-186 725,-186 635,-186"/>
<polygon fill="none" stroke="#bfbfbf" points="635,-152 635,-220 725,-220 725,-152 635,-152"/>
</a>
</g>
</g>
<!-- Node1&#45;&gt;Node12 -->
<g id="edge11_Node000001_Node000012" class="edge">
<title>Node1&#45;&gt;Node12</title>
<g id="a_edge11_Node000001_Node000012"><a xlink:title=" ">
<path fill="none" stroke="#63b8ff" d="M884.39,-328.67C840.21,-319.72 778.29,-301.93 734,-268 717.5,-255.36 704.39,-236.16 695.22,-219.63"/>
<polygon fill="none" stroke="#63b8ff" points="883.53,-332.07 894.01,-330.53 884.86,-325.2 883.53,-332.07"/>
</a>
</g>
</g>
<!-- Node13 -->
<g id="Node000013" class="node">
<title>Node13</title>
<g id="a_Node000013"><a xlink:href="class_code_smile_1_1_statemachine_1_1_services_1_1_relay_1_1_actions_1_1_relay_clear_allocation_data.html" target="_top" xlink:title=" ">
<polygon fill="white" stroke="none" points="877,-220 743,-220 743,-152 877,-152 877,-220"/>
<text text-anchor="start" x="754.88" y="-206.5" font-family="Helvetica,sans-Serif" font-size="10.00">RelayClearAllocationData</text>
<text text-anchor="start" x="808.5" y="-190.5" font-family="Helvetica,sans-Serif" font-size="10.00"> </text>
<text text-anchor="start" x="747" y="-174.5" font-family="Helvetica,sans-Serif" font-size="10.00">+</text>
<text text-anchor="start" x="757" y="-174.5" font-family="Helvetica,sans-Serif" font-size="10.00">RelayClearAllocationData()</text>
<text text-anchor="start" x="747" y="-158.5" font-family="Helvetica,sans-Serif" font-size="10.00">+</text>
<text text-anchor="start" x="757" y="-158.5" font-family="Helvetica,sans-Serif" font-size="10.00">Execute()</text>
<polygon fill="#bfbfbf" stroke="#bfbfbf" points="743,-202 743,-202 877,-202 877,-202 743,-202"/>
<polygon fill="#bfbfbf" stroke="#bfbfbf" points="743,-186 743,-186 877,-186 877,-186 743,-186"/>
<polygon fill="none" stroke="#bfbfbf" points="743,-152 743,-220 877,-220 877,-152 743,-152"/>
</a>
</g>
</g>
<!-- Node1&#45;&gt;Node13 -->
<g id="edge12_Node000001_Node000013" class="edge">
<title>Node1&#45;&gt;Node13</title>
<g id="a_edge12_Node000001_Node000013"><a xlink:title=" ">
<path fill="none" stroke="#63b8ff" d="M903.37,-295.57C882.84,-271.69 857.38,-242.1 838.24,-219.84"/>
<polygon fill="none" stroke="#63b8ff" points="900.53,-297.63 909.7,-302.93 905.84,-293.07 900.53,-297.63"/>
</a>
</g>
</g>
<!-- Node14 -->
<g id="Node000014" class="node">
<title>Node14</title>
<g id="a_Node000014"><a xlink:href="class_code_smile_1_1_statemachine_1_1_variable_1_1_actions_1_1_add_value.html" target="_top" xlink:title=" ">
<polygon fill="white" stroke="none" points="982.5,-260 895.5,-260 895.5,-112 982.5,-112 982.5,-260"/>
<text text-anchor="start" x="918" y="-246.5" font-family="Helvetica,sans-Serif" font-size="10.00">AddValue</text>
<text text-anchor="start" x="937.5" y="-230.5" font-family="Helvetica,sans-Serif" font-size="10.00"> </text>
<text text-anchor="start" x="899.5" y="-214.5" font-family="Helvetica,sans-Serif" font-size="10.00">+</text>
<text text-anchor="start" x="909.5" y="-214.5" font-family="Helvetica,sans-Serif" font-size="10.00">AddValue()</text>
<text text-anchor="start" x="899.5" y="-198.5" font-family="Helvetica,sans-Serif" font-size="10.00">+</text>
<text text-anchor="start" x="909.5" y="-198.5" font-family="Helvetica,sans-Serif" font-size="10.00">AddValue()</text>
<text text-anchor="start" x="899.5" y="-182.5" font-family="Helvetica,sans-Serif" font-size="10.00">+</text>
<text text-anchor="start" x="909.5" y="-182.5" font-family="Helvetica,sans-Serif" font-size="10.00">AddValue()</text>
<text text-anchor="start" x="899.5" y="-166.5" font-family="Helvetica,sans-Serif" font-size="10.00">+</text>
<text text-anchor="start" x="909.5" y="-166.5" font-family="Helvetica,sans-Serif" font-size="10.00">AddValue()</text>
<text text-anchor="start" x="899.5" y="-150.5" font-family="Helvetica,sans-Serif" font-size="10.00">+</text>
<text text-anchor="start" x="909.5" y="-150.5" font-family="Helvetica,sans-Serif" font-size="10.00">AddValue()</text>
<text text-anchor="start" x="899.5" y="-134.5" font-family="Helvetica,sans-Serif" font-size="10.00">+</text>
<text text-anchor="start" x="909.5" y="-134.5" font-family="Helvetica,sans-Serif" font-size="10.00">Execute()</text>
<text text-anchor="start" x="899.5" y="-118.5" font-family="Helvetica,sans-Serif" font-size="10.00">+</text>
<text text-anchor="start" x="909.5" y="-118.5" font-family="Helvetica,sans-Serif" font-size="10.00">ToDebugString()</text>
<polygon fill="#bfbfbf" stroke="#bfbfbf" points="895.5,-242 895.5,-242 982.5,-242 982.5,-242 895.5,-242"/>
<polygon fill="#bfbfbf" stroke="#bfbfbf" points="895.5,-226 895.5,-226 982.5,-226 982.5,-226 895.5,-226"/>
<polygon fill="none" stroke="#bfbfbf" points="895.5,-112 895.5,-260 982.5,-260 982.5,-112 895.5,-112"/>
</a>
</g>
</g>
<!-- Node1&#45;&gt;Node14 -->
<g id="edge13_Node000001_Node000014" class="edge">
<title>Node1&#45;&gt;Node14</title>
<g id="a_edge13_Node000001_Node000014"><a xlink:title=" ">
<path fill="none" stroke="#63b8ff" d="M939,-292.81C939,-282.43 939,-271.09 939,-259.81"/>
<polygon fill="none" stroke="#63b8ff" points="935.5,-292.57 939,-302.57 942.5,-292.57 935.5,-292.57"/>
</a>
</g>
</g>
<!-- Node15 -->
<g id="Node000015" class="node">
<title>Node15</title>
<g id="a_Node000015"><a xlink:href="class_code_smile_1_1_statemachine_1_1_variable_1_1_actions_1_1_dec_value.html" target="_top" xlink:title=" ">
<polygon fill="white" stroke="none" points="1087.5,-220 1000.5,-220 1000.5,-152 1087.5,-152 1087.5,-220"/>
<text text-anchor="start" x="1023" y="-206.5" font-family="Helvetica,sans-Serif" font-size="10.00">DecValue</text>
<text text-anchor="start" x="1042.5" y="-190.5" font-family="Helvetica,sans-Serif" font-size="10.00"> </text>
<text text-anchor="start" x="1004.5" y="-174.5" font-family="Helvetica,sans-Serif" font-size="10.00">+</text>
<text text-anchor="start" x="1014.5" y="-174.5" font-family="Helvetica,sans-Serif" font-size="10.00">Execute()</text>
<text text-anchor="start" x="1004.5" y="-158.5" font-family="Helvetica,sans-Serif" font-size="10.00">+</text>
<text text-anchor="start" x="1014.5" y="-158.5" font-family="Helvetica,sans-Serif" font-size="10.00">ToDebugString()</text>
<polygon fill="#bfbfbf" stroke="#bfbfbf" points="1000.5,-202 1000.5,-202 1087.5,-202 1087.5,-202 1000.5,-202"/>
<polygon fill="#bfbfbf" stroke="#bfbfbf" points="1000.5,-186 1000.5,-186 1087.5,-186 1087.5,-186 1000.5,-186"/>
<polygon fill="none" stroke="#bfbfbf" points="1000.5,-152 1000.5,-220 1087.5,-220 1087.5,-152 1000.5,-152"/>
</a>
</g>
</g>
<!-- Node1&#45;&gt;Node15 -->
<g id="edge14_Node000001_Node000015" class="edge">
<title>Node1&#45;&gt;Node15</title>
<g id="a_edge14_Node000001_Node000015"><a xlink:title=" ">
<path fill="none" stroke="#63b8ff" d="M971.15,-295.27C977.82,-286.35 984.73,-276.93 991,-268 1002.02,-252.33 1013.73,-234.55 1023.34,-219.65"/>
<polygon fill="none" stroke="#63b8ff" points="968.45,-293.04 965.22,-303.13 974.04,-297.25 968.45,-293.04"/>
</a>
</g>
</g>
<!-- Node16 -->
<g id="Node000016" class="node">
<title>Node16</title>
<g id="a_Node000016"><a xlink:href="class_code_smile_1_1_statemachine_1_1_variable_1_1_actions_1_1_div_value.html" target="_top" xlink:title=" ">
<polygon fill="white" stroke="none" points="1192.5,-260 1105.5,-260 1105.5,-112 1192.5,-112 1192.5,-260"/>
<text text-anchor="start" x="1130.25" y="-246.5" font-family="Helvetica,sans-Serif" font-size="10.00">DivValue</text>
<text text-anchor="start" x="1147.5" y="-230.5" font-family="Helvetica,sans-Serif" font-size="10.00"> </text>
<text text-anchor="start" x="1109.5" y="-214.5" font-family="Helvetica,sans-Serif" font-size="10.00">+</text>
<text text-anchor="start" x="1119.5" y="-214.5" font-family="Helvetica,sans-Serif" font-size="10.00">DivValue()</text>
<text text-anchor="start" x="1109.5" y="-198.5" font-family="Helvetica,sans-Serif" font-size="10.00">+</text>
<text text-anchor="start" x="1119.5" y="-198.5" font-family="Helvetica,sans-Serif" font-size="10.00">DivValue()</text>
<text text-anchor="start" x="1109.5" y="-182.5" font-family="Helvetica,sans-Serif" font-size="10.00">+</text>
<text text-anchor="start" x="1119.5" y="-182.5" font-family="Helvetica,sans-Serif" font-size="10.00">DivValue()</text>
<text text-anchor="start" x="1109.5" y="-166.5" font-family="Helvetica,sans-Serif" font-size="10.00">+</text>
<text text-anchor="start" x="1119.5" y="-166.5" font-family="Helvetica,sans-Serif" font-size="10.00">DivValue()</text>
<text text-anchor="start" x="1109.5" y="-150.5" font-family="Helvetica,sans-Serif" font-size="10.00">+</text>
<text text-anchor="start" x="1119.5" y="-150.5" font-family="Helvetica,sans-Serif" font-size="10.00">DivValue()</text>
<text text-anchor="start" x="1109.5" y="-134.5" font-family="Helvetica,sans-Serif" font-size="10.00">+</text>
<text text-anchor="start" x="1119.5" y="-134.5" font-family="Helvetica,sans-Serif" font-size="10.00">Execute()</text>
<text text-anchor="start" x="1109.5" y="-118.5" font-family="Helvetica,sans-Serif" font-size="10.00">+</text>
<text text-anchor="start" x="1119.5" y="-118.5" font-family="Helvetica,sans-Serif" font-size="10.00">ToDebugString()</text>
<polygon fill="#bfbfbf" stroke="#bfbfbf" points="1105.5,-242 1105.5,-242 1192.5,-242 1192.5,-242 1105.5,-242"/>
<polygon fill="#bfbfbf" stroke="#bfbfbf" points="1105.5,-226 1105.5,-226 1192.5,-226 1192.5,-226 1105.5,-226"/>
<polygon fill="none" stroke="#bfbfbf" points="1105.5,-112 1105.5,-260 1192.5,-260 1192.5,-112 1105.5,-112"/>
</a>
</g>
</g>
<!-- Node1&#45;&gt;Node16 -->
<g id="edge15_Node000001_Node000016" class="edge">
<title>Node1&#45;&gt;Node16</title>
<g id="a_edge15_Node000001_Node000016"><a xlink:title=" ">
<path fill="none" stroke="#63b8ff" d="M992.99,-321.9C1025.44,-310.85 1066.1,-293.33 1096,-268 1099.33,-265.18 1102.54,-262.09 1105.6,-258.82"/>
<polygon fill="none" stroke="#63b8ff" points="992.18,-318.48 983.77,-324.93 994.36,-325.13 992.18,-318.48"/>
</a>
</g>
</g>
<!-- Node17 -->
<g id="Node000017" class="node">
<title>Node17</title>
<g id="a_Node000017"><a xlink:href="class_code_smile_1_1_statemachine_1_1_variable_1_1_actions_1_1_inc_value.html" target="_top" xlink:title=" ">
<polygon fill="white" stroke="none" points="1297.5,-220 1210.5,-220 1210.5,-152 1297.5,-152 1297.5,-220"/>
<text text-anchor="start" x="1235.25" y="-206.5" font-family="Helvetica,sans-Serif" font-size="10.00">IncValue</text>
<text text-anchor="start" x="1252.5" y="-190.5" font-family="Helvetica,sans-Serif" font-size="10.00"> </text>
<text text-anchor="start" x="1214.5" y="-174.5" font-family="Helvetica,sans-Serif" font-size="10.00">+</text>
<text text-anchor="start" x="1224.5" y="-174.5" font-family="Helvetica,sans-Serif" font-size="10.00">Execute()</text>
<text text-anchor="start" x="1214.5" y="-158.5" font-family="Helvetica,sans-Serif" font-size="10.00">+</text>
<text text-anchor="start" x="1224.5" y="-158.5" font-family="Helvetica,sans-Serif" font-size="10.00">ToDebugString()</text>
<polygon fill="#bfbfbf" stroke="#bfbfbf" points="1210.5,-202 1210.5,-202 1297.5,-202 1297.5,-202 1210.5,-202"/>
<polygon fill="#bfbfbf" stroke="#bfbfbf" points="1210.5,-186 1210.5,-186 1297.5,-186 1297.5,-186 1210.5,-186"/>
<polygon fill="none" stroke="#bfbfbf" points="1210.5,-152 1210.5,-220 1297.5,-220 1297.5,-152 1210.5,-152"/>
</a>
</g>
</g>
<!-- Node1&#45;&gt;Node17 -->
<g id="edge16_Node000001_Node000017" class="edge">
<title>Node1&#45;&gt;Node17</title>
<g id="a_edge16_Node000001_Node000017"><a xlink:title=" ">
<path fill="none" stroke="#63b8ff" d="M993.49,-334.18C1050.39,-328.79 1139.83,-313.17 1202,-268 1218.76,-255.82 1231.49,-236.44 1240.15,-219.68"/>
<polygon fill="none" stroke="#63b8ff" points="993.38,-330.68 983.72,-335.03 993.98,-337.65 993.38,-330.68"/>
</a>
</g>
</g>
<!-- Node18 -->
<g id="Node000018" class="node">
<title>Node18</title>
<g id="a_Node000018"><a xlink:href="class_code_smile_1_1_statemachine_1_1_variable_1_1_actions_1_1_mul_value.html" target="_top" xlink:title=" ">
<polygon fill="white" stroke="none" points="1402.5,-260 1315.5,-260 1315.5,-112 1402.5,-112 1402.5,-260"/>
<text text-anchor="start" x="1338.75" y="-246.5" font-family="Helvetica,sans-Serif" font-size="10.00">MulValue</text>
<text text-anchor="start" x="1357.5" y="-230.5" font-family="Helvetica,sans-Serif" font-size="10.00"> </text>
<text text-anchor="start" x="1319.5" y="-214.5" font-family="Helvetica,sans-Serif" font-size="10.00">+</text>
<text text-anchor="start" x="1329.5" y="-214.5" font-family="Helvetica,sans-Serif" font-size="10.00">MulValue()</text>
<text text-anchor="start" x="1319.5" y="-198.5" font-family="Helvetica,sans-Serif" font-size="10.00">+</text>
<text text-anchor="start" x="1329.5" y="-198.5" font-family="Helvetica,sans-Serif" font-size="10.00">MulValue()</text>
<text text-anchor="start" x="1319.5" y="-182.5" font-family="Helvetica,sans-Serif" font-size="10.00">+</text>
<text text-anchor="start" x="1329.5" y="-182.5" font-family="Helvetica,sans-Serif" font-size="10.00">MulValue()</text>
<text text-anchor="start" x="1319.5" y="-166.5" font-family="Helvetica,sans-Serif" font-size="10.00">+</text>
<text text-anchor="start" x="1329.5" y="-166.5" font-family="Helvetica,sans-Serif" font-size="10.00">MulValue()</text>
<text text-anchor="start" x="1319.5" y="-150.5" font-family="Helvetica,sans-Serif" font-size="10.00">+</text>
<text text-anchor="start" x="1329.5" y="-150.5" font-family="Helvetica,sans-Serif" font-size="10.00">MulValue()</text>
<text text-anchor="start" x="1319.5" y="-134.5" font-family="Helvetica,sans-Serif" font-size="10.00">+</text>
<text text-anchor="start" x="1329.5" y="-134.5" font-family="Helvetica,sans-Serif" font-size="10.00">Execute()</text>
<text text-anchor="start" x="1319.5" y="-118.5" font-family="Helvetica,sans-Serif" font-size="10.00">+</text>
<text text-anchor="start" x="1329.5" y="-118.5" font-family="Helvetica,sans-Serif" font-size="10.00">ToDebugString()</text>
<polygon fill="#bfbfbf" stroke="#bfbfbf" points="1315.5,-242 1315.5,-242 1402.5,-242 1402.5,-242 1315.5,-242"/>
<polygon fill="#bfbfbf" stroke="#bfbfbf" points="1315.5,-226 1315.5,-226 1402.5,-226 1402.5,-226 1315.5,-226"/>
<polygon fill="none" stroke="#bfbfbf" points="1315.5,-112 1315.5,-260 1402.5,-260 1402.5,-112 1315.5,-112"/>
</a>
</g>
</g>
<!-- Node1&#45;&gt;Node18 -->
<g id="edge17_Node000001_Node000018" class="edge">
<title>Node1&#45;&gt;Node18</title>
<g id="a_edge17_Node000001_Node000018"><a xlink:title=" ">
<path fill="none" stroke="#63b8ff" d="M993.73,-332.07C1083.37,-323.13 1256.58,-301.96 1307,-268 1310.6,-265.57 1314.01,-262.8 1317.23,-259.79"/>
<polygon fill="none" stroke="#63b8ff" points="993.56,-328.57 983.95,-333.03 994.24,-335.54 993.56,-328.57"/>
</a>
</g>
</g>
<!-- Node19 -->
<g id="Node000019" class="node">
<title>Node19</title>
<g id="a_Node000019"><a xlink:href="class_code_smile_1_1_statemachine_1_1_variable_1_1_actions_1_1_set_false.html" target="_top" xlink:title=" ">
<polygon fill="white" stroke="none" points="1507.5,-228 1420.5,-228 1420.5,-144 1507.5,-144 1507.5,-228"/>
<text text-anchor="start" x="1444.5" y="-214.5" font-family="Helvetica,sans-Serif" font-size="10.00">SetFalse</text>
<text text-anchor="start" x="1462.5" y="-198.5" font-family="Helvetica,sans-Serif" font-size="10.00"> </text>
<text text-anchor="start" x="1424.5" y="-182.5" font-family="Helvetica,sans-Serif" font-size="10.00">+</text>
<text text-anchor="start" x="1434.5" y="-182.5" font-family="Helvetica,sans-Serif" font-size="10.00">SetFalse()</text>
<text text-anchor="start" x="1424.5" y="-166.5" font-family="Helvetica,sans-Serif" font-size="10.00">+</text>
<text text-anchor="start" x="1434.5" y="-166.5" font-family="Helvetica,sans-Serif" font-size="10.00">Execute()</text>
<text text-anchor="start" x="1424.5" y="-150.5" font-family="Helvetica,sans-Serif" font-size="10.00">+</text>
<text text-anchor="start" x="1434.5" y="-150.5" font-family="Helvetica,sans-Serif" font-size="10.00">ToDebugString()</text>
<polygon fill="#bfbfbf" stroke="#bfbfbf" points="1420.5,-210 1420.5,-210 1507.5,-210 1507.5,-210 1420.5,-210"/>
<polygon fill="#bfbfbf" stroke="#bfbfbf" points="1420.5,-194 1420.5,-194 1507.5,-194 1507.5,-194 1420.5,-194"/>
<polygon fill="none" stroke="#bfbfbf" points="1420.5,-144 1420.5,-228 1507.5,-228 1507.5,-144 1420.5,-144"/>
</a>
</g>
</g>
<!-- Node1&#45;&gt;Node19 -->
<g id="edge18_Node000001_Node000019" class="edge">
<title>Node1&#45;&gt;Node19</title>
<g id="a_edge18_Node000001_Node000019"><a xlink:title=" ">
<path fill="none" stroke="#63b8ff" d="M993.73,-334.65C1103.03,-329.07 1343.69,-312.03 1412,-268 1426.89,-258.4 1438.36,-242.87 1446.7,-227.96"/>
<polygon fill="none" stroke="#63b8ff" points="993.65,-331.15 983.83,-335.14 993.99,-338.15 993.65,-331.15"/>
</a>
</g>
</g>
<!-- Node20 -->
<g id="Node000020" class="node">
<title>Node20</title>
<g id="a_Node000020"><a xlink:href="class_code_smile_1_1_statemachine_1_1_variable_1_1_actions_1_1_set_true.html" target="_top" xlink:title=" ">
<polygon fill="white" stroke="none" points="1612.5,-228 1525.5,-228 1525.5,-144 1612.5,-144 1612.5,-228"/>
<text text-anchor="start" x="1552.12" y="-214.5" font-family="Helvetica,sans-Serif" font-size="10.00">SetTrue</text>
<text text-anchor="start" x="1567.5" y="-198.5" font-family="Helvetica,sans-Serif" font-size="10.00"> </text>
<text text-anchor="start" x="1529.5" y="-182.5" font-family="Helvetica,sans-Serif" font-size="10.00">+</text>
<text text-anchor="start" x="1539.5" y="-182.5" font-family="Helvetica,sans-Serif" font-size="10.00">SetTrue()</text>
<text text-anchor="start" x="1529.5" y="-166.5" font-family="Helvetica,sans-Serif" font-size="10.00">+</text>
<text text-anchor="start" x="1539.5" y="-166.5" font-family="Helvetica,sans-Serif" font-size="10.00">Execute()</text>
<text text-anchor="start" x="1529.5" y="-150.5" font-family="Helvetica,sans-Serif" font-size="10.00">+</text>
<text text-anchor="start" x="1539.5" y="-150.5" font-family="Helvetica,sans-Serif" font-size="10.00">ToDebugString()</text>
<polygon fill="#bfbfbf" stroke="#bfbfbf" points="1525.5,-210 1525.5,-210 1612.5,-210 1612.5,-210 1525.5,-210"/>
<polygon fill="#bfbfbf" stroke="#bfbfbf" points="1525.5,-194 1525.5,-194 1612.5,-194 1612.5,-194 1525.5,-194"/>
<polygon fill="none" stroke="#bfbfbf" points="1525.5,-144 1525.5,-228 1612.5,-228 1612.5,-144 1525.5,-144"/>
</a>
</g>
</g>
<!-- Node1&#45;&gt;Node20 -->
<g id="edge19_Node000001_Node000020" class="edge">
<title>Node1&#45;&gt;Node20</title>
<g id="a_edge19_Node000001_Node000020"><a xlink:title=" ">
<path fill="none" stroke="#63b8ff" d="M993.4,-336.32C1120.05,-333.84 1430.41,-322.22 1517,-268 1532.15,-258.51 1543.73,-242.8 1552.06,-227.73"/>
<polygon fill="none" stroke="#63b8ff" points="993.54,-332.82 983.6,-336.5 993.67,-339.82 993.54,-332.82"/>
</a>
</g>
</g>
<!-- Node21 -->
<g id="Node000021" class="node">
<title>Node21</title>
<g id="a_Node000021"><a xlink:href="class_code_smile_1_1_statemachine_1_1_variable_1_1_actions_1_1_set_value.html" target="_top" xlink:title=" ">
<polygon fill="white" stroke="none" points="1717.5,-268 1630.5,-268 1630.5,-104 1717.5,-104 1717.5,-268"/>
<text text-anchor="start" x="1654.12" y="-254.5" font-family="Helvetica,sans-Serif" font-size="10.00">SetValue</text>
<text text-anchor="start" x="1672.5" y="-238.5" font-family="Helvetica,sans-Serif" font-size="10.00"> </text>
<text text-anchor="start" x="1634.5" y="-222.5" font-family="Helvetica,sans-Serif" font-size="10.00">+</text>
<text text-anchor="start" x="1644.5" y="-222.5" font-family="Helvetica,sans-Serif" font-size="10.00">SetValue()</text>
<text text-anchor="start" x="1634.5" y="-206.5" font-family="Helvetica,sans-Serif" font-size="10.00">+</text>
<text text-anchor="start" x="1644.5" y="-206.5" font-family="Helvetica,sans-Serif" font-size="10.00">SetValue()</text>
<text text-anchor="start" x="1634.5" y="-190.5" font-family="Helvetica,sans-Serif" font-size="10.00">+</text>
<text text-anchor="start" x="1644.5" y="-190.5" font-family="Helvetica,sans-Serif" font-size="10.00">SetValue()</text>
<text text-anchor="start" x="1634.5" y="-174.5" font-family="Helvetica,sans-Serif" font-size="10.00">+</text>
<text text-anchor="start" x="1644.5" y="-174.5" font-family="Helvetica,sans-Serif" font-size="10.00">SetValue()</text>
<text text-anchor="start" x="1634.5" y="-158.5" font-family="Helvetica,sans-Serif" font-size="10.00">+</text>
<text text-anchor="start" x="1644.5" y="-158.5" font-family="Helvetica,sans-Serif" font-size="10.00">SetValue()</text>
<text text-anchor="start" x="1634.5" y="-142.5" font-family="Helvetica,sans-Serif" font-size="10.00">+</text>
<text text-anchor="start" x="1644.5" y="-142.5" font-family="Helvetica,sans-Serif" font-size="10.00">SetValue()</text>
<text text-anchor="start" x="1634.5" y="-126.5" font-family="Helvetica,sans-Serif" font-size="10.00">+</text>
<text text-anchor="start" x="1644.5" y="-126.5" font-family="Helvetica,sans-Serif" font-size="10.00">Execute()</text>
<text text-anchor="start" x="1634.5" y="-110.5" font-family="Helvetica,sans-Serif" font-size="10.00">+</text>
<text text-anchor="start" x="1644.5" y="-110.5" font-family="Helvetica,sans-Serif" font-size="10.00">ToDebugString()</text>
<polygon fill="#bfbfbf" stroke="#bfbfbf" points="1630.5,-250 1630.5,-250 1717.5,-250 1717.5,-250 1630.5,-250"/>
<polygon fill="#bfbfbf" stroke="#bfbfbf" points="1630.5,-234 1630.5,-234 1717.5,-234 1717.5,-234 1630.5,-234"/>
<polygon fill="none" stroke="#bfbfbf" points="1630.5,-104 1630.5,-268 1717.5,-268 1717.5,-104 1630.5,-104"/>
</a>
</g>
</g>
<!-- Node1&#45;&gt;Node21 -->
<g id="edge20_Node000001_Node000021" class="edge">
<title>Node1&#45;&gt;Node21</title>
<g id="a_edge20_Node000001_Node000021"><a xlink:title=" ">
<path fill="none" stroke="#63b8ff" d="M993.58,-337.48C1136.34,-337.79 1517.02,-332.42 1622,-268 1624.99,-266.16 1627.84,-264.09 1630.55,-261.81"/>
<polygon fill="none" stroke="#63b8ff" points="993.64,-333.98 983.62,-337.44 993.61,-340.98 993.64,-333.98"/>
</a>
</g>
</g>
<!-- Node22 -->
<g id="Node000022" class="node">
<title>Node22</title>
<g id="a_Node000022"><a xlink:href="class_code_smile_1_1_statemachine_1_1_variable_1_1_actions_1_1_sub_value.html" target="_top" xlink:title=" ">
<polygon fill="white" stroke="none" points="1822.5,-260 1735.5,-260 1735.5,-112 1822.5,-112 1822.5,-260"/>
<text text-anchor="start" x="1758" y="-246.5" font-family="Helvetica,sans-Serif" font-size="10.00">SubValue</text>
<text text-anchor="start" x="1777.5" y="-230.5" font-family="Helvetica,sans-Serif" font-size="10.00"> </text>
<text text-anchor="start" x="1739.5" y="-214.5" font-family="Helvetica,sans-Serif" font-size="10.00">+</text>
<text text-anchor="start" x="1749.5" y="-214.5" font-family="Helvetica,sans-Serif" font-size="10.00">SubValue()</text>
<text text-anchor="start" x="1739.5" y="-198.5" font-family="Helvetica,sans-Serif" font-size="10.00">+</text>
<text text-anchor="start" x="1749.5" y="-198.5" font-family="Helvetica,sans-Serif" font-size="10.00">SubValue()</text>
<text text-anchor="start" x="1739.5" y="-182.5" font-family="Helvetica,sans-Serif" font-size="10.00">+</text>
<text text-anchor="start" x="1749.5" y="-182.5" font-family="Helvetica,sans-Serif" font-size="10.00">SubValue()</text>
<text text-anchor="start" x="1739.5" y="-166.5" font-family="Helvetica,sans-Serif" font-size="10.00">+</text>
<text text-anchor="start" x="1749.5" y="-166.5" font-family="Helvetica,sans-Serif" font-size="10.00">SubValue()</text>
<text text-anchor="start" x="1739.5" y="-150.5" font-family="Helvetica,sans-Serif" font-size="10.00">+</text>
<text text-anchor="start" x="1749.5" y="-150.5" font-family="Helvetica,sans-Serif" font-size="10.00">SubValue()</text>
<text text-anchor="start" x="1739.5" y="-134.5" font-family="Helvetica,sans-Serif" font-size="10.00">+</text>
<text text-anchor="start" x="1749.5" y="-134.5" font-family="Helvetica,sans-Serif" font-size="10.00">Execute()</text>
<text text-anchor="start" x="1739.5" y="-118.5" font-family="Helvetica,sans-Serif" font-size="10.00">+</text>
<text text-anchor="start" x="1749.5" y="-118.5" font-family="Helvetica,sans-Serif" font-size="10.00">ToDebugString()</text>
<polygon fill="#bfbfbf" stroke="#bfbfbf" points="1735.5,-242 1735.5,-242 1822.5,-242 1822.5,-242 1735.5,-242"/>
<polygon fill="#bfbfbf" stroke="#bfbfbf" points="1735.5,-226 1735.5,-226 1822.5,-226 1822.5,-226 1735.5,-226"/>
<polygon fill="none" stroke="#bfbfbf" points="1735.5,-112 1735.5,-260 1822.5,-260 1822.5,-112 1735.5,-112"/>
</a>
</g>
</g>
<!-- Node1&#45;&gt;Node22 -->
<g id="edge21_Node000001_Node000022" class="edge">
<title>Node1&#45;&gt;Node22</title>
<g id="a_edge21_Node000001_Node000022"><a xlink:title=" ">
<path fill="none" stroke="#63b8ff" d="M993.52,-334.99C1161.63,-328.42 1664.49,-305.79 1727,-268 1730.86,-265.67 1734.49,-262.92 1737.88,-259.88"/>
<polygon fill="none" stroke="#63b8ff" points="993.6,-331.49 983.75,-335.37 993.87,-338.48 993.6,-331.49"/>
</a>
</g>
</g>
<!-- Node2 -->
<g id="Node000002" class="node">
<title>Node2</title>
<g id="a_Node000002"><a xlink:href="interface_code_smile_1_1_statemachine_1_1_i_statemachine_events.html" target="_top" xlink:title="Event methods that the Statemachine calls at specific times.">
<polygon fill="white" stroke="none" points="989.5,-508 888.5,-508 888.5,-408 989.5,-408 989.5,-508"/>
<text text-anchor="start" x="893.25" y="-494.5" font-family="Helvetica,sans-Serif" font-size="10.00">IStatemachineEvents</text>
<text text-anchor="start" x="937.5" y="-478.5" font-family="Helvetica,sans-Serif" font-size="10.00"> </text>
<text text-anchor="start" x="897" y="-462.5" font-family="Helvetica,sans-Serif" font-size="10.00">+</text>
<text text-anchor="start" x="911.5" y="-462.5" font-family="Helvetica,sans-Serif" font-size="10.00">OnEnterState()</text>
<text text-anchor="start" x="897" y="-446.5" font-family="Helvetica,sans-Serif" font-size="10.00">+</text>
<text text-anchor="start" x="911.5" y="-446.5" font-family="Helvetica,sans-Serif" font-size="10.00">OnExitState()</text>
<text text-anchor="start" x="897" y="-430.5" font-family="Helvetica,sans-Serif" font-size="10.00">+</text>
<text text-anchor="start" x="911.5" y="-430.5" font-family="Helvetica,sans-Serif" font-size="10.00">OnStart()</text>
<text text-anchor="start" x="897" y="-414.5" font-family="Helvetica,sans-Serif" font-size="10.00">+</text>
<text text-anchor="start" x="911.5" y="-414.5" font-family="Helvetica,sans-Serif" font-size="10.00">OnStop()</text>
<polygon fill="#666666" stroke="#666666" points="888.5,-490 888.5,-490 989.5,-490 989.5,-490 888.5,-490"/>
<polygon fill="#666666" stroke="#666666" points="888.5,-474 888.5,-474 989.5,-474 989.5,-474 888.5,-474"/>
<polygon fill="none" stroke="#666666" points="888.5,-408 888.5,-508 989.5,-508 989.5,-408 888.5,-408"/>
</a>
</g>
</g>
<!-- Node2&#45;&gt;Node1 -->
<g id="edge1_Node000001_Node000002" class="edge">
<title>Node2&#45;&gt;Node1</title>
<g id="a_edge1_Node000001_Node000002"><a xlink:title=" ">
<path fill="none" stroke="#63b8ff" d="M939,-396.96C939,-388.28 939,-379.62 939,-371.75"/>
<polygon fill="none" stroke="#63b8ff" points="935.5,-396.81 939,-406.81 942.5,-396.81 935.5,-396.81"/>
</a>
</g>
</g>
<!-- Node6 -->
<g id="Node000006" class="node">
<title>Node6</title>
<g id="a_Node000006"><a xlink:href="class_code_smile_1_1_statemachine_1_1_services_1_1_authentication_1_1_actions_1_1_sign_in_anonymously.html" target="_top" xlink:title=" ">
<polygon fill="white" stroke="none" points="203,-60 107,-60 107,-8 203,-8 203,-60"/>
<text text-anchor="start" x="111.88" y="-46.5" font-family="Helvetica,sans-Serif" font-size="10.00">SignInAnonymously</text>
<text text-anchor="start" x="153.5" y="-30.5" font-family="Helvetica,sans-Serif" font-size="10.00"> </text>
<text text-anchor="start" x="113" y="-14.5" font-family="Helvetica,sans-Serif" font-size="10.00">+</text>
<text text-anchor="start" x="125" y="-14.5" font-family="Helvetica,sans-Serif" font-size="10.00">ExecuteAsync()</text>
<polygon fill="#bfbfbf" stroke="#bfbfbf" points="107,-42 107,-42 203,-42 203,-42 107,-42"/>
<polygon fill="#bfbfbf" stroke="#bfbfbf" points="107,-26 107,-26 203,-26 203,-26 107,-26"/>
<polygon fill="none" stroke="#bfbfbf" points="107,-8 107,-60 203,-60 203,-8 107,-8"/>
</a>
</g>
</g>
<!-- Node5&#45;&gt;Node6 -->
<g id="edge5_Node000005_Node000006" class="edge">
<title>Node5&#45;&gt;Node6</title>
<g id="a_edge5_Node000005_Node000006"><a xlink:title=" ">
<path fill="none" stroke="#63b8ff" d="M243.57,-150.41C234.23,-135.83 222.93,-118.84 212,-104 200.85,-88.86 187.5,-72.62 176.53,-59.7"/>
<polygon fill="none" stroke="#63b8ff" points="240.57,-152.22 248.88,-158.78 246.48,-148.46 240.57,-152.22"/>
</a>
</g>
</g>
<!-- Node7 -->
<g id="Node000007" class="node">
<title>Node7</title>
<g id="a_Node000007"><a xlink:href="class_code_smile_1_1_statemachine_1_1_services_1_1_core_1_1_actions_1_1_unity_services_init.html" target="_top" xlink:title=" ">
<polygon fill="white" stroke="none" points="308.5,-60 221.5,-60 221.5,-8 308.5,-8 308.5,-60"/>
<text text-anchor="start" x="229" y="-46.5" font-family="Helvetica,sans-Serif" font-size="10.00">UnityServicesInit</text>
<text text-anchor="start" x="263.5" y="-30.5" font-family="Helvetica,sans-Serif" font-size="10.00"> </text>
<text text-anchor="start" x="225.5" y="-14.5" font-family="Helvetica,sans-Serif" font-size="10.00">+</text>
<text text-anchor="start" x="235.5" y="-14.5" font-family="Helvetica,sans-Serif" font-size="10.00">ExecuteAsync()</text>
<polygon fill="#bfbfbf" stroke="#bfbfbf" points="221.5,-42 221.5,-42 308.5,-42 308.5,-42 221.5,-42"/>
<polygon fill="#bfbfbf" stroke="#bfbfbf" points="221.5,-26 221.5,-26 308.5,-26 308.5,-26 221.5,-26"/>
<polygon fill="none" stroke="#bfbfbf" points="221.5,-8 221.5,-60 308.5,-60 308.5,-8 221.5,-8"/>
</a>
</g>
</g>
<!-- Node5&#45;&gt;Node7 -->
<g id="edge6_Node000005_Node000007" class="edge">
<title>Node5&#45;&gt;Node7</title>
<g id="a_edge6_Node000005_Node000007"><a xlink:title=" ">
<path fill="none" stroke="#63b8ff" d="M265,-149.08C265,-121.5 265,-84.14 265,-59.81"/>
<polygon fill="none" stroke="#63b8ff" points="261.5,-148.72 265,-158.72 268.5,-148.72 261.5,-148.72"/>
</a>
</g>
</g>
<!-- Node8 -->
<g id="Node000008" class="node">
<title>Node8</title>
<g id="a_Node000008"><a xlink:href="class_code_smile_1_1_statemachine_1_1_services_1_1_relay_1_1_actions_1_1_relay_create_or_join_allocation.html" target="_top" xlink:title=" ">
<polygon fill="white" stroke="none" points="473.5,-68 326.5,-68 326.5,0 473.5,0 473.5,-68"/>
<text text-anchor="start" x="338.12" y="-54.5" font-family="Helvetica,sans-Serif" font-size="10.00">RelayCreateOrJoinAllocation</text>
<text text-anchor="start" x="398.5" y="-38.5" font-family="Helvetica,sans-Serif" font-size="10.00"> </text>
<text text-anchor="start" x="330.5" y="-22.5" font-family="Helvetica,sans-Serif" font-size="10.00">+</text>
<text text-anchor="start" x="340.5" y="-22.5" font-family="Helvetica,sans-Serif" font-size="10.00">RelayCreateOrJoinAllocation()</text>
<text text-anchor="start" x="330.5" y="-6.5" font-family="Helvetica,sans-Serif" font-size="10.00">+</text>
<text text-anchor="start" x="340.5" y="-6.5" font-family="Helvetica,sans-Serif" font-size="10.00">ExecuteAsync()</text>
<polygon fill="#bfbfbf" stroke="#bfbfbf" points="326.5,-50 326.5,-50 473.5,-50 473.5,-50 326.5,-50"/>
<polygon fill="#bfbfbf" stroke="#bfbfbf" points="326.5,-34 326.5,-34 473.5,-34 473.5,-34 326.5,-34"/>
<polygon fill="none" stroke="#bfbfbf" points="326.5,0 326.5,-68 473.5,-68 473.5,0 326.5,0"/>
</a>
</g>
</g>
<!-- Node5&#45;&gt;Node8 -->
<g id="edge7_Node000005_Node000008" class="edge">
<title>Node5&#45;&gt;Node8</title>
<g id="a_edge7_Node000005_Node000008"><a xlink:title=" ">
<path fill="none" stroke="#63b8ff" d="M284.29,-150.8C293.56,-135.72 305.38,-118.24 318,-104 329.36,-91.19 343.14,-78.68 356.14,-67.9"/>
<polygon fill="none" stroke="#63b8ff" points="281.52,-148.62 279.37,-159 287.52,-152.22 281.52,-148.62"/>
</a>
</g>
</g>
</g>
</svg>
