<?xml version="1.0" encoding="UTF-8" standalone="no"?>
<!DOCTYPE svg PUBLIC "-//W3C//DTD SVG 1.1//EN"
 "http://www.w3.org/Graphics/SVG/1.1/DTD/svg11.dtd">
<!-- Generated by graphviz version 9.0.0 (20230911.1827)
 -->
<!-- Title: IAsyncAction Pages: 1 -->
<svg width="370pt" height="324pt"
 viewBox="0.00 0.00 369.50 324.00" xmlns="http://www.w3.org/2000/svg" xmlns:xlink="http://www.w3.org/1999/xlink">
<g id="graph0" class="graph" transform="scale(1 1) rotate(0) translate(4 320)">
<title>IAsyncAction</title>
<!-- Node1 -->
<g id="Node000001" class="node">
<title>Node1</title>
<g id="a_Node000001"><a xlink:title="Marks a class as an asynchronous (awaitable) FSM Action.">
<polygon fill="#999999" stroke="none" points="188.5,-140 121.5,-140 121.5,-88 188.5,-88 188.5,-140"/>
<text text-anchor="start" x="126.12" y="-126.5" font-family="Helvetica,sans-Serif" font-size="10.00">IAsyncAction</text>
<text text-anchor="start" x="153.5" y="-110.5" font-family="Helvetica,sans-Serif" font-size="10.00"> </text>
<text text-anchor="start" x="153.5" y="-94.5" font-family="Helvetica,sans-Serif" font-size="10.00"> </text>
<polygon fill="#666666" stroke="#666666" points="121.5,-122 121.5,-122 188.5,-122 188.5,-122 121.5,-122"/>
<polygon fill="#666666" stroke="#666666" points="121.5,-106 121.5,-106 188.5,-106 188.5,-106 121.5,-106"/>
<polygon fill="none" stroke="#666666" points="121.5,-88 121.5,-140 188.5,-140 188.5,-88 121.5,-88"/>
</a>
</g>
</g>
<!-- Node4 -->
<g id="Node000004" class="node">
<title>Node4</title>
<g id="a_Node000004"><a xlink:href="class_code_smile_1_1_statemachine_1_1_services_1_1_authentication_1_1_actions_1_1_sign_in_anonymously.html" target="_top" xlink:title="Calls SignInAnonymouslyAsync.">
<polygon fill="white" stroke="none" points="96,-52 0,-52 0,0 96,0 96,-52"/>
<text text-anchor="start" x="4.88" y="-38.5" font-family="Helvetica,sans-Serif" font-size="10.00">SignInAnonymously</text>
<text text-anchor="start" x="46.5" y="-22.5" font-family="Helvetica,sans-Serif" font-size="10.00"> </text>
<text text-anchor="start" x="46.5" y="-6.5" font-family="Helvetica,sans-Serif" font-size="10.00"> </text>
<polygon fill="#666666" stroke="#666666" points="0,-34 0,-34 96,-34 96,-34 0,-34"/>
<polygon fill="#666666" stroke="#666666" points="0,-18 0,-18 96,-18 96,-18 0,-18"/>
<polygon fill="none" stroke="#666666" points="0,0 0,-52 96,-52 96,0 0,0"/>
</a>
</g>
</g>
<!-- Node1&#45;&gt;Node4 -->
<g id="edge3_Node000001_Node000004" class="edge">
<title>Node1&#45;&gt;Node4</title>
<g id="a_edge3_Node000001_Node000004"><a xlink:title=" ">
<path fill="none" stroke="#63b8ff" d="M115.12,-80.95C103.14,-71.32 90.18,-60.91 78.88,-51.82"/>
<polygon fill="none" stroke="#63b8ff" points="112.88,-83.64 122.87,-87.18 117.27,-78.18 112.88,-83.64"/>
</a>
</g>
</g>
<!-- Node5 -->
<g id="Node000005" class="node">
<title>Node5</title>
<g id="a_Node000005"><a xlink:href="class_code_smile_1_1_statemachine_1_1_services_1_1_core_1_1_actions_1_1_unity_services_init.html" target="_top" xlink:title="Initialize Unity Gaming Services. This must be called before any other service call.">
<polygon fill="white" stroke="none" points="196,-52 114,-52 114,0 196,0 196,-52"/>
<text text-anchor="start" x="119" y="-38.5" font-family="Helvetica,sans-Serif" font-size="10.00">UnityServicesInit</text>
<text text-anchor="start" x="153.5" y="-22.5" font-family="Helvetica,sans-Serif" font-size="10.00"> </text>
<text text-anchor="start" x="153.5" y="-6.5" font-family="Helvetica,sans-Serif" font-size="10.00"> </text>
<polygon fill="#666666" stroke="#666666" points="114,-34 114,-34 196,-34 196,-34 114,-34"/>
<polygon fill="#666666" stroke="#666666" points="114,-18 114,-18 196,-18 196,-18 114,-18"/>
<polygon fill="none" stroke="#666666" points="114,0 114,-52 196,-52 196,0 114,0"/>
</a>
</g>
</g>
<!-- Node1&#45;&gt;Node5 -->
<g id="edge4_Node000001_Node000005" class="edge">
<title>Node1&#45;&gt;Node5</title>
<g id="a_edge4_Node000001_Node000005"><a xlink:title=" ">
<path fill="none" stroke="#63b8ff" d="M155,-76.66C155,-68.29 155,-59.57 155,-51.82"/>
<polygon fill="none" stroke="#63b8ff" points="151.5,-76.61 155,-86.61 158.5,-76.61 151.5,-76.61"/>
</a>
</g>
</g>
<!-- Node6 -->
<g id="Node000006" class="node">
<title>Node6</title>
<g id="a_Node000006"><a xlink:href="class_code_smile_1_1_statemachine_1_1_services_1_1_relay_1_1_actions_1_1_relay_create_or_join_allocation.html" target="_top" xlink:title="Initializes Relay. Depending on role (server/host or client) this may create an allocation or will tr...">
<polygon fill="white" stroke="none" points="361.5,-52 214.5,-52 214.5,0 361.5,0 361.5,-52"/>
<text text-anchor="start" x="226.12" y="-38.5" font-family="Helvetica,sans-Serif" font-size="10.00">RelayCreateOrJoinAllocation</text>
<text text-anchor="start" x="286.5" y="-22.5" font-family="Helvetica,sans-Serif" font-size="10.00"> </text>
<text text-anchor="start" x="218.5" y="-6.5" font-family="Helvetica,sans-Serif" font-size="10.00">+</text>
<text text-anchor="start" x="228.5" y="-6.5" font-family="Helvetica,sans-Serif" font-size="10.00">RelayCreateOrJoinAllocation()</text>
<polygon fill="#666666" stroke="#666666" points="214.5,-34 214.5,-34 361.5,-34 361.5,-34 214.5,-34"/>
<polygon fill="#666666" stroke="#666666" points="214.5,-18 214.5,-18 361.5,-18 361.5,-18 214.5,-18"/>
<polygon fill="none" stroke="#666666" points="214.5,0 214.5,-52 361.5,-52 361.5,0 214.5,0"/>
</a>
</g>
</g>
<!-- Node1&#45;&gt;Node6 -->
<g id="edge5_Node000001_Node000006" class="edge">
<title>Node1&#45;&gt;Node6</title>
<g id="a_edge5_Node000001_Node000006"><a xlink:title=" ">
<path fill="none" stroke="#63b8ff" d="M197.72,-85.37C214.38,-74.6 233.33,-62.35 249.55,-51.86"/>
<polygon fill="none" stroke="#63b8ff" points="195.99,-82.33 189.49,-90.7 199.79,-88.21 195.99,-82.33"/>
</a>
</g>
</g>
<!-- Node2 -->
<g id="Node000002" class="node">
<title>Node2</title>
<g id="a_Node000002"><a xlink:href="interface_code_smile_1_1_statemachine_1_1_i_action.html" target="_top" xlink:title="Marks a class as a FSM Action.">
<polygon fill="white" stroke="none" points="175,-228 135,-228 135,-176 175,-176 175,-228"/>
<text text-anchor="start" x="140" y="-214.5" font-family="Helvetica,sans-Serif" font-size="10.00">IAction</text>
<text text-anchor="start" x="153.5" y="-198.5" font-family="Helvetica,sans-Serif" font-size="10.00"> </text>
<text text-anchor="start" x="153.5" y="-182.5" font-family="Helvetica,sans-Serif" font-size="10.00"> </text>
<polygon fill="#666666" stroke="#666666" points="135,-210 135,-210 175,-210 175,-210 135,-210"/>
<polygon fill="#666666" stroke="#666666" points="135,-194 135,-194 175,-194 175,-194 135,-194"/>
<polygon fill="none" stroke="#666666" points="135,-176 135,-228 175,-228 175,-176 135,-176"/>
</a>
</g>
</g>
<!-- Node2&#45;&gt;Node1 -->
<g id="edge1_Node000001_Node000002" class="edge">
<title>Node2&#45;&gt;Node1</title>
<g id="a_edge1_Node000001_Node000002"><a xlink:title=" ">
<path fill="none" stroke="#63b8ff" d="M155,-164.66C155,-156.29 155,-147.57 155,-139.82"/>
<polygon fill="none" stroke="#63b8ff" points="151.5,-164.61 155,-174.61 158.5,-164.61 151.5,-164.61"/>
</a>
</g>
</g>
<!-- Node3 -->
<g id="Node000003" class="node">
<title>Node3</title>
<g id="a_Node000003"><a xlink:href="interface_code_smile_1_1_statemachine_1_1_i_statemachine_events.html" target="_top" xlink:title="Event methods that the Statemachine calls at specific times.">
<polygon fill="white" stroke="none" points="205.5,-316 104.5,-316 104.5,-264 205.5,-264 205.5,-316"/>
<text text-anchor="start" x="109.25" y="-302.5" font-family="Helvetica,sans-Serif" font-size="10.00">IStatemachineEvents</text>
<text text-anchor="start" x="153.5" y="-286.5" font-family="Helvetica,sans-Serif" font-size="10.00"> </text>
<text text-anchor="start" x="153.5" y="-270.5" font-family="Helvetica,sans-Serif" font-size="10.00"> </text>
<polygon fill="#666666" stroke="#666666" points="104.5,-298 104.5,-298 205.5,-298 205.5,-298 104.5,-298"/>
<polygon fill="#666666" stroke="#666666" points="104.5,-282 104.5,-282 205.5,-282 205.5,-282 104.5,-282"/>
<polygon fill="none" stroke="#666666" points="104.5,-264 104.5,-316 205.5,-316 205.5,-264 104.5,-264"/>
</a>
</g>
</g>
<!-- Node3&#45;&gt;Node2 -->
<g id="edge2_Node000002_Node000003" class="edge">
<title>Node3&#45;&gt;Node2</title>
<g id="a_edge2_Node000002_Node000003"><a xlink:title=" ">
<path fill="none" stroke="#63b8ff" d="M155,-252.66C155,-244.29 155,-235.57 155,-227.82"/>
<polygon fill="none" stroke="#63b8ff" points="151.5,-252.61 155,-262.61 158.5,-252.61 151.5,-252.61"/>
</a>
</g>
</g>
</g>
</svg>
