<?xml version="1.0" encoding="UTF-8" standalone="no"?>
<!DOCTYPE svg PUBLIC "-//W3C//DTD SVG 1.1//EN"
 "http://www.w3.org/Graphics/SVG/1.1/DTD/svg11.dtd">
<!-- Generated by graphviz version 9.0.0 (20230911.1827)
 -->
<!-- Title: NetcodeConfig Pages: 1 -->
<svg width="98pt" height="92pt"
 viewBox="0.00 0.00 98.00 92.00" xmlns="http://www.w3.org/2000/svg" xmlns:xlink="http://www.w3.org/1999/xlink">
<g id="graph0" class="graph" transform="scale(1 1) rotate(0) translate(4 88)">
<title>NetcodeConfig</title>
<!-- Node1 -->
<g id="Node000001" class="node">
<title>Node1</title>
<g id="a_Node000001"><a xlink:title=" ">
<polygon fill="#999999" stroke="none" points="90,-84 0,-84 0,0 90,0 90,-84"/>
<text text-anchor="start" x="13.5" y="-70.5" font-family="Helvetica,sans-Serif" font-size="10.00">NetcodeConfig</text>
<text text-anchor="start" x="4" y="-54.5" font-family="Helvetica,sans-Serif" font-size="10.00">+</text>
<text text-anchor="start" x="14" y="-54.5" font-family="Helvetica,sans-Serif" font-size="10.00">MaxConnections</text>
<text text-anchor="start" x="4" y="-38.5" font-family="Helvetica,sans-Serif" font-size="10.00">+</text>
<text text-anchor="start" x="14" y="-38.5" font-family="Helvetica,sans-Serif" font-size="10.00">Role</text>
<text text-anchor="start" x="4" y="-22.5" font-family="Helvetica,sans-Serif" font-size="10.00">+</text>
<text text-anchor="start" x="14" y="-22.5" font-family="Helvetica,sans-Serif" font-size="10.00">ToString()</text>
<text text-anchor="start" x="4" y="-6.5" font-family="Helvetica,sans-Serif" font-size="10.00">+</text>
<text text-anchor="start" x="14" y="-6.5" font-family="Helvetica,sans-Serif" font-size="10.00">FromCmdArgs()</text>
<polygon fill="#666666" stroke="#666666" points="0,-66 0,-66 90,-66 90,-66 0,-66"/>
<polygon fill="#666666" stroke="#666666" points="0,-34 0,-34 12,-34 12,-34 0,-34"/>
<polygon fill="#666666" stroke="#666666" points="12,-34 12,-34 90,-34 90,-34 12,-34"/>
<polygon fill="none" stroke="#666666" points="0,0 0,-84 90,-84 90,0 0,0"/>
</a>
</g>
</g>
</g>
</svg>
