<?xml version="1.0" encoding="UTF-8" standalone="no"?>
<!DOCTYPE svg PUBLIC "-//W3C//DTD SVG 1.1//EN"
 "http://www.w3.org/Graphics/SVG/1.1/DTD/svg11.dtd">
<!-- Generated by graphviz version 9.0.0 (20230911.1827)
 -->
<!-- Title: GeneratedInput.PlayerKinematicsActions Pages: 1 -->
<svg width="163pt" height="264pt"
 viewBox="0.00 0.00 163.00 264.00" xmlns="http://www.w3.org/2000/svg" xmlns:xlink="http://www.w3.org/1999/xlink">
<g id="graph0" class="graph" transform="scale(1 1) rotate(0) translate(4 260)">
<title>GeneratedInput.PlayerKinematicsActions</title>
<!-- Node1 -->
<g id="Node000001" class="node">
<title>Node1</title>
<g id="a_Node000001"><a xlink:title=" ">
<polygon fill="#999999" stroke="none" points="155,-256 0,-256 0,0 155,0 155,-256"/>
<text text-anchor="start" x="4.75" y="-242.5" font-family="Helvetica,sans-Serif" font-size="10.00">GeneratedInput.PlayerKinematics</text>
<text text-anchor="start" x="61" y="-230.5" font-family="Helvetica,sans-Serif" font-size="10.00">Actions</text>
<text text-anchor="start" x="9.5" y="-214.5" font-family="Helvetica,sans-Serif" font-size="10.00">+</text>
<text text-anchor="start" x="25" y="-214.5" font-family="Helvetica,sans-Serif" font-size="10.00">Crouch</text>
<text text-anchor="start" x="9.5" y="-198.5" font-family="Helvetica,sans-Serif" font-size="10.00">+</text>
<text text-anchor="start" x="25" y="-198.5" font-family="Helvetica,sans-Serif" font-size="10.00">enabled</text>
<text text-anchor="start" x="9.5" y="-182.5" font-family="Helvetica,sans-Serif" font-size="10.00">+</text>
<text text-anchor="start" x="25" y="-182.5" font-family="Helvetica,sans-Serif" font-size="10.00">Jump</text>
<text text-anchor="start" x="9.5" y="-166.5" font-family="Helvetica,sans-Serif" font-size="10.00">+</text>
<text text-anchor="start" x="25" y="-166.5" font-family="Helvetica,sans-Serif" font-size="10.00">Look</text>
<text text-anchor="start" x="9.5" y="-150.5" font-family="Helvetica,sans-Serif" font-size="10.00">+</text>
<text text-anchor="start" x="25" y="-150.5" font-family="Helvetica,sans-Serif" font-size="10.00">Move</text>
<text text-anchor="start" x="9.5" y="-134.5" font-family="Helvetica,sans-Serif" font-size="10.00">+</text>
<text text-anchor="start" x="25" y="-134.5" font-family="Helvetica,sans-Serif" font-size="10.00">Sprint</text>
<text text-anchor="start" x="9.5" y="-118.5" font-family="Helvetica,sans-Serif" font-size="10.00">+</text>
<text text-anchor="start" x="25" y="-118.5" font-family="Helvetica,sans-Serif" font-size="10.00">PlayerKinematicsActions()</text>
<text text-anchor="start" x="9.5" y="-102.5" font-family="Helvetica,sans-Serif" font-size="10.00">+</text>
<text text-anchor="start" x="25" y="-102.5" font-family="Helvetica,sans-Serif" font-size="10.00">AddCallbacks()</text>
<text text-anchor="start" x="9.5" y="-86.5" font-family="Helvetica,sans-Serif" font-size="10.00">+</text>
<text text-anchor="start" x="25" y="-86.5" font-family="Helvetica,sans-Serif" font-size="10.00">Disable()</text>
<text text-anchor="start" x="9.5" y="-70.5" font-family="Helvetica,sans-Serif" font-size="10.00">+</text>
<text text-anchor="start" x="25" y="-70.5" font-family="Helvetica,sans-Serif" font-size="10.00">Enable()</text>
<text text-anchor="start" x="9.5" y="-54.5" font-family="Helvetica,sans-Serif" font-size="10.00">+</text>
<text text-anchor="start" x="25" y="-54.5" font-family="Helvetica,sans-Serif" font-size="10.00">Get()</text>
<text text-anchor="start" x="9.5" y="-38.5" font-family="Helvetica,sans-Serif" font-size="10.00">+</text>
<text text-anchor="start" x="25" y="-38.5" font-family="Helvetica,sans-Serif" font-size="10.00">RemoveCallbacks()</text>
<text text-anchor="start" x="9.5" y="-22.5" font-family="Helvetica,sans-Serif" font-size="10.00">+</text>
<text text-anchor="start" x="25" y="-22.5" font-family="Helvetica,sans-Serif" font-size="10.00">SetCallbacks()</text>
<text text-anchor="start" x="9.5" y="-6.5" font-family="Helvetica,sans-Serif" font-size="10.00">+</text>
<text text-anchor="start" x="25" y="-6.5" font-family="Helvetica,sans-Serif" font-size="10.00">operator InputActionMap()</text>
<polygon fill="#666666" stroke="#666666" points="0,-226 0,-226 155,-226 155,-226 0,-226"/>
<polygon fill="#666666" stroke="#666666" points="0,-130 0,-130 23,-130 23,-130 0,-130"/>
<polygon fill="#666666" stroke="#666666" points="23,-130 23,-130 155,-130 155,-130 23,-130"/>
<polygon fill="none" stroke="#666666" points="0,0 0,-256 155,-256 155,0 0,0"/>
</a>
</g>
</g>
</g>
</svg>
