<?xml version="1.0" encoding="UTF-8" standalone="no"?>
<!DOCTYPE svg PUBLIC "-//W3C//DTD SVG 1.1//EN"
 "http://www.w3.org/Graphics/SVG/1.1/DTD/svg11.dtd">
<!-- Generated by graphviz version 9.0.0 (20230911.1827)
 -->
<!-- Title: FSM.StateChangeEventArgs Pages: 1 -->
<svg width="269pt" height="693pt"
 viewBox="0.00 0.00 268.50 693.00" xmlns="http://www.w3.org/2000/svg" xmlns:xlink="http://www.w3.org/1999/xlink">
<g id="graph0" class="graph" transform="scale(1 1) rotate(0) translate(4 689)">
<title>FSM.StateChangeEventArgs</title>
<!-- Node1 -->
<g id="Node000001" class="node">
<title>Node1</title>
<g id="a_Node000001"><a xlink:title="Sent with state change event.">
<polygon fill="#999999" stroke="none" points="199,-52 65,-52 65,0 199,0 199,-52"/>
<text text-anchor="start" x="69.75" y="-38.5" font-family="Helvetica,sans-Serif" font-size="10.00">FSM.StateChangeEventArgs</text>
<text text-anchor="start" x="130.5" y="-22.5" font-family="Helvetica,sans-Serif" font-size="10.00"> </text>
<text text-anchor="start" x="130.5" y="-6.5" font-family="Helvetica,sans-Serif" font-size="10.00"> </text>
<polygon fill="#666666" stroke="#666666" points="65,-34 65,-34 199,-34 199,-34 65,-34"/>
<polygon fill="#666666" stroke="#666666" points="65,-18 65,-18 199,-18 199,-18 65,-18"/>
<polygon fill="none" stroke="#666666" points="65,0 65,-52 199,-52 199,0 65,0"/>
</a>
</g>
</g>
<!-- Node2 -->
<g id="Node000002" class="node">
<title>Node2</title>
<g id="a_Node000002"><a xlink:href="class_code_smile_1_1_statemachine_1_1_f_s_m.html" target="_top" xlink:title="Represents a finite&#45;statemachine with a set of local and global variables indexed by name.">
<polygon fill="white" stroke="none" points="150,-596 0,-596 0,-112 150,-112 150,-596"/>
<text text-anchor="start" x="64.5" y="-582.5" font-family="Helvetica,sans-Serif" font-size="10.00">FSM</text>
<text text-anchor="start" x="4" y="-566.5" font-family="Helvetica,sans-Serif" font-size="10.00">+</text>
<text text-anchor="start" x="14" y="-566.5" font-family="Helvetica,sans-Serif" font-size="10.00">ActiveState</text>
<text text-anchor="start" x="4" y="-550.5" font-family="Helvetica,sans-Serif" font-size="10.00">+</text>
<text text-anchor="start" x="14" y="-550.5" font-family="Helvetica,sans-Serif" font-size="10.00">ActiveStateIndex</text>
<text text-anchor="start" x="4" y="-534.5" font-family="Helvetica,sans-Serif" font-size="10.00">+</text>
<text text-anchor="start" x="14" y="-534.5" font-family="Helvetica,sans-Serif" font-size="10.00">AllowMultipleStateChanges</text>
<text text-anchor="start" x="4" y="-518.5" font-family="Helvetica,sans-Serif" font-size="10.00">+</text>
<text text-anchor="start" x="14" y="-518.5" font-family="Helvetica,sans-Serif" font-size="10.00">DidChangeState</text>
<text text-anchor="start" x="4" y="-502.5" font-family="Helvetica,sans-Serif" font-size="10.00">+</text>
<text text-anchor="start" x="14" y="-502.5" font-family="Helvetica,sans-Serif" font-size="10.00">IsStarted</text>
<text text-anchor="start" x="4" y="-486.5" font-family="Helvetica,sans-Serif" font-size="10.00">+</text>
<text text-anchor="start" x="14" y="-486.5" font-family="Helvetica,sans-Serif" font-size="10.00">IsStopped</text>
<text text-anchor="start" x="4" y="-470.5" font-family="Helvetica,sans-Serif" font-size="10.00">+</text>
<text text-anchor="start" x="14" y="-470.5" font-family="Helvetica,sans-Serif" font-size="10.00">Logging</text>
<text text-anchor="start" x="4" y="-454.5" font-family="Helvetica,sans-Serif" font-size="10.00">+</text>
<text text-anchor="start" x="14" y="-454.5" font-family="Helvetica,sans-Serif" font-size="10.00">MaxStateChangesPerEvaluate</text>
<text text-anchor="start" x="4" y="-438.5" font-family="Helvetica,sans-Serif" font-size="10.00">+</text>
<text text-anchor="start" x="14" y="-438.5" font-family="Helvetica,sans-Serif" font-size="10.00">Name</text>
<text text-anchor="start" x="4" y="-422.5" font-family="Helvetica,sans-Serif" font-size="10.00">+</text>
<text text-anchor="start" x="14" y="-422.5" font-family="Helvetica,sans-Serif" font-size="10.00">States</text>
<text text-anchor="start" x="4" y="-406.5" font-family="Helvetica,sans-Serif" font-size="10.00">+</text>
<text text-anchor="start" x="14" y="-406.5" font-family="Helvetica,sans-Serif" font-size="10.00">StaticVars</text>
<text text-anchor="start" x="4" y="-390.5" font-family="Helvetica,sans-Serif" font-size="10.00">+</text>
<text text-anchor="start" x="14" y="-390.5" font-family="Helvetica,sans-Serif" font-size="10.00">Vars</text>
<text text-anchor="start" x="4" y="-374.5" font-family="Helvetica,sans-Serif" font-size="10.00">+</text>
<text text-anchor="start" x="14" y="-374.5" font-family="Helvetica,sans-Serif" font-size="10.00">FSM()</text>
<text text-anchor="start" x="4" y="-358.5" font-family="Helvetica,sans-Serif" font-size="10.00">+</text>
<text text-anchor="start" x="14" y="-358.5" font-family="Helvetica,sans-Serif" font-size="10.00">Start()</text>
<text text-anchor="start" x="4" y="-342.5" font-family="Helvetica,sans-Serif" font-size="10.00">+</text>
<text text-anchor="start" x="14" y="-342.5" font-family="Helvetica,sans-Serif" font-size="10.00">Update()</text>
<text text-anchor="start" x="4" y="-326.5" font-family="Helvetica,sans-Serif" font-size="10.00">+</text>
<text text-anchor="start" x="14" y="-326.5" font-family="Helvetica,sans-Serif" font-size="10.00">WithStates()</text>
<text text-anchor="start" x="4" y="-310.5" font-family="Helvetica,sans-Serif" font-size="10.00">+</text>
<text text-anchor="start" x="14" y="-310.5" font-family="Helvetica,sans-Serif" font-size="10.00">WithStates()</text>
<text text-anchor="start" x="4" y="-294.5" font-family="Helvetica,sans-Serif" font-size="10.00">+</text>
<text text-anchor="start" x="14" y="-294.5" font-family="Helvetica,sans-Serif" font-size="10.00">Action()</text>
<text text-anchor="start" x="4" y="-278.5" font-family="Helvetica,sans-Serif" font-size="10.00">+</text>
<text text-anchor="start" x="14" y="-278.5" font-family="Helvetica,sans-Serif" font-size="10.00">AND()</text>
<text text-anchor="start" x="4" y="-262.5" font-family="Helvetica,sans-Serif" font-size="10.00">+</text>
<text text-anchor="start" x="14" y="-262.5" font-family="Helvetica,sans-Serif" font-size="10.00">Condition()</text>
<text text-anchor="start" x="4" y="-246.5" font-family="Helvetica,sans-Serif" font-size="10.00">+</text>
<text text-anchor="start" x="14" y="-246.5" font-family="Helvetica,sans-Serif" font-size="10.00">CreateState()</text>
<text text-anchor="start" x="4" y="-230.5" font-family="Helvetica,sans-Serif" font-size="10.00">+</text>
<text text-anchor="start" x="14" y="-230.5" font-family="Helvetica,sans-Serif" font-size="10.00">CreateStates()</text>
<text text-anchor="start" x="4" y="-214.5" font-family="Helvetica,sans-Serif" font-size="10.00">+</text>
<text text-anchor="start" x="14" y="-214.5" font-family="Helvetica,sans-Serif" font-size="10.00">CreateTransition()</text>
<text text-anchor="start" x="4" y="-198.5" font-family="Helvetica,sans-Serif" font-size="10.00">+</text>
<text text-anchor="start" x="14" y="-198.5" font-family="Helvetica,sans-Serif" font-size="10.00">CreateTransition()</text>
<text text-anchor="start" x="4" y="-182.5" font-family="Helvetica,sans-Serif" font-size="10.00">+</text>
<text text-anchor="start" x="14" y="-182.5" font-family="Helvetica,sans-Serif" font-size="10.00">NAND()</text>
<text text-anchor="start" x="4" y="-166.5" font-family="Helvetica,sans-Serif" font-size="10.00">+</text>
<text text-anchor="start" x="14" y="-166.5" font-family="Helvetica,sans-Serif" font-size="10.00">NOR()</text>
<text text-anchor="start" x="4" y="-150.5" font-family="Helvetica,sans-Serif" font-size="10.00">+</text>
<text text-anchor="start" x="14" y="-150.5" font-family="Helvetica,sans-Serif" font-size="10.00">NOT()</text>
<text text-anchor="start" x="4" y="-134.5" font-family="Helvetica,sans-Serif" font-size="10.00">+</text>
<text text-anchor="start" x="14" y="-134.5" font-family="Helvetica,sans-Serif" font-size="10.00">OR()</text>
<text text-anchor="start" x="4" y="-118.5" font-family="Helvetica,sans-Serif" font-size="10.00">~</text>
<text text-anchor="start" x="14" y="-118.5" font-family="Helvetica,sans-Serif" font-size="10.00">SetActiveState()</text>
<polygon fill="#666666" stroke="#666666" points="0,-578 0,-578 150,-578 150,-578 0,-578"/>
<polygon fill="#666666" stroke="#666666" points="0,-386 0,-386 12,-386 12,-386 0,-386"/>
<polygon fill="#666666" stroke="#666666" points="12,-386 12,-386 150,-386 150,-386 12,-386"/>
<polygon fill="none" stroke="#666666" points="0,-112 0,-596 150,-596 150,-112 0,-112"/>
</a>
</g>
</g>
<!-- Node2&#45;&gt;Node1 -->
<g id="edge1_Node000001_Node000002" class="edge">
<title>Node2&#45;&gt;Node1</title>
<g id="a_edge1_Node000001_Node000002"><a xlink:title=" ">
<path fill="none" stroke="#63b8ff" d="M84.64,-112.18C88.27,-97.7 92.67,-83.53 98,-70 98.98,-67.51 100.16,-65.05 101.47,-62.64"/>
<polygon fill="none" stroke="#63b8ff" points="101.45,-62.67 101.34,-55.46 107.96,-52.59 108.07,-59.8 101.45,-62.67"/>
</a>
</g>
<text text-anchor="middle" x="132.5" y="-78.5" font-family="Helvetica,sans-Serif" font-size="10.00" fill="grey"> +Statemachine</text>
</g>
<!-- Node3 -->
<g id="Node000003" class="node">
<title>Node3</title>
<g id="a_Node000003"><a xlink:href="class_code_smile_1_1_statemachine_1_1_f_s_m_1_1_state.html" target="_top" xlink:title="Represents a state in a statemachine.">
<polygon fill="white" stroke="none" points="256,-444 168,-444 168,-264 256,-264 256,-444"/>
<text text-anchor="start" x="188.38" y="-430.5" font-family="Helvetica,sans-Serif" font-size="10.00">FSM.State</text>
<text text-anchor="start" x="172" y="-414.5" font-family="Helvetica,sans-Serif" font-size="10.00">+</text>
<text text-anchor="start" x="182" y="-414.5" font-family="Helvetica,sans-Serif" font-size="10.00">Logging</text>
<text text-anchor="start" x="172" y="-398.5" font-family="Helvetica,sans-Serif" font-size="10.00">+</text>
<text text-anchor="start" x="182" y="-398.5" font-family="Helvetica,sans-Serif" font-size="10.00">Name</text>
<text text-anchor="start" x="172" y="-382.5" font-family="Helvetica,sans-Serif" font-size="10.00">+</text>
<text text-anchor="start" x="182" y="-382.5" font-family="Helvetica,sans-Serif" font-size="10.00">Transitions</text>
<text text-anchor="start" x="172" y="-366.5" font-family="Helvetica,sans-Serif" font-size="10.00">+</text>
<text text-anchor="start" x="182" y="-366.5" font-family="Helvetica,sans-Serif" font-size="10.00">State()</text>
<text text-anchor="start" x="172" y="-350.5" font-family="Helvetica,sans-Serif" font-size="10.00">+</text>
<text text-anchor="start" x="182" y="-350.5" font-family="Helvetica,sans-Serif" font-size="10.00">AddTransition()</text>
<text text-anchor="start" x="172" y="-334.5" font-family="Helvetica,sans-Serif" font-size="10.00">+</text>
<text text-anchor="start" x="182" y="-334.5" font-family="Helvetica,sans-Serif" font-size="10.00">AddTransition()</text>
<text text-anchor="start" x="172" y="-318.5" font-family="Helvetica,sans-Serif" font-size="10.00">+</text>
<text text-anchor="start" x="182" y="-318.5" font-family="Helvetica,sans-Serif" font-size="10.00">AddTransition()</text>
<text text-anchor="start" x="172" y="-302.5" font-family="Helvetica,sans-Serif" font-size="10.00">+</text>
<text text-anchor="start" x="182" y="-302.5" font-family="Helvetica,sans-Serif" font-size="10.00">AddTransitions()</text>
<text text-anchor="start" x="172" y="-286.5" font-family="Helvetica,sans-Serif" font-size="10.00">+</text>
<text text-anchor="start" x="182" y="-286.5" font-family="Helvetica,sans-Serif" font-size="10.00">IsFinalState()</text>
<text text-anchor="start" x="172" y="-270.5" font-family="Helvetica,sans-Serif" font-size="10.00">+</text>
<text text-anchor="start" x="182" y="-270.5" font-family="Helvetica,sans-Serif" font-size="10.00">Update()</text>
<polygon fill="#666666" stroke="#666666" points="168,-426 168,-426 256,-426 256,-426 168,-426"/>
<polygon fill="#666666" stroke="#666666" points="168,-378 168,-378 180,-378 180,-378 168,-378"/>
<polygon fill="#666666" stroke="#666666" points="180,-378 180,-378 256,-378 256,-378 180,-378"/>
<polygon fill="none" stroke="#666666" points="168,-264 168,-444 256,-444 256,-264 168,-264"/>
</a>
</g>
</g>
<!-- Node3&#45;&gt;Node1 -->
<g id="edge2_Node000001_Node000003" class="edge">
<title>Node3&#45;&gt;Node1</title>
<g id="a_edge2_Node000001_Node000003"><a xlink:title=" ">
<path fill="none" stroke="#63b8ff" d="M209.72,-264.19C205.43,-206.66 194.41,-131.31 167,-70 165.9,-67.53 164.61,-65.08 163.2,-62.68"/>
<polygon fill="none" stroke="#63b8ff" points="163.12,-62.57 156.44,-59.86 156.37,-52.65 163.06,-55.36 163.12,-62.57"/>
</a>
</g>
<text text-anchor="middle" x="208" y="-84.5" font-family="Helvetica,sans-Serif" font-size="10.00" fill="grey"> +ActiveState</text>
<text text-anchor="middle" x="208" y="-72.5" font-family="Helvetica,sans-Serif" font-size="10.00" fill="grey">+PreviousState</text>
</g>
<!-- Node4 -->
<g id="Node000004" class="node">
<title>Node4</title>
<g id="a_Node000004"><a xlink:title=" ">
<polygon fill="white" stroke="none" points="260.5,-685 163.5,-685 163.5,-633 260.5,-633 260.5,-685"/>
<text text-anchor="start" x="168.5" y="-671.5" font-family="Helvetica,sans-Serif" font-size="10.00">IEquatable&lt; State &gt;</text>
<text text-anchor="start" x="210.5" y="-655.5" font-family="Helvetica,sans-Serif" font-size="10.00"> </text>
<text text-anchor="start" x="210.5" y="-639.5" font-family="Helvetica,sans-Serif" font-size="10.00"> </text>
<polygon fill="#bfbfbf" stroke="#bfbfbf" points="163.5,-667 163.5,-667 260.5,-667 260.5,-667 163.5,-667"/>
<polygon fill="#bfbfbf" stroke="#bfbfbf" points="163.5,-651 163.5,-651 260.5,-651 260.5,-651 163.5,-651"/>
<polygon fill="none" stroke="#bfbfbf" points="163.5,-633 163.5,-685 260.5,-685 260.5,-633 163.5,-633"/>
</a>
</g>
</g>
<!-- Node4&#45;&gt;Node3 -->
<g id="edge3_Node000003_Node000004" class="edge">
<title>Node4&#45;&gt;Node3</title>
<g id="a_edge3_Node000003_Node000004"><a xlink:title=" ">
<path fill="none" stroke="#63b8ff" d="M212,-621.75C212,-578.06 212,-503.12 212,-443.77"/>
<polygon fill="none" stroke="#63b8ff" points="208.5,-621.69 212,-631.69 215.5,-621.69 208.5,-621.69"/>
</a>
</g>
</g>
</g>
</svg>
