<?xml version="1.0" encoding="UTF-8" standalone="no"?>
<!DOCTYPE svg PUBLIC "-//W3C//DTD SVG 1.1//EN"
 "http://www.w3.org/Graphics/SVG/1.1/DTD/svg11.dtd">
<!-- Generated by graphviz version 9.0.0 (20230911.1827)
 -->
<!-- Title: SimplePlayerController Pages: 1 -->
<svg width="378pt" height="764pt"
 viewBox="0.00 0.00 378.00 764.00" xmlns="http://www.w3.org/2000/svg" xmlns:xlink="http://www.w3.org/1999/xlink">
<g id="graph0" class="graph" transform="scale(1 1) rotate(0) translate(4 760)">
<title>SimplePlayerController</title>
<!-- Node1 -->
<g id="Node000001" class="node">
<title>Node1</title>
<g id="a_Node000001"><a xlink:title=" ">
<polygon fill="#999999" stroke="none" points="209.5,-132 100.5,-132 100.5,0 209.5,0 209.5,-132"/>
<text text-anchor="start" x="105.5" y="-118.5" font-family="Helvetica,sans-Serif" font-size="10.00">SimplePlayerController</text>
<text text-anchor="start" x="153.5" y="-102.5" font-family="Helvetica,sans-Serif" font-size="10.00"> </text>
<text text-anchor="start" x="115" y="-86.5" font-family="Helvetica,sans-Serif" font-size="10.00">+</text>
<text text-anchor="start" x="135.5" y="-86.5" font-family="Helvetica,sans-Serif" font-size="10.00">OnCrouch()</text>
<text text-anchor="start" x="115" y="-70.5" font-family="Helvetica,sans-Serif" font-size="10.00">+</text>
<text text-anchor="start" x="135.5" y="-70.5" font-family="Helvetica,sans-Serif" font-size="10.00">OnJump()</text>
<text text-anchor="start" x="115" y="-54.5" font-family="Helvetica,sans-Serif" font-size="10.00">+</text>
<text text-anchor="start" x="135.5" y="-54.5" font-family="Helvetica,sans-Serif" font-size="10.00">OnLook()</text>
<text text-anchor="start" x="115" y="-38.5" font-family="Helvetica,sans-Serif" font-size="10.00">+</text>
<text text-anchor="start" x="135.5" y="-38.5" font-family="Helvetica,sans-Serif" font-size="10.00">OnMove()</text>
<text text-anchor="start" x="115" y="-22.5" font-family="Helvetica,sans-Serif" font-size="10.00">+</text>
<text text-anchor="start" x="135.5" y="-22.5" font-family="Helvetica,sans-Serif" font-size="10.00">OnSprint()</text>
<text text-anchor="start" x="115.38" y="-6.5" font-family="Helvetica,sans-Serif" font-size="10.00">#</text>
<text text-anchor="start" x="135.5" y="-6.5" font-family="Helvetica,sans-Serif" font-size="10.00">OnEnable()</text>
<polygon fill="#666666" stroke="#666666" points="100.5,-114 100.5,-114 209.5,-114 209.5,-114 100.5,-114"/>
<polygon fill="#666666" stroke="#666666" points="100.5,-98 100.5,-98 209.5,-98 209.5,-98 100.5,-98"/>
<polygon fill="none" stroke="#666666" points="100.5,0 100.5,-132 209.5,-132 209.5,0 100.5,0"/>
</a>
</g>
</g>
<!-- Node2 -->
<g id="Node000002" class="node">
<title>Node2</title>
<g id="a_Node000002"><a xlink:href="class_code_smile_1_1_multi_pal_1_1_player_controller_1_1_player_controller_base.html" target="_top" xlink:title=" ">
<polygon fill="white" stroke="none" points="208.5,-604 101.5,-604 101.5,-168 208.5,-168 208.5,-604"/>
<text text-anchor="start" x="109.25" y="-590.5" font-family="Helvetica,sans-Serif" font-size="10.00">PlayerControllerBase</text>
<text text-anchor="start" x="105.5" y="-574.5" font-family="Helvetica,sans-Serif" font-size="10.00">+</text>
<text text-anchor="start" x="115.5" y="-574.5" font-family="Helvetica,sans-Serif" font-size="10.00">AnimatorParameters</text>
<text text-anchor="start" x="105.5" y="-558.5" font-family="Helvetica,sans-Serif" font-size="10.00">+</text>
<text text-anchor="start" x="115.5" y="-558.5" font-family="Helvetica,sans-Serif" font-size="10.00">CameraTarget</text>
<text text-anchor="start" x="105.5" y="-542.5" font-family="Helvetica,sans-Serif" font-size="10.00">+</text>
<text text-anchor="start" x="115.5" y="-542.5" font-family="Helvetica,sans-Serif" font-size="10.00">CharController</text>
<text text-anchor="start" x="105.5" y="-526.5" font-family="Helvetica,sans-Serif" font-size="10.00">+</text>
<text text-anchor="start" x="115.5" y="-526.5" font-family="Helvetica,sans-Serif" font-size="10.00">DefaultPan</text>
<text text-anchor="start" x="105.5" y="-510.5" font-family="Helvetica,sans-Serif" font-size="10.00">+</text>
<text text-anchor="start" x="115.5" y="-510.5" font-family="Helvetica,sans-Serif" font-size="10.00">DefaultRoll</text>
<text text-anchor="start" x="105.5" y="-494.5" font-family="Helvetica,sans-Serif" font-size="10.00">+</text>
<text text-anchor="start" x="115.5" y="-494.5" font-family="Helvetica,sans-Serif" font-size="10.00">DefaultTilt</text>
<text text-anchor="start" x="105.5" y="-478.5" font-family="Helvetica,sans-Serif" font-size="10.00">+</text>
<text text-anchor="start" x="115.5" y="-478.5" font-family="Helvetica,sans-Serif" font-size="10.00">LookSensitivity</text>
<text text-anchor="start" x="105.5" y="-462.5" font-family="Helvetica,sans-Serif" font-size="10.00">+</text>
<text text-anchor="start" x="115.5" y="-462.5" font-family="Helvetica,sans-Serif" font-size="10.00">MotionTarget</text>
<text text-anchor="start" x="105.5" y="-446.5" font-family="Helvetica,sans-Serif" font-size="10.00">+</text>
<text text-anchor="start" x="115.5" y="-446.5" font-family="Helvetica,sans-Serif" font-size="10.00">MoveSensitivity</text>
<text text-anchor="start" x="105.5" y="-430.5" font-family="Helvetica,sans-Serif" font-size="10.00">+</text>
<text text-anchor="start" x="115.5" y="-430.5" font-family="Helvetica,sans-Serif" font-size="10.00">PlayerIndex</text>
<text text-anchor="start" x="105.5" y="-414.5" font-family="Helvetica,sans-Serif" font-size="10.00">+</text>
<text text-anchor="start" x="115.5" y="-414.5" font-family="Helvetica,sans-Serif" font-size="10.00">Velocity</text>
<text text-anchor="start" x="105.88" y="-398.5" font-family="Helvetica,sans-Serif" font-size="10.00">#</text>
<text text-anchor="start" x="115.5" y="-398.5" font-family="Helvetica,sans-Serif" font-size="10.00">m_Forward</text>
<text text-anchor="start" x="105.88" y="-382.5" font-family="Helvetica,sans-Serif" font-size="10.00">#</text>
<text text-anchor="start" x="115.5" y="-382.5" font-family="Helvetica,sans-Serif" font-size="10.00">m_Pan</text>
<text text-anchor="start" x="105.88" y="-366.5" font-family="Helvetica,sans-Serif" font-size="10.00">#</text>
<text text-anchor="start" x="115.5" y="-366.5" font-family="Helvetica,sans-Serif" font-size="10.00">m_Roll</text>
<text text-anchor="start" x="105.88" y="-350.5" font-family="Helvetica,sans-Serif" font-size="10.00">#</text>
<text text-anchor="start" x="115.5" y="-350.5" font-family="Helvetica,sans-Serif" font-size="10.00">m_Sideways</text>
<text text-anchor="start" x="105.88" y="-334.5" font-family="Helvetica,sans-Serif" font-size="10.00">#</text>
<text text-anchor="start" x="115.5" y="-334.5" font-family="Helvetica,sans-Serif" font-size="10.00">m_Tilt</text>
<text text-anchor="start" x="105.88" y="-318.5" font-family="Helvetica,sans-Serif" font-size="10.00">#</text>
<text text-anchor="start" x="115.5" y="-318.5" font-family="Helvetica,sans-Serif" font-size="10.00">m_Vertical</text>
<text text-anchor="start" x="105.5" y="-302.5" font-family="Helvetica,sans-Serif" font-size="10.00">+</text>
<text text-anchor="start" x="115.5" y="-302.5" font-family="Helvetica,sans-Serif" font-size="10.00">OnCrouch()</text>
<text text-anchor="start" x="105.5" y="-286.5" font-family="Helvetica,sans-Serif" font-size="10.00">+</text>
<text text-anchor="start" x="115.5" y="-286.5" font-family="Helvetica,sans-Serif" font-size="10.00">OnJump()</text>
<text text-anchor="start" x="105.5" y="-270.5" font-family="Helvetica,sans-Serif" font-size="10.00">+</text>
<text text-anchor="start" x="115.5" y="-270.5" font-family="Helvetica,sans-Serif" font-size="10.00">OnLook()</text>
<text text-anchor="start" x="105.5" y="-254.5" font-family="Helvetica,sans-Serif" font-size="10.00">+</text>
<text text-anchor="start" x="115.5" y="-254.5" font-family="Helvetica,sans-Serif" font-size="10.00">OnMove()</text>
<text text-anchor="start" x="105.5" y="-238.5" font-family="Helvetica,sans-Serif" font-size="10.00">+</text>
<text text-anchor="start" x="115.5" y="-238.5" font-family="Helvetica,sans-Serif" font-size="10.00">OnSprint()</text>
<text text-anchor="start" x="105.88" y="-222.5" font-family="Helvetica,sans-Serif" font-size="10.00">#</text>
<text text-anchor="start" x="115.5" y="-222.5" font-family="Helvetica,sans-Serif" font-size="10.00">Move()</text>
<text text-anchor="start" x="105.88" y="-206.5" font-family="Helvetica,sans-Serif" font-size="10.00">#</text>
<text text-anchor="start" x="115.5" y="-206.5" font-family="Helvetica,sans-Serif" font-size="10.00">OnDisable()</text>
<text text-anchor="start" x="105.88" y="-190.5" font-family="Helvetica,sans-Serif" font-size="10.00">#</text>
<text text-anchor="start" x="115.5" y="-190.5" font-family="Helvetica,sans-Serif" font-size="10.00">OnEnable()</text>
<text text-anchor="start" x="105.88" y="-174.5" font-family="Helvetica,sans-Serif" font-size="10.00">#</text>
<text text-anchor="start" x="115.5" y="-174.5" font-family="Helvetica,sans-Serif" font-size="10.00">Rotate()</text>
<polygon fill="#bfbfbf" stroke="#bfbfbf" points="101.5,-586 101.5,-586 208.5,-586 208.5,-586 101.5,-586"/>
<polygon fill="#bfbfbf" stroke="#bfbfbf" points="101.5,-314 101.5,-314 113.5,-314 113.5,-314 101.5,-314"/>
<polygon fill="#bfbfbf" stroke="#bfbfbf" points="113.5,-314 113.5,-314 208.5,-314 208.5,-314 113.5,-314"/>
<polygon fill="none" stroke="#bfbfbf" points="101.5,-168 101.5,-604 208.5,-604 208.5,-168 101.5,-168"/>
</a>
</g>
</g>
<!-- Node2&#45;&gt;Node1 -->
<g id="edge1_Node000001_Node000002" class="edge">
<title>Node2&#45;&gt;Node1</title>
<g id="a_edge1_Node000001_Node000002"><a xlink:title=" ">
<path fill="none" stroke="#63b8ff" d="M155,-156.8C155,-148.05 155,-139.66 155,-131.74"/>
<polygon fill="none" stroke="#63b8ff" points="151.5,-156.54 155,-166.54 158.5,-156.54 151.5,-156.54"/>
</a>
</g>
</g>
<!-- Node3 -->
<g id="Node000003" class="node">
<title>Node3</title>
<g id="a_Node000003"><a xlink:title=" ">
<polygon fill="white" stroke="none" points="76,-724 0,-724 0,-672 76,-672 76,-724"/>
<text text-anchor="start" x="5" y="-710.5" font-family="Helvetica,sans-Serif" font-size="10.00">MonoBehaviour</text>
<text text-anchor="start" x="36.5" y="-694.5" font-family="Helvetica,sans-Serif" font-size="10.00"> </text>
<text text-anchor="start" x="36.5" y="-678.5" font-family="Helvetica,sans-Serif" font-size="10.00"> </text>
<polygon fill="#bfbfbf" stroke="#bfbfbf" points="0,-706 0,-706 76,-706 76,-706 0,-706"/>
<polygon fill="#bfbfbf" stroke="#bfbfbf" points="0,-690 0,-690 76,-690 76,-690 0,-690"/>
<polygon fill="none" stroke="#bfbfbf" points="0,-672 0,-724 76,-724 76,-672 0,-672"/>
</a>
</g>
</g>
<!-- Node3&#45;&gt;Node2 -->
<g id="edge2_Node000002_Node000003" class="edge">
<title>Node3&#45;&gt;Node2</title>
<g id="a_edge2_Node000002_Node000003"><a xlink:title=" ">
<path fill="none" stroke="#63b8ff" d="M51.3,-661.77C63.67,-628.97 82.96,-577.88 101.55,-528.61"/>
<polygon fill="none" stroke="#63b8ff" points="48.17,-660.15 47.91,-670.74 54.72,-662.62 48.17,-660.15"/>
</a>
</g>
</g>
<!-- Node4 -->
<g id="Node000004" class="node">
<title>Node4</title>
<g id="a_Node000004"><a xlink:href="interface_code_smile_1_1_multi_pal_1_1_input_1_1_generated_input_1_1_i_player_kinematics_actions.html" target="_top" xlink:title=" ">
<polygon fill="white" stroke="none" points="215.5,-756 94.5,-756 94.5,-640 215.5,-640 215.5,-756"/>
<text text-anchor="start" x="99.12" y="-742.5" font-family="Helvetica,sans-Serif" font-size="10.00">IPlayerKinematicsActions</text>
<text text-anchor="start" x="153.5" y="-726.5" font-family="Helvetica,sans-Serif" font-size="10.00"> </text>
<text text-anchor="start" x="112" y="-710.5" font-family="Helvetica,sans-Serif" font-size="10.00">+</text>
<text text-anchor="start" x="135.5" y="-710.5" font-family="Helvetica,sans-Serif" font-size="10.00">OnCrouch()</text>
<text text-anchor="start" x="112" y="-694.5" font-family="Helvetica,sans-Serif" font-size="10.00">+</text>
<text text-anchor="start" x="135.5" y="-694.5" font-family="Helvetica,sans-Serif" font-size="10.00">OnJump()</text>
<text text-anchor="start" x="112" y="-678.5" font-family="Helvetica,sans-Serif" font-size="10.00">+</text>
<text text-anchor="start" x="135.5" y="-678.5" font-family="Helvetica,sans-Serif" font-size="10.00">OnLook()</text>
<text text-anchor="start" x="112" y="-662.5" font-family="Helvetica,sans-Serif" font-size="10.00">+</text>
<text text-anchor="start" x="135.5" y="-662.5" font-family="Helvetica,sans-Serif" font-size="10.00">OnMove()</text>
<text text-anchor="start" x="112" y="-646.5" font-family="Helvetica,sans-Serif" font-size="10.00">+</text>
<text text-anchor="start" x="135.5" y="-646.5" font-family="Helvetica,sans-Serif" font-size="10.00">OnSprint()</text>
<polygon fill="#bfbfbf" stroke="#bfbfbf" points="94.5,-738 94.5,-738 215.5,-738 215.5,-738 94.5,-738"/>
<polygon fill="#bfbfbf" stroke="#bfbfbf" points="94.5,-722 94.5,-722 215.5,-722 215.5,-722 94.5,-722"/>
<polygon fill="none" stroke="#bfbfbf" points="94.5,-640 94.5,-756 215.5,-756 215.5,-640 94.5,-640"/>
</a>
</g>
</g>
<!-- Node4&#45;&gt;Node2 -->
<g id="edge3_Node000002_Node000004" class="edge">
<title>Node4&#45;&gt;Node2</title>
<g id="a_edge3_Node000002_Node000004"><a xlink:title=" ">
<path fill="none" stroke="#63b8ff" d="M155,-628.86C155,-620.94 155,-612.56 155,-603.87"/>
<polygon fill="none" stroke="#63b8ff" points="151.5,-628.63 155,-638.63 158.5,-628.63 151.5,-628.63"/>
</a>
</g>
</g>
<!-- Node5 -->
<g id="Node000005" class="node">
<title>Node5</title>
<g id="a_Node000005"><a xlink:href="interface_code_smile_1_1_multi_pal_1_1_animation_1_1_i_animator_parameters_provider.html" target="_top" xlink:title=" ">
<polygon fill="white" stroke="none" points="370,-724 234,-724 234,-672 370,-672 370,-724"/>
<text text-anchor="start" x="239" y="-710.5" font-family="Helvetica,sans-Serif" font-size="10.00">IAnimatorParametersProvider</text>
<text text-anchor="start" x="245" y="-694.5" font-family="Helvetica,sans-Serif" font-size="10.00">+</text>
<text text-anchor="start" x="262" y="-694.5" font-family="Helvetica,sans-Serif" font-size="10.00">AnimatorParameters</text>
<text text-anchor="start" x="300.5" y="-678.5" font-family="Helvetica,sans-Serif" font-size="10.00"> </text>
<polygon fill="#bfbfbf" stroke="#bfbfbf" points="234,-706 234,-706 370,-706 370,-706 234,-706"/>
<polygon fill="#bfbfbf" stroke="#bfbfbf" points="234,-690 234,-690 260,-690 260,-690 234,-690"/>
<polygon fill="#bfbfbf" stroke="#bfbfbf" points="260,-690 260,-690 370,-690 370,-690 260,-690"/>
<polygon fill="none" stroke="#bfbfbf" points="234,-672 234,-724 370,-724 370,-672 234,-672"/>
</a>
</g>
</g>
<!-- Node5&#45;&gt;Node2 -->
<g id="edge4_Node000002_Node000005" class="edge">
<title>Node5&#45;&gt;Node2</title>
<g id="a_edge4_Node000002_Node000005"><a xlink:title=" ">
<path fill="none" stroke="#63b8ff" d="M285.31,-661.81C266.7,-622.55 235.63,-557.03 208.5,-499.81"/>
<polygon fill="none" stroke="#63b8ff" points="282.12,-663.25 289.57,-670.79 288.45,-660.25 282.12,-663.25"/>
</a>
</g>
</g>
</g>
</svg>
