<?xml version="1.0" encoding="UTF-8" standalone="no"?>
<!DOCTYPE svg PUBLIC "-//W3C//DTD SVG 1.1//EN"
 "http://www.w3.org/Graphics/SVG/1.1/DTD/svg11.dtd">
<!-- Generated by graphviz version 9.0.0 (20230911.1827)
 -->
<!-- Title: PlayerUi Pages: 1 -->
<svg width="320pt" height="308pt"
 viewBox="0.00 0.00 320.00 308.00" xmlns="http://www.w3.org/2000/svg" xmlns:xlink="http://www.w3.org/1999/xlink">
<g id="graph0" class="graph" transform="scale(1 1) rotate(0) translate(4 304)">
<title>PlayerUi</title>
<!-- Node1 -->
<g id="Node000001" class="node">
<title>Node1</title>
<g id="a_Node000001"><a xlink:title=" ">
<polygon fill="#999999" stroke="none" points="198,-148 94,-148 94,0 198,0 198,-148"/>
<text text-anchor="start" x="127.62" y="-134.5" font-family="Helvetica,sans-Serif" font-size="10.00">PlayerUi</text>
<text text-anchor="start" x="144.5" y="-118.5" font-family="Helvetica,sans-Serif" font-size="10.00"> </text>
<text text-anchor="start" x="98" y="-102.5" font-family="Helvetica,sans-Serif" font-size="10.00">+</text>
<text text-anchor="start" x="108" y="-102.5" font-family="Helvetica,sans-Serif" font-size="10.00">OnDown()</text>
<text text-anchor="start" x="98" y="-86.5" font-family="Helvetica,sans-Serif" font-size="10.00">+</text>
<text text-anchor="start" x="108" y="-86.5" font-family="Helvetica,sans-Serif" font-size="10.00">OnNext()</text>
<text text-anchor="start" x="98" y="-70.5" font-family="Helvetica,sans-Serif" font-size="10.00">+</text>
<text text-anchor="start" x="108" y="-70.5" font-family="Helvetica,sans-Serif" font-size="10.00">OnPlayerDespawn()</text>
<text text-anchor="start" x="98" y="-54.5" font-family="Helvetica,sans-Serif" font-size="10.00">+</text>
<text text-anchor="start" x="108" y="-54.5" font-family="Helvetica,sans-Serif" font-size="10.00">OnPlayerSpawn()</text>
<text text-anchor="start" x="98" y="-38.5" font-family="Helvetica,sans-Serif" font-size="10.00">+</text>
<text text-anchor="start" x="108" y="-38.5" font-family="Helvetica,sans-Serif" font-size="10.00">OnPrevious()</text>
<text text-anchor="start" x="98" y="-22.5" font-family="Helvetica,sans-Serif" font-size="10.00">+</text>
<text text-anchor="start" x="108" y="-22.5" font-family="Helvetica,sans-Serif" font-size="10.00">OnRequestMenu()</text>
<text text-anchor="start" x="98" y="-6.5" font-family="Helvetica,sans-Serif" font-size="10.00">+</text>
<text text-anchor="start" x="108" y="-6.5" font-family="Helvetica,sans-Serif" font-size="10.00">OnUp()</text>
<polygon fill="#666666" stroke="#666666" points="94,-130 94,-130 198,-130 198,-130 94,-130"/>
<polygon fill="#666666" stroke="#666666" points="94,-114 94,-114 198,-114 198,-114 94,-114"/>
<polygon fill="none" stroke="#666666" points="94,0 94,-148 198,-148 198,0 94,0"/>
</a>
</g>
</g>
<!-- Node2 -->
<g id="Node000002" class="node">
<title>Node2</title>
<g id="a_Node000002"><a xlink:title=" ">
<polygon fill="white" stroke="none" points="76,-268 0,-268 0,-216 76,-216 76,-268"/>
<text text-anchor="start" x="5" y="-254.5" font-family="Helvetica,sans-Serif" font-size="10.00">MonoBehaviour</text>
<text text-anchor="start" x="36.5" y="-238.5" font-family="Helvetica,sans-Serif" font-size="10.00"> </text>
<text text-anchor="start" x="36.5" y="-222.5" font-family="Helvetica,sans-Serif" font-size="10.00"> </text>
<polygon fill="#bfbfbf" stroke="#bfbfbf" points="0,-250 0,-250 76,-250 76,-250 0,-250"/>
<polygon fill="#bfbfbf" stroke="#bfbfbf" points="0,-234 0,-234 76,-234 76,-234 0,-234"/>
<polygon fill="none" stroke="#bfbfbf" points="0,-216 0,-268 76,-268 76,-216 0,-216"/>
</a>
</g>
</g>
<!-- Node2&#45;&gt;Node1 -->
<g id="edge1_Node000001_Node000002" class="edge">
<title>Node2&#45;&gt;Node1</title>
<g id="a_edge1_Node000001_Node000002"><a xlink:title=" ">
<path fill="none" stroke="#63b8ff" d="M60.36,-206.63C71.45,-189.58 85.3,-168.3 98.61,-147.84"/>
<polygon fill="none" stroke="#63b8ff" points="57.51,-204.59 54.99,-214.88 63.38,-208.41 57.51,-204.59"/>
</a>
</g>
</g>
<!-- Node3 -->
<g id="Node000003" class="node">
<title>Node3</title>
<g id="a_Node000003"><a xlink:href="interface_code_smile_1_1_multi_pal_1_1_players_1_1_i_player_component.html" target="_top" xlink:title=" ">
<polygon fill="white" stroke="none" points="198,-292 94,-292 94,-192 198,-192 198,-292"/>
<text text-anchor="start" x="106.25" y="-278.5" font-family="Helvetica,sans-Serif" font-size="10.00">IPlayerComponent</text>
<text text-anchor="start" x="144.5" y="-262.5" font-family="Helvetica,sans-Serif" font-size="10.00"> </text>
<text text-anchor="start" x="98" y="-246.5" font-family="Helvetica,sans-Serif" font-size="10.00">+</text>
<text text-anchor="start" x="108" y="-246.5" font-family="Helvetica,sans-Serif" font-size="10.00">OnPlayerDeath()</text>
<text text-anchor="start" x="98" y="-230.5" font-family="Helvetica,sans-Serif" font-size="10.00">+</text>
<text text-anchor="start" x="108" y="-230.5" font-family="Helvetica,sans-Serif" font-size="10.00">OnPlayerDespawn()</text>
<text text-anchor="start" x="98" y="-214.5" font-family="Helvetica,sans-Serif" font-size="10.00">+</text>
<text text-anchor="start" x="108" y="-214.5" font-family="Helvetica,sans-Serif" font-size="10.00">OnPlayerRespawn()</text>
<text text-anchor="start" x="98" y="-198.5" font-family="Helvetica,sans-Serif" font-size="10.00">+</text>
<text text-anchor="start" x="108" y="-198.5" font-family="Helvetica,sans-Serif" font-size="10.00">OnPlayerSpawn()</text>
<polygon fill="#bfbfbf" stroke="#bfbfbf" points="94,-274 94,-274 198,-274 198,-274 94,-274"/>
<polygon fill="#bfbfbf" stroke="#bfbfbf" points="94,-258 94,-258 198,-258 198,-258 94,-258"/>
<polygon fill="none" stroke="#bfbfbf" points="94,-192 94,-292 198,-292 198,-192 94,-192"/>
</a>
</g>
</g>
<!-- Node3&#45;&gt;Node1 -->
<g id="edge2_Node000001_Node000003" class="edge">
<title>Node3&#45;&gt;Node1</title>
<g id="a_edge2_Node000001_Node000003"><a xlink:title=" ">
<path fill="none" stroke="#63b8ff" d="M146,-180.75C146,-170.07 146,-158.85 146,-147.86"/>
<polygon fill="none" stroke="#63b8ff" points="142.5,-180.58 146,-190.58 149.5,-180.58 142.5,-180.58"/>
</a>
</g>
</g>
<!-- Node4 -->
<g id="Node000004" class="node">
<title>Node4</title>
<g id="a_Node000004"><a xlink:href="interface_code_smile_1_1_multi_pal_1_1_input_1_1_generated_input_1_1_i_player_u_i_actions.html" target="_top" xlink:title=" ">
<polygon fill="white" stroke="none" points="312,-300 216,-300 216,-184 312,-184 312,-300"/>
<text text-anchor="start" x="228" y="-286.5" font-family="Helvetica,sans-Serif" font-size="10.00">IPlayerUIActions</text>
<text text-anchor="start" x="262.5" y="-270.5" font-family="Helvetica,sans-Serif" font-size="10.00"> </text>
<text text-anchor="start" x="220" y="-254.5" font-family="Helvetica,sans-Serif" font-size="10.00">+</text>
<text text-anchor="start" x="230" y="-254.5" font-family="Helvetica,sans-Serif" font-size="10.00">OnDown()</text>
<text text-anchor="start" x="220" y="-238.5" font-family="Helvetica,sans-Serif" font-size="10.00">+</text>
<text text-anchor="start" x="230" y="-238.5" font-family="Helvetica,sans-Serif" font-size="10.00">OnNext()</text>
<text text-anchor="start" x="220" y="-222.5" font-family="Helvetica,sans-Serif" font-size="10.00">+</text>
<text text-anchor="start" x="230" y="-222.5" font-family="Helvetica,sans-Serif" font-size="10.00">OnPrevious()</text>
<text text-anchor="start" x="220" y="-206.5" font-family="Helvetica,sans-Serif" font-size="10.00">+</text>
<text text-anchor="start" x="230" y="-206.5" font-family="Helvetica,sans-Serif" font-size="10.00">OnRequestMenu()</text>
<text text-anchor="start" x="220" y="-190.5" font-family="Helvetica,sans-Serif" font-size="10.00">+</text>
<text text-anchor="start" x="230" y="-190.5" font-family="Helvetica,sans-Serif" font-size="10.00">OnUp()</text>
<polygon fill="#bfbfbf" stroke="#bfbfbf" points="216,-282 216,-282 312,-282 312,-282 216,-282"/>
<polygon fill="#bfbfbf" stroke="#bfbfbf" points="216,-266 216,-266 312,-266 312,-266 216,-266"/>
<polygon fill="none" stroke="#bfbfbf" points="216,-184 216,-300 312,-300 312,-184 216,-184"/>
</a>
</g>
</g>
<!-- Node4&#45;&gt;Node1 -->
<g id="edge3_Node000001_Node000004" class="edge">
<title>Node4&#45;&gt;Node1</title>
<g id="a_edge3_Node000001_Node000004"><a xlink:title=" ">
<path fill="none" stroke="#63b8ff" d="M217.17,-175.12C210.8,-166.16 204.23,-156.92 197.78,-147.84"/>
<polygon fill="none" stroke="#63b8ff" points="214.2,-176.98 222.84,-183.1 219.9,-172.92 214.2,-176.98"/>
</a>
</g>
</g>
</g>
</svg>
