<?xml version="1.0" encoding="UTF-8" standalone="no"?>
<!DOCTYPE svg PUBLIC "-//W3C//DTD SVG 1.1//EN"
 "http://www.w3.org/Graphics/SVG/1.1/DTD/svg11.dtd">
<!-- Generated by graphviz version 9.0.0 (20230911.1827)
 -->
<!-- Title: MenuScreenState Pages: 1 -->
<svg width="115pt" height="380pt"
 viewBox="0.00 0.00 115.00 380.00" xmlns="http://www.w3.org/2000/svg" xmlns:xlink="http://www.w3.org/1999/xlink">

<svg id="main" version="1.1" xmlns="http://www.w3.org/2000/svg" xmlns:xlink="http://www.w3.org/1999/xlink" xml:space="preserve">

<style type="text/css"><![CDATA[
.node, .edge {opacity: 0.7;}
.node.selected, .edge.selected {opacity: 1;}
.edge:hover path { stroke: red; }
.edge:hover polygon { stroke: red; fill: red; }
]]></style>
<script type="application/ecmascript" xlink:href="svg.min.js"/>
<svg id="graph" class="graph">
<g id="graph0" class="graph" transform="scale(1 1) rotate(0) translate(4 376)">
<title>MenuScreenState</title>
<!-- Node1 -->
<g id="Node000001" class="node">
<title>Node1</title>
<g id="a_Node000001"><a xlink:title=" ">
<polygon fill="#999999" stroke="none" points="97.5,-52 9.5,-52 9.5,0 97.5,0 97.5,-52"/>
<text text-anchor="start" x="14.5" y="-38.5" font-family="Helvetica,sans-Serif" font-size="10.00">MenuScreenState</text>
<text text-anchor="start" x="52" y="-22.5" font-family="Helvetica,sans-Serif" font-size="10.00"> </text>
<text text-anchor="start" x="52" y="-6.5" font-family="Helvetica,sans-Serif" font-size="10.00"> </text>
<polygon fill="#666666" stroke="#666666" points="9.5,-34 9.5,-34 97.5,-34 97.5,-34 9.5,-34"/>
<polygon fill="#666666" stroke="#666666" points="9.5,-18 9.5,-18 97.5,-18 97.5,-18 9.5,-18"/>
<polygon fill="none" stroke="#666666" points="9.5,0 9.5,-52 97.5,-52 97.5,0 9.5,0"/>
</a>
</g>
</g>
<!-- Node2 -->
<g id="Node000002" class="node">
<title>Node2</title>
<g id="a_Node000002"><a xlink:href="class_code_smile_1_1_multi_pal_1_1_settings_1_1_game_state_base.html" target="_top" xlink:title=" ">
<polygon fill="white" stroke="none" points="107,-284 0,-284 0,-88 107,-88 107,-284"/>
<text text-anchor="start" x="17.5" y="-270.5" font-family="Helvetica,sans-Serif" font-size="10.00">GameStateBase</text>
<text text-anchor="start" x="4" y="-254.5" font-family="Helvetica,sans-Serif" font-size="10.00">+</text>
<text text-anchor="start" x="14" y="-254.5" font-family="Helvetica,sans-Serif" font-size="10.00">MenuRoot</text>
<text text-anchor="start" x="4" y="-238.5" font-family="Helvetica,sans-Serif" font-size="10.00">+</text>
<text text-anchor="start" x="14" y="-238.5" font-family="Helvetica,sans-Serif" font-size="10.00">ClientSceneRefs</text>
<text text-anchor="start" x="4" y="-222.5" font-family="Helvetica,sans-Serif" font-size="10.00">+</text>
<text text-anchor="start" x="14" y="-222.5" font-family="Helvetica,sans-Serif" font-size="10.00">ClientScenes</text>
<text text-anchor="start" x="4" y="-206.5" font-family="Helvetica,sans-Serif" font-size="10.00">+</text>
<text text-anchor="start" x="14" y="-206.5" font-family="Helvetica,sans-Serif" font-size="10.00">NextState</text>
<text text-anchor="start" x="4" y="-190.5" font-family="Helvetica,sans-Serif" font-size="10.00">+</text>
<text text-anchor="start" x="14" y="-190.5" font-family="Helvetica,sans-Serif" font-size="10.00">NextStateCondition</text>
<text text-anchor="start" x="4" y="-174.5" font-family="Helvetica,sans-Serif" font-size="10.00">+</text>
<text text-anchor="start" x="14" y="-174.5" font-family="Helvetica,sans-Serif" font-size="10.00">ServerSceneRefs</text>
<text text-anchor="start" x="4" y="-158.5" font-family="Helvetica,sans-Serif" font-size="10.00">+</text>
<text text-anchor="start" x="14" y="-158.5" font-family="Helvetica,sans-Serif" font-size="10.00">ServerScenes</text>
<text text-anchor="start" x="4" y="-142.5" font-family="Helvetica,sans-Serif" font-size="10.00">+</text>
<text text-anchor="start" x="14" y="-142.5" font-family="Helvetica,sans-Serif" font-size="10.00">ConditionsSatisfied()</text>
<text text-anchor="start" x="4" y="-126.5" font-family="Helvetica,sans-Serif" font-size="10.00">+</text>
<text text-anchor="start" x="14" y="-126.5" font-family="Helvetica,sans-Serif" font-size="10.00">OnEnterState()</text>
<text text-anchor="start" x="4" y="-110.5" font-family="Helvetica,sans-Serif" font-size="10.00">+</text>
<text text-anchor="start" x="14" y="-110.5" font-family="Helvetica,sans-Serif" font-size="10.00">OnExitState()</text>
<text text-anchor="start" x="4.38" y="-94.5" font-family="Helvetica,sans-Serif" font-size="10.00">#</text>
<text text-anchor="start" x="14" y="-94.5" font-family="Helvetica,sans-Serif" font-size="10.00">OnValidate()</text>
<polygon fill="#bfbfbf" stroke="#bfbfbf" points="0,-266 0,-266 107,-266 107,-266 0,-266"/>
<polygon fill="#bfbfbf" stroke="#bfbfbf" points="0,-154 0,-154 12,-154 12,-154 0,-154"/>
<polygon fill="#bfbfbf" stroke="#bfbfbf" points="12,-154 12,-154 107,-154 107,-154 12,-154"/>
<polygon fill="none" stroke="#bfbfbf" points="0,-88 0,-284 107,-284 107,-88 0,-88"/>
</a>
</g>
</g>
<!-- Node2&#45;&gt;Node1 -->
<g id="edge1_Node000001_Node000002" class="edge">
<title>Node2&#45;&gt;Node1</title>
<g id="a_edge1_Node000001_Node000002"><a xlink:title=" ">
<path fill="none" stroke="#63b8ff" d="M53.5,-76.78C53.5,-67.73 53.5,-59.27 53.5,-51.98"/>
<polygon fill="none" stroke="#63b8ff" points="50,-76.57 53.5,-86.57 57,-76.57 50,-76.57"/>
</a>
</g>
</g>
<!-- Node3 -->
<g id="Node000003" class="node">
<title>Node3</title>
<g id="a_Node000003"><a xlink:title=" ">
<polygon fill="white" stroke="none" points="94.5,-372 12.5,-372 12.5,-320 94.5,-320 94.5,-372"/>
<text text-anchor="start" x="17.5" y="-358.5" font-family="Helvetica,sans-Serif" font-size="10.00">ScriptableObject</text>
<text text-anchor="start" x="52" y="-342.5" font-family="Helvetica,sans-Serif" font-size="10.00"> </text>
<text text-anchor="start" x="52" y="-326.5" font-family="Helvetica,sans-Serif" font-size="10.00"> </text>
<polygon fill="#bfbfbf" stroke="#bfbfbf" points="12.5,-354 12.5,-354 94.5,-354 94.5,-354 12.5,-354"/>
<polygon fill="#bfbfbf" stroke="#bfbfbf" points="12.5,-338 12.5,-338 94.5,-338 94.5,-338 12.5,-338"/>
<polygon fill="none" stroke="#bfbfbf" points="12.5,-320 12.5,-372 94.5,-372 94.5,-320 12.5,-320"/>
</a>
</g>
</g>
<!-- Node3&#45;&gt;Node2 -->
<g id="edge2_Node000002_Node000003" class="edge">
<title>Node3&#45;&gt;Node2</title>
<g id="a_edge2_Node000002_Node000003"><a xlink:title=" ">
<path fill="none" stroke="#63b8ff" d="M53.5,-308.88C53.5,-301.15 53.5,-292.63 53.5,-283.8"/>
<polygon fill="none" stroke="#63b8ff" points="50,-308.8 53.5,-318.8 57,-308.8 50,-308.8"/>
</a>
</g>
</g>
</g>
</svg>
</svg>

<style type='text/css'>
<![CDATA[
[data-mouse-over-selected='false'] { opacity: 0.7; }
[data-mouse-over-selected='true']  { opacity: 1.0; }
]]>
</style>
<script type="application/ecmascript"><![CDATA[
document.addEventListener('DOMContentLoaded', (event) => {
  highlightEdges();
  highlightAdjacentNodes();
});
]]></script>
</svg>
