<?xml version="1.0" encoding="UTF-8" standalone="no"?>
<!DOCTYPE svg PUBLIC "-//W3C//DTD SVG 1.1//EN"
 "http://www.w3.org/Graphics/SVG/1.1/DTD/svg11.dtd">
<!-- Generated by graphviz version 9.0.0 (20230911.1827)
 -->
<!-- Title: PlayerCamera Pages: 1 -->
<svg width="206pt" height="228pt"
 viewBox="0.00 0.00 206.00 228.00" xmlns="http://www.w3.org/2000/svg" xmlns:xlink="http://www.w3.org/1999/xlink">
<g id="graph0" class="graph" transform="scale(1 1) rotate(0) translate(4 224)">
<title>PlayerCamera</title>
<!-- Node1 -->
<g id="Node000001" class="node">
<title>Node1</title>
<g id="a_Node000001"><a xlink:title=" ">
<polygon fill="#999999" stroke="none" points="144,-84 40,-84 40,0 144,0 144,-84"/>
<text text-anchor="start" x="61.25" y="-70.5" font-family="Helvetica,sans-Serif" font-size="10.00">PlayerCamera</text>
<text text-anchor="start" x="44" y="-54.5" font-family="Helvetica,sans-Serif" font-size="10.00">+</text>
<text text-anchor="start" x="54" y="-54.5" font-family="Helvetica,sans-Serif" font-size="10.00">LookAtTarget</text>
<text text-anchor="start" x="44" y="-38.5" font-family="Helvetica,sans-Serif" font-size="10.00">+</text>
<text text-anchor="start" x="54" y="-38.5" font-family="Helvetica,sans-Serif" font-size="10.00">TrackingTarget</text>
<text text-anchor="start" x="44" y="-22.5" font-family="Helvetica,sans-Serif" font-size="10.00">+</text>
<text text-anchor="start" x="54" y="-22.5" font-family="Helvetica,sans-Serif" font-size="10.00">OnPlayerDespawn()</text>
<text text-anchor="start" x="44" y="-6.5" font-family="Helvetica,sans-Serif" font-size="10.00">+</text>
<text text-anchor="start" x="54" y="-6.5" font-family="Helvetica,sans-Serif" font-size="10.00">OnPlayerSpawn()</text>
<polygon fill="#666666" stroke="#666666" points="40,-66 40,-66 144,-66 144,-66 40,-66"/>
<polygon fill="#666666" stroke="#666666" points="40,-34 40,-34 52,-34 52,-34 40,-34"/>
<polygon fill="#666666" stroke="#666666" points="52,-34 52,-34 144,-34 144,-34 52,-34"/>
<polygon fill="none" stroke="#666666" points="40,0 40,-84 144,-84 144,0 40,0"/>
</a>
</g>
</g>
<!-- Node2 -->
<g id="Node000002" class="node">
<title>Node2</title>
<g id="a_Node000002"><a xlink:title=" ">
<polygon fill="white" stroke="none" points="76,-196 0,-196 0,-144 76,-144 76,-196"/>
<text text-anchor="start" x="5" y="-182.5" font-family="Helvetica,sans-Serif" font-size="10.00">MonoBehaviour</text>
<text text-anchor="start" x="36.5" y="-166.5" font-family="Helvetica,sans-Serif" font-size="10.00"> </text>
<text text-anchor="start" x="36.5" y="-150.5" font-family="Helvetica,sans-Serif" font-size="10.00"> </text>
<polygon fill="#bfbfbf" stroke="#bfbfbf" points="0,-178 0,-178 76,-178 76,-178 0,-178"/>
<polygon fill="#bfbfbf" stroke="#bfbfbf" points="0,-162 0,-162 76,-162 76,-162 0,-162"/>
<polygon fill="none" stroke="#bfbfbf" points="0,-144 0,-196 76,-196 76,-144 0,-144"/>
</a>
</g>
</g>
<!-- Node2&#45;&gt;Node1 -->
<g id="edge1_Node000001_Node000002" class="edge">
<title>Node2&#45;&gt;Node1</title>
<g id="a_edge1_Node000001_Node000002"><a xlink:title=" ">
<path fill="none" stroke="#63b8ff" d="M53.07,-133.85C59.74,-118.28 67.63,-99.87 74.55,-83.71"/>
<polygon fill="none" stroke="#63b8ff" points="49.99,-132.15 49.26,-142.72 56.42,-134.9 49.99,-132.15"/>
</a>
</g>
</g>
<!-- Node3 -->
<g id="Node000003" class="node">
<title>Node3</title>
<g id="a_Node000003"><a xlink:href="interface_code_smile_1_1_multi_pal_1_1_players_1_1_i_player_component.html" target="_top" xlink:title=" ">
<polygon fill="white" stroke="none" points="198,-220 94,-220 94,-120 198,-120 198,-220"/>
<text text-anchor="start" x="106.25" y="-206.5" font-family="Helvetica,sans-Serif" font-size="10.00">IPlayerComponent</text>
<text text-anchor="start" x="144.5" y="-190.5" font-family="Helvetica,sans-Serif" font-size="10.00"> </text>
<text text-anchor="start" x="98" y="-174.5" font-family="Helvetica,sans-Serif" font-size="10.00">+</text>
<text text-anchor="start" x="108" y="-174.5" font-family="Helvetica,sans-Serif" font-size="10.00">OnPlayerDeath()</text>
<text text-anchor="start" x="98" y="-158.5" font-family="Helvetica,sans-Serif" font-size="10.00">+</text>
<text text-anchor="start" x="108" y="-158.5" font-family="Helvetica,sans-Serif" font-size="10.00">OnPlayerDespawn()</text>
<text text-anchor="start" x="98" y="-142.5" font-family="Helvetica,sans-Serif" font-size="10.00">+</text>
<text text-anchor="start" x="108" y="-142.5" font-family="Helvetica,sans-Serif" font-size="10.00">OnPlayerRespawn()</text>
<text text-anchor="start" x="98" y="-126.5" font-family="Helvetica,sans-Serif" font-size="10.00">+</text>
<text text-anchor="start" x="108" y="-126.5" font-family="Helvetica,sans-Serif" font-size="10.00">OnPlayerSpawn()</text>
<polygon fill="#bfbfbf" stroke="#bfbfbf" points="94,-202 94,-202 198,-202 198,-202 94,-202"/>
<polygon fill="#bfbfbf" stroke="#bfbfbf" points="94,-186 94,-186 198,-186 198,-186 94,-186"/>
<polygon fill="none" stroke="#bfbfbf" points="94,-120 94,-220 198,-220 198,-120 94,-120"/>
</a>
</g>
</g>
<!-- Node3&#45;&gt;Node1 -->
<g id="edge2_Node000001_Node000003" class="edge">
<title>Node3&#45;&gt;Node1</title>
<g id="a_edge2_Node000001_Node000003"><a xlink:title=" ">
<path fill="none" stroke="#63b8ff" d="M120.71,-109.99C116.92,-101.14 113.08,-92.18 109.49,-83.82"/>
<polygon fill="none" stroke="#63b8ff" points="117.37,-111.08 124.53,-118.89 123.8,-108.32 117.37,-111.08"/>
</a>
</g>
</g>
</g>
</svg>
