<?xml version="1.0" encoding="UTF-8" standalone="no"?>
<!DOCTYPE svg PUBLIC "-//W3C//DTD SVG 1.1//EN"
 "http://www.w3.org/Graphics/SVG/1.1/DTD/svg11.dtd">
<!-- Generated by graphviz version 9.0.0 (20230911.1827)
 -->
<!-- Title: GameState Pages: 1 -->
<svg width="84pt" height="148pt"
 viewBox="0.00 0.00 84.00 148.00" xmlns="http://www.w3.org/2000/svg" xmlns:xlink="http://www.w3.org/1999/xlink">

<svg id="main" version="1.1" xmlns="http://www.w3.org/2000/svg" xmlns:xlink="http://www.w3.org/1999/xlink" xml:space="preserve">

<style type="text/css"><![CDATA[
.node, .edge {opacity: 0.7;}
.node.selected, .edge.selected {opacity: 1;}
.edge:hover path { stroke: red; }
.edge:hover polygon { stroke: red; fill: red; }
]]></style>
<script type="application/ecmascript" xlink:href="svg.min.js"/>
<svg id="graph" class="graph">
<g id="graph0" class="graph" transform="scale(1 1) rotate(0) translate(4 144)">
<title>GameState</title>
<!-- Node1 -->
<g id="Node000001" class="node">
<title>Node1</title>
<g id="a_Node000001"><a xlink:title=" ">
<polygon fill="#999999" stroke="none" points="71.5,-52 4.5,-52 4.5,0 71.5,0 71.5,-52"/>
<text text-anchor="start" x="13.25" y="-38.5" font-family="Helvetica,sans-Serif" font-size="10.00">GameState</text>
<text text-anchor="start" x="8.5" y="-22.5" font-family="Helvetica,sans-Serif" font-size="10.00">+</text>
<text text-anchor="start" x="18.5" y="-22.5" font-family="Helvetica,sans-Serif" font-size="10.00">ActiveState</text>
<text text-anchor="start" x="36.5" y="-6.5" font-family="Helvetica,sans-Serif" font-size="10.00"> </text>
<polygon fill="#666666" stroke="#666666" points="4.5,-34 4.5,-34 71.5,-34 71.5,-34 4.5,-34"/>
<polygon fill="#666666" stroke="#666666" points="4.5,-18 4.5,-18 16.5,-18 16.5,-18 4.5,-18"/>
<polygon fill="#666666" stroke="#666666" points="16.5,-18 16.5,-18 71.5,-18 71.5,-18 16.5,-18"/>
<polygon fill="none" stroke="#666666" points="4.5,0 4.5,-52 71.5,-52 71.5,0 4.5,0"/>
</a>
</g>
</g>
<!-- Node2 -->
<g id="Node000002" class="node">
<title>Node2</title>
<g id="a_Node000002"><a xlink:title=" ">
<polygon fill="white" stroke="none" points="76,-140 0,-140 0,-88 76,-88 76,-140"/>
<text text-anchor="start" x="5" y="-126.5" font-family="Helvetica,sans-Serif" font-size="10.00">MonoBehaviour</text>
<text text-anchor="start" x="36.5" y="-110.5" font-family="Helvetica,sans-Serif" font-size="10.00"> </text>
<text text-anchor="start" x="36.5" y="-94.5" font-family="Helvetica,sans-Serif" font-size="10.00"> </text>
<polygon fill="#bfbfbf" stroke="#bfbfbf" points="0,-122 0,-122 76,-122 76,-122 0,-122"/>
<polygon fill="#bfbfbf" stroke="#bfbfbf" points="0,-106 0,-106 76,-106 76,-106 0,-106"/>
<polygon fill="none" stroke="#bfbfbf" points="0,-88 0,-140 76,-140 76,-88 0,-88"/>
</a>
</g>
</g>
<!-- Node2&#45;&gt;Node1 -->
<g id="edge1_Node000001_Node000002" class="edge">
<title>Node2&#45;&gt;Node1</title>
<g id="a_edge1_Node000001_Node000002"><a xlink:title=" ">
<path fill="none" stroke="#63b8ff" d="M38,-76.66C38,-68.29 38,-59.57 38,-51.82"/>
<polygon fill="none" stroke="#63b8ff" points="34.5,-76.61 38,-86.61 41.5,-76.61 34.5,-76.61"/>
</a>
</g>
</g>
</g>
</svg>
</svg>

<style type='text/css'>
<![CDATA[
[data-mouse-over-selected='false'] { opacity: 0.7; }
[data-mouse-over-selected='true']  { opacity: 1.0; }
]]>
</style>
<script type="application/ecmascript"><![CDATA[
document.addEventListener('DOMContentLoaded', (event) => {
  highlightEdges();
  highlightAdjacentNodes();
});
]]></script>
</svg>
