<?xml version="1.0" encoding="UTF-8" standalone="no"?>
<!DOCTYPE svg PUBLIC "-//W3C//DTD SVG 1.1//EN"
 "http://www.w3.org/Graphics/SVG/1.1/DTD/svg11.dtd">
<!-- Generated by graphviz version 9.0.0 (20230911.1827)
 -->
<!-- Title: SpawnLocations Pages: 1 -->
<svg width="158pt" height="180pt"
 viewBox="0.00 0.00 158.00 180.00" xmlns="http://www.w3.org/2000/svg" xmlns:xlink="http://www.w3.org/1999/xlink">
<g id="graph0" class="graph" transform="scale(1 1) rotate(0) translate(4 176)">
<title>SpawnLocations</title>
<!-- Node1 -->
<g id="Node000001" class="node">
<title>Node1</title>
<g id="a_Node000001"><a xlink:title=" ">
<polygon fill="#999999" stroke="none" points="150,-84 0,-84 0,0 150,0 150,-84"/>
<text text-anchor="start" x="39.38" y="-70.5" font-family="Helvetica,sans-Serif" font-size="10.00">SpawnLocations</text>
<text text-anchor="start" x="4" y="-54.5" font-family="Helvetica,sans-Serif" font-size="10.00">+</text>
<text text-anchor="start" x="14" y="-54.5" font-family="Helvetica,sans-Serif" font-size="10.00">Count</text>
<text text-anchor="start" x="4" y="-38.5" font-family="Helvetica,sans-Serif" font-size="10.00">+</text>
<text text-anchor="start" x="14" y="-38.5" font-family="Helvetica,sans-Serif" font-size="10.00">GetRandomSpawnLocation()</text>
<text text-anchor="start" x="4" y="-22.5" font-family="Helvetica,sans-Serif" font-size="10.00">~</text>
<text text-anchor="start" x="14" y="-22.5" font-family="Helvetica,sans-Serif" font-size="10.00">RegisterEditorSceneEvents()</text>
<text text-anchor="start" x="4" y="-6.5" font-family="Helvetica,sans-Serif" font-size="10.00">~</text>
<text text-anchor="start" x="14" y="-6.5" font-family="Helvetica,sans-Serif" font-size="10.00">UnregisterEditorSceneEvents()</text>
<polygon fill="#666666" stroke="#666666" points="0,-66 0,-66 150,-66 150,-66 0,-66"/>
<polygon fill="#666666" stroke="#666666" points="0,-50 0,-50 12,-50 12,-50 0,-50"/>
<polygon fill="#666666" stroke="#666666" points="12,-50 12,-50 150,-50 150,-50 12,-50"/>
<polygon fill="none" stroke="#666666" points="0,0 0,-84 150,-84 150,0 0,0"/>
</a>
</g>
</g>
<!-- Node2 -->
<g id="Node000002" class="node">
<title>Node2</title>
<g id="a_Node000002"><a xlink:title=" ">
<polygon fill="white" stroke="none" points="113,-172 37,-172 37,-120 113,-120 113,-172"/>
<text text-anchor="start" x="42" y="-158.5" font-family="Helvetica,sans-Serif" font-size="10.00">MonoBehaviour</text>
<text text-anchor="start" x="73.5" y="-142.5" font-family="Helvetica,sans-Serif" font-size="10.00"> </text>
<text text-anchor="start" x="73.5" y="-126.5" font-family="Helvetica,sans-Serif" font-size="10.00"> </text>
<polygon fill="#bfbfbf" stroke="#bfbfbf" points="37,-154 37,-154 113,-154 113,-154 37,-154"/>
<polygon fill="#bfbfbf" stroke="#bfbfbf" points="37,-138 37,-138 113,-138 113,-138 37,-138"/>
<polygon fill="none" stroke="#bfbfbf" points="37,-120 37,-172 113,-172 113,-120 37,-120"/>
</a>
</g>
</g>
<!-- Node2&#45;&gt;Node1 -->
<g id="edge1_Node000001_Node000002" class="edge">
<title>Node2&#45;&gt;Node1</title>
<g id="a_edge1_Node000001_Node000002"><a xlink:title=" ">
<path fill="none" stroke="#63b8ff" d="M75,-108.77C75,-100.75 75,-92.19 75,-83.99"/>
<polygon fill="none" stroke="#63b8ff" points="71.5,-108.53 75,-118.53 78.5,-108.53 71.5,-108.53"/>
</a>
</g>
</g>
</g>
</svg>
