<?xml version="1.0" encoding="UTF-8" standalone="no"?>
<!DOCTYPE svg PUBLIC "-//W3C//DTD SVG 1.1//EN"
 "http://www.w3.org/Graphics/SVG/1.1/DTD/svg11.dtd">
<!-- Generated by graphviz version 9.0.0 (20230911.1827)
 -->
<!-- Title: IsGreater Pages: 1 -->
<svg width="109pt" height="300pt"
 viewBox="0.00 0.00 109.00 300.00" xmlns="http://www.w3.org/2000/svg" xmlns:xlink="http://www.w3.org/1999/xlink">

<svg id="main" version="1.1" xmlns="http://www.w3.org/2000/svg" xmlns:xlink="http://www.w3.org/1999/xlink" xml:space="preserve">

<style type="text/css"><![CDATA[
.node, .edge {opacity: 0.7;}
.node.selected, .edge.selected {opacity: 1;}
.edge:hover path { stroke: red; }
.edge:hover polygon { stroke: red; fill: red; }
]]></style>
<script type="application/ecmascript" xlink:href="svg.min.js"/>
<svg id="graph" class="graph">
<g id="graph0" class="graph" transform="scale(1 1) rotate(0) translate(4 296)">
<title>IsGreater</title>
<!-- Node1 -->
<g id="Node000001" class="node">
<title>Node1</title>
<g id="a_Node000001"><a xlink:title="Tests if a variable is greater than a value or another variable.">
<polygon fill="#999999" stroke="none" points="82,-116 19,-116 19,0 82,0 82,-116"/>
<text text-anchor="start" x="30.62" y="-102.5" font-family="Helvetica,sans-Serif" font-size="10.00">IsGreater</text>
<text text-anchor="start" x="49" y="-86.5" font-family="Helvetica,sans-Serif" font-size="10.00"> </text>
<text text-anchor="start" x="23" y="-70.5" font-family="Helvetica,sans-Serif" font-size="10.00">+</text>
<text text-anchor="start" x="33" y="-70.5" font-family="Helvetica,sans-Serif" font-size="10.00">IsGreater()</text>
<text text-anchor="start" x="23" y="-54.5" font-family="Helvetica,sans-Serif" font-size="10.00">+</text>
<text text-anchor="start" x="33" y="-54.5" font-family="Helvetica,sans-Serif" font-size="10.00">IsGreater()</text>
<text text-anchor="start" x="23" y="-38.5" font-family="Helvetica,sans-Serif" font-size="10.00">+</text>
<text text-anchor="start" x="33" y="-38.5" font-family="Helvetica,sans-Serif" font-size="10.00">IsGreater()</text>
<text text-anchor="start" x="23" y="-22.5" font-family="Helvetica,sans-Serif" font-size="10.00">+</text>
<text text-anchor="start" x="33" y="-22.5" font-family="Helvetica,sans-Serif" font-size="10.00">IsGreater()</text>
<text text-anchor="start" x="23" y="-6.5" font-family="Helvetica,sans-Serif" font-size="10.00">+</text>
<text text-anchor="start" x="33" y="-6.5" font-family="Helvetica,sans-Serif" font-size="10.00">IsGreater()</text>
<polygon fill="#666666" stroke="#666666" points="19,-98 19,-98 82,-98 82,-98 19,-98"/>
<polygon fill="#666666" stroke="#666666" points="19,-82 19,-82 82,-82 82,-82 19,-82"/>
<polygon fill="none" stroke="#666666" points="19,0 19,-116 82,-116 82,0 19,0"/>
</a>
</g>
</g>
<!-- Node2 -->
<g id="Node000002" class="node">
<title>Node2</title>
<g id="a_Node000002"><a xlink:href="interface_code_smile_1_1_statemachine_1_1_i_condition.html" target="_top" xlink:title="Marks a class as a FSM Condition.">
<polygon fill="white" stroke="none" points="76.5,-204 24.5,-204 24.5,-152 76.5,-152 76.5,-204"/>
<text text-anchor="start" x="29.12" y="-190.5" font-family="Helvetica,sans-Serif" font-size="10.00">ICondition</text>
<text text-anchor="start" x="49" y="-174.5" font-family="Helvetica,sans-Serif" font-size="10.00"> </text>
<text text-anchor="start" x="49" y="-158.5" font-family="Helvetica,sans-Serif" font-size="10.00"> </text>
<polygon fill="#666666" stroke="#666666" points="24.5,-186 24.5,-186 76.5,-186 76.5,-186 24.5,-186"/>
<polygon fill="#666666" stroke="#666666" points="24.5,-170 24.5,-170 76.5,-170 76.5,-170 24.5,-170"/>
<polygon fill="none" stroke="#666666" points="24.5,-152 24.5,-204 76.5,-204 76.5,-152 24.5,-152"/>
</a>
</g>
</g>
<!-- Node2&#45;&gt;Node1 -->
<g id="edge1_Node000001_Node000002" class="edge">
<title>Node2&#45;&gt;Node1</title>
<g id="a_edge1_Node000001_Node000002"><a xlink:title=" ">
<path fill="none" stroke="#63b8ff" d="M50.5,-140.82C50.5,-132.89 50.5,-124.31 50.5,-115.79"/>
<polygon fill="none" stroke="#63b8ff" points="47,-140.75 50.5,-150.75 54,-140.75 47,-140.75"/>
</a>
</g>
</g>
<!-- Node3 -->
<g id="Node000003" class="node">
<title>Node3</title>
<g id="a_Node000003"><a xlink:href="interface_code_smile_1_1_statemachine_1_1_i_statemachine_events.html" target="_top" xlink:title="Event methods that the Statemachine calls at specific times.">
<polygon fill="white" stroke="none" points="101,-292 0,-292 0,-240 101,-240 101,-292"/>
<text text-anchor="start" x="4.75" y="-278.5" font-family="Helvetica,sans-Serif" font-size="10.00">IStatemachineEvents</text>
<text text-anchor="start" x="49" y="-262.5" font-family="Helvetica,sans-Serif" font-size="10.00"> </text>
<text text-anchor="start" x="49" y="-246.5" font-family="Helvetica,sans-Serif" font-size="10.00"> </text>
<polygon fill="#666666" stroke="#666666" points="0,-274 0,-274 101,-274 101,-274 0,-274"/>
<polygon fill="#666666" stroke="#666666" points="0,-258 0,-258 101,-258 101,-258 0,-258"/>
<polygon fill="none" stroke="#666666" points="0,-240 0,-292 101,-292 101,-240 0,-240"/>
</a>
</g>
</g>
<!-- Node3&#45;&gt;Node2 -->
<g id="edge2_Node000002_Node000003" class="edge">
<title>Node3&#45;&gt;Node2</title>
<g id="a_edge2_Node000002_Node000003"><a xlink:title=" ">
<path fill="none" stroke="#63b8ff" d="M50.5,-228.66C50.5,-220.29 50.5,-211.57 50.5,-203.82"/>
<polygon fill="none" stroke="#63b8ff" points="47,-228.61 50.5,-238.61 54,-228.61 47,-228.61"/>
</a>
</g>
</g>
</g>
</svg>
</svg>

<style type='text/css'>
<![CDATA[
[data-mouse-over-selected='false'] { opacity: 0.7; }
[data-mouse-over-selected='true']  { opacity: 1.0; }
]]>
</style>
<script type="application/ecmascript"><![CDATA[
document.addEventListener('DOMContentLoaded', (event) => {
  highlightEdges();
  highlightAdjacentNodes();
});
]]></script>
</svg>
