<?xml version="1.0" encoding="UTF-8" standalone="no"?>
<!DOCTYPE svg PUBLIC "-//W3C//DTD SVG 1.1//EN"
 "http://www.w3.org/Graphics/SVG/1.1/DTD/svg11.dtd">
<!-- Generated by graphviz version 9.0.0 (20230911.1827)
 -->
<!-- Title: FloatVar Pages: 1 -->
<svg width="222pt" height="228pt"
 viewBox="0.00 0.00 221.50 228.00" xmlns="http://www.w3.org/2000/svg" xmlns:xlink="http://www.w3.org/1999/xlink">
<g id="graph0" class="graph" transform="scale(1 1) rotate(0) translate(4 224)">
<title>FloatVar</title>
<!-- Node1 -->
<g id="Node000001" class="node">
<title>Node1</title>
<g id="a_Node000001"><a xlink:title="Represents a float FSM variable.">
<polygon fill="#999999" stroke="none" points="143,-100 58,-100 58,0 143,0 143,-100"/>
<text text-anchor="start" x="82.12" y="-86.5" font-family="Helvetica,sans-Serif" font-size="10.00">FloatVar</text>
<text text-anchor="start" x="62" y="-70.5" font-family="Helvetica,sans-Serif" font-size="10.00">+</text>
<text text-anchor="start" x="72" y="-70.5" font-family="Helvetica,sans-Serif" font-size="10.00">Value</text>
<text text-anchor="start" x="62" y="-54.5" font-family="Helvetica,sans-Serif" font-size="10.00">+</text>
<text text-anchor="start" x="72" y="-54.5" font-family="Helvetica,sans-Serif" font-size="10.00">FloatVar()</text>
<text text-anchor="start" x="62" y="-38.5" font-family="Helvetica,sans-Serif" font-size="10.00">+</text>
<text text-anchor="start" x="72" y="-38.5" font-family="Helvetica,sans-Serif" font-size="10.00">DivideValue()</text>
<text text-anchor="start" x="62" y="-22.5" font-family="Helvetica,sans-Serif" font-size="10.00">+</text>
<text text-anchor="start" x="72" y="-22.5" font-family="Helvetica,sans-Serif" font-size="10.00">MultiplyValue()</text>
<text text-anchor="start" x="62" y="-6.5" font-family="Helvetica,sans-Serif" font-size="10.00">+</text>
<text text-anchor="start" x="72" y="-6.5" font-family="Helvetica,sans-Serif" font-size="10.00">SubtractValue()</text>
<polygon fill="#666666" stroke="#666666" points="58,-82 58,-82 143,-82 143,-82 58,-82"/>
<polygon fill="#666666" stroke="#666666" points="58,-66 58,-66 70,-66 70,-66 58,-66"/>
<polygon fill="#666666" stroke="#666666" points="70,-66 70,-66 143,-66 143,-66 70,-66"/>
<polygon fill="none" stroke="#666666" points="58,0 58,-100 143,-100 143,0 58,0"/>
</a>
</g>
</g>
<!-- Node2 -->
<g id="Node000002" class="node">
<title>Node2</title>
<g id="a_Node000002"><a xlink:href="class_code_smile_1_1_statemachine_1_1_variable_base.html" target="_top" xlink:title="Base class for all FSM variables.">
<polygon fill="white" stroke="none" points="85,-220 0,-220 0,-136 85,-136 85,-220"/>
<text text-anchor="start" x="13.62" y="-206.5" font-family="Helvetica,sans-Serif" font-size="10.00">VariableBase</text>
<text text-anchor="start" x="41" y="-190.5" font-family="Helvetica,sans-Serif" font-size="10.00"> </text>
<text text-anchor="start" x="4" y="-174.5" font-family="Helvetica,sans-Serif" font-size="10.00">+</text>
<text text-anchor="start" x="14" y="-174.5" font-family="Helvetica,sans-Serif" font-size="10.00">DivideValue()</text>
<text text-anchor="start" x="4" y="-158.5" font-family="Helvetica,sans-Serif" font-size="10.00">+</text>
<text text-anchor="start" x="14" y="-158.5" font-family="Helvetica,sans-Serif" font-size="10.00">MultiplyValue()</text>
<text text-anchor="start" x="4" y="-142.5" font-family="Helvetica,sans-Serif" font-size="10.00">+</text>
<text text-anchor="start" x="14" y="-142.5" font-family="Helvetica,sans-Serif" font-size="10.00">SubtractValue()</text>
<polygon fill="#666666" stroke="#666666" points="0,-202 0,-202 85,-202 85,-202 0,-202"/>
<polygon fill="#666666" stroke="#666666" points="0,-186 0,-186 85,-186 85,-186 0,-186"/>
<polygon fill="none" stroke="#666666" points="0,-136 0,-220 85,-220 85,-136 0,-136"/>
</a>
</g>
</g>
<!-- Node2&#45;&gt;Node1 -->
<g id="edge1_Node000001_Node000002" class="edge">
<title>Node2&#45;&gt;Node1</title>
<g id="a_edge1_Node000001_Node000002"><a xlink:title=" ">
<path fill="none" stroke="#63b8ff" d="M66.09,-125.75C70.07,-117.12 74.18,-108.17 78.13,-99.61"/>
<polygon fill="none" stroke="#63b8ff" points="62.97,-124.17 61.96,-134.72 69.32,-127.1 62.97,-124.17"/>
</a>
</g>
</g>
<!-- Node3 -->
<g id="Node000003" class="node">
<title>Node3</title>
<g id="a_Node000003"><a xlink:title=" ">
<polygon fill="white" stroke="none" points="213.5,-204 103.5,-204 103.5,-152 213.5,-152 213.5,-204"/>
<text text-anchor="start" x="108.25" y="-190.5" font-family="Helvetica,sans-Serif" font-size="10.00">IEquatable&lt; FloatVar &gt;</text>
<text text-anchor="start" x="157" y="-174.5" font-family="Helvetica,sans-Serif" font-size="10.00"> </text>
<text text-anchor="start" x="157" y="-158.5" font-family="Helvetica,sans-Serif" font-size="10.00"> </text>
<polygon fill="#bfbfbf" stroke="#bfbfbf" points="103.5,-186 103.5,-186 213.5,-186 213.5,-186 103.5,-186"/>
<polygon fill="#bfbfbf" stroke="#bfbfbf" points="103.5,-170 103.5,-170 213.5,-170 213.5,-170 103.5,-170"/>
<polygon fill="none" stroke="#bfbfbf" points="103.5,-152 103.5,-204 213.5,-204 213.5,-152 103.5,-152"/>
</a>
</g>
</g>
<!-- Node3&#45;&gt;Node1 -->
<g id="edge2_Node000001_Node000003" class="edge">
<title>Node3&#45;&gt;Node1</title>
<g id="a_edge2_Node000001_Node000003"><a xlink:title=" ">
<path fill="none" stroke="#63b8ff" d="M142.26,-141.73C136.29,-128.74 129.41,-113.79 122.98,-99.83"/>
<polygon fill="none" stroke="#63b8ff" points="139.05,-143.11 146.41,-150.73 145.41,-140.18 139.05,-143.11"/>
</a>
</g>
</g>
</g>
</svg>
