<?xml version="1.0" encoding="UTF-8" standalone="no"?>
<!DOCTYPE svg PUBLIC "-//W3C//DTD SVG 1.1//EN"
 "http://www.w3.org/Graphics/SVG/1.1/DTD/svg11.dtd">
<!-- Generated by graphviz version 9.0.0 (20230911.1827)
 -->
<!-- Title: PlayerClient Pages: 1 -->
<svg width="141pt" height="212pt"
 viewBox="0.00 0.00 141.00 212.00" xmlns="http://www.w3.org/2000/svg" xmlns:xlink="http://www.w3.org/1999/xlink">
<g id="graph0" class="graph" transform="scale(1 1) rotate(0) translate(4 208)">
<title>PlayerClient</title>
<!-- Node1 -->
<g id="Node000001" class="node">
<title>Node1</title>
<g id="a_Node000001"><a xlink:title=" ">
<polygon fill="#999999" stroke="none" points="133,-116 0,-116 0,0 133,0 133,-116"/>
<text text-anchor="start" x="40.25" y="-102.5" font-family="Helvetica,sans-Serif" font-size="10.00">PlayerClient</text>
<text text-anchor="start" x="4" y="-86.5" font-family="Helvetica,sans-Serif" font-size="10.00">+</text>
<text text-anchor="start" x="14" y="-86.5" font-family="Helvetica,sans-Serif" font-size="10.00">AnimatorController</text>
<text text-anchor="start" x="4" y="-70.5" font-family="Helvetica,sans-Serif" font-size="10.00">+</text>
<text text-anchor="start" x="14" y="-70.5" font-family="Helvetica,sans-Serif" font-size="10.00">AnimatorParameters</text>
<text text-anchor="start" x="4" y="-54.5" font-family="Helvetica,sans-Serif" font-size="10.00">+</text>
<text text-anchor="start" x="14" y="-54.5" font-family="Helvetica,sans-Serif" font-size="10.00">KillPlayerClientRpc()</text>
<text text-anchor="start" x="4" y="-38.5" font-family="Helvetica,sans-Serif" font-size="10.00">+</text>
<text text-anchor="start" x="14" y="-38.5" font-family="Helvetica,sans-Serif" font-size="10.00">OnNetworkDespawn()</text>
<text text-anchor="start" x="4" y="-22.5" font-family="Helvetica,sans-Serif" font-size="10.00">+</text>
<text text-anchor="start" x="14" y="-22.5" font-family="Helvetica,sans-Serif" font-size="10.00">OnNetworkSpawn()</text>
<text text-anchor="start" x="4" y="-6.5" font-family="Helvetica,sans-Serif" font-size="10.00">+</text>
<text text-anchor="start" x="14" y="-6.5" font-family="Helvetica,sans-Serif" font-size="10.00">RespawnPlayerClientRpc()</text>
<polygon fill="#666666" stroke="#666666" points="0,-98 0,-98 133,-98 133,-98 0,-98"/>
<polygon fill="#666666" stroke="#666666" points="0,-66 0,-66 12,-66 12,-66 0,-66"/>
<polygon fill="#666666" stroke="#666666" points="12,-66 12,-66 133,-66 133,-66 12,-66"/>
<polygon fill="none" stroke="#666666" points="0,0 0,-116 133,-116 133,0 0,0"/>
</a>
</g>
</g>
<!-- Node2 -->
<g id="Node000002" class="node">
<title>Node2</title>
<g id="a_Node000002"><a xlink:title=" ">
<polygon fill="white" stroke="none" points="110,-204 23,-204 23,-152 110,-152 110,-204"/>
<text text-anchor="start" x="27.88" y="-190.5" font-family="Helvetica,sans-Serif" font-size="10.00">NetworkBehaviour</text>
<text text-anchor="start" x="65" y="-174.5" font-family="Helvetica,sans-Serif" font-size="10.00"> </text>
<text text-anchor="start" x="65" y="-158.5" font-family="Helvetica,sans-Serif" font-size="10.00"> </text>
<polygon fill="#bfbfbf" stroke="#bfbfbf" points="23,-186 23,-186 110,-186 110,-186 23,-186"/>
<polygon fill="#bfbfbf" stroke="#bfbfbf" points="23,-170 23,-170 110,-170 110,-170 23,-170"/>
<polygon fill="none" stroke="#bfbfbf" points="23,-152 23,-204 110,-204 110,-152 23,-152"/>
</a>
</g>
</g>
<!-- Node2&#45;&gt;Node1 -->
<g id="edge1_Node000001_Node000002" class="edge">
<title>Node2&#45;&gt;Node1</title>
<g id="a_edge1_Node000001_Node000002"><a xlink:title=" ">
<path fill="none" stroke="#63b8ff" d="M66.5,-140.82C66.5,-132.89 66.5,-124.31 66.5,-115.79"/>
<polygon fill="none" stroke="#63b8ff" points="63,-140.75 66.5,-150.75 70,-140.75 63,-140.75"/>
</a>
</g>
</g>
</g>
</svg>
