<?xml version="1.0" encoding="UTF-8" standalone="no"?>
<!DOCTYPE svg PUBLIC "-//W3C//DTD SVG 1.1//EN"
 "http://www.w3.org/Graphics/SVG/1.1/DTD/svg11.dtd">
<!-- Generated by graphviz version 9.0.0 (20230911.1827)
 -->
<!-- Title: IsLocalServerStopped Pages: 1 -->
<svg width="111pt" height="324pt"
 viewBox="0.00 0.00 111.00 324.00" xmlns="http://www.w3.org/2000/svg" xmlns:xlink="http://www.w3.org/1999/xlink">

<svg id="main" version="1.1" xmlns="http://www.w3.org/2000/svg" xmlns:xlink="http://www.w3.org/1999/xlink" xml:space="preserve">

<style type="text/css"><![CDATA[
.node, .edge {opacity: 0.7;}
.node.selected, .edge.selected {opacity: 1;}
.edge:hover path { stroke: red; }
.edge:hover polygon { stroke: red; fill: red; }
]]></style>
<script type="application/ecmascript" xlink:href="svg.min.js"/>
<svg id="graph" class="graph">
<g id="graph0" class="graph" transform="scale(1 1) rotate(0) translate(4 320)">
<title>IsLocalServerStopped</title>
<!-- Node1 -->
<g id="Node000001" class="node">
<title>Node1</title>
<g id="a_Node000001"><a xlink:title="Tests if the server is not in the started state.">
<polygon fill="#999999" stroke="none" points="103,-52 0,-52 0,0 103,0 103,-52"/>
<text text-anchor="start" x="4.62" y="-38.5" font-family="Helvetica,sans-Serif" font-size="10.00">IsLocalServerStopped</text>
<text text-anchor="start" x="50" y="-22.5" font-family="Helvetica,sans-Serif" font-size="10.00"> </text>
<text text-anchor="start" x="50" y="-6.5" font-family="Helvetica,sans-Serif" font-size="10.00"> </text>
<polygon fill="#666666" stroke="#666666" points="0,-34 0,-34 103,-34 103,-34 0,-34"/>
<polygon fill="#666666" stroke="#666666" points="0,-18 0,-18 103,-18 103,-18 0,-18"/>
<polygon fill="none" stroke="#666666" points="0,0 0,-52 103,-52 103,0 0,0"/>
</a>
</g>
</g>
<!-- Node2 -->
<g id="Node000002" class="node">
<title>Node2</title>
<g id="a_Node000002"><a xlink:href="class_code_smile_1_1_statemachine_1_1_netcode_1_1_conditions_1_1_is_local_server_started.html" target="_top" xlink:title="Is true after NetworkManager StartServer is called and until server stops or a transport failure occu...">
<polygon fill="white" stroke="none" points="101,-140 2,-140 2,-88 101,-88 101,-140"/>
<text text-anchor="start" x="6.88" y="-126.5" font-family="Helvetica,sans-Serif" font-size="10.00">IsLocalServerStarted</text>
<text text-anchor="start" x="50" y="-110.5" font-family="Helvetica,sans-Serif" font-size="10.00"> </text>
<text text-anchor="start" x="50" y="-94.5" font-family="Helvetica,sans-Serif" font-size="10.00"> </text>
<polygon fill="#666666" stroke="#666666" points="2,-122 2,-122 101,-122 101,-122 2,-122"/>
<polygon fill="#666666" stroke="#666666" points="2,-106 2,-106 101,-106 101,-106 2,-106"/>
<polygon fill="none" stroke="#666666" points="2,-88 2,-140 101,-140 101,-88 2,-88"/>
</a>
</g>
</g>
<!-- Node2&#45;&gt;Node1 -->
<g id="edge1_Node000001_Node000002" class="edge">
<title>Node2&#45;&gt;Node1</title>
<g id="a_edge1_Node000001_Node000002"><a xlink:title=" ">
<path fill="none" stroke="#63b8ff" d="M51.5,-76.66C51.5,-68.29 51.5,-59.57 51.5,-51.82"/>
<polygon fill="none" stroke="#63b8ff" points="48,-76.61 51.5,-86.61 55,-76.61 48,-76.61"/>
</a>
</g>
</g>
<!-- Node3 -->
<g id="Node000003" class="node">
<title>Node3</title>
<g id="a_Node000003"><a xlink:href="interface_code_smile_1_1_statemachine_1_1_i_condition.html" target="_top" xlink:title="Marks a class as a FSM Condition.">
<polygon fill="white" stroke="none" points="77.5,-228 25.5,-228 25.5,-176 77.5,-176 77.5,-228"/>
<text text-anchor="start" x="30.12" y="-214.5" font-family="Helvetica,sans-Serif" font-size="10.00">ICondition</text>
<text text-anchor="start" x="50" y="-198.5" font-family="Helvetica,sans-Serif" font-size="10.00"> </text>
<text text-anchor="start" x="50" y="-182.5" font-family="Helvetica,sans-Serif" font-size="10.00"> </text>
<polygon fill="#666666" stroke="#666666" points="25.5,-210 25.5,-210 77.5,-210 77.5,-210 25.5,-210"/>
<polygon fill="#666666" stroke="#666666" points="25.5,-194 25.5,-194 77.5,-194 77.5,-194 25.5,-194"/>
<polygon fill="none" stroke="#666666" points="25.5,-176 25.5,-228 77.5,-228 77.5,-176 25.5,-176"/>
</a>
</g>
</g>
<!-- Node3&#45;&gt;Node2 -->
<g id="edge2_Node000002_Node000003" class="edge">
<title>Node3&#45;&gt;Node2</title>
<g id="a_edge2_Node000002_Node000003"><a xlink:title=" ">
<path fill="none" stroke="#63b8ff" d="M51.5,-164.66C51.5,-156.29 51.5,-147.57 51.5,-139.82"/>
<polygon fill="none" stroke="#63b8ff" points="48,-164.61 51.5,-174.61 55,-164.61 48,-164.61"/>
</a>
</g>
</g>
<!-- Node4 -->
<g id="Node000004" class="node">
<title>Node4</title>
<g id="a_Node000004"><a xlink:href="interface_code_smile_1_1_statemachine_1_1_i_statemachine_events.html" target="_top" xlink:title="Event methods that the Statemachine calls at specific times.">
<polygon fill="white" stroke="none" points="102,-316 1,-316 1,-264 102,-264 102,-316"/>
<text text-anchor="start" x="5.75" y="-302.5" font-family="Helvetica,sans-Serif" font-size="10.00">IStatemachineEvents</text>
<text text-anchor="start" x="50" y="-286.5" font-family="Helvetica,sans-Serif" font-size="10.00"> </text>
<text text-anchor="start" x="50" y="-270.5" font-family="Helvetica,sans-Serif" font-size="10.00"> </text>
<polygon fill="#666666" stroke="#666666" points="1,-298 1,-298 102,-298 102,-298 1,-298"/>
<polygon fill="#666666" stroke="#666666" points="1,-282 1,-282 102,-282 102,-282 1,-282"/>
<polygon fill="none" stroke="#666666" points="1,-264 1,-316 102,-316 102,-264 1,-264"/>
</a>
</g>
</g>
<!-- Node4&#45;&gt;Node3 -->
<g id="edge3_Node000003_Node000004" class="edge">
<title>Node4&#45;&gt;Node3</title>
<g id="a_edge3_Node000003_Node000004"><a xlink:title=" ">
<path fill="none" stroke="#63b8ff" d="M51.5,-252.66C51.5,-244.29 51.5,-235.57 51.5,-227.82"/>
<polygon fill="none" stroke="#63b8ff" points="48,-252.61 51.5,-262.61 55,-252.61 48,-252.61"/>
</a>
</g>
</g>
</g>
</svg>
</svg>

<style type='text/css'>
<![CDATA[
[data-mouse-over-selected='false'] { opacity: 0.7; }
[data-mouse-over-selected='true']  { opacity: 1.0; }
]]>
</style>
<script type="application/ecmascript"><![CDATA[
document.addEventListener('DOMContentLoaded', (event) => {
  highlightEdges();
  highlightAdjacentNodes();
});
]]></script>
</svg>
