<?xml version="1.0" encoding="UTF-8" standalone="no"?>
<!DOCTYPE svg PUBLIC "-//W3C//DTD SVG 1.1//EN"
 "http://www.w3.org/Graphics/SVG/1.1/DTD/svg11.dtd">
<!-- Generated by graphviz version 9.0.0 (20230911.1827)
 -->
<!-- Title: AuthenticationState Pages: 1 -->
<svg width="252pt" height="608pt"
 viewBox="0.00 0.00 252.00 608.00" xmlns="http://www.w3.org/2000/svg" xmlns:xlink="http://www.w3.org/1999/xlink">
<g id="graph0" class="graph" transform="scale(1 1) rotate(0) translate(4 604)">
<title>AuthenticationState</title>
<!-- Node1 -->
<g id="Node000001" class="node">
<title>Node1</title>
<g id="a_Node000001"><a xlink:title=" ">
<polygon fill="#999999" stroke="none" points="150.5,-52 55.5,-52 55.5,0 150.5,0 150.5,-52"/>
<text text-anchor="start" x="60.25" y="-38.5" font-family="Helvetica,sans-Serif" font-size="10.00">AuthenticationState</text>
<text text-anchor="start" x="101.5" y="-22.5" font-family="Helvetica,sans-Serif" font-size="10.00"> </text>
<text text-anchor="start" x="101.5" y="-6.5" font-family="Helvetica,sans-Serif" font-size="10.00"> </text>
<polygon fill="#666666" stroke="#666666" points="55.5,-34 55.5,-34 150.5,-34 150.5,-34 55.5,-34"/>
<polygon fill="#666666" stroke="#666666" points="55.5,-18 55.5,-18 150.5,-18 150.5,-18 55.5,-18"/>
<polygon fill="none" stroke="#666666" points="55.5,0 55.5,-52 150.5,-52 150.5,0 55.5,0"/>
</a>
</g>
</g>
<!-- Node2 -->
<g id="Node000002" class="node">
<title>Node2</title>
<g id="a_Node000002"><a xlink:title=" ">
<polygon fill="white" stroke="none" points="76,-376 0,-376 0,-324 76,-324 76,-376"/>
<text text-anchor="start" x="5" y="-362.5" font-family="Helvetica,sans-Serif" font-size="10.00">MonoBehaviour</text>
<text text-anchor="start" x="36.5" y="-346.5" font-family="Helvetica,sans-Serif" font-size="10.00"> </text>
<text text-anchor="start" x="36.5" y="-330.5" font-family="Helvetica,sans-Serif" font-size="10.00"> </text>
<polygon fill="#bfbfbf" stroke="#bfbfbf" points="0,-358 0,-358 76,-358 76,-358 0,-358"/>
<polygon fill="#bfbfbf" stroke="#bfbfbf" points="0,-342 0,-342 76,-342 76,-342 0,-342"/>
<polygon fill="none" stroke="#bfbfbf" points="0,-324 0,-376 76,-376 76,-324 0,-324"/>
</a>
</g>
</g>
<!-- Node2&#45;&gt;Node1 -->
<g id="edge1_Node000001_Node000002" class="edge">
<title>Node2&#45;&gt;Node1</title>
<g id="a_edge1_Node000001_Node000002"><a xlink:title=" ">
<path fill="none" stroke="#63b8ff" d="M44.15,-313.02C52.59,-264.5 68.59,-175.45 85,-100 88.5,-83.93 92.91,-65.99 96.49,-51.92"/>
<polygon fill="none" stroke="#63b8ff" points="40.73,-312.23 42.48,-322.68 47.63,-313.42 40.73,-312.23"/>
</a>
</g>
</g>
<!-- Node3 -->
<g id="Node000003" class="node">
<title>Node3</title>
<g id="a_Node000003"><a xlink:href="class_code_smile_1_1_statemachine_1_1_f_s_m.html" target="_top" xlink:title="Represents a finite&#45;statemachine with a set of local and global variables indexed by name.">
<polygon fill="white" stroke="none" points="244,-600 94,-600 94,-100 244,-100 244,-600"/>
<text text-anchor="start" x="158.5" y="-586.5" font-family="Helvetica,sans-Serif" font-size="10.00">FSM</text>
<text text-anchor="start" x="98" y="-570.5" font-family="Helvetica,sans-Serif" font-size="10.00">+</text>
<text text-anchor="start" x="108" y="-570.5" font-family="Helvetica,sans-Serif" font-size="10.00">ActiveState</text>
<text text-anchor="start" x="98" y="-554.5" font-family="Helvetica,sans-Serif" font-size="10.00">+</text>
<text text-anchor="start" x="108" y="-554.5" font-family="Helvetica,sans-Serif" font-size="10.00">ActiveStateIndex</text>
<text text-anchor="start" x="98" y="-538.5" font-family="Helvetica,sans-Serif" font-size="10.00">+</text>
<text text-anchor="start" x="108" y="-538.5" font-family="Helvetica,sans-Serif" font-size="10.00">AllowMultipleStateChanges</text>
<text text-anchor="start" x="98" y="-522.5" font-family="Helvetica,sans-Serif" font-size="10.00">+</text>
<text text-anchor="start" x="108" y="-522.5" font-family="Helvetica,sans-Serif" font-size="10.00">DidChangeState</text>
<text text-anchor="start" x="98" y="-506.5" font-family="Helvetica,sans-Serif" font-size="10.00">+</text>
<text text-anchor="start" x="108" y="-506.5" font-family="Helvetica,sans-Serif" font-size="10.00">IsStarted</text>
<text text-anchor="start" x="98" y="-490.5" font-family="Helvetica,sans-Serif" font-size="10.00">+</text>
<text text-anchor="start" x="108" y="-490.5" font-family="Helvetica,sans-Serif" font-size="10.00">IsStopped</text>
<text text-anchor="start" x="98" y="-474.5" font-family="Helvetica,sans-Serif" font-size="10.00">+</text>
<text text-anchor="start" x="108" y="-474.5" font-family="Helvetica,sans-Serif" font-size="10.00">Logging</text>
<text text-anchor="start" x="98" y="-458.5" font-family="Helvetica,sans-Serif" font-size="10.00">+</text>
<text text-anchor="start" x="108" y="-458.5" font-family="Helvetica,sans-Serif" font-size="10.00">MaxStateChangesPerEvaluate</text>
<text text-anchor="start" x="98" y="-442.5" font-family="Helvetica,sans-Serif" font-size="10.00">+</text>
<text text-anchor="start" x="108" y="-442.5" font-family="Helvetica,sans-Serif" font-size="10.00">Name</text>
<text text-anchor="start" x="98" y="-426.5" font-family="Helvetica,sans-Serif" font-size="10.00">+</text>
<text text-anchor="start" x="108" y="-426.5" font-family="Helvetica,sans-Serif" font-size="10.00">States</text>
<text text-anchor="start" x="98" y="-410.5" font-family="Helvetica,sans-Serif" font-size="10.00">+</text>
<text text-anchor="start" x="108" y="-410.5" font-family="Helvetica,sans-Serif" font-size="10.00">StaticVars</text>
<text text-anchor="start" x="98" y="-394.5" font-family="Helvetica,sans-Serif" font-size="10.00">+</text>
<text text-anchor="start" x="108" y="-394.5" font-family="Helvetica,sans-Serif" font-size="10.00">Vars</text>
<text text-anchor="start" x="98" y="-378.5" font-family="Helvetica,sans-Serif" font-size="10.00">+</text>
<text text-anchor="start" x="108" y="-378.5" font-family="Helvetica,sans-Serif" font-size="10.00">FSM()</text>
<text text-anchor="start" x="98" y="-362.5" font-family="Helvetica,sans-Serif" font-size="10.00">+</text>
<text text-anchor="start" x="108" y="-362.5" font-family="Helvetica,sans-Serif" font-size="10.00">Start()</text>
<text text-anchor="start" x="98" y="-346.5" font-family="Helvetica,sans-Serif" font-size="10.00">+</text>
<text text-anchor="start" x="108" y="-346.5" font-family="Helvetica,sans-Serif" font-size="10.00">ToString()</text>
<text text-anchor="start" x="98" y="-330.5" font-family="Helvetica,sans-Serif" font-size="10.00">+</text>
<text text-anchor="start" x="108" y="-330.5" font-family="Helvetica,sans-Serif" font-size="10.00">Update()</text>
<text text-anchor="start" x="98" y="-314.5" font-family="Helvetica,sans-Serif" font-size="10.00">+</text>
<text text-anchor="start" x="108" y="-314.5" font-family="Helvetica,sans-Serif" font-size="10.00">WithStates()</text>
<text text-anchor="start" x="98" y="-298.5" font-family="Helvetica,sans-Serif" font-size="10.00">+</text>
<text text-anchor="start" x="108" y="-298.5" font-family="Helvetica,sans-Serif" font-size="10.00">WithStates()</text>
<text text-anchor="start" x="98" y="-282.5" font-family="Helvetica,sans-Serif" font-size="10.00">+</text>
<text text-anchor="start" x="108" y="-282.5" font-family="Helvetica,sans-Serif" font-size="10.00">Action()</text>
<text text-anchor="start" x="98" y="-266.5" font-family="Helvetica,sans-Serif" font-size="10.00">+</text>
<text text-anchor="start" x="108" y="-266.5" font-family="Helvetica,sans-Serif" font-size="10.00">AND()</text>
<text text-anchor="start" x="98" y="-250.5" font-family="Helvetica,sans-Serif" font-size="10.00">+</text>
<text text-anchor="start" x="108" y="-250.5" font-family="Helvetica,sans-Serif" font-size="10.00">Condition()</text>
<text text-anchor="start" x="98" y="-234.5" font-family="Helvetica,sans-Serif" font-size="10.00">+</text>
<text text-anchor="start" x="108" y="-234.5" font-family="Helvetica,sans-Serif" font-size="10.00">CreateState()</text>
<text text-anchor="start" x="98" y="-218.5" font-family="Helvetica,sans-Serif" font-size="10.00">+</text>
<text text-anchor="start" x="108" y="-218.5" font-family="Helvetica,sans-Serif" font-size="10.00">CreateStates()</text>
<text text-anchor="start" x="98" y="-202.5" font-family="Helvetica,sans-Serif" font-size="10.00">+</text>
<text text-anchor="start" x="108" y="-202.5" font-family="Helvetica,sans-Serif" font-size="10.00">CreateTransition()</text>
<text text-anchor="start" x="98" y="-186.5" font-family="Helvetica,sans-Serif" font-size="10.00">+</text>
<text text-anchor="start" x="108" y="-186.5" font-family="Helvetica,sans-Serif" font-size="10.00">CreateTransition()</text>
<text text-anchor="start" x="98" y="-170.5" font-family="Helvetica,sans-Serif" font-size="10.00">+</text>
<text text-anchor="start" x="108" y="-170.5" font-family="Helvetica,sans-Serif" font-size="10.00">NAND()</text>
<text text-anchor="start" x="98" y="-154.5" font-family="Helvetica,sans-Serif" font-size="10.00">+</text>
<text text-anchor="start" x="108" y="-154.5" font-family="Helvetica,sans-Serif" font-size="10.00">NOR()</text>
<text text-anchor="start" x="98" y="-138.5" font-family="Helvetica,sans-Serif" font-size="10.00">+</text>
<text text-anchor="start" x="108" y="-138.5" font-family="Helvetica,sans-Serif" font-size="10.00">NOT()</text>
<text text-anchor="start" x="98" y="-122.5" font-family="Helvetica,sans-Serif" font-size="10.00">+</text>
<text text-anchor="start" x="108" y="-122.5" font-family="Helvetica,sans-Serif" font-size="10.00">OR()</text>
<text text-anchor="start" x="98" y="-106.5" font-family="Helvetica,sans-Serif" font-size="10.00">~</text>
<text text-anchor="start" x="108" y="-106.5" font-family="Helvetica,sans-Serif" font-size="10.00">SetActiveState()</text>
<polygon fill="#666666" stroke="#666666" points="94,-582 94,-582 244,-582 244,-582 94,-582"/>
<polygon fill="#666666" stroke="#666666" points="94,-390 94,-390 106,-390 106,-390 94,-390"/>
<polygon fill="#666666" stroke="#666666" points="106,-390 106,-390 244,-390 244,-390 106,-390"/>
<polygon fill="none" stroke="#666666" points="94,-100 94,-600 244,-600 244,-100 94,-100"/>
</a>
</g>
</g>
<!-- Node3&#45;&gt;Node1 -->
<g id="edge2_Node000001_Node000003" class="edge">
<title>Node3&#45;&gt;Node1</title>
<g id="a_edge2_Node000001_Node000003"><a xlink:title=" ">
<path fill="none" stroke="#63b8ff" d="M117.98,-100.07C115.26,-86.82 112.78,-74.72 110.65,-64.35"/>
<polygon fill="none" stroke="#63b8ff" points="110.66,-64.38 105.54,-59.31 108.25,-52.63 113.38,-57.7 110.66,-64.38"/>
</a>
</g>
<text text-anchor="middle" x="156.25" y="-72.5" font-family="Helvetica,sans-Serif" font-size="10.00" fill="grey"> +m_Statemachine</text>
</g>
</g>
</svg>
