<?xml version="1.0" encoding="UTF-8" standalone="no"?>
<!DOCTYPE svg PUBLIC "-//W3C//DTD SVG 1.1//EN"
 "http://www.w3.org/Graphics/SVG/1.1/DTD/svg11.dtd">
<!-- Generated by graphviz version 9.0.0 (20230911.1827)
 -->
<!-- Title: IsNetcodeRole Pages: 1 -->
<svg width="110pt" height="324pt"
 viewBox="0.00 0.00 110.00 324.00" xmlns="http://www.w3.org/2000/svg" xmlns:xlink="http://www.w3.org/1999/xlink">

<svg id="main" version="1.1" xmlns="http://www.w3.org/2000/svg" xmlns:xlink="http://www.w3.org/1999/xlink" xml:space="preserve">

<style type="text/css"><![CDATA[
.node, .edge {opacity: 0.7;}
.node.selected, .edge.selected {opacity: 1;}
.edge:hover path { stroke: red; }
.edge:hover polygon { stroke: red; fill: red; }
]]></style>
<script type="application/ecmascript" xlink:href="svg.min.js"/>
<svg id="graph" class="graph">
<g id="graph0" class="graph" transform="scale(1 1) rotate(0) translate(4 320)">
<title>IsNetcodeRole</title>
<!-- Node1 -->
<g id="Node000001" class="node">
<title>Node1</title>
<g id="a_Node000001"><a xlink:title="Tests if the config variable&#39;s NetcodeRole matches the parameter.">
<polygon fill="#999999" stroke="none" points="94.5,-140 7.5,-140 7.5,-88 94.5,-88 94.5,-140"/>
<text text-anchor="start" x="19.5" y="-126.5" font-family="Helvetica,sans-Serif" font-size="10.00">IsNetcodeRole</text>
<text text-anchor="start" x="11.88" y="-110.5" font-family="Helvetica,sans-Serif" font-size="10.00">#</text>
<text text-anchor="start" x="21.5" y="-110.5" font-family="Helvetica,sans-Serif" font-size="10.00">m_Role</text>
<text text-anchor="start" x="11.5" y="-94.5" font-family="Helvetica,sans-Serif" font-size="10.00">+</text>
<text text-anchor="start" x="21.5" y="-94.5" font-family="Helvetica,sans-Serif" font-size="10.00">IsNetcodeRole()</text>
<polygon fill="#666666" stroke="#666666" points="7.5,-122 7.5,-122 94.5,-122 94.5,-122 7.5,-122"/>
<polygon fill="#666666" stroke="#666666" points="7.5,-106 7.5,-106 19.5,-106 19.5,-106 7.5,-106"/>
<polygon fill="#666666" stroke="#666666" points="19.5,-106 19.5,-106 94.5,-106 94.5,-106 19.5,-106"/>
<polygon fill="none" stroke="#666666" points="7.5,-88 7.5,-140 94.5,-140 94.5,-88 7.5,-88"/>
</a>
</g>
</g>
<!-- Node4 -->
<g id="Node000004" class="node">
<title>Node4</title>
<g id="a_Node000004"><a xlink:href="class_code_smile_1_1_statemachine_1_1_netcode_1_1_conditions_1_1_is_not_netcode_role.html" target="_top" xlink:title="Is true if the Netcode variable&#39;s role does not match the parameter.">
<polygon fill="white" stroke="none" points="102,-52 0,-52 0,0 102,0 102,-52"/>
<text text-anchor="start" x="12" y="-38.5" font-family="Helvetica,sans-Serif" font-size="10.00">IsNotNetcodeRole</text>
<text text-anchor="start" x="49.5" y="-22.5" font-family="Helvetica,sans-Serif" font-size="10.00"> </text>
<text text-anchor="start" x="4" y="-6.5" font-family="Helvetica,sans-Serif" font-size="10.00">+</text>
<text text-anchor="start" x="14" y="-6.5" font-family="Helvetica,sans-Serif" font-size="10.00">IsNotNetcodeRole()</text>
<polygon fill="#666666" stroke="#666666" points="0,-34 0,-34 102,-34 102,-34 0,-34"/>
<polygon fill="#666666" stroke="#666666" points="0,-18 0,-18 102,-18 102,-18 0,-18"/>
<polygon fill="none" stroke="#666666" points="0,0 0,-52 102,-52 102,0 0,0"/>
</a>
</g>
</g>
<!-- Node1&#45;&gt;Node4 -->
<g id="edge3_Node000001_Node000004" class="edge">
<title>Node1&#45;&gt;Node4</title>
<g id="a_edge3_Node000001_Node000004"><a xlink:title=" ">
<path fill="none" stroke="#63b8ff" d="M51,-76.66C51,-68.29 51,-59.57 51,-51.82"/>
<polygon fill="none" stroke="#63b8ff" points="47.5,-76.61 51,-86.61 54.5,-76.61 47.5,-76.61"/>
</a>
</g>
</g>
<!-- Node2 -->
<g id="Node000002" class="node">
<title>Node2</title>
<g id="a_Node000002"><a xlink:href="interface_code_smile_1_1_statemachine_1_1_i_condition.html" target="_top" xlink:title="Marks a class as a FSM Condition.">
<polygon fill="white" stroke="none" points="77,-228 25,-228 25,-176 77,-176 77,-228"/>
<text text-anchor="start" x="29.62" y="-214.5" font-family="Helvetica,sans-Serif" font-size="10.00">ICondition</text>
<text text-anchor="start" x="49.5" y="-198.5" font-family="Helvetica,sans-Serif" font-size="10.00"> </text>
<text text-anchor="start" x="49.5" y="-182.5" font-family="Helvetica,sans-Serif" font-size="10.00"> </text>
<polygon fill="#666666" stroke="#666666" points="25,-210 25,-210 77,-210 77,-210 25,-210"/>
<polygon fill="#666666" stroke="#666666" points="25,-194 25,-194 77,-194 77,-194 25,-194"/>
<polygon fill="none" stroke="#666666" points="25,-176 25,-228 77,-228 77,-176 25,-176"/>
</a>
</g>
</g>
<!-- Node2&#45;&gt;Node1 -->
<g id="edge1_Node000001_Node000002" class="edge">
<title>Node2&#45;&gt;Node1</title>
<g id="a_edge1_Node000001_Node000002"><a xlink:title=" ">
<path fill="none" stroke="#63b8ff" d="M51,-164.66C51,-156.29 51,-147.57 51,-139.82"/>
<polygon fill="none" stroke="#63b8ff" points="47.5,-164.61 51,-174.61 54.5,-164.61 47.5,-164.61"/>
</a>
</g>
</g>
<!-- Node3 -->
<g id="Node000003" class="node">
<title>Node3</title>
<g id="a_Node000003"><a xlink:href="interface_code_smile_1_1_statemachine_1_1_i_statemachine_events.html" target="_top" xlink:title="Event methods that the Statemachine calls at specific times.">
<polygon fill="white" stroke="none" points="101.5,-316 0.5,-316 0.5,-264 101.5,-264 101.5,-316"/>
<text text-anchor="start" x="5.25" y="-302.5" font-family="Helvetica,sans-Serif" font-size="10.00">IStatemachineEvents</text>
<text text-anchor="start" x="49.5" y="-286.5" font-family="Helvetica,sans-Serif" font-size="10.00"> </text>
<text text-anchor="start" x="49.5" y="-270.5" font-family="Helvetica,sans-Serif" font-size="10.00"> </text>
<polygon fill="#666666" stroke="#666666" points="0.5,-298 0.5,-298 101.5,-298 101.5,-298 0.5,-298"/>
<polygon fill="#666666" stroke="#666666" points="0.5,-282 0.5,-282 101.5,-282 101.5,-282 0.5,-282"/>
<polygon fill="none" stroke="#666666" points="0.5,-264 0.5,-316 101.5,-316 101.5,-264 0.5,-264"/>
</a>
</g>
</g>
<!-- Node3&#45;&gt;Node2 -->
<g id="edge2_Node000002_Node000003" class="edge">
<title>Node3&#45;&gt;Node2</title>
<g id="a_edge2_Node000002_Node000003"><a xlink:title=" ">
<path fill="none" stroke="#63b8ff" d="M51,-252.66C51,-244.29 51,-235.57 51,-227.82"/>
<polygon fill="none" stroke="#63b8ff" points="47.5,-252.61 51,-262.61 54.5,-252.61 47.5,-252.61"/>
</a>
</g>
</g>
</g>
</svg>
</svg>

<style type='text/css'>
<![CDATA[
[data-mouse-over-selected='false'] { opacity: 0.7; }
[data-mouse-over-selected='true']  { opacity: 1.0; }
]]>
</style>
<script type="application/ecmascript"><![CDATA[
document.addEventListener('DOMContentLoaded', (event) => {
  highlightEdges();
  highlightAdjacentNodes();
});
]]></script>
</svg>
