<?xml version="1.0" encoding="UTF-8" standalone="no"?>
<!DOCTYPE svg PUBLIC "-//W3C//DTD SVG 1.1//EN"
 "http://www.w3.org/Graphics/SVG/1.1/DTD/svg11.dtd">
<!-- Generated by graphviz version 9.0.0 (20230911.1827)
 -->
<!-- Title: BoolVar Pages: 1 -->
<svg width="220pt" height="228pt"
 viewBox="0.00 0.00 219.50 228.00" xmlns="http://www.w3.org/2000/svg" xmlns:xlink="http://www.w3.org/1999/xlink">

<svg id="main" version="1.1" xmlns="http://www.w3.org/2000/svg" xmlns:xlink="http://www.w3.org/1999/xlink" xml:space="preserve">

<style type="text/css"><![CDATA[
.node, .edge {opacity: 0.7;}
.node.selected, .edge.selected {opacity: 1;}
.edge:hover path { stroke: red; }
.edge:hover polygon { stroke: red; fill: red; }
]]></style>
<script type="application/ecmascript" xlink:href="svg.min.js"/>
<svg id="graph" class="graph">
<g id="graph0" class="graph" transform="scale(1 1) rotate(0) translate(4 224)">
<title>BoolVar</title>
<!-- Node1 -->
<g id="Node000001" class="node">
<title>Node1</title>
<g id="a_Node000001"><a xlink:title="Represents a boolean FSM variable.">
<polygon fill="#999999" stroke="none" points="142,-100 57,-100 57,0 142,0 142,-100"/>
<text text-anchor="start" x="82.25" y="-86.5" font-family="Helvetica,sans-Serif" font-size="10.00">BoolVar</text>
<text text-anchor="start" x="61" y="-70.5" font-family="Helvetica,sans-Serif" font-size="10.00">+</text>
<text text-anchor="start" x="71" y="-70.5" font-family="Helvetica,sans-Serif" font-size="10.00">Value</text>
<text text-anchor="start" x="61" y="-54.5" font-family="Helvetica,sans-Serif" font-size="10.00">+</text>
<text text-anchor="start" x="71" y="-54.5" font-family="Helvetica,sans-Serif" font-size="10.00">BoolVar()</text>
<text text-anchor="start" x="61" y="-38.5" font-family="Helvetica,sans-Serif" font-size="10.00">+</text>
<text text-anchor="start" x="71" y="-38.5" font-family="Helvetica,sans-Serif" font-size="10.00">DivideValue()</text>
<text text-anchor="start" x="61" y="-22.5" font-family="Helvetica,sans-Serif" font-size="10.00">+</text>
<text text-anchor="start" x="71" y="-22.5" font-family="Helvetica,sans-Serif" font-size="10.00">MultiplyValue()</text>
<text text-anchor="start" x="61" y="-6.5" font-family="Helvetica,sans-Serif" font-size="10.00">+</text>
<text text-anchor="start" x="71" y="-6.5" font-family="Helvetica,sans-Serif" font-size="10.00">SubtractValue()</text>
<polygon fill="#666666" stroke="#666666" points="57,-82 57,-82 142,-82 142,-82 57,-82"/>
<polygon fill="#666666" stroke="#666666" points="57,-66 57,-66 69,-66 69,-66 57,-66"/>
<polygon fill="#666666" stroke="#666666" points="69,-66 69,-66 142,-66 142,-66 69,-66"/>
<polygon fill="none" stroke="#666666" points="57,0 57,-100 142,-100 142,0 57,0"/>
</a>
</g>
</g>
<!-- Node2 -->
<g id="Node000002" class="node">
<title>Node2</title>
<g id="a_Node000002"><a xlink:href="class_code_smile_1_1_statemachine_1_1_variable_base.html" target="_top" xlink:title="Base class for all FSM variables.">
<polygon fill="white" stroke="none" points="85,-220 0,-220 0,-136 85,-136 85,-220"/>
<text text-anchor="start" x="13.62" y="-206.5" font-family="Helvetica,sans-Serif" font-size="10.00">VariableBase</text>
<text text-anchor="start" x="41" y="-190.5" font-family="Helvetica,sans-Serif" font-size="10.00"> </text>
<text text-anchor="start" x="4" y="-174.5" font-family="Helvetica,sans-Serif" font-size="10.00">+</text>
<text text-anchor="start" x="14" y="-174.5" font-family="Helvetica,sans-Serif" font-size="10.00">DivideValue()</text>
<text text-anchor="start" x="4" y="-158.5" font-family="Helvetica,sans-Serif" font-size="10.00">+</text>
<text text-anchor="start" x="14" y="-158.5" font-family="Helvetica,sans-Serif" font-size="10.00">MultiplyValue()</text>
<text text-anchor="start" x="4" y="-142.5" font-family="Helvetica,sans-Serif" font-size="10.00">+</text>
<text text-anchor="start" x="14" y="-142.5" font-family="Helvetica,sans-Serif" font-size="10.00">SubtractValue()</text>
<polygon fill="#666666" stroke="#666666" points="0,-202 0,-202 85,-202 85,-202 0,-202"/>
<polygon fill="#666666" stroke="#666666" points="0,-186 0,-186 85,-186 85,-186 0,-186"/>
<polygon fill="none" stroke="#666666" points="0,-136 0,-220 85,-220 85,-136 0,-136"/>
</a>
</g>
</g>
<!-- Node2&#45;&gt;Node1 -->
<g id="edge1_Node000001_Node000002" class="edge">
<title>Node2&#45;&gt;Node1</title>
<g id="a_edge1_Node000001_Node000002"><a xlink:title=" ">
<path fill="none" stroke="#63b8ff" d="M65.68,-125.75C69.59,-117.12 73.64,-108.17 77.51,-99.61"/>
<polygon fill="none" stroke="#63b8ff" points="62.56,-124.16 61.63,-134.71 68.94,-127.04 62.56,-124.16"/>
</a>
</g>
</g>
<!-- Node3 -->
<g id="Node000003" class="node">
<title>Node3</title>
<g id="a_Node000003"><a xlink:title=" ">
<polygon fill="white" stroke="none" points="211.5,-204 103.5,-204 103.5,-152 211.5,-152 211.5,-204"/>
<text text-anchor="start" x="108.38" y="-190.5" font-family="Helvetica,sans-Serif" font-size="10.00">IEquatable&lt; BoolVar &gt;</text>
<text text-anchor="start" x="156" y="-174.5" font-family="Helvetica,sans-Serif" font-size="10.00"> </text>
<text text-anchor="start" x="156" y="-158.5" font-family="Helvetica,sans-Serif" font-size="10.00"> </text>
<polygon fill="#bfbfbf" stroke="#bfbfbf" points="103.5,-186 103.5,-186 211.5,-186 211.5,-186 103.5,-186"/>
<polygon fill="#bfbfbf" stroke="#bfbfbf" points="103.5,-170 103.5,-170 211.5,-170 211.5,-170 103.5,-170"/>
<polygon fill="none" stroke="#bfbfbf" points="103.5,-152 103.5,-204 211.5,-204 211.5,-152 103.5,-152"/>
</a>
</g>
</g>
<!-- Node3&#45;&gt;Node1 -->
<g id="edge2_Node000001_Node000003" class="edge">
<title>Node3&#45;&gt;Node1</title>
<g id="a_edge2_Node000001_Node000003"><a xlink:title=" ">
<path fill="none" stroke="#63b8ff" d="M141.26,-141.73C135.29,-128.74 128.41,-113.79 121.98,-99.83"/>
<polygon fill="none" stroke="#63b8ff" points="138.05,-143.11 145.41,-150.73 144.41,-140.18 138.05,-143.11"/>
</a>
</g>
</g>
</g>
</svg>
</svg>

<style type='text/css'>
<![CDATA[
[data-mouse-over-selected='false'] { opacity: 0.7; }
[data-mouse-over-selected='true']  { opacity: 1.0; }
]]>
</style>
<script type="application/ecmascript"><![CDATA[
document.addEventListener('DOMContentLoaded', (event) => {
  highlightEdges();
  highlightAdjacentNodes();
});
]]></script>
</svg>
