<?xml version="1.0" encoding="UTF-8" standalone="no"?>
<!DOCTYPE svg PUBLIC "-//W3C//DTD SVG 1.1//EN"
 "http://www.w3.org/Graphics/SVG/1.1/DTD/svg11.dtd">
<!-- Generated by graphviz version 9.0.0 (20230911.1827)
 -->
<!-- Title: IsEqual Pages: 1 -->
<svg width="109pt" height="316pt"
 viewBox="0.00 0.00 109.00 316.00" xmlns="http://www.w3.org/2000/svg" xmlns:xlink="http://www.w3.org/1999/xlink">
<g id="graph0" class="graph" transform="scale(1 1) rotate(0) translate(4 312)">
<title>IsEqual</title>
<!-- Node1 -->
<g id="Node000001" class="node">
<title>Node1</title>
<g id="a_Node000001"><a xlink:title="Tests if a variable equals a value or another variable.">
<polygon fill="#999999" stroke="none" points="78.5,-132 22.5,-132 22.5,0 78.5,0 78.5,-132"/>
<text text-anchor="start" x="34.38" y="-118.5" font-family="Helvetica,sans-Serif" font-size="10.00">IsEqual</text>
<text text-anchor="start" x="49" y="-102.5" font-family="Helvetica,sans-Serif" font-size="10.00"> </text>
<text text-anchor="start" x="26.5" y="-86.5" font-family="Helvetica,sans-Serif" font-size="10.00">+</text>
<text text-anchor="start" x="36.5" y="-86.5" font-family="Helvetica,sans-Serif" font-size="10.00">IsEqual()</text>
<text text-anchor="start" x="26.5" y="-70.5" font-family="Helvetica,sans-Serif" font-size="10.00">+</text>
<text text-anchor="start" x="36.5" y="-70.5" font-family="Helvetica,sans-Serif" font-size="10.00">IsEqual()</text>
<text text-anchor="start" x="26.5" y="-54.5" font-family="Helvetica,sans-Serif" font-size="10.00">+</text>
<text text-anchor="start" x="36.5" y="-54.5" font-family="Helvetica,sans-Serif" font-size="10.00">IsEqual()</text>
<text text-anchor="start" x="26.5" y="-38.5" font-family="Helvetica,sans-Serif" font-size="10.00">+</text>
<text text-anchor="start" x="36.5" y="-38.5" font-family="Helvetica,sans-Serif" font-size="10.00">IsEqual()</text>
<text text-anchor="start" x="26.5" y="-22.5" font-family="Helvetica,sans-Serif" font-size="10.00">+</text>
<text text-anchor="start" x="36.5" y="-22.5" font-family="Helvetica,sans-Serif" font-size="10.00">IsEqual()</text>
<text text-anchor="start" x="26.5" y="-6.5" font-family="Helvetica,sans-Serif" font-size="10.00">+</text>
<text text-anchor="start" x="36.5" y="-6.5" font-family="Helvetica,sans-Serif" font-size="10.00">IsEqual()</text>
<polygon fill="#666666" stroke="#666666" points="22.5,-114 22.5,-114 78.5,-114 78.5,-114 22.5,-114"/>
<polygon fill="#666666" stroke="#666666" points="22.5,-98 22.5,-98 78.5,-98 78.5,-98 22.5,-98"/>
<polygon fill="none" stroke="#666666" points="22.5,0 22.5,-132 78.5,-132 78.5,0 22.5,0"/>
</a>
</g>
</g>
<!-- Node2 -->
<g id="Node000002" class="node">
<title>Node2</title>
<g id="a_Node000002"><a xlink:href="interface_code_smile_1_1_statemachine_1_1_i_condition.html" target="_top" xlink:title="Marks a class as a FSM Condition.">
<polygon fill="white" stroke="none" points="76.5,-220 24.5,-220 24.5,-168 76.5,-168 76.5,-220"/>
<text text-anchor="start" x="29.12" y="-206.5" font-family="Helvetica,sans-Serif" font-size="10.00">ICondition</text>
<text text-anchor="start" x="49" y="-190.5" font-family="Helvetica,sans-Serif" font-size="10.00"> </text>
<text text-anchor="start" x="49" y="-174.5" font-family="Helvetica,sans-Serif" font-size="10.00"> </text>
<polygon fill="#666666" stroke="#666666" points="24.5,-202 24.5,-202 76.5,-202 76.5,-202 24.5,-202"/>
<polygon fill="#666666" stroke="#666666" points="24.5,-186 24.5,-186 76.5,-186 76.5,-186 24.5,-186"/>
<polygon fill="none" stroke="#666666" points="24.5,-168 24.5,-220 76.5,-220 76.5,-168 24.5,-168"/>
</a>
</g>
</g>
<!-- Node2&#45;&gt;Node1 -->
<g id="edge1_Node000001_Node000002" class="edge">
<title>Node2&#45;&gt;Node1</title>
<g id="a_edge1_Node000001_Node000002"><a xlink:title=" ">
<path fill="none" stroke="#63b8ff" d="M50.5,-156.79C50.5,-148.94 50.5,-140.4 50.5,-131.82"/>
<polygon fill="none" stroke="#63b8ff" points="47,-156.59 50.5,-166.59 54,-156.59 47,-156.59"/>
</a>
</g>
</g>
<!-- Node3 -->
<g id="Node000003" class="node">
<title>Node3</title>
<g id="a_Node000003"><a xlink:href="interface_code_smile_1_1_statemachine_1_1_i_statemachine_events.html" target="_top" xlink:title="Event methods that the Statemachine calls at specific times.">
<polygon fill="white" stroke="none" points="101,-308 0,-308 0,-256 101,-256 101,-308"/>
<text text-anchor="start" x="4.75" y="-294.5" font-family="Helvetica,sans-Serif" font-size="10.00">IStatemachineEvents</text>
<text text-anchor="start" x="49" y="-278.5" font-family="Helvetica,sans-Serif" font-size="10.00"> </text>
<text text-anchor="start" x="49" y="-262.5" font-family="Helvetica,sans-Serif" font-size="10.00"> </text>
<polygon fill="#666666" stroke="#666666" points="0,-290 0,-290 101,-290 101,-290 0,-290"/>
<polygon fill="#666666" stroke="#666666" points="0,-274 0,-274 101,-274 101,-274 0,-274"/>
<polygon fill="none" stroke="#666666" points="0,-256 0,-308 101,-308 101,-256 0,-256"/>
</a>
</g>
</g>
<!-- Node3&#45;&gt;Node2 -->
<g id="edge2_Node000002_Node000003" class="edge">
<title>Node3&#45;&gt;Node2</title>
<g id="a_edge2_Node000002_Node000003"><a xlink:title=" ">
<path fill="none" stroke="#63b8ff" d="M50.5,-244.66C50.5,-236.29 50.5,-227.57 50.5,-219.82"/>
<polygon fill="none" stroke="#63b8ff" points="47,-244.61 50.5,-254.61 54,-244.61 47,-244.61"/>
</a>
</g>
</g>
</g>
</svg>
