<?xml version="1.0" encoding="UTF-8" standalone="no"?>
<!DOCTYPE svg PUBLIC "-//W3C//DTD SVG 1.1//EN"
 "http://www.w3.org/Graphics/SVG/1.1/DTD/svg11.dtd">
<!-- Generated by graphviz version 9.0.0 (20230911.1827)
 -->
<!-- Title: NetworkEventLogger Pages: 1 -->
<svg width="106pt" height="148pt"
 viewBox="0.00 0.00 106.00 148.00" xmlns="http://www.w3.org/2000/svg" xmlns:xlink="http://www.w3.org/1999/xlink">

<svg id="main" version="1.1" xmlns="http://www.w3.org/2000/svg" xmlns:xlink="http://www.w3.org/1999/xlink" xml:space="preserve">

<style type="text/css"><![CDATA[
.node, .edge {opacity: 0.7;}
.node.selected, .edge.selected {opacity: 1;}
.edge:hover path { stroke: red; }
.edge:hover polygon { stroke: red; fill: red; }
]]></style>
<script type="application/ecmascript" xlink:href="svg.min.js"/>
<svg id="graph" class="graph">
<g id="graph0" class="graph" transform="scale(1 1) rotate(0) translate(4 144)">
<title>NetworkEventLogger</title>
<!-- Node1 -->
<g id="Node000001" class="node">
<title>Node1</title>
<g id="a_Node000001"><a xlink:title="Will log all NetworkManager events. Best to add this component on the same object as the NetworkManag...">
<polygon fill="#999999" stroke="none" points="98,-52 0,-52 0,0 98,0 98,-52"/>
<text text-anchor="start" x="4.75" y="-38.5" font-family="Helvetica,sans-Serif" font-size="10.00">NetworkEventLogger</text>
<text text-anchor="start" x="47.5" y="-22.5" font-family="Helvetica,sans-Serif" font-size="10.00"> </text>
<text text-anchor="start" x="47.5" y="-6.5" font-family="Helvetica,sans-Serif" font-size="10.00"> </text>
<polygon fill="#666666" stroke="#666666" points="0,-34 0,-34 98,-34 98,-34 0,-34"/>
<polygon fill="#666666" stroke="#666666" points="0,-18 0,-18 98,-18 98,-18 0,-18"/>
<polygon fill="none" stroke="#666666" points="0,0 0,-52 98,-52 98,0 0,0"/>
</a>
</g>
</g>
<!-- Node2 -->
<g id="Node000002" class="node">
<title>Node2</title>
<g id="a_Node000002"><a xlink:title=" ">
<polygon fill="white" stroke="none" points="87,-140 11,-140 11,-88 87,-88 87,-140"/>
<text text-anchor="start" x="16" y="-126.5" font-family="Helvetica,sans-Serif" font-size="10.00">MonoBehaviour</text>
<text text-anchor="start" x="47.5" y="-110.5" font-family="Helvetica,sans-Serif" font-size="10.00"> </text>
<text text-anchor="start" x="47.5" y="-94.5" font-family="Helvetica,sans-Serif" font-size="10.00"> </text>
<polygon fill="#bfbfbf" stroke="#bfbfbf" points="11,-122 11,-122 87,-122 87,-122 11,-122"/>
<polygon fill="#bfbfbf" stroke="#bfbfbf" points="11,-106 11,-106 87,-106 87,-106 11,-106"/>
<polygon fill="none" stroke="#bfbfbf" points="11,-88 11,-140 87,-140 87,-88 11,-88"/>
</a>
</g>
</g>
<!-- Node2&#45;&gt;Node1 -->
<g id="edge1_Node000001_Node000002" class="edge">
<title>Node2&#45;&gt;Node1</title>
<g id="a_edge1_Node000001_Node000002"><a xlink:title=" ">
<path fill="none" stroke="#63b8ff" d="M49,-76.66C49,-68.29 49,-59.57 49,-51.82"/>
<polygon fill="none" stroke="#63b8ff" points="45.5,-76.61 49,-86.61 52.5,-76.61 45.5,-76.61"/>
</a>
</g>
</g>
</g>
</svg>
</svg>

<style type='text/css'>
<![CDATA[
[data-mouse-over-selected='false'] { opacity: 0.7; }
[data-mouse-over-selected='true']  { opacity: 1.0; }
]]>
</style>
<script type="application/ecmascript"><![CDATA[
document.addEventListener('DOMContentLoaded', (event) => {
  highlightEdges();
  highlightAdjacentNodes();
});
]]></script>
</svg>
