<?xml version="1.0" encoding="UTF-8" standalone="no"?>
<!DOCTYPE svg PUBLIC "-//W3C//DTD SVG 1.1//EN"
 "http://www.w3.org/Graphics/SVG/1.1/DTD/svg11.dtd">
<!-- Generated by graphviz version 9.0.0 (20230911.1827)
 -->
<!-- Title: MenuBase Pages: 1 -->
<svg width="366pt" height="476pt"
 viewBox="0.00 0.00 365.50 476.00" xmlns="http://www.w3.org/2000/svg" xmlns:xlink="http://www.w3.org/1999/xlink">
<g id="graph0" class="graph" transform="scale(1 1) rotate(0) translate(4 472)">
<title>MenuBase</title>
<!-- Node1 -->
<g id="Node000001" class="node">
<title>Node1</title>
<g id="a_Node000001"><a xlink:title=" ">
<polygon fill="#999999" stroke="none" points="224,-380 131,-380 131,-232 224,-232 224,-380"/>
<text text-anchor="start" x="154.25" y="-366.5" font-family="Helvetica,sans-Serif" font-size="10.00">MenuBase</text>
<text text-anchor="start" x="135" y="-350.5" font-family="Helvetica,sans-Serif" font-size="10.00">+</text>
<text text-anchor="start" x="145" y="-350.5" font-family="Helvetica,sans-Serif" font-size="10.00">IsHidden</text>
<text text-anchor="start" x="135" y="-334.5" font-family="Helvetica,sans-Serif" font-size="10.00">+</text>
<text text-anchor="start" x="145" y="-334.5" font-family="Helvetica,sans-Serif" font-size="10.00">IsVisible</text>
<text text-anchor="start" x="135" y="-318.5" font-family="Helvetica,sans-Serif" font-size="10.00">+</text>
<text text-anchor="start" x="145" y="-318.5" font-family="Helvetica,sans-Serif" font-size="10.00">MenuPlayerIndex</text>
<text text-anchor="start" x="135.38" y="-302.5" font-family="Helvetica,sans-Serif" font-size="10.00">#</text>
<text text-anchor="start" x="145" y="-302.5" font-family="Helvetica,sans-Serif" font-size="10.00">m_Root</text>
<text text-anchor="start" x="135" y="-286.5" font-family="Helvetica,sans-Serif" font-size="10.00">+</text>
<text text-anchor="start" x="145" y="-286.5" font-family="Helvetica,sans-Serif" font-size="10.00">Hide()</text>
<text text-anchor="start" x="135" y="-270.5" font-family="Helvetica,sans-Serif" font-size="10.00">+</text>
<text text-anchor="start" x="145" y="-270.5" font-family="Helvetica,sans-Serif" font-size="10.00">Show()</text>
<text text-anchor="start" x="135" y="-254.5" font-family="Helvetica,sans-Serif" font-size="10.00">+</text>
<text text-anchor="start" x="145" y="-254.5" font-family="Helvetica,sans-Serif" font-size="10.00">ToggleVisible()</text>
<text text-anchor="start" x="135.38" y="-238.5" font-family="Helvetica,sans-Serif" font-size="10.00">#</text>
<text text-anchor="start" x="145" y="-238.5" font-family="Helvetica,sans-Serif" font-size="10.00">Awake()</text>
<polygon fill="#666666" stroke="#666666" points="131,-362 131,-362 224,-362 224,-362 131,-362"/>
<polygon fill="#666666" stroke="#666666" points="131,-298 131,-298 143,-298 143,-298 131,-298"/>
<polygon fill="#666666" stroke="#666666" points="143,-298 143,-298 224,-298 224,-298 143,-298"/>
<polygon fill="none" stroke="#666666" points="131,-232 131,-380 224,-380 224,-232 131,-232"/>
</a>
</g>
</g>
<!-- Node3 -->
<g id="Node000003" class="node">
<title>Node3</title>
<g id="a_Node000003"><a xlink:href="class_code_smile_1_1_multi_pal_1_1_g_u_i_1_1_dev_ingame_menu.html" target="_top" xlink:title=" ">
<polygon fill="white" stroke="none" points="99,-140 0,-140 0,-56 99,-56 99,-140"/>
<text text-anchor="start" x="13.88" y="-126.5" font-family="Helvetica,sans-Serif" font-size="10.00">DevIngameMenu</text>
<text text-anchor="start" x="4" y="-110.5" font-family="Helvetica,sans-Serif" font-size="10.00">+</text>
<text text-anchor="start" x="14" y="-110.5" font-family="Helvetica,sans-Serif" font-size="10.00">ExitDesktopButton</text>
<text text-anchor="start" x="4" y="-94.5" font-family="Helvetica,sans-Serif" font-size="10.00">+</text>
<text text-anchor="start" x="14" y="-94.5" font-family="Helvetica,sans-Serif" font-size="10.00">ExitMenuButton</text>
<text text-anchor="start" x="4" y="-78.5" font-family="Helvetica,sans-Serif" font-size="10.00">+</text>
<text text-anchor="start" x="14" y="-78.5" font-family="Helvetica,sans-Serif" font-size="10.00">ResumeButton</text>
<text text-anchor="start" x="48" y="-62.5" font-family="Helvetica,sans-Serif" font-size="10.00"> </text>
<polygon fill="#bfbfbf" stroke="#bfbfbf" points="0,-122 0,-122 99,-122 99,-122 0,-122"/>
<polygon fill="#bfbfbf" stroke="#bfbfbf" points="0,-74 0,-74 12,-74 12,-74 0,-74"/>
<polygon fill="#bfbfbf" stroke="#bfbfbf" points="12,-74 12,-74 99,-74 99,-74 12,-74"/>
<polygon fill="none" stroke="#bfbfbf" points="0,-56 0,-140 99,-140 99,-56 0,-56"/>
</a>
</g>
</g>
<!-- Node1&#45;&gt;Node3 -->
<g id="edge2_Node000001_Node000003" class="edge">
<title>Node1&#45;&gt;Node3</title>
<g id="a_edge2_Node000001_Node000003"><a xlink:title=" ">
<path fill="none" stroke="#63b8ff" d="M125.04,-222.47C119.43,-213.55 113.83,-204.59 108.5,-196 97.07,-177.58 84.57,-157.08 74.03,-139.69"/>
<polygon fill="none" stroke="#63b8ff" points="122.02,-224.24 130.3,-230.84 127.94,-220.51 122.02,-224.24"/>
</a>
</g>
</g>
<!-- Node4 -->
<g id="Node000004" class="node">
<title>Node4</title>
<g id="a_Node000004"><a xlink:href="class_code_smile_1_1_multi_pal_1_1_g_u_i_1_1_dev_main_menu.html" target="_top" xlink:title=" ">
<polygon fill="white" stroke="none" points="237.5,-180 117.5,-180 117.5,-16 237.5,-16 237.5,-180"/>
<text text-anchor="start" x="147.12" y="-166.5" font-family="Helvetica,sans-Serif" font-size="10.00">DevMainMenu</text>
<text text-anchor="start" x="121.5" y="-150.5" font-family="Helvetica,sans-Serif" font-size="10.00">+</text>
<text text-anchor="start" x="131.5" y="-150.5" font-family="Helvetica,sans-Serif" font-size="10.00">AddressField</text>
<text text-anchor="start" x="121.5" y="-134.5" font-family="Helvetica,sans-Serif" font-size="10.00">+</text>
<text text-anchor="start" x="131.5" y="-134.5" font-family="Helvetica,sans-Serif" font-size="10.00">AllowWebClientsToggle</text>
<text text-anchor="start" x="121.5" y="-118.5" font-family="Helvetica,sans-Serif" font-size="10.00">+</text>
<text text-anchor="start" x="131.5" y="-118.5" font-family="Helvetica,sans-Serif" font-size="10.00">HostDirectButton</text>
<text text-anchor="start" x="121.5" y="-102.5" font-family="Helvetica,sans-Serif" font-size="10.00">+</text>
<text text-anchor="start" x="131.5" y="-102.5" font-family="Helvetica,sans-Serif" font-size="10.00">HostRelayButton</text>
<text text-anchor="start" x="121.5" y="-86.5" font-family="Helvetica,sans-Serif" font-size="10.00">+</text>
<text text-anchor="start" x="131.5" y="-86.5" font-family="Helvetica,sans-Serif" font-size="10.00">JoinCodeField</text>
<text text-anchor="start" x="121.5" y="-70.5" font-family="Helvetica,sans-Serif" font-size="10.00">+</text>
<text text-anchor="start" x="131.5" y="-70.5" font-family="Helvetica,sans-Serif" font-size="10.00">JoinDirectButton</text>
<text text-anchor="start" x="121.5" y="-54.5" font-family="Helvetica,sans-Serif" font-size="10.00">+</text>
<text text-anchor="start" x="131.5" y="-54.5" font-family="Helvetica,sans-Serif" font-size="10.00">JoinRelayButton</text>
<text text-anchor="start" x="121.5" y="-38.5" font-family="Helvetica,sans-Serif" font-size="10.00">+</text>
<text text-anchor="start" x="131.5" y="-38.5" font-family="Helvetica,sans-Serif" font-size="10.00">PortField</text>
<text text-anchor="start" x="121.88" y="-22.5" font-family="Helvetica,sans-Serif" font-size="10.00">#</text>
<text text-anchor="start" x="131.5" y="-22.5" font-family="Helvetica,sans-Serif" font-size="10.00">Awake()</text>
<polygon fill="#bfbfbf" stroke="#bfbfbf" points="117.5,-162 117.5,-162 237.5,-162 237.5,-162 117.5,-162"/>
<polygon fill="#bfbfbf" stroke="#bfbfbf" points="117.5,-34 117.5,-34 129.5,-34 129.5,-34 117.5,-34"/>
<polygon fill="#bfbfbf" stroke="#bfbfbf" points="129.5,-34 129.5,-34 237.5,-34 237.5,-34 129.5,-34"/>
<polygon fill="none" stroke="#bfbfbf" points="117.5,-16 117.5,-180 237.5,-180 237.5,-16 117.5,-16"/>
</a>
</g>
</g>
<!-- Node1&#45;&gt;Node4 -->
<g id="edge3_Node000001_Node000004" class="edge">
<title>Node1&#45;&gt;Node4</title>
<g id="a_edge3_Node000001_Node000004"><a xlink:title=" ">
<path fill="none" stroke="#63b8ff" d="M177.5,-220.84C177.5,-207.31 177.5,-193.34 177.5,-179.88"/>
<polygon fill="none" stroke="#63b8ff" points="174,-220.57 177.5,-230.57 181,-220.57 174,-220.57"/>
</a>
</g>
</g>
<!-- Node5 -->
<g id="Node000005" class="node">
<title>Node5</title>
<g id="a_Node000005"><a xlink:href="class_code_smile_1_1_multi_pal_1_1_g_u_i_1_1_dev_scene_load_test.html" target="_top" xlink:title=" ">
<polygon fill="white" stroke="none" points="357.5,-196 255.5,-196 255.5,0 357.5,0 357.5,-196"/>
<text text-anchor="start" x="264.88" y="-182.5" font-family="Helvetica,sans-Serif" font-size="10.00">DevSceneLoadTest</text>
<text text-anchor="start" x="259.5" y="-166.5" font-family="Helvetica,sans-Serif" font-size="10.00">+</text>
<text text-anchor="start" x="269.5" y="-166.5" font-family="Helvetica,sans-Serif" font-size="10.00">LoadAllButton</text>
<text text-anchor="start" x="259.5" y="-150.5" font-family="Helvetica,sans-Serif" font-size="10.00">+</text>
<text text-anchor="start" x="269.5" y="-150.5" font-family="Helvetica,sans-Serif" font-size="10.00">LoadButton1</text>
<text text-anchor="start" x="259.5" y="-134.5" font-family="Helvetica,sans-Serif" font-size="10.00">+</text>
<text text-anchor="start" x="269.5" y="-134.5" font-family="Helvetica,sans-Serif" font-size="10.00">LoadButton2</text>
<text text-anchor="start" x="259.5" y="-118.5" font-family="Helvetica,sans-Serif" font-size="10.00">+</text>
<text text-anchor="start" x="269.5" y="-118.5" font-family="Helvetica,sans-Serif" font-size="10.00">LoadButton3</text>
<text text-anchor="start" x="259.5" y="-102.5" font-family="Helvetica,sans-Serif" font-size="10.00">+</text>
<text text-anchor="start" x="269.5" y="-102.5" font-family="Helvetica,sans-Serif" font-size="10.00">ProvokeErrorButton</text>
<text text-anchor="start" x="259.5" y="-86.5" font-family="Helvetica,sans-Serif" font-size="10.00">+</text>
<text text-anchor="start" x="269.5" y="-86.5" font-family="Helvetica,sans-Serif" font-size="10.00">SceneLoader</text>
<text text-anchor="start" x="259.5" y="-70.5" font-family="Helvetica,sans-Serif" font-size="10.00">+</text>
<text text-anchor="start" x="269.5" y="-70.5" font-family="Helvetica,sans-Serif" font-size="10.00">UnloadAllButton</text>
<text text-anchor="start" x="259.5" y="-54.5" font-family="Helvetica,sans-Serif" font-size="10.00">+</text>
<text text-anchor="start" x="269.5" y="-54.5" font-family="Helvetica,sans-Serif" font-size="10.00">UnloadButton1</text>
<text text-anchor="start" x="259.5" y="-38.5" font-family="Helvetica,sans-Serif" font-size="10.00">+</text>
<text text-anchor="start" x="269.5" y="-38.5" font-family="Helvetica,sans-Serif" font-size="10.00">UnloadButton2</text>
<text text-anchor="start" x="259.5" y="-22.5" font-family="Helvetica,sans-Serif" font-size="10.00">+</text>
<text text-anchor="start" x="269.5" y="-22.5" font-family="Helvetica,sans-Serif" font-size="10.00">UnloadButton3</text>
<text text-anchor="start" x="305" y="-6.5" font-family="Helvetica,sans-Serif" font-size="10.00"> </text>
<polygon fill="#bfbfbf" stroke="#bfbfbf" points="255.5,-178 255.5,-178 357.5,-178 357.5,-178 255.5,-178"/>
<polygon fill="#bfbfbf" stroke="#bfbfbf" points="255.5,-18 255.5,-18 267.5,-18 267.5,-18 255.5,-18"/>
<polygon fill="#bfbfbf" stroke="#bfbfbf" points="267.5,-18 267.5,-18 357.5,-18 357.5,-18 267.5,-18"/>
<polygon fill="none" stroke="#bfbfbf" points="255.5,0 255.5,-196 357.5,-196 357.5,0 255.5,0"/>
</a>
</g>
</g>
<!-- Node1&#45;&gt;Node5 -->
<g id="edge4_Node000001_Node000005" class="edge">
<title>Node1&#45;&gt;Node5</title>
<g id="a_edge4_Node000001_Node000005"><a xlink:title=" ">
<path fill="none" stroke="#63b8ff" d="M229.9,-222.43C235.51,-213.52 241.13,-204.57 246.5,-196 249.49,-191.22 252.56,-186.3 255.66,-181.33"/>
<polygon fill="none" stroke="#63b8ff" points="227,-220.46 224.62,-230.79 232.92,-224.2 227,-220.46"/>
</a>
</g>
</g>
<!-- Node2 -->
<g id="Node000002" class="node">
<title>Node2</title>
<g id="a_Node000002"><a xlink:title=" ">
<polygon fill="white" stroke="none" points="215.5,-468 139.5,-468 139.5,-416 215.5,-416 215.5,-468"/>
<text text-anchor="start" x="144.5" y="-454.5" font-family="Helvetica,sans-Serif" font-size="10.00">MonoBehaviour</text>
<text text-anchor="start" x="176" y="-438.5" font-family="Helvetica,sans-Serif" font-size="10.00"> </text>
<text text-anchor="start" x="176" y="-422.5" font-family="Helvetica,sans-Serif" font-size="10.00"> </text>
<polygon fill="#bfbfbf" stroke="#bfbfbf" points="139.5,-450 139.5,-450 215.5,-450 215.5,-450 139.5,-450"/>
<polygon fill="#bfbfbf" stroke="#bfbfbf" points="139.5,-434 139.5,-434 215.5,-434 215.5,-434 139.5,-434"/>
<polygon fill="none" stroke="#bfbfbf" points="139.5,-416 139.5,-468 215.5,-468 215.5,-416 139.5,-416"/>
</a>
</g>
</g>
<!-- Node2&#45;&gt;Node1 -->
<g id="edge1_Node000001_Node000002" class="edge">
<title>Node2&#45;&gt;Node1</title>
<g id="a_edge1_Node000001_Node000002"><a xlink:title=" ">
<path fill="none" stroke="#63b8ff" d="M177.5,-404.61C177.5,-396.87 177.5,-388.44 177.5,-379.88"/>
<polygon fill="none" stroke="#63b8ff" points="174,-404.6 177.5,-414.6 181,-404.6 174,-404.6"/>
</a>
</g>
</g>
</g>
</svg>
