<?xml version="1.0" encoding="UTF-8" standalone="no"?>
<!DOCTYPE svg PUBLIC "-//W3C//DTD SVG 1.1//EN"
 "http://www.w3.org/Graphics/SVG/1.1/DTD/svg11.dtd">
<!-- Generated by graphviz version 9.0.0 (20230911.1827)
 -->
<!-- Title: IntVar Pages: 1 -->
<svg width="210pt" height="228pt"
 viewBox="0.00 0.00 210.00 228.00" xmlns="http://www.w3.org/2000/svg" xmlns:xlink="http://www.w3.org/1999/xlink">

<svg id="main" version="1.1" xmlns="http://www.w3.org/2000/svg" xmlns:xlink="http://www.w3.org/1999/xlink" xml:space="preserve">

<style type="text/css"><![CDATA[
.node, .edge {opacity: 0.7;}
.node.selected, .edge.selected {opacity: 1;}
.edge:hover path { stroke: red; }
.edge:hover polygon { stroke: red; fill: red; }
]]></style>
<script type="application/ecmascript" xlink:href="svg.min.js"/>
<svg id="graph" class="graph">
<g id="graph0" class="graph" transform="scale(1 1) rotate(0) translate(4 224)">
<title>IntVar</title>
<!-- Node1 -->
<g id="Node000001" class="node">
<title>Node1</title>
<g id="a_Node000001"><a xlink:title="Represents an integer FSM variable.">
<polygon fill="#999999" stroke="none" points="140,-100 55,-100 55,0 140,0 140,-100"/>
<text text-anchor="start" x="84.75" y="-86.5" font-family="Helvetica,sans-Serif" font-size="10.00">IntVar</text>
<text text-anchor="start" x="59" y="-70.5" font-family="Helvetica,sans-Serif" font-size="10.00">+</text>
<text text-anchor="start" x="69" y="-70.5" font-family="Helvetica,sans-Serif" font-size="10.00">Value</text>
<text text-anchor="start" x="59" y="-54.5" font-family="Helvetica,sans-Serif" font-size="10.00">+</text>
<text text-anchor="start" x="69" y="-54.5" font-family="Helvetica,sans-Serif" font-size="10.00">IntVar()</text>
<text text-anchor="start" x="59" y="-38.5" font-family="Helvetica,sans-Serif" font-size="10.00">+</text>
<text text-anchor="start" x="69" y="-38.5" font-family="Helvetica,sans-Serif" font-size="10.00">DivideValue()</text>
<text text-anchor="start" x="59" y="-22.5" font-family="Helvetica,sans-Serif" font-size="10.00">+</text>
<text text-anchor="start" x="69" y="-22.5" font-family="Helvetica,sans-Serif" font-size="10.00">MultiplyValue()</text>
<text text-anchor="start" x="59" y="-6.5" font-family="Helvetica,sans-Serif" font-size="10.00">+</text>
<text text-anchor="start" x="69" y="-6.5" font-family="Helvetica,sans-Serif" font-size="10.00">SubtractValue()</text>
<polygon fill="#666666" stroke="#666666" points="55,-82 55,-82 140,-82 140,-82 55,-82"/>
<polygon fill="#666666" stroke="#666666" points="55,-66 55,-66 67,-66 67,-66 55,-66"/>
<polygon fill="#666666" stroke="#666666" points="67,-66 67,-66 140,-66 140,-66 67,-66"/>
<polygon fill="none" stroke="#666666" points="55,0 55,-100 140,-100 140,0 55,0"/>
</a>
</g>
</g>
<!-- Node2 -->
<g id="Node000002" class="node">
<title>Node2</title>
<g id="a_Node000002"><a xlink:href="class_code_smile_1_1_statemachine_1_1_variable_base.html" target="_top" xlink:title="Base class for all FSM variables.">
<polygon fill="white" stroke="none" points="85,-220 0,-220 0,-136 85,-136 85,-220"/>
<text text-anchor="start" x="13.62" y="-206.5" font-family="Helvetica,sans-Serif" font-size="10.00">VariableBase</text>
<text text-anchor="start" x="41" y="-190.5" font-family="Helvetica,sans-Serif" font-size="10.00"> </text>
<text text-anchor="start" x="4" y="-174.5" font-family="Helvetica,sans-Serif" font-size="10.00">+</text>
<text text-anchor="start" x="14" y="-174.5" font-family="Helvetica,sans-Serif" font-size="10.00">DivideValue()</text>
<text text-anchor="start" x="4" y="-158.5" font-family="Helvetica,sans-Serif" font-size="10.00">+</text>
<text text-anchor="start" x="14" y="-158.5" font-family="Helvetica,sans-Serif" font-size="10.00">MultiplyValue()</text>
<text text-anchor="start" x="4" y="-142.5" font-family="Helvetica,sans-Serif" font-size="10.00">+</text>
<text text-anchor="start" x="14" y="-142.5" font-family="Helvetica,sans-Serif" font-size="10.00">SubtractValue()</text>
<polygon fill="#666666" stroke="#666666" points="0,-202 0,-202 85,-202 85,-202 0,-202"/>
<polygon fill="#666666" stroke="#666666" points="0,-186 0,-186 85,-186 85,-186 0,-186"/>
<polygon fill="none" stroke="#666666" points="0,-136 0,-220 85,-220 85,-136 0,-136"/>
</a>
</g>
</g>
<!-- Node2&#45;&gt;Node1 -->
<g id="edge1_Node000001_Node000002" class="edge">
<title>Node2&#45;&gt;Node1</title>
<g id="a_edge1_Node000001_Node000002"><a xlink:title=" ">
<path fill="none" stroke="#63b8ff" d="M64.87,-125.75C68.64,-117.12 72.54,-108.17 76.28,-99.61"/>
<polygon fill="none" stroke="#63b8ff" points="61.76,-124.14 60.96,-134.7 68.17,-126.94 61.76,-124.14"/>
</a>
</g>
</g>
<!-- Node3 -->
<g id="Node000003" class="node">
<title>Node3</title>
<g id="a_Node000003"><a xlink:title=" ">
<polygon fill="white" stroke="none" points="202,-204 103,-204 103,-152 202,-152 202,-204"/>
<text text-anchor="start" x="107.88" y="-190.5" font-family="Helvetica,sans-Serif" font-size="10.00">IEquatable&lt; IntVar &gt;</text>
<text text-anchor="start" x="151" y="-174.5" font-family="Helvetica,sans-Serif" font-size="10.00"> </text>
<text text-anchor="start" x="151" y="-158.5" font-family="Helvetica,sans-Serif" font-size="10.00"> </text>
<polygon fill="#bfbfbf" stroke="#bfbfbf" points="103,-186 103,-186 202,-186 202,-186 103,-186"/>
<polygon fill="#bfbfbf" stroke="#bfbfbf" points="103,-170 103,-170 202,-170 202,-170 103,-170"/>
<polygon fill="none" stroke="#bfbfbf" points="103,-152 103,-204 202,-204 202,-152 103,-152"/>
</a>
</g>
</g>
<!-- Node3&#45;&gt;Node1 -->
<g id="edge2_Node000001_Node000003" class="edge">
<title>Node3&#45;&gt;Node1</title>
<g id="a_edge2_Node000001_Node000003"><a xlink:title=" ">
<path fill="none" stroke="#63b8ff" d="M137.1,-141.73C131.43,-128.74 124.91,-113.79 118.81,-99.83"/>
<polygon fill="none" stroke="#63b8ff" points="133.82,-142.95 141.03,-150.72 140.24,-140.15 133.82,-142.95"/>
</a>
</g>
</g>
</g>
</svg>
</svg>

<style type='text/css'>
<![CDATA[
[data-mouse-over-selected='false'] { opacity: 0.7; }
[data-mouse-over-selected='true']  { opacity: 1.0; }
]]>
</style>
<script type="application/ecmascript"><![CDATA[
document.addEventListener('DOMContentLoaded', (event) => {
  highlightEdges();
  highlightAdjacentNodes();
});
]]></script>
</svg>
