<?xml version="1.0" encoding="UTF-8" standalone="no"?>
<!DOCTYPE svg PUBLIC "-//W3C//DTD SVG 1.1//EN"
 "http://www.w3.org/Graphics/SVG/1.1/DTD/svg11.dtd">
<!-- Generated by graphviz version 9.0.0 (20230911.1827)
 -->
<!-- Title: IsEqual Pages: 1 -->
<svg width="109pt" height="412pt"
 viewBox="0.00 0.00 109.00 412.00" xmlns="http://www.w3.org/2000/svg" xmlns:xlink="http://www.w3.org/1999/xlink">
<g id="graph0" class="graph" transform="scale(1 1) rotate(0) translate(4 408)">
<title>IsEqual</title>
<!-- Node1 -->
<g id="Node000001" class="node">
<title>Node1</title>
<g id="a_Node000001"><a xlink:title=" ">
<polygon fill="#999999" stroke="none" points="94,-164 7,-164 7,0 94,0 94,-164"/>
<text text-anchor="start" x="34.38" y="-150.5" font-family="Helvetica,sans-Serif" font-size="10.00">IsEqual</text>
<text text-anchor="start" x="49" y="-134.5" font-family="Helvetica,sans-Serif" font-size="10.00"> </text>
<text text-anchor="start" x="11" y="-118.5" font-family="Helvetica,sans-Serif" font-size="10.00">+</text>
<text text-anchor="start" x="21" y="-118.5" font-family="Helvetica,sans-Serif" font-size="10.00">IsEqual()</text>
<text text-anchor="start" x="11" y="-102.5" font-family="Helvetica,sans-Serif" font-size="10.00">+</text>
<text text-anchor="start" x="21" y="-102.5" font-family="Helvetica,sans-Serif" font-size="10.00">IsEqual()</text>
<text text-anchor="start" x="11" y="-86.5" font-family="Helvetica,sans-Serif" font-size="10.00">+</text>
<text text-anchor="start" x="21" y="-86.5" font-family="Helvetica,sans-Serif" font-size="10.00">IsEqual()</text>
<text text-anchor="start" x="11" y="-70.5" font-family="Helvetica,sans-Serif" font-size="10.00">+</text>
<text text-anchor="start" x="21" y="-70.5" font-family="Helvetica,sans-Serif" font-size="10.00">IsEqual()</text>
<text text-anchor="start" x="11" y="-54.5" font-family="Helvetica,sans-Serif" font-size="10.00">+</text>
<text text-anchor="start" x="21" y="-54.5" font-family="Helvetica,sans-Serif" font-size="10.00">IsEqual()</text>
<text text-anchor="start" x="11" y="-38.5" font-family="Helvetica,sans-Serif" font-size="10.00">+</text>
<text text-anchor="start" x="21" y="-38.5" font-family="Helvetica,sans-Serif" font-size="10.00">IsEqual()</text>
<text text-anchor="start" x="11" y="-22.5" font-family="Helvetica,sans-Serif" font-size="10.00">+</text>
<text text-anchor="start" x="21" y="-22.5" font-family="Helvetica,sans-Serif" font-size="10.00">IsSatisfied()</text>
<text text-anchor="start" x="11" y="-6.5" font-family="Helvetica,sans-Serif" font-size="10.00">+</text>
<text text-anchor="start" x="21" y="-6.5" font-family="Helvetica,sans-Serif" font-size="10.00">ToDebugString()</text>
<polygon fill="#666666" stroke="#666666" points="7,-146 7,-146 94,-146 94,-146 7,-146"/>
<polygon fill="#666666" stroke="#666666" points="7,-130 7,-130 94,-130 94,-130 7,-130"/>
<polygon fill="none" stroke="#666666" points="7,0 7,-164 94,-164 94,0 7,0"/>
</a>
</g>
</g>
<!-- Node2 -->
<g id="Node000002" class="node">
<title>Node2</title>
<g id="a_Node000002"><a xlink:href="interface_code_smile_1_1_statemachine_1_1_i_condition.html" target="_top" xlink:title=" ">
<polygon fill="white" stroke="none" points="94,-268 7,-268 7,-200 94,-200 94,-268"/>
<text text-anchor="start" x="29.12" y="-254.5" font-family="Helvetica,sans-Serif" font-size="10.00">ICondition</text>
<text text-anchor="start" x="49" y="-238.5" font-family="Helvetica,sans-Serif" font-size="10.00"> </text>
<text text-anchor="start" x="11" y="-222.5" font-family="Helvetica,sans-Serif" font-size="10.00">+</text>
<text text-anchor="start" x="21" y="-222.5" font-family="Helvetica,sans-Serif" font-size="10.00">IsSatisfied()</text>
<text text-anchor="start" x="11" y="-206.5" font-family="Helvetica,sans-Serif" font-size="10.00">+</text>
<text text-anchor="start" x="21" y="-206.5" font-family="Helvetica,sans-Serif" font-size="10.00">ToDebugString()</text>
<polygon fill="#bfbfbf" stroke="#bfbfbf" points="7,-250 7,-250 94,-250 94,-250 7,-250"/>
<polygon fill="#bfbfbf" stroke="#bfbfbf" points="7,-234 7,-234 94,-234 94,-234 7,-234"/>
<polygon fill="none" stroke="#bfbfbf" points="7,-200 7,-268 94,-268 94,-200 7,-200"/>
</a>
</g>
</g>
<!-- Node2&#45;&gt;Node1 -->
<g id="edge1_Node000001_Node000002" class="edge">
<title>Node2&#45;&gt;Node1</title>
<g id="a_edge1_Node000001_Node000002"><a xlink:title=" ">
<path fill="none" stroke="#63b8ff" d="M50.5,-188.6C50.5,-180.72 50.5,-172.29 50.5,-163.77"/>
<polygon fill="none" stroke="#63b8ff" points="47,-188.57 50.5,-198.57 54,-188.57 47,-188.57"/>
</a>
</g>
</g>
<!-- Node3 -->
<g id="Node000003" class="node">
<title>Node3</title>
<g id="a_Node000003"><a xlink:href="interface_code_smile_1_1_statemachine_1_1_i_statemachine_events.html" target="_top" xlink:title="Event methods that the Statemachine calls at specific times.">
<polygon fill="white" stroke="none" points="101,-404 0,-404 0,-304 101,-304 101,-404"/>
<text text-anchor="start" x="4.75" y="-390.5" font-family="Helvetica,sans-Serif" font-size="10.00">IStatemachineEvents</text>
<text text-anchor="start" x="49" y="-374.5" font-family="Helvetica,sans-Serif" font-size="10.00"> </text>
<text text-anchor="start" x="8.5" y="-358.5" font-family="Helvetica,sans-Serif" font-size="10.00">+</text>
<text text-anchor="start" x="23" y="-358.5" font-family="Helvetica,sans-Serif" font-size="10.00">OnEnterState()</text>
<text text-anchor="start" x="8.5" y="-342.5" font-family="Helvetica,sans-Serif" font-size="10.00">+</text>
<text text-anchor="start" x="23" y="-342.5" font-family="Helvetica,sans-Serif" font-size="10.00">OnExitState()</text>
<text text-anchor="start" x="8.5" y="-326.5" font-family="Helvetica,sans-Serif" font-size="10.00">+</text>
<text text-anchor="start" x="23" y="-326.5" font-family="Helvetica,sans-Serif" font-size="10.00">OnStart()</text>
<text text-anchor="start" x="8.5" y="-310.5" font-family="Helvetica,sans-Serif" font-size="10.00">+</text>
<text text-anchor="start" x="23" y="-310.5" font-family="Helvetica,sans-Serif" font-size="10.00">OnStop()</text>
<polygon fill="#666666" stroke="#666666" points="0,-386 0,-386 101,-386 101,-386 0,-386"/>
<polygon fill="#666666" stroke="#666666" points="0,-370 0,-370 101,-370 101,-370 0,-370"/>
<polygon fill="none" stroke="#666666" points="0,-304 0,-404 101,-404 101,-304 0,-304"/>
</a>
</g>
</g>
<!-- Node3&#45;&gt;Node2 -->
<g id="edge2_Node000002_Node000003" class="edge">
<title>Node3&#45;&gt;Node2</title>
<g id="a_edge2_Node000002_Node000003"><a xlink:title=" ">
<path fill="none" stroke="#63b8ff" d="M50.5,-292.96C50.5,-284.28 50.5,-275.62 50.5,-267.75"/>
<polygon fill="none" stroke="#63b8ff" points="47,-292.81 50.5,-302.81 54,-292.81 47,-292.81"/>
</a>
</g>
</g>
</g>
</svg>
