<?xml version="1.0" encoding="UTF-8" standalone="no"?>
<!DOCTYPE svg PUBLIC "-//W3C//DTD SVG 1.1//EN"
 "http://www.w3.org/Graphics/SVG/1.1/DTD/svg11.dtd">
<!-- Generated by graphviz version 9.0.0 (20230911.1827)
 -->
<!-- Title: LaunchScreenState Pages: 1 -->
<svg width="115pt" height="348pt"
 viewBox="0.00 0.00 115.00 348.00" xmlns="http://www.w3.org/2000/svg" xmlns:xlink="http://www.w3.org/1999/xlink">
<g id="graph0" class="graph" transform="scale(1 1) rotate(0) translate(4 344)">
<title>LaunchScreenState</title>
<!-- Node1 -->
<g id="Node000001" class="node">
<title>Node1</title>
<g id="a_Node000001"><a xlink:title=" ">
<polygon fill="#999999" stroke="none" points="101,-52 6,-52 6,0 101,0 101,-52"/>
<text text-anchor="start" x="10.75" y="-38.5" font-family="Helvetica,sans-Serif" font-size="10.00">LaunchScreenState</text>
<text text-anchor="start" x="52" y="-22.5" font-family="Helvetica,sans-Serif" font-size="10.00"> </text>
<text text-anchor="start" x="52" y="-6.5" font-family="Helvetica,sans-Serif" font-size="10.00"> </text>
<polygon fill="#666666" stroke="#666666" points="6,-34 6,-34 101,-34 101,-34 6,-34"/>
<polygon fill="#666666" stroke="#666666" points="6,-18 6,-18 101,-18 101,-18 6,-18"/>
<polygon fill="none" stroke="#666666" points="6,0 6,-52 101,-52 101,0 6,0"/>
</a>
</g>
</g>
<!-- Node2 -->
<g id="Node000002" class="node">
<title>Node2</title>
<g id="a_Node000002"><a xlink:href="class_code_smile_1_1_multi_pal_1_1_settings_1_1_game_state_base.html" target="_top" xlink:title=" ">
<polygon fill="white" stroke="none" points="107,-252 0,-252 0,-88 107,-88 107,-252"/>
<text text-anchor="start" x="17.5" y="-238.5" font-family="Helvetica,sans-Serif" font-size="10.00">GameStateBase</text>
<text text-anchor="start" x="4" y="-222.5" font-family="Helvetica,sans-Serif" font-size="10.00">+</text>
<text text-anchor="start" x="14" y="-222.5" font-family="Helvetica,sans-Serif" font-size="10.00">MenuRoot</text>
<text text-anchor="start" x="4" y="-206.5" font-family="Helvetica,sans-Serif" font-size="10.00">+</text>
<text text-anchor="start" x="14" y="-206.5" font-family="Helvetica,sans-Serif" font-size="10.00">ClientSceneRefs</text>
<text text-anchor="start" x="4" y="-190.5" font-family="Helvetica,sans-Serif" font-size="10.00">+</text>
<text text-anchor="start" x="14" y="-190.5" font-family="Helvetica,sans-Serif" font-size="10.00">ClientScenes</text>
<text text-anchor="start" x="4" y="-174.5" font-family="Helvetica,sans-Serif" font-size="10.00">+</text>
<text text-anchor="start" x="14" y="-174.5" font-family="Helvetica,sans-Serif" font-size="10.00">NextState</text>
<text text-anchor="start" x="4" y="-158.5" font-family="Helvetica,sans-Serif" font-size="10.00">+</text>
<text text-anchor="start" x="14" y="-158.5" font-family="Helvetica,sans-Serif" font-size="10.00">NextStateCondition</text>
<text text-anchor="start" x="4" y="-142.5" font-family="Helvetica,sans-Serif" font-size="10.00">+</text>
<text text-anchor="start" x="14" y="-142.5" font-family="Helvetica,sans-Serif" font-size="10.00">ServerSceneRefs</text>
<text text-anchor="start" x="4" y="-126.5" font-family="Helvetica,sans-Serif" font-size="10.00">+</text>
<text text-anchor="start" x="14" y="-126.5" font-family="Helvetica,sans-Serif" font-size="10.00">ServerScenes</text>
<text text-anchor="start" x="4" y="-110.5" font-family="Helvetica,sans-Serif" font-size="10.00">+</text>
<text text-anchor="start" x="14" y="-110.5" font-family="Helvetica,sans-Serif" font-size="10.00">ConditionsSatisfied()</text>
<text text-anchor="start" x="4.38" y="-94.5" font-family="Helvetica,sans-Serif" font-size="10.00">#</text>
<text text-anchor="start" x="14" y="-94.5" font-family="Helvetica,sans-Serif" font-size="10.00">OnValidate()</text>
<polygon fill="#bfbfbf" stroke="#bfbfbf" points="0,-234 0,-234 107,-234 107,-234 0,-234"/>
<polygon fill="#bfbfbf" stroke="#bfbfbf" points="0,-122 0,-122 12,-122 12,-122 0,-122"/>
<polygon fill="#bfbfbf" stroke="#bfbfbf" points="12,-122 12,-122 107,-122 107,-122 12,-122"/>
<polygon fill="none" stroke="#bfbfbf" points="0,-88 0,-252 107,-252 107,-88 0,-88"/>
</a>
</g>
</g>
<!-- Node2&#45;&gt;Node1 -->
<g id="edge1_Node000001_Node000002" class="edge">
<title>Node2&#45;&gt;Node1</title>
<g id="a_edge1_Node000001_Node000002"><a xlink:title=" ">
<path fill="none" stroke="#63b8ff" d="M53.5,-76.76C53.5,-67.67 53.5,-59.1 53.5,-51.71"/>
<polygon fill="none" stroke="#63b8ff" points="50,-76.53 53.5,-86.53 57,-76.53 50,-76.53"/>
</a>
</g>
</g>
<!-- Node3 -->
<g id="Node000003" class="node">
<title>Node3</title>
<g id="a_Node000003"><a xlink:title=" ">
<polygon fill="white" stroke="none" points="94.5,-340 12.5,-340 12.5,-288 94.5,-288 94.5,-340"/>
<text text-anchor="start" x="17.5" y="-326.5" font-family="Helvetica,sans-Serif" font-size="10.00">ScriptableObject</text>
<text text-anchor="start" x="52" y="-310.5" font-family="Helvetica,sans-Serif" font-size="10.00"> </text>
<text text-anchor="start" x="52" y="-294.5" font-family="Helvetica,sans-Serif" font-size="10.00"> </text>
<polygon fill="#bfbfbf" stroke="#bfbfbf" points="12.5,-322 12.5,-322 94.5,-322 94.5,-322 12.5,-322"/>
<polygon fill="#bfbfbf" stroke="#bfbfbf" points="12.5,-306 12.5,-306 94.5,-306 94.5,-306 12.5,-306"/>
<polygon fill="none" stroke="#bfbfbf" points="12.5,-288 12.5,-340 94.5,-340 94.5,-288 12.5,-288"/>
</a>
</g>
</g>
<!-- Node3&#45;&gt;Node2 -->
<g id="edge2_Node000002_Node000003" class="edge">
<title>Node3&#45;&gt;Node2</title>
<g id="a_edge2_Node000002_Node000003"><a xlink:title=" ">
<path fill="none" stroke="#63b8ff" d="M53.5,-276.77C53.5,-269.03 53.5,-260.55 53.5,-251.87"/>
<polygon fill="none" stroke="#63b8ff" points="50,-276.75 53.5,-286.75 57,-276.75 50,-276.75"/>
</a>
</g>
</g>
</g>
</svg>
