<?xml version="1.0" encoding="UTF-8" standalone="no"?>
<!DOCTYPE svg PUBLIC "-//W3C//DTD SVG 1.1//EN"
 "http://www.w3.org/Graphics/SVG/1.1/DTD/svg11.dtd">
<!-- Generated by graphviz version 9.0.0 (20230911.1827)
 -->
<!-- Title: Splitscreen Pages: 1 -->
<svg width="111pt" height="148pt"
 viewBox="0.00 0.00 111.00 148.00" xmlns="http://www.w3.org/2000/svg" xmlns:xlink="http://www.w3.org/1999/xlink">
<g id="graph0" class="graph" transform="scale(1 1) rotate(0) translate(4 144)">
<title>Splitscreen</title>
<!-- Node1 -->
<g id="Node000001" class="node">
<title>Node1</title>
<g id="a_Node000001"><a xlink:title="Dynamically splits the screen based on number of currently joined players. Splitscreen behaviour is a...">
<polygon fill="#999999" stroke="none" points="103,-52 0,-52 0,0 103,0 103,-52"/>
<text text-anchor="start" x="27.12" y="-38.5" font-family="Helvetica,sans-Serif" font-size="10.00">Splitscreen</text>
<text text-anchor="start" x="4" y="-22.5" font-family="Helvetica,sans-Serif" font-size="10.00">+</text>
<text text-anchor="start" x="14" y="-22.5" font-family="Helvetica,sans-Serif" font-size="10.00">SplitAxis</text>
<text text-anchor="start" x="4" y="-6.5" font-family="Helvetica,sans-Serif" font-size="10.00">~</text>
<text text-anchor="start" x="14" y="-6.5" font-family="Helvetica,sans-Serif" font-size="10.00">UpdateSplitscreen()</text>
<polygon fill="#666666" stroke="#666666" points="0,-34 0,-34 103,-34 103,-34 0,-34"/>
<polygon fill="#666666" stroke="#666666" points="0,-18 0,-18 12,-18 12,-18 0,-18"/>
<polygon fill="#666666" stroke="#666666" points="12,-18 12,-18 103,-18 103,-18 12,-18"/>
<polygon fill="none" stroke="#666666" points="0,0 0,-52 103,-52 103,0 0,0"/>
</a>
</g>
</g>
<!-- Node2 -->
<g id="Node000002" class="node">
<title>Node2</title>
<g id="a_Node000002"><a xlink:title=" ">
<polygon fill="white" stroke="none" points="89.5,-140 13.5,-140 13.5,-88 89.5,-88 89.5,-140"/>
<text text-anchor="start" x="18.5" y="-126.5" font-family="Helvetica,sans-Serif" font-size="10.00">MonoBehaviour</text>
<text text-anchor="start" x="50" y="-110.5" font-family="Helvetica,sans-Serif" font-size="10.00"> </text>
<text text-anchor="start" x="50" y="-94.5" font-family="Helvetica,sans-Serif" font-size="10.00"> </text>
<polygon fill="#bfbfbf" stroke="#bfbfbf" points="13.5,-122 13.5,-122 89.5,-122 89.5,-122 13.5,-122"/>
<polygon fill="#bfbfbf" stroke="#bfbfbf" points="13.5,-106 13.5,-106 89.5,-106 89.5,-106 13.5,-106"/>
<polygon fill="none" stroke="#bfbfbf" points="13.5,-88 13.5,-140 89.5,-140 89.5,-88 13.5,-88"/>
</a>
</g>
</g>
<!-- Node2&#45;&gt;Node1 -->
<g id="edge1_Node000001_Node000002" class="edge">
<title>Node2&#45;&gt;Node1</title>
<g id="a_edge1_Node000001_Node000002"><a xlink:title=" ">
<path fill="none" stroke="#63b8ff" d="M51.5,-76.66C51.5,-68.29 51.5,-59.57 51.5,-51.82"/>
<polygon fill="none" stroke="#63b8ff" points="48,-76.61 51.5,-86.61 55,-76.61 48,-76.61"/>
</a>
</g>
</g>
</g>
</svg>
