<?xml version="1.0" encoding="UTF-8" standalone="no"?>
<!DOCTYPE svg PUBLIC "-//W3C//DTD SVG 1.1//EN"
 "http://www.w3.org/Graphics/SVG/1.1/DTD/svg11.dtd">
<!-- Generated by graphviz version 9.0.0 (20230911.1827)
 -->
<!-- Title: PregameGuiController Pages: 1 -->
<svg width="113pt" height="148pt"
 viewBox="0.00 0.00 113.00 148.00" xmlns="http://www.w3.org/2000/svg" xmlns:xlink="http://www.w3.org/1999/xlink">
<g id="graph0" class="graph" transform="scale(1 1) rotate(0) translate(4 144)">
<title>PregameGuiController</title>
<!-- Node1 -->
<g id="Node000001" class="node">
<title>Node1</title>
<g id="a_Node000001"><a xlink:title=" ">
<polygon fill="#999999" stroke="none" points="105,-52 0,-52 0,0 105,0 105,-52"/>
<text text-anchor="start" x="4.88" y="-38.5" font-family="Helvetica,sans-Serif" font-size="10.00">PregameGuiController</text>
<text text-anchor="start" x="51" y="-22.5" font-family="Helvetica,sans-Serif" font-size="10.00"> </text>
<text text-anchor="start" x="51" y="-6.5" font-family="Helvetica,sans-Serif" font-size="10.00"> </text>
<polygon fill="#666666" stroke="#666666" points="0,-34 0,-34 105,-34 105,-34 0,-34"/>
<polygon fill="#666666" stroke="#666666" points="0,-18 0,-18 105,-18 105,-18 0,-18"/>
<polygon fill="none" stroke="#666666" points="0,0 0,-52 105,-52 105,0 0,0"/>
</a>
</g>
</g>
<!-- Node2 -->
<g id="Node000002" class="node">
<title>Node2</title>
<g id="a_Node000002"><a xlink:title=" ">
<polygon fill="white" stroke="none" points="90.5,-140 14.5,-140 14.5,-88 90.5,-88 90.5,-140"/>
<text text-anchor="start" x="19.5" y="-126.5" font-family="Helvetica,sans-Serif" font-size="10.00">MonoBehaviour</text>
<text text-anchor="start" x="51" y="-110.5" font-family="Helvetica,sans-Serif" font-size="10.00"> </text>
<text text-anchor="start" x="51" y="-94.5" font-family="Helvetica,sans-Serif" font-size="10.00"> </text>
<polygon fill="#bfbfbf" stroke="#bfbfbf" points="14.5,-122 14.5,-122 90.5,-122 90.5,-122 14.5,-122"/>
<polygon fill="#bfbfbf" stroke="#bfbfbf" points="14.5,-106 14.5,-106 90.5,-106 90.5,-106 14.5,-106"/>
<polygon fill="none" stroke="#bfbfbf" points="14.5,-88 14.5,-140 90.5,-140 90.5,-88 14.5,-88"/>
</a>
</g>
</g>
<!-- Node2&#45;&gt;Node1 -->
<g id="edge1_Node000001_Node000002" class="edge">
<title>Node2&#45;&gt;Node1</title>
<g id="a_edge1_Node000001_Node000002"><a xlink:title=" ">
<path fill="none" stroke="#63b8ff" d="M52.5,-76.66C52.5,-68.29 52.5,-59.57 52.5,-51.82"/>
<polygon fill="none" stroke="#63b8ff" points="49,-76.61 52.5,-86.61 56,-76.61 49,-76.61"/>
</a>
</g>
</g>
</g>
</svg>
