<?xml version="1.0" encoding="UTF-8" standalone="no"?>
<!DOCTYPE svg PUBLIC "-//W3C//DTD SVG 1.1//EN"
 "http://www.w3.org/Graphics/SVG/1.1/DTD/svg11.dtd">
<!-- Generated by graphviz version 9.0.0 (20230911.1827)
 -->
<!-- Title: IsLocalClientStarted Pages: 1 -->
<svg width="109pt" height="324pt"
 viewBox="0.00 0.00 109.00 324.00" xmlns="http://www.w3.org/2000/svg" xmlns:xlink="http://www.w3.org/1999/xlink">

<svg id="main" version="1.1" xmlns="http://www.w3.org/2000/svg" xmlns:xlink="http://www.w3.org/1999/xlink" xml:space="preserve">

<style type="text/css"><![CDATA[
.node, .edge {opacity: 0.7;}
.node.selected, .edge.selected {opacity: 1;}
.edge:hover path { stroke: red; }
.edge:hover polygon { stroke: red; fill: red; }
]]></style>
<script type="application/ecmascript" xlink:href="svg.min.js"/>
<svg id="graph" class="graph">
<g id="graph0" class="graph" transform="scale(1 1) rotate(0) translate(4 320)">
<title>IsLocalClientStarted</title>
<!-- Node1 -->
<g id="Node000001" class="node">
<title>Node1</title>
<g id="a_Node000001"><a xlink:title="Is true after NetworkManager StartClient has been called until the client stops or a transport failur...">
<polygon fill="#999999" stroke="none" points="99,-140 2,-140 2,-88 99,-88 99,-140"/>
<text text-anchor="start" x="7" y="-126.5" font-family="Helvetica,sans-Serif" font-size="10.00">IsLocalClientStarted</text>
<text text-anchor="start" x="49" y="-110.5" font-family="Helvetica,sans-Serif" font-size="10.00"> </text>
<text text-anchor="start" x="49" y="-94.5" font-family="Helvetica,sans-Serif" font-size="10.00"> </text>
<polygon fill="#666666" stroke="#666666" points="2,-122 2,-122 99,-122 99,-122 2,-122"/>
<polygon fill="#666666" stroke="#666666" points="2,-106 2,-106 99,-106 99,-106 2,-106"/>
<polygon fill="none" stroke="#666666" points="2,-88 2,-140 99,-140 99,-88 2,-88"/>
</a>
</g>
</g>
<!-- Node4 -->
<g id="Node000004" class="node">
<title>Node4</title>
<g id="a_Node000004"><a xlink:href="class_code_smile_1_1_statemachine_1_1_netcode_1_1_conditions_1_1_is_local_client_stopped.html" target="_top" xlink:title="Tests if the client is not in the started state.">
<polygon fill="white" stroke="none" points="101,-52 0,-52 0,0 101,0 101,-52"/>
<text text-anchor="start" x="4.75" y="-38.5" font-family="Helvetica,sans-Serif" font-size="10.00">IsLocalClientStopped</text>
<text text-anchor="start" x="49" y="-22.5" font-family="Helvetica,sans-Serif" font-size="10.00"> </text>
<text text-anchor="start" x="49" y="-6.5" font-family="Helvetica,sans-Serif" font-size="10.00"> </text>
<polygon fill="#666666" stroke="#666666" points="0,-34 0,-34 101,-34 101,-34 0,-34"/>
<polygon fill="#666666" stroke="#666666" points="0,-18 0,-18 101,-18 101,-18 0,-18"/>
<polygon fill="none" stroke="#666666" points="0,0 0,-52 101,-52 101,0 0,0"/>
</a>
</g>
</g>
<!-- Node1&#45;&gt;Node4 -->
<g id="edge3_Node000001_Node000004" class="edge">
<title>Node1&#45;&gt;Node4</title>
<g id="a_edge3_Node000001_Node000004"><a xlink:title=" ">
<path fill="none" stroke="#63b8ff" d="M50.5,-76.66C50.5,-68.29 50.5,-59.57 50.5,-51.82"/>
<polygon fill="none" stroke="#63b8ff" points="47,-76.61 50.5,-86.61 54,-76.61 47,-76.61"/>
</a>
</g>
</g>
<!-- Node2 -->
<g id="Node000002" class="node">
<title>Node2</title>
<g id="a_Node000002"><a xlink:href="interface_code_smile_1_1_statemachine_1_1_i_condition.html" target="_top" xlink:title="Marks a class as a FSM Condition.">
<polygon fill="white" stroke="none" points="76.5,-228 24.5,-228 24.5,-176 76.5,-176 76.5,-228"/>
<text text-anchor="start" x="29.12" y="-214.5" font-family="Helvetica,sans-Serif" font-size="10.00">ICondition</text>
<text text-anchor="start" x="49" y="-198.5" font-family="Helvetica,sans-Serif" font-size="10.00"> </text>
<text text-anchor="start" x="49" y="-182.5" font-family="Helvetica,sans-Serif" font-size="10.00"> </text>
<polygon fill="#666666" stroke="#666666" points="24.5,-210 24.5,-210 76.5,-210 76.5,-210 24.5,-210"/>
<polygon fill="#666666" stroke="#666666" points="24.5,-194 24.5,-194 76.5,-194 76.5,-194 24.5,-194"/>
<polygon fill="none" stroke="#666666" points="24.5,-176 24.5,-228 76.5,-228 76.5,-176 24.5,-176"/>
</a>
</g>
</g>
<!-- Node2&#45;&gt;Node1 -->
<g id="edge1_Node000001_Node000002" class="edge">
<title>Node2&#45;&gt;Node1</title>
<g id="a_edge1_Node000001_Node000002"><a xlink:title=" ">
<path fill="none" stroke="#63b8ff" d="M50.5,-164.66C50.5,-156.29 50.5,-147.57 50.5,-139.82"/>
<polygon fill="none" stroke="#63b8ff" points="47,-164.61 50.5,-174.61 54,-164.61 47,-164.61"/>
</a>
</g>
</g>
<!-- Node3 -->
<g id="Node000003" class="node">
<title>Node3</title>
<g id="a_Node000003"><a xlink:href="interface_code_smile_1_1_statemachine_1_1_i_statemachine_events.html" target="_top" xlink:title="Event methods that the Statemachine calls at specific times.">
<polygon fill="white" stroke="none" points="101,-316 0,-316 0,-264 101,-264 101,-316"/>
<text text-anchor="start" x="4.75" y="-302.5" font-family="Helvetica,sans-Serif" font-size="10.00">IStatemachineEvents</text>
<text text-anchor="start" x="49" y="-286.5" font-family="Helvetica,sans-Serif" font-size="10.00"> </text>
<text text-anchor="start" x="49" y="-270.5" font-family="Helvetica,sans-Serif" font-size="10.00"> </text>
<polygon fill="#666666" stroke="#666666" points="0,-298 0,-298 101,-298 101,-298 0,-298"/>
<polygon fill="#666666" stroke="#666666" points="0,-282 0,-282 101,-282 101,-282 0,-282"/>
<polygon fill="none" stroke="#666666" points="0,-264 0,-316 101,-316 101,-264 0,-264"/>
</a>
</g>
</g>
<!-- Node3&#45;&gt;Node2 -->
<g id="edge2_Node000002_Node000003" class="edge">
<title>Node3&#45;&gt;Node2</title>
<g id="a_edge2_Node000002_Node000003"><a xlink:title=" ">
<path fill="none" stroke="#63b8ff" d="M50.5,-252.66C50.5,-244.29 50.5,-235.57 50.5,-227.82"/>
<polygon fill="none" stroke="#63b8ff" points="47,-252.61 50.5,-262.61 54,-252.61 47,-252.61"/>
</a>
</g>
</g>
</g>
</svg>
</svg>

<style type='text/css'>
<![CDATA[
[data-mouse-over-selected='false'] { opacity: 0.7; }
[data-mouse-over-selected='true']  { opacity: 1.0; }
]]>
</style>
<script type="application/ecmascript"><![CDATA[
document.addEventListener('DOMContentLoaded', (event) => {
  highlightEdges();
  highlightAdjacentNodes();
});
]]></script>
</svg>
