<?xml version="1.0" encoding="UTF-8" standalone="no"?>
<!DOCTYPE svg PUBLIC "-//W3C//DTD SVG 1.1//EN"
 "http://www.w3.org/Graphics/SVG/1.1/DTD/svg11.dtd">
<!-- Generated by graphviz version 9.0.0 (20230911.1827)
 -->
<!-- Title: GeneratedInput Pages: 1 -->
<svg width="196pt" height="484pt"
 viewBox="0.00 0.00 195.50 484.00" xmlns="http://www.w3.org/2000/svg" xmlns:xlink="http://www.w3.org/1999/xlink">
<g id="graph0" class="graph" transform="scale(1 1) rotate(0) translate(4 480)">
<title>GeneratedInput</title>
<!-- Node1 -->
<g id="Node000001" class="node">
<title>Node1</title>
<g id="a_Node000001"><a xlink:title=" ">
<polygon fill="#999999" stroke="none" points="167.5,-388 43.5,-388 43.5,0 167.5,0 167.5,-388"/>
<text text-anchor="start" x="72.5" y="-374.5" font-family="Helvetica,sans-Serif" font-size="10.00">GeneratedInput</text>
<text text-anchor="start" x="47.5" y="-358.5" font-family="Helvetica,sans-Serif" font-size="10.00">+</text>
<text text-anchor="start" x="57.5" y="-358.5" font-family="Helvetica,sans-Serif" font-size="10.00">asset</text>
<text text-anchor="start" x="47.5" y="-342.5" font-family="Helvetica,sans-Serif" font-size="10.00">+</text>
<text text-anchor="start" x="57.5" y="-342.5" font-family="Helvetica,sans-Serif" font-size="10.00">bindingMask</text>
<text text-anchor="start" x="47.5" y="-326.5" font-family="Helvetica,sans-Serif" font-size="10.00">+</text>
<text text-anchor="start" x="57.5" y="-326.5" font-family="Helvetica,sans-Serif" font-size="10.00">bindings</text>
<text text-anchor="start" x="47.5" y="-310.5" font-family="Helvetica,sans-Serif" font-size="10.00">+</text>
<text text-anchor="start" x="57.5" y="-310.5" font-family="Helvetica,sans-Serif" font-size="10.00">controlSchemes</text>
<text text-anchor="start" x="47.5" y="-294.5" font-family="Helvetica,sans-Serif" font-size="10.00">+</text>
<text text-anchor="start" x="57.5" y="-294.5" font-family="Helvetica,sans-Serif" font-size="10.00">devices</text>
<text text-anchor="start" x="47.5" y="-278.5" font-family="Helvetica,sans-Serif" font-size="10.00">+</text>
<text text-anchor="start" x="57.5" y="-278.5" font-family="Helvetica,sans-Serif" font-size="10.00">GamepadScheme</text>
<text text-anchor="start" x="47.5" y="-262.5" font-family="Helvetica,sans-Serif" font-size="10.00">+</text>
<text text-anchor="start" x="57.5" y="-262.5" font-family="Helvetica,sans-Serif" font-size="10.00">JoystickScheme</text>
<text text-anchor="start" x="47.5" y="-246.5" font-family="Helvetica,sans-Serif" font-size="10.00">+</text>
<text text-anchor="start" x="57.5" y="-246.5" font-family="Helvetica,sans-Serif" font-size="10.00">KeyboardMouseScheme</text>
<text text-anchor="start" x="47.5" y="-230.5" font-family="Helvetica,sans-Serif" font-size="10.00">+</text>
<text text-anchor="start" x="57.5" y="-230.5" font-family="Helvetica,sans-Serif" font-size="10.00">Pairing</text>
<text text-anchor="start" x="47.5" y="-214.5" font-family="Helvetica,sans-Serif" font-size="10.00">+</text>
<text text-anchor="start" x="57.5" y="-214.5" font-family="Helvetica,sans-Serif" font-size="10.00">PlayerInteraction</text>
<text text-anchor="start" x="47.5" y="-198.5" font-family="Helvetica,sans-Serif" font-size="10.00">+</text>
<text text-anchor="start" x="57.5" y="-198.5" font-family="Helvetica,sans-Serif" font-size="10.00">PlayerKinematics</text>
<text text-anchor="start" x="47.5" y="-182.5" font-family="Helvetica,sans-Serif" font-size="10.00">+</text>
<text text-anchor="start" x="57.5" y="-182.5" font-family="Helvetica,sans-Serif" font-size="10.00">PlayerUI</text>
<text text-anchor="start" x="47.5" y="-166.5" font-family="Helvetica,sans-Serif" font-size="10.00">+</text>
<text text-anchor="start" x="57.5" y="-166.5" font-family="Helvetica,sans-Serif" font-size="10.00">TouchScheme</text>
<text text-anchor="start" x="47.5" y="-150.5" font-family="Helvetica,sans-Serif" font-size="10.00">+</text>
<text text-anchor="start" x="57.5" y="-150.5" font-family="Helvetica,sans-Serif" font-size="10.00">UI</text>
<text text-anchor="start" x="47.5" y="-134.5" font-family="Helvetica,sans-Serif" font-size="10.00">+</text>
<text text-anchor="start" x="57.5" y="-134.5" font-family="Helvetica,sans-Serif" font-size="10.00">XRScheme</text>
<text text-anchor="start" x="47.5" y="-118.5" font-family="Helvetica,sans-Serif" font-size="10.00">+</text>
<text text-anchor="start" x="57.5" y="-118.5" font-family="Helvetica,sans-Serif" font-size="10.00">GeneratedInput()</text>
<text text-anchor="start" x="47.5" y="-102.5" font-family="Helvetica,sans-Serif" font-size="10.00">+</text>
<text text-anchor="start" x="57.5" y="-102.5" font-family="Helvetica,sans-Serif" font-size="10.00">Contains()</text>
<text text-anchor="start" x="47.5" y="-86.5" font-family="Helvetica,sans-Serif" font-size="10.00">+</text>
<text text-anchor="start" x="57.5" y="-86.5" font-family="Helvetica,sans-Serif" font-size="10.00">Disable()</text>
<text text-anchor="start" x="47.5" y="-70.5" font-family="Helvetica,sans-Serif" font-size="10.00">+</text>
<text text-anchor="start" x="57.5" y="-70.5" font-family="Helvetica,sans-Serif" font-size="10.00">Dispose()</text>
<text text-anchor="start" x="47.5" y="-54.5" font-family="Helvetica,sans-Serif" font-size="10.00">+</text>
<text text-anchor="start" x="57.5" y="-54.5" font-family="Helvetica,sans-Serif" font-size="10.00">Enable()</text>
<text text-anchor="start" x="47.5" y="-38.5" font-family="Helvetica,sans-Serif" font-size="10.00">+</text>
<text text-anchor="start" x="57.5" y="-38.5" font-family="Helvetica,sans-Serif" font-size="10.00">FindAction()</text>
<text text-anchor="start" x="47.5" y="-22.5" font-family="Helvetica,sans-Serif" font-size="10.00">+</text>
<text text-anchor="start" x="57.5" y="-22.5" font-family="Helvetica,sans-Serif" font-size="10.00">FindBinding()</text>
<text text-anchor="start" x="47.5" y="-6.5" font-family="Helvetica,sans-Serif" font-size="10.00">+</text>
<text text-anchor="start" x="57.5" y="-6.5" font-family="Helvetica,sans-Serif" font-size="10.00">GetEnumerator()</text>
<polygon fill="#666666" stroke="#666666" points="43.5,-370 43.5,-370 167.5,-370 167.5,-370 43.5,-370"/>
<polygon fill="#666666" stroke="#666666" points="43.5,-130 43.5,-130 55.5,-130 55.5,-130 43.5,-130"/>
<polygon fill="#666666" stroke="#666666" points="55.5,-130 55.5,-130 167.5,-130 167.5,-130 55.5,-130"/>
<polygon fill="none" stroke="#666666" points="43.5,0 43.5,-388 167.5,-388 167.5,0 43.5,0"/>
</a>
</g>
</g>
<!-- Node2 -->
<g id="Node000002" class="node">
<title>Node2</title>
<g id="a_Node000002"><a xlink:title=" ">
<polygon fill="white" stroke="none" points="109,-476 0,-476 0,-424 109,-424 109,-476"/>
<text text-anchor="start" x="5" y="-462.5" font-family="Helvetica,sans-Serif" font-size="10.00">IInputActionCollection2</text>
<text text-anchor="start" x="53" y="-446.5" font-family="Helvetica,sans-Serif" font-size="10.00"> </text>
<text text-anchor="start" x="53" y="-430.5" font-family="Helvetica,sans-Serif" font-size="10.00"> </text>
<polygon fill="#bfbfbf" stroke="#bfbfbf" points="0,-458 0,-458 109,-458 109,-458 0,-458"/>
<polygon fill="#bfbfbf" stroke="#bfbfbf" points="0,-442 0,-442 109,-442 109,-442 0,-442"/>
<polygon fill="none" stroke="#bfbfbf" points="0,-424 0,-476 109,-476 109,-424 0,-424"/>
</a>
</g>
</g>
<!-- Node2&#45;&gt;Node1 -->
<g id="edge1_Node000001_Node000002" class="edge">
<title>Node2&#45;&gt;Node1</title>
<g id="a_edge1_Node000001_Node000002"><a xlink:title=" ">
<path fill="none" stroke="#63b8ff" d="M61.72,-413.05C63.24,-405.46 64.95,-396.95 66.78,-387.82"/>
<polygon fill="none" stroke="#63b8ff" points="58.32,-412.21 59.78,-422.7 65.18,-413.58 58.32,-412.21"/>
</a>
</g>
</g>
<!-- Node3 -->
<g id="Node000003" class="node">
<title>Node3</title>
<g id="a_Node000003"><a xlink:title=" ">
<polygon fill="white" stroke="none" points="187.5,-476 127.5,-476 127.5,-424 187.5,-424 187.5,-476"/>
<text text-anchor="start" x="132.38" y="-462.5" font-family="Helvetica,sans-Serif" font-size="10.00">IDisposable</text>
<text text-anchor="start" x="156" y="-446.5" font-family="Helvetica,sans-Serif" font-size="10.00"> </text>
<text text-anchor="start" x="156" y="-430.5" font-family="Helvetica,sans-Serif" font-size="10.00"> </text>
<polygon fill="#bfbfbf" stroke="#bfbfbf" points="127.5,-458 127.5,-458 187.5,-458 187.5,-458 127.5,-458"/>
<polygon fill="#bfbfbf" stroke="#bfbfbf" points="127.5,-442 127.5,-442 187.5,-442 187.5,-442 127.5,-442"/>
<polygon fill="none" stroke="#bfbfbf" points="127.5,-424 127.5,-476 187.5,-476 187.5,-424 127.5,-424"/>
</a>
</g>
</g>
<!-- Node3&#45;&gt;Node1 -->
<g id="edge2_Node000001_Node000003" class="edge">
<title>Node3&#45;&gt;Node1</title>
<g id="a_edge2_Node000001_Node000003"><a xlink:title=" ">
<path fill="none" stroke="#63b8ff" d="M150.14,-413.05C148.59,-405.46 146.84,-396.95 144.97,-387.82"/>
<polygon fill="none" stroke="#63b8ff" points="146.68,-413.61 152.12,-422.7 153.54,-412.2 146.68,-413.61"/>
</a>
</g>
</g>
</g>
</svg>
