<?xml version="1.0" encoding="UTF-8" standalone="no"?>
<!DOCTYPE svg PUBLIC "-//W3C//DTD SVG 1.1//EN"
 "http://www.w3.org/Graphics/SVG/1.1/DTD/svg11.dtd">
<!-- Generated by graphviz version 9.0.0 (20230911.1827)
 -->
<!-- Title: IsLocalClientConnected Pages: 1 -->
<svg width="120pt" height="236pt"
 viewBox="0.00 0.00 120.00 236.00" xmlns="http://www.w3.org/2000/svg" xmlns:xlink="http://www.w3.org/1999/xlink">
<g id="graph0" class="graph" transform="scale(1 1) rotate(0) translate(4 232)">
<title>IsLocalClientConnected</title>
<!-- Node1 -->
<g id="Node000001" class="node">
<title>Node1</title>
<g id="a_Node000001"><a xlink:title="Tests if the client that this script executes on is currently connected to a network session.">
<polygon fill="#999999" stroke="none" points="112,-52 0,-52 0,0 112,0 112,-52"/>
<text text-anchor="start" x="5" y="-38.5" font-family="Helvetica,sans-Serif" font-size="10.00">IsLocalClientConnected</text>
<text text-anchor="start" x="54.5" y="-22.5" font-family="Helvetica,sans-Serif" font-size="10.00"> </text>
<text text-anchor="start" x="54.5" y="-6.5" font-family="Helvetica,sans-Serif" font-size="10.00"> </text>
<polygon fill="#666666" stroke="#666666" points="0,-34 0,-34 112,-34 112,-34 0,-34"/>
<polygon fill="#666666" stroke="#666666" points="0,-18 0,-18 112,-18 112,-18 0,-18"/>
<polygon fill="none" stroke="#666666" points="0,0 0,-52 112,-52 112,0 0,0"/>
</a>
</g>
</g>
<!-- Node2 -->
<g id="Node000002" class="node">
<title>Node2</title>
<g id="a_Node000002"><a xlink:href="interface_code_smile_1_1_statemachine_1_1_i_condition.html" target="_top" xlink:title="Marks a class as a FSM Condition.">
<polygon fill="white" stroke="none" points="82,-140 30,-140 30,-88 82,-88 82,-140"/>
<text text-anchor="start" x="34.62" y="-126.5" font-family="Helvetica,sans-Serif" font-size="10.00">ICondition</text>
<text text-anchor="start" x="54.5" y="-110.5" font-family="Helvetica,sans-Serif" font-size="10.00"> </text>
<text text-anchor="start" x="54.5" y="-94.5" font-family="Helvetica,sans-Serif" font-size="10.00"> </text>
<polygon fill="#666666" stroke="#666666" points="30,-122 30,-122 82,-122 82,-122 30,-122"/>
<polygon fill="#666666" stroke="#666666" points="30,-106 30,-106 82,-106 82,-106 30,-106"/>
<polygon fill="none" stroke="#666666" points="30,-88 30,-140 82,-140 82,-88 30,-88"/>
</a>
</g>
</g>
<!-- Node2&#45;&gt;Node1 -->
<g id="edge1_Node000001_Node000002" class="edge">
<title>Node2&#45;&gt;Node1</title>
<g id="a_edge1_Node000001_Node000002"><a xlink:title=" ">
<path fill="none" stroke="#63b8ff" d="M56,-76.66C56,-68.29 56,-59.57 56,-51.82"/>
<polygon fill="none" stroke="#63b8ff" points="52.5,-76.61 56,-86.61 59.5,-76.61 52.5,-76.61"/>
</a>
</g>
</g>
<!-- Node3 -->
<g id="Node000003" class="node">
<title>Node3</title>
<g id="a_Node000003"><a xlink:href="interface_code_smile_1_1_statemachine_1_1_i_statemachine_events.html" target="_top" xlink:title="Event methods that the Statemachine calls at specific times.">
<polygon fill="white" stroke="none" points="106.5,-228 5.5,-228 5.5,-176 106.5,-176 106.5,-228"/>
<text text-anchor="start" x="10.25" y="-214.5" font-family="Helvetica,sans-Serif" font-size="10.00">IStatemachineEvents</text>
<text text-anchor="start" x="54.5" y="-198.5" font-family="Helvetica,sans-Serif" font-size="10.00"> </text>
<text text-anchor="start" x="54.5" y="-182.5" font-family="Helvetica,sans-Serif" font-size="10.00"> </text>
<polygon fill="#666666" stroke="#666666" points="5.5,-210 5.5,-210 106.5,-210 106.5,-210 5.5,-210"/>
<polygon fill="#666666" stroke="#666666" points="5.5,-194 5.5,-194 106.5,-194 106.5,-194 5.5,-194"/>
<polygon fill="none" stroke="#666666" points="5.5,-176 5.5,-228 106.5,-228 106.5,-176 5.5,-176"/>
</a>
</g>
</g>
<!-- Node3&#45;&gt;Node2 -->
<g id="edge2_Node000002_Node000003" class="edge">
<title>Node3&#45;&gt;Node2</title>
<g id="a_edge2_Node000002_Node000003"><a xlink:title=" ">
<path fill="none" stroke="#63b8ff" d="M56,-164.66C56,-156.29 56,-147.57 56,-139.82"/>
<polygon fill="none" stroke="#63b8ff" points="52.5,-164.61 56,-174.61 59.5,-164.61 52.5,-164.61"/>
</a>
</g>
</g>
</g>
</svg>
