<?xml version="1.0" encoding="UTF-8" standalone="no"?>
<!DOCTYPE svg PUBLIC "-//W3C//DTD SVG 1.1//EN"
 "http://www.w3.org/Graphics/SVG/1.1/DTD/svg11.dtd">
<!-- Generated by graphviz version 9.0.0 (20230911.1827)
 -->
<!-- Title: IsLocalServerStarted Pages: 1 -->
<svg width="111pt" height="420pt"
 viewBox="0.00 0.00 111.00 420.00" xmlns="http://www.w3.org/2000/svg" xmlns:xlink="http://www.w3.org/1999/xlink">
<g id="graph0" class="graph" transform="scale(1 1) rotate(0) translate(4 416)">
<title>IsLocalServerStarted</title>
<!-- Node1 -->
<g id="Node000001" class="node">
<title>Node1</title>
<g id="a_Node000001"><a xlink:title=" ">
<polygon fill="#999999" stroke="none" points="101,-172 2,-172 2,-88 101,-88 101,-172"/>
<text text-anchor="start" x="6.88" y="-158.5" font-family="Helvetica,sans-Serif" font-size="10.00">IsLocalServerStarted</text>
<text text-anchor="start" x="50" y="-142.5" font-family="Helvetica,sans-Serif" font-size="10.00"> </text>
<text text-anchor="start" x="13.5" y="-126.5" font-family="Helvetica,sans-Serif" font-size="10.00">+</text>
<text text-anchor="start" x="31" y="-126.5" font-family="Helvetica,sans-Serif" font-size="10.00">IsSatisfied()</text>
<text text-anchor="start" x="13.5" y="-110.5" font-family="Helvetica,sans-Serif" font-size="10.00">+</text>
<text text-anchor="start" x="31" y="-110.5" font-family="Helvetica,sans-Serif" font-size="10.00">OnStart()</text>
<text text-anchor="start" x="13.5" y="-94.5" font-family="Helvetica,sans-Serif" font-size="10.00">+</text>
<text text-anchor="start" x="31" y="-94.5" font-family="Helvetica,sans-Serif" font-size="10.00">OnStop()</text>
<polygon fill="#666666" stroke="#666666" points="2,-154 2,-154 101,-154 101,-154 2,-154"/>
<polygon fill="#666666" stroke="#666666" points="2,-138 2,-138 101,-138 101,-138 2,-138"/>
<polygon fill="none" stroke="#666666" points="2,-88 2,-172 101,-172 101,-88 2,-88"/>
</a>
</g>
</g>
<!-- Node4 -->
<g id="Node000004" class="node">
<title>Node4</title>
<g id="a_Node000004"><a xlink:href="class_code_smile_1_1_statemachine_1_1_netcode_1_1_conditions_1_1_is_local_server_stopped.html" target="_top" xlink:title=" ">
<polygon fill="white" stroke="none" points="103,-52 0,-52 0,0 103,0 103,-52"/>
<text text-anchor="start" x="4.62" y="-38.5" font-family="Helvetica,sans-Serif" font-size="10.00">IsLocalServerStopped</text>
<text text-anchor="start" x="50" y="-22.5" font-family="Helvetica,sans-Serif" font-size="10.00"> </text>
<text text-anchor="start" x="12.5" y="-6.5" font-family="Helvetica,sans-Serif" font-size="10.00">+</text>
<text text-anchor="start" x="31" y="-6.5" font-family="Helvetica,sans-Serif" font-size="10.00">IsSatisfied()</text>
<polygon fill="#bfbfbf" stroke="#bfbfbf" points="0,-34 0,-34 103,-34 103,-34 0,-34"/>
<polygon fill="#bfbfbf" stroke="#bfbfbf" points="0,-18 0,-18 103,-18 103,-18 0,-18"/>
<polygon fill="none" stroke="#bfbfbf" points="0,0 0,-52 103,-52 103,0 0,0"/>
</a>
</g>
</g>
<!-- Node1&#45;&gt;Node4 -->
<g id="edge3_Node000001_Node000004" class="edge">
<title>Node1&#45;&gt;Node4</title>
<g id="a_edge3_Node000001_Node000004"><a xlink:title=" ">
<path fill="none" stroke="#63b8ff" d="M51.5,-76.71C51.5,-68.01 51.5,-59.35 51.5,-51.76"/>
<polygon fill="none" stroke="#63b8ff" points="48,-76.59 51.5,-86.59 55,-76.59 48,-76.59"/>
</a>
</g>
</g>
<!-- Node2 -->
<g id="Node000002" class="node">
<title>Node2</title>
<g id="a_Node000002"><a xlink:href="interface_code_smile_1_1_statemachine_1_1_i_condition.html" target="_top" xlink:title=" ">
<polygon fill="white" stroke="none" points="95,-276 8,-276 8,-208 95,-208 95,-276"/>
<text text-anchor="start" x="30.12" y="-262.5" font-family="Helvetica,sans-Serif" font-size="10.00">ICondition</text>
<text text-anchor="start" x="50" y="-246.5" font-family="Helvetica,sans-Serif" font-size="10.00"> </text>
<text text-anchor="start" x="12" y="-230.5" font-family="Helvetica,sans-Serif" font-size="10.00">+</text>
<text text-anchor="start" x="22" y="-230.5" font-family="Helvetica,sans-Serif" font-size="10.00">IsSatisfied()</text>
<text text-anchor="start" x="12" y="-214.5" font-family="Helvetica,sans-Serif" font-size="10.00">+</text>
<text text-anchor="start" x="22" y="-214.5" font-family="Helvetica,sans-Serif" font-size="10.00">ToDebugString()</text>
<polygon fill="#bfbfbf" stroke="#bfbfbf" points="8,-258 8,-258 95,-258 95,-258 8,-258"/>
<polygon fill="#bfbfbf" stroke="#bfbfbf" points="8,-242 8,-242 95,-242 95,-242 8,-242"/>
<polygon fill="none" stroke="#bfbfbf" points="8,-208 8,-276 95,-276 95,-208 8,-208"/>
</a>
</g>
</g>
<!-- Node2&#45;&gt;Node1 -->
<g id="edge1_Node000001_Node000002" class="edge">
<title>Node2&#45;&gt;Node1</title>
<g id="a_edge1_Node000001_Node000002"><a xlink:title=" ">
<path fill="none" stroke="#63b8ff" d="M51.5,-196.95C51.5,-188.7 51.5,-180.12 51.5,-171.97"/>
<polygon fill="none" stroke="#63b8ff" points="48,-196.78 51.5,-206.78 55,-196.78 48,-196.78"/>
</a>
</g>
</g>
<!-- Node3 -->
<g id="Node000003" class="node">
<title>Node3</title>
<g id="a_Node000003"><a xlink:href="interface_code_smile_1_1_statemachine_1_1_i_statemachine_events.html" target="_top" xlink:title="Event methods that the Statemachine calls at specific times.">
<polygon fill="white" stroke="none" points="102,-412 1,-412 1,-312 102,-312 102,-412"/>
<text text-anchor="start" x="5.75" y="-398.5" font-family="Helvetica,sans-Serif" font-size="10.00">IStatemachineEvents</text>
<text text-anchor="start" x="50" y="-382.5" font-family="Helvetica,sans-Serif" font-size="10.00"> </text>
<text text-anchor="start" x="9.5" y="-366.5" font-family="Helvetica,sans-Serif" font-size="10.00">+</text>
<text text-anchor="start" x="24" y="-366.5" font-family="Helvetica,sans-Serif" font-size="10.00">OnEnterState()</text>
<text text-anchor="start" x="9.5" y="-350.5" font-family="Helvetica,sans-Serif" font-size="10.00">+</text>
<text text-anchor="start" x="24" y="-350.5" font-family="Helvetica,sans-Serif" font-size="10.00">OnExitState()</text>
<text text-anchor="start" x="9.5" y="-334.5" font-family="Helvetica,sans-Serif" font-size="10.00">+</text>
<text text-anchor="start" x="24" y="-334.5" font-family="Helvetica,sans-Serif" font-size="10.00">OnStart()</text>
<text text-anchor="start" x="9.5" y="-318.5" font-family="Helvetica,sans-Serif" font-size="10.00">+</text>
<text text-anchor="start" x="24" y="-318.5" font-family="Helvetica,sans-Serif" font-size="10.00">OnStop()</text>
<polygon fill="#666666" stroke="#666666" points="1,-394 1,-394 102,-394 102,-394 1,-394"/>
<polygon fill="#666666" stroke="#666666" points="1,-378 1,-378 102,-378 102,-378 1,-378"/>
<polygon fill="none" stroke="#666666" points="1,-312 1,-412 102,-412 102,-312 1,-312"/>
</a>
</g>
</g>
<!-- Node3&#45;&gt;Node2 -->
<g id="edge2_Node000002_Node000003" class="edge">
<title>Node3&#45;&gt;Node2</title>
<g id="a_edge2_Node000002_Node000003"><a xlink:title=" ">
<path fill="none" stroke="#63b8ff" d="M51.5,-300.96C51.5,-292.28 51.5,-283.62 51.5,-275.75"/>
<polygon fill="none" stroke="#63b8ff" points="48,-300.81 51.5,-310.81 55,-300.81 48,-300.81"/>
</a>
</g>
</g>
</g>
</svg>
