<?xml version="1.0" encoding="UTF-8" standalone="no"?>
<!DOCTYPE svg PUBLIC "-//W3C//DTD SVG 1.1//EN"
 "http://www.w3.org/Graphics/SVG/1.1/DTD/svg11.dtd">
<!-- Generated by graphviz version 9.0.0 (20230911.1827)
 -->
<!-- Title: GeneratedInput.IPlayerInteractionActions Pages: 1 -->
<svg width="162pt" height="224pt"
 viewBox="0.00 0.00 162.00 224.00" xmlns="http://www.w3.org/2000/svg" xmlns:xlink="http://www.w3.org/1999/xlink">
<g id="graph0" class="graph" transform="scale(1 1) rotate(0) translate(4 220)">
<title>GeneratedInput.IPlayerInteractionActions</title>
<!-- Node1 -->
<g id="Node000001" class="node">
<title>Node1</title>
<g id="a_Node000001"><a xlink:title=" ">
<polygon fill="#999999" stroke="none" points="154,-216 0,-216 0,-136 154,-136 154,-216"/>
<text text-anchor="start" x="5" y="-202.5" font-family="Helvetica,sans-Serif" font-size="10.00">GeneratedInput.IPlayerInteraction</text>
<text text-anchor="start" x="60.5" y="-190.5" font-family="Helvetica,sans-Serif" font-size="10.00">Actions</text>
<text text-anchor="start" x="75.5" y="-174.5" font-family="Helvetica,sans-Serif" font-size="10.00"> </text>
<text text-anchor="start" x="25" y="-158.5" font-family="Helvetica,sans-Serif" font-size="10.00">+</text>
<text text-anchor="start" x="56" y="-158.5" font-family="Helvetica,sans-Serif" font-size="10.00">OnAttack()</text>
<text text-anchor="start" x="25" y="-142.5" font-family="Helvetica,sans-Serif" font-size="10.00">+</text>
<text text-anchor="start" x="56" y="-142.5" font-family="Helvetica,sans-Serif" font-size="10.00">OnInteract()</text>
<polygon fill="#666666" stroke="#666666" points="0,-186 0,-186 154,-186 154,-186 0,-186"/>
<polygon fill="#666666" stroke="#666666" points="0,-170 0,-170 154,-170 154,-170 0,-170"/>
<polygon fill="none" stroke="#666666" points="0,-136 0,-216 154,-216 154,-136 0,-136"/>
</a>
</g>
</g>
<!-- Node2 -->
<g id="Node000002" class="node">
<title>Node2</title>
<g id="a_Node000002"><a xlink:href="class_code_smile_1_1_multi_pal_1_1_players_1_1_player_interaction.html" target="_top" xlink:title=" ">
<polygon fill="white" stroke="none" points="129,-100 25,-100 25,0 129,0 129,-100"/>
<text text-anchor="start" x="40.62" y="-86.5" font-family="Helvetica,sans-Serif" font-size="10.00">PlayerInteraction</text>
<text text-anchor="start" x="75.5" y="-70.5" font-family="Helvetica,sans-Serif" font-size="10.00"> </text>
<text text-anchor="start" x="29" y="-54.5" font-family="Helvetica,sans-Serif" font-size="10.00">+</text>
<text text-anchor="start" x="39" y="-54.5" font-family="Helvetica,sans-Serif" font-size="10.00">OnAttack()</text>
<text text-anchor="start" x="29" y="-38.5" font-family="Helvetica,sans-Serif" font-size="10.00">+</text>
<text text-anchor="start" x="39" y="-38.5" font-family="Helvetica,sans-Serif" font-size="10.00">OnInteract()</text>
<text text-anchor="start" x="29" y="-22.5" font-family="Helvetica,sans-Serif" font-size="10.00">+</text>
<text text-anchor="start" x="39" y="-22.5" font-family="Helvetica,sans-Serif" font-size="10.00">OnPlayerDespawn()</text>
<text text-anchor="start" x="29" y="-6.5" font-family="Helvetica,sans-Serif" font-size="10.00">+</text>
<text text-anchor="start" x="39" y="-6.5" font-family="Helvetica,sans-Serif" font-size="10.00">OnPlayerSpawn()</text>
<polygon fill="#bfbfbf" stroke="#bfbfbf" points="25,-82 25,-82 129,-82 129,-82 25,-82"/>
<polygon fill="#bfbfbf" stroke="#bfbfbf" points="25,-66 25,-66 129,-66 129,-66 25,-66"/>
<polygon fill="none" stroke="#bfbfbf" points="25,0 25,-100 129,-100 129,0 25,0"/>
</a>
</g>
</g>
<!-- Node1&#45;&gt;Node2 -->
<g id="edge1_Node000001_Node000002" class="edge">
<title>Node1&#45;&gt;Node2</title>
<g id="a_edge1_Node000001_Node000002"><a xlink:title=" ">
<path fill="none" stroke="#63b8ff" d="M77,-124.73C77,-116.51 77,-108 77,-99.81"/>
<polygon fill="none" stroke="#63b8ff" points="73.5,-124.59 77,-134.59 80.5,-124.59 73.5,-124.59"/>
</a>
</g>
</g>
</g>
</svg>
