<?xml version="1.0" encoding="UTF-8" standalone="no"?>
<!DOCTYPE svg PUBLIC "-//W3C//DTD SVG 1.1//EN"
 "http://www.w3.org/Graphics/SVG/1.1/DTD/svg11.dtd">
<!-- Generated by graphviz version 9.0.0 (20230911.1827)
 -->
<!-- Title: IAction Pages: 1 -->
<svg width="1469pt" height="340pt"
 viewBox="0.00 0.00 1469.00 340.00" xmlns="http://www.w3.org/2000/svg" xmlns:xlink="http://www.w3.org/1999/xlink">
<g id="graph0" class="graph" transform="scale(1 1) rotate(0) translate(4 336)">
<title>IAction</title>
<!-- Node1 -->
<g id="Node000001" class="node">
<title>Node1</title>
<g id="a_Node000001"><a xlink:title="Marks a class as a FSM Action.">
<polygon fill="#999999" stroke="none" points="920,-244 880,-244 880,-192 920,-192 920,-244"/>
<text text-anchor="start" x="885" y="-230.5" font-family="Helvetica,sans-Serif" font-size="10.00">IAction</text>
<text text-anchor="start" x="898.5" y="-214.5" font-family="Helvetica,sans-Serif" font-size="10.00"> </text>
<text text-anchor="start" x="898.5" y="-198.5" font-family="Helvetica,sans-Serif" font-size="10.00"> </text>
<polygon fill="#666666" stroke="#666666" points="880,-226 880,-226 920,-226 920,-226 880,-226"/>
<polygon fill="#666666" stroke="#666666" points="880,-210 880,-210 920,-210 920,-210 880,-210"/>
<polygon fill="none" stroke="#666666" points="880,-192 880,-244 920,-244 920,-192 880,-192"/>
</a>
</g>
</g>
<!-- Node3 -->
<g id="Node000003" class="node">
<title>Node3</title>
<g id="a_Node000003"><a xlink:href="class_code_smile_1_1_statemachine_1_1_actions_1_1_compound_action.html" target="_top" xlink:title="Used to combine multiple FSM actions into a single, named action.">
<polygon fill="white" stroke="none" points="98,-156 0,-156 0,-88 98,-88 98,-156"/>
<text text-anchor="start" x="11.88" y="-142.5" font-family="Helvetica,sans-Serif" font-size="10.00">CompoundAction</text>
<text text-anchor="start" x="47.5" y="-126.5" font-family="Helvetica,sans-Serif" font-size="10.00"> </text>
<text text-anchor="start" x="4" y="-110.5" font-family="Helvetica,sans-Serif" font-size="10.00">+</text>
<text text-anchor="start" x="14" y="-110.5" font-family="Helvetica,sans-Serif" font-size="10.00">CompoundAction()</text>
<text text-anchor="start" x="4" y="-94.5" font-family="Helvetica,sans-Serif" font-size="10.00">+</text>
<text text-anchor="start" x="14" y="-94.5" font-family="Helvetica,sans-Serif" font-size="10.00">CompoundAction()</text>
<polygon fill="#666666" stroke="#666666" points="0,-138 0,-138 98,-138 98,-138 0,-138"/>
<polygon fill="#666666" stroke="#666666" points="0,-122 0,-122 98,-122 98,-122 0,-122"/>
<polygon fill="none" stroke="#666666" points="0,-88 0,-156 98,-156 98,-88 0,-88"/>
</a>
</g>
</g>
<!-- Node1&#45;&gt;Node3 -->
<g id="edge2_Node000001_Node000003" class="edge">
<title>Node1&#45;&gt;Node3</title>
<g id="a_edge2_Node000001_Node000003"><a xlink:title=" ">
<path fill="none" stroke="#63b8ff" d="M868.82,-216.42C740.52,-213.74 253.29,-200.78 107,-156 103.9,-155.05 100.78,-153.91 97.69,-152.64"/>
<polygon fill="none" stroke="#63b8ff" points="868.51,-219.91 878.58,-216.61 868.65,-212.91 868.51,-219.91"/>
</a>
</g>
</g>
<!-- Node4 -->
<g id="Node000004" class="node">
<title>Node4</title>
<g id="a_Node000004"><a xlink:href="class_code_smile_1_1_statemachine_1_1_actions_1_1_lambda_action.html" target="_top" xlink:title="Generic Action that executes a lambda (System.Action).">
<polygon fill="white" stroke="none" points="202,-156 116,-156 116,-88 202,-88 202,-156"/>
<text text-anchor="start" x="127.88" y="-142.5" font-family="Helvetica,sans-Serif" font-size="10.00">LambdaAction</text>
<text text-anchor="start" x="157.5" y="-126.5" font-family="Helvetica,sans-Serif" font-size="10.00"> </text>
<text text-anchor="start" x="120" y="-110.5" font-family="Helvetica,sans-Serif" font-size="10.00">+</text>
<text text-anchor="start" x="130" y="-110.5" font-family="Helvetica,sans-Serif" font-size="10.00">LambdaAction()</text>
<text text-anchor="start" x="120" y="-94.5" font-family="Helvetica,sans-Serif" font-size="10.00">+</text>
<text text-anchor="start" x="130" y="-94.5" font-family="Helvetica,sans-Serif" font-size="10.00">LambdaAction()</text>
<polygon fill="#666666" stroke="#666666" points="116,-138 116,-138 202,-138 202,-138 116,-138"/>
<polygon fill="#666666" stroke="#666666" points="116,-122 116,-122 202,-122 202,-122 116,-122"/>
<polygon fill="none" stroke="#666666" points="116,-88 116,-156 202,-156 202,-88 116,-88"/>
</a>
</g>
</g>
<!-- Node1&#45;&gt;Node4 -->
<g id="edge3_Node000001_Node000004" class="edge">
<title>Node1&#45;&gt;Node4</title>
<g id="a_edge3_Node000001_Node000004"><a xlink:title=" ">
<path fill="none" stroke="#63b8ff" d="M868.79,-216.19C751.22,-212.85 335.53,-198.22 211,-156 207.96,-154.97 204.92,-153.73 201.92,-152.34"/>
<polygon fill="none" stroke="#63b8ff" points="868.51,-219.69 878.61,-216.46 868.71,-212.69 868.51,-219.69"/>
</a>
</g>
</g>
<!-- Node5 -->
<g id="Node000005" class="node">
<title>Node5</title>
<g id="a_Node000005"><a xlink:href="interface_code_smile_1_1_statemachine_1_1_i_async_action.html" target="_top" xlink:title="Marks a class as an asynchronous (awaitable) FSM Action.">
<polygon fill="white" stroke="none" points="287.5,-148 220.5,-148 220.5,-96 287.5,-96 287.5,-148"/>
<text text-anchor="start" x="225.12" y="-134.5" font-family="Helvetica,sans-Serif" font-size="10.00">IAsyncAction</text>
<text text-anchor="start" x="252.5" y="-118.5" font-family="Helvetica,sans-Serif" font-size="10.00"> </text>
<text text-anchor="start" x="252.5" y="-102.5" font-family="Helvetica,sans-Serif" font-size="10.00"> </text>
<polygon fill="#666666" stroke="#666666" points="220.5,-130 220.5,-130 287.5,-130 287.5,-130 220.5,-130"/>
<polygon fill="#666666" stroke="#666666" points="220.5,-114 220.5,-114 287.5,-114 287.5,-114 220.5,-114"/>
<polygon fill="none" stroke="#666666" points="220.5,-96 220.5,-148 287.5,-148 287.5,-96 220.5,-96"/>
</a>
</g>
</g>
<!-- Node1&#45;&gt;Node5 -->
<g id="edge4_Node000001_Node000005" class="edge">
<title>Node1&#45;&gt;Node5</title>
<g id="a_edge4_Node000001_Node000005"><a xlink:title=" ">
<path fill="none" stroke="#63b8ff" d="M868.79,-216.09C760.65,-212.58 402.83,-197.99 297,-156 291.75,-153.92 286.6,-151 281.79,-147.75"/>
<polygon fill="none" stroke="#63b8ff" points="868.53,-219.58 878.64,-216.4 868.75,-212.58 868.53,-219.58"/>
</a>
</g>
</g>
<!-- Node9 -->
<g id="Node000009" class="node">
<title>Node9</title>
<g id="a_Node000009"><a xlink:href="class_code_smile_1_1_statemachine_1_1_netcode_1_1_actions_1_1_network_start.html" target="_top" xlink:title="Calls NetworkManager StartClient/StartHost/StartServer based on the provided config variable.">
<polygon fill="white" stroke="none" points="386,-148 306,-148 306,-96 386,-96 386,-148"/>
<text text-anchor="start" x="317.88" y="-134.5" font-family="Helvetica,sans-Serif" font-size="10.00">NetworkStart</text>
<text text-anchor="start" x="344.5" y="-118.5" font-family="Helvetica,sans-Serif" font-size="10.00"> </text>
<text text-anchor="start" x="310" y="-102.5" font-family="Helvetica,sans-Serif" font-size="10.00">+</text>
<text text-anchor="start" x="320" y="-102.5" font-family="Helvetica,sans-Serif" font-size="10.00">NetworkStart()</text>
<polygon fill="#666666" stroke="#666666" points="306,-130 306,-130 386,-130 386,-130 306,-130"/>
<polygon fill="#666666" stroke="#666666" points="306,-114 306,-114 386,-114 386,-114 306,-114"/>
<polygon fill="none" stroke="#666666" points="306,-96 306,-148 386,-148 386,-96 306,-96"/>
</a>
</g>
</g>
<!-- Node1&#45;&gt;Node9 -->
<g id="edge8_Node000001_Node000009" class="edge">
<title>Node1&#45;&gt;Node9</title>
<g id="a_edge8_Node000001_Node000009"><a xlink:title=" ">
<path fill="none" stroke="#63b8ff" d="M868.74,-215.15C772.67,-209.15 482.91,-188.73 395,-156 389.43,-153.92 383.86,-151.1 378.59,-147.96"/>
<polygon fill="none" stroke="#63b8ff" points="868.52,-218.64 878.72,-215.76 868.95,-211.65 868.52,-218.64"/>
</a>
</g>
</g>
<!-- Node10 -->
<g id="Node000010" class="node">
<title>Node10</title>
<g id="a_Node000010"><a xlink:href="class_code_smile_1_1_statemachine_1_1_netcode_1_1_actions_1_1_network_stop.html" target="_top" xlink:title="Stops networking, ie calls NetworkManager Shutdown().">
<polygon fill="white" stroke="none" points="483.5,-148 404.5,-148 404.5,-96 483.5,-96 483.5,-148"/>
<text text-anchor="start" x="416.25" y="-134.5" font-family="Helvetica,sans-Serif" font-size="10.00">NetworkStop</text>
<text text-anchor="start" x="442.5" y="-118.5" font-family="Helvetica,sans-Serif" font-size="10.00"> </text>
<text text-anchor="start" x="408.5" y="-102.5" font-family="Helvetica,sans-Serif" font-size="10.00">+</text>
<text text-anchor="start" x="418.5" y="-102.5" font-family="Helvetica,sans-Serif" font-size="10.00">NetworkStop()</text>
<polygon fill="#666666" stroke="#666666" points="404.5,-130 404.5,-130 483.5,-130 483.5,-130 404.5,-130"/>
<polygon fill="#666666" stroke="#666666" points="404.5,-114 404.5,-114 483.5,-114 483.5,-114 404.5,-114"/>
<polygon fill="none" stroke="#666666" points="404.5,-96 404.5,-148 483.5,-148 483.5,-96 404.5,-96"/>
</a>
</g>
</g>
<!-- Node1&#45;&gt;Node10 -->
<g id="edge9_Node000001_Node000010" class="edge">
<title>Node1&#45;&gt;Node10</title>
<g id="a_edge9_Node000001_Node000010"><a xlink:title=" ">
<path fill="none" stroke="#63b8ff" d="M868.71,-216.94C798.85,-215.84 625.87,-207.65 493,-156 487.55,-153.88 482.1,-151.07 476.92,-147.98"/>
<polygon fill="none" stroke="#63b8ff" points="868.6,-220.44 878.64,-217.06 868.68,-213.44 868.6,-220.44"/>
</a>
</g>
</g>
<!-- Node11 -->
<g id="Node000011" class="node">
<title>Node11</title>
<g id="a_Node000011"><a xlink:href="class_code_smile_1_1_statemachine_1_1_netcode_1_1_actions_1_1_set_netcode_role.html" target="_top" xlink:title="Sets the role in the NetcodeConfig var to the given value (Server, Host, Client or None).">
<polygon fill="white" stroke="none" points="596,-148 502,-148 502,-96 596,-96 596,-148"/>
<text text-anchor="start" x="513.75" y="-134.5" font-family="Helvetica,sans-Serif" font-size="10.00">SetNetcodeRole</text>
<text text-anchor="start" x="547.5" y="-118.5" font-family="Helvetica,sans-Serif" font-size="10.00"> </text>
<text text-anchor="start" x="506" y="-102.5" font-family="Helvetica,sans-Serif" font-size="10.00">+</text>
<text text-anchor="start" x="516" y="-102.5" font-family="Helvetica,sans-Serif" font-size="10.00">SetNetcodeRole()</text>
<polygon fill="#666666" stroke="#666666" points="502,-130 502,-130 596,-130 596,-130 502,-130"/>
<polygon fill="#666666" stroke="#666666" points="502,-114 502,-114 596,-114 596,-114 502,-114"/>
<polygon fill="none" stroke="#666666" points="502,-96 502,-148 596,-148 596,-96 502,-96"/>
</a>
</g>
</g>
<!-- Node1&#45;&gt;Node11 -->
<g id="edge10_Node000001_Node000011" class="edge">
<title>Node1&#45;&gt;Node11</title>
<g id="a_edge10_Node000001_Node000011"><a xlink:title=" ">
<path fill="none" stroke="#63b8ff" d="M868.67,-213.94C813.73,-207.82 697.09,-191.53 605,-156 599.21,-153.77 593.32,-150.97 587.65,-147.95"/>
<polygon fill="none" stroke="#63b8ff" points="868.22,-217.41 878.53,-214.99 868.96,-210.45 868.22,-217.41"/>
</a>
</g>
</g>
<!-- Node12 -->
<g id="Node000012" class="node">
<title>Node12</title>
<g id="a_Node000012"><a xlink:href="class_code_smile_1_1_statemachine_1_1_netcode_1_1_actions_1_1_transport_setup.html" target="_top" xlink:title="Configures NetworkManager&#39;s Transport from config variables.">
<polygon fill="white" stroke="none" points="704,-148 614,-148 614,-96 704,-96 704,-148"/>
<text text-anchor="start" x="626" y="-134.5" font-family="Helvetica,sans-Serif" font-size="10.00">TransportSetup</text>
<text text-anchor="start" x="657.5" y="-118.5" font-family="Helvetica,sans-Serif" font-size="10.00"> </text>
<text text-anchor="start" x="618" y="-102.5" font-family="Helvetica,sans-Serif" font-size="10.00">+</text>
<text text-anchor="start" x="628" y="-102.5" font-family="Helvetica,sans-Serif" font-size="10.00">TransportSetup()</text>
<polygon fill="#666666" stroke="#666666" points="614,-130 614,-130 704,-130 704,-130 614,-130"/>
<polygon fill="#666666" stroke="#666666" points="614,-114 614,-114 704,-114 704,-114 614,-114"/>
<polygon fill="none" stroke="#666666" points="614,-96 614,-148 704,-148 704,-96 614,-96"/>
</a>
</g>
</g>
<!-- Node1&#45;&gt;Node12 -->
<g id="edge11_Node000001_Node000012" class="edge">
<title>Node1&#45;&gt;Node12</title>
<g id="a_edge11_Node000001_Node000012"><a xlink:title=" ">
<path fill="none" stroke="#63b8ff" d="M869.27,-209.35C831.52,-199.41 765.98,-180.42 713,-156 707.81,-153.61 702.5,-150.83 697.34,-147.91"/>
<polygon fill="none" stroke="#63b8ff" points="868.02,-212.64 878.58,-211.76 869.78,-205.86 868.02,-212.64"/>
</a>
</g>
</g>
<!-- Node13 -->
<g id="Node000013" class="node">
<title>Node13</title>
<g id="a_Node000013"><a xlink:href="class_code_smile_1_1_statemachine_1_1_services_1_1_relay_1_1_actions_1_1_relay_clear_allocation_data.html" target="_top" xlink:title="Clears the allocations from the RelayConfig variable.">
<polygon fill="white" stroke="none" points="856,-148 722,-148 722,-96 856,-96 856,-148"/>
<text text-anchor="start" x="733.88" y="-134.5" font-family="Helvetica,sans-Serif" font-size="10.00">RelayClearAllocationData</text>
<text text-anchor="start" x="787.5" y="-118.5" font-family="Helvetica,sans-Serif" font-size="10.00"> </text>
<text text-anchor="start" x="726" y="-102.5" font-family="Helvetica,sans-Serif" font-size="10.00">+</text>
<text text-anchor="start" x="736" y="-102.5" font-family="Helvetica,sans-Serif" font-size="10.00">RelayClearAllocationData()</text>
<polygon fill="#666666" stroke="#666666" points="722,-130 722,-130 856,-130 856,-130 722,-130"/>
<polygon fill="#666666" stroke="#666666" points="722,-114 722,-114 856,-114 856,-114 722,-114"/>
<polygon fill="none" stroke="#666666" points="722,-96 722,-148 856,-148 856,-96 722,-96"/>
</a>
</g>
</g>
<!-- Node1&#45;&gt;Node13 -->
<g id="edge12_Node000001_Node000013" class="edge">
<title>Node1&#45;&gt;Node13</title>
<g id="a_edge12_Node000001_Node000013"><a xlink:title=" ">
<path fill="none" stroke="#63b8ff" d="M871.56,-192.91C855.22,-179.08 834.75,-161.74 818.28,-147.79"/>
<polygon fill="none" stroke="#63b8ff" points="869.11,-195.42 879,-199.22 873.63,-190.08 869.11,-195.42"/>
</a>
</g>
</g>
<!-- Node14 -->
<g id="Node000014" class="node">
<title>Node14</title>
<g id="a_Node000014"><a xlink:title=" ">
<polygon fill="white" stroke="none" points="926,-148 874,-148 874,-96 926,-96 926,-148"/>
<text text-anchor="start" x="879" y="-134.5" font-family="Helvetica,sans-Serif" font-size="10.00">AddValue</text>
<text text-anchor="start" x="898.5" y="-118.5" font-family="Helvetica,sans-Serif" font-size="10.00"> </text>
<text text-anchor="start" x="898.5" y="-102.5" font-family="Helvetica,sans-Serif" font-size="10.00"> </text>
<polygon fill="#666666" stroke="#666666" points="874,-130 874,-130 926,-130 926,-130 874,-130"/>
<polygon fill="#666666" stroke="#666666" points="874,-114 874,-114 926,-114 926,-114 874,-114"/>
<polygon fill="none" stroke="#666666" points="874,-96 874,-148 926,-148 926,-96 874,-96"/>
</a>
</g>
</g>
<!-- Node1&#45;&gt;Node14 -->
<g id="edge13_Node000001_Node000014" class="edge">
<title>Node1&#45;&gt;Node14</title>
<g id="a_edge13_Node000001_Node000014"><a xlink:title=" ">
<path fill="none" stroke="#63b8ff" d="M900,-180.8C900,-169.79 900,-157.94 900,-147.86"/>
<polygon fill="none" stroke="#63b8ff" points="896.5,-180.79 900,-190.79 903.5,-180.79 896.5,-180.79"/>
</a>
</g>
</g>
<!-- Node15 -->
<g id="Node000015" class="node">
<title>Node15</title>
<g id="a_Node000015"><a xlink:href="class_code_smile_1_1_statemachine_1_1_variable_1_1_actions_1_1_dec_value.html" target="_top" xlink:title="Decrements an integer variable by 1.">
<polygon fill="white" stroke="none" points="996,-148 944,-148 944,-96 996,-96 996,-148"/>
<text text-anchor="start" x="949" y="-134.5" font-family="Helvetica,sans-Serif" font-size="10.00">DecValue</text>
<text text-anchor="start" x="968.5" y="-118.5" font-family="Helvetica,sans-Serif" font-size="10.00"> </text>
<text text-anchor="start" x="968.5" y="-102.5" font-family="Helvetica,sans-Serif" font-size="10.00"> </text>
<polygon fill="#666666" stroke="#666666" points="944,-130 944,-130 996,-130 996,-130 944,-130"/>
<polygon fill="#666666" stroke="#666666" points="944,-114 944,-114 996,-114 996,-114 944,-114"/>
<polygon fill="none" stroke="#666666" points="944,-96 944,-148 996,-148 996,-96 944,-96"/>
</a>
</g>
</g>
<!-- Node1&#45;&gt;Node15 -->
<g id="edge14_Node000001_Node000015" class="edge">
<title>Node1&#45;&gt;Node15</title>
<g id="a_edge14_Node000001_Node000015"><a xlink:title=" ">
<path fill="none" stroke="#63b8ff" d="M925.13,-183.25C933.83,-171.57 943.42,-158.7 951.49,-147.86"/>
<polygon fill="none" stroke="#63b8ff" points="922.46,-180.98 919.3,-191.09 928.08,-185.16 922.46,-180.98"/>
</a>
</g>
</g>
<!-- Node16 -->
<g id="Node000016" class="node">
<title>Node16</title>
<g id="a_Node000016"><a xlink:title=" ">
<polygon fill="white" stroke="none" points="1061.5,-148 1014.5,-148 1014.5,-96 1061.5,-96 1061.5,-148"/>
<text text-anchor="start" x="1019.25" y="-134.5" font-family="Helvetica,sans-Serif" font-size="10.00">DivValue</text>
<text text-anchor="start" x="1036.5" y="-118.5" font-family="Helvetica,sans-Serif" font-size="10.00"> </text>
<text text-anchor="start" x="1036.5" y="-102.5" font-family="Helvetica,sans-Serif" font-size="10.00"> </text>
<polygon fill="#666666" stroke="#666666" points="1014.5,-130 1014.5,-130 1061.5,-130 1061.5,-130 1014.5,-130"/>
<polygon fill="#666666" stroke="#666666" points="1014.5,-114 1014.5,-114 1061.5,-114 1061.5,-114 1014.5,-114"/>
<polygon fill="none" stroke="#666666" points="1014.5,-96 1014.5,-148 1061.5,-148 1061.5,-96 1014.5,-96"/>
</a>
</g>
</g>
<!-- Node1&#45;&gt;Node16 -->
<g id="edge15_Node000001_Node000016" class="edge">
<title>Node1&#45;&gt;Node16</title>
<g id="a_edge15_Node000001_Node000016"><a xlink:title=" ">
<path fill="none" stroke="#63b8ff" d="M929.9,-202.3C951.65,-190.98 981.31,-174.23 1005,-156 1008.21,-153.53 1011.43,-150.77 1014.52,-147.92"/>
<polygon fill="none" stroke="#63b8ff" points="928.58,-199.04 921.27,-206.71 931.76,-205.27 928.58,-199.04"/>
</a>
</g>
</g>
<!-- Node17 -->
<g id="Node000017" class="node">
<title>Node17</title>
<g id="a_Node000017"><a xlink:href="class_code_smile_1_1_statemachine_1_1_variable_1_1_actions_1_1_inc_value.html" target="_top" xlink:title="Increments an integer value by 1.">
<polygon fill="white" stroke="none" points="1126.5,-148 1079.5,-148 1079.5,-96 1126.5,-96 1126.5,-148"/>
<text text-anchor="start" x="1084.25" y="-134.5" font-family="Helvetica,sans-Serif" font-size="10.00">IncValue</text>
<text text-anchor="start" x="1101.5" y="-118.5" font-family="Helvetica,sans-Serif" font-size="10.00"> </text>
<text text-anchor="start" x="1101.5" y="-102.5" font-family="Helvetica,sans-Serif" font-size="10.00"> </text>
<polygon fill="#666666" stroke="#666666" points="1079.5,-130 1079.5,-130 1126.5,-130 1126.5,-130 1079.5,-130"/>
<polygon fill="#666666" stroke="#666666" points="1079.5,-114 1079.5,-114 1126.5,-114 1126.5,-114 1079.5,-114"/>
<polygon fill="none" stroke="#666666" points="1079.5,-96 1079.5,-148 1126.5,-148 1126.5,-96 1079.5,-96"/>
</a>
</g>
</g>
<!-- Node1&#45;&gt;Node17 -->
<g id="edge16_Node000001_Node000017" class="edge">
<title>Node1&#45;&gt;Node17</title>
<g id="a_edge16_Node000001_Node000017"><a xlink:title=" ">
<path fill="none" stroke="#63b8ff" d="M930.96,-210.26C966.51,-201.57 1025.62,-184.13 1070,-156 1073.7,-153.66 1077.3,-150.84 1080.69,-147.84"/>
<polygon fill="none" stroke="#63b8ff" points="930.27,-206.83 921.34,-212.53 931.87,-213.64 930.27,-206.83"/>
</a>
</g>
</g>
<!-- Node18 -->
<g id="Node000018" class="node">
<title>Node18</title>
<g id="a_Node000018"><a xlink:title=" ">
<polygon fill="white" stroke="none" points="1195,-148 1145,-148 1145,-96 1195,-96 1195,-148"/>
<text text-anchor="start" x="1149.75" y="-134.5" font-family="Helvetica,sans-Serif" font-size="10.00">MulValue</text>
<text text-anchor="start" x="1168.5" y="-118.5" font-family="Helvetica,sans-Serif" font-size="10.00"> </text>
<text text-anchor="start" x="1168.5" y="-102.5" font-family="Helvetica,sans-Serif" font-size="10.00"> </text>
<polygon fill="#666666" stroke="#666666" points="1145,-130 1145,-130 1195,-130 1195,-130 1145,-130"/>
<polygon fill="#666666" stroke="#666666" points="1145,-114 1145,-114 1195,-114 1195,-114 1145,-114"/>
<polygon fill="none" stroke="#666666" points="1145,-96 1145,-148 1195,-148 1195,-96 1145,-96"/>
</a>
</g>
</g>
<!-- Node1&#45;&gt;Node18 -->
<g id="edge17_Node000001_Node000018" class="edge">
<title>Node1&#45;&gt;Node18</title>
<g id="a_edge17_Node000001_Node000018"><a xlink:title=" ">
<path fill="none" stroke="#63b8ff" d="M931.17,-214.08C978.21,-208.58 1068.96,-193.65 1136,-156 1140.02,-153.74 1143.9,-150.9 1147.52,-147.82"/>
<polygon fill="none" stroke="#63b8ff" points="930.99,-210.58 921.43,-215.15 931.75,-217.54 930.99,-210.58"/>
</a>
</g>
</g>
<!-- Node19 -->
<g id="Node000019" class="node">
<title>Node19</title>
<g id="a_Node000019"><a xlink:title=" ">
<polygon fill="white" stroke="none" points="1262.5,-148 1213.5,-148 1213.5,-96 1262.5,-96 1262.5,-148"/>
<text text-anchor="start" x="1218.5" y="-134.5" font-family="Helvetica,sans-Serif" font-size="10.00">SetFalse</text>
<text text-anchor="start" x="1236.5" y="-118.5" font-family="Helvetica,sans-Serif" font-size="10.00"> </text>
<text text-anchor="start" x="1236.5" y="-102.5" font-family="Helvetica,sans-Serif" font-size="10.00"> </text>
<polygon fill="#666666" stroke="#666666" points="1213.5,-130 1213.5,-130 1262.5,-130 1262.5,-130 1213.5,-130"/>
<polygon fill="#666666" stroke="#666666" points="1213.5,-114 1213.5,-114 1262.5,-114 1262.5,-114 1213.5,-114"/>
<polygon fill="none" stroke="#666666" points="1213.5,-96 1213.5,-148 1262.5,-148 1262.5,-96 1213.5,-96"/>
</a>
</g>
</g>
<!-- Node1&#45;&gt;Node19 -->
<g id="edge18_Node000001_Node000019" class="edge">
<title>Node1&#45;&gt;Node19</title>
<g id="a_edge18_Node000001_Node000019"><a xlink:title=" ">
<path fill="none" stroke="#63b8ff" d="M931.26,-216.46C988.59,-214.26 1113.01,-203.86 1204,-156 1208.22,-153.78 1212.28,-150.87 1216.02,-147.7"/>
<polygon fill="none" stroke="#63b8ff" points="931.16,-212.96 921.27,-216.77 931.38,-219.95 931.16,-212.96"/>
</a>
</g>
</g>
<!-- Node20 -->
<g id="Node000020" class="node">
<title>Node20</title>
<g id="a_Node000020"><a xlink:title=" ">
<polygon fill="white" stroke="none" points="1323.5,-148 1280.5,-148 1280.5,-96 1323.5,-96 1323.5,-148"/>
<text text-anchor="start" x="1285.12" y="-134.5" font-family="Helvetica,sans-Serif" font-size="10.00">SetTrue</text>
<text text-anchor="start" x="1300.5" y="-118.5" font-family="Helvetica,sans-Serif" font-size="10.00"> </text>
<text text-anchor="start" x="1300.5" y="-102.5" font-family="Helvetica,sans-Serif" font-size="10.00"> </text>
<polygon fill="#666666" stroke="#666666" points="1280.5,-130 1280.5,-130 1323.5,-130 1323.5,-130 1280.5,-130"/>
<polygon fill="#666666" stroke="#666666" points="1280.5,-114 1280.5,-114 1323.5,-114 1323.5,-114 1280.5,-114"/>
<polygon fill="none" stroke="#666666" points="1280.5,-96 1280.5,-148 1323.5,-148 1323.5,-96 1280.5,-96"/>
</a>
</g>
</g>
<!-- Node1&#45;&gt;Node20 -->
<g id="edge19_Node000001_Node000020" class="edge">
<title>Node1&#45;&gt;Node20</title>
<g id="a_edge19_Node000001_Node000020"><a xlink:title=" ">
<path fill="none" stroke="#63b8ff" d="M930.87,-214.56C1009.07,-207.97 1212.93,-188.1 1272,-156 1275.95,-153.86 1279.64,-150.99 1283,-147.84"/>
<polygon fill="none" stroke="#63b8ff" points="931.05,-211.03 921.37,-215.34 931.62,-218.01 931.05,-211.03"/>
</a>
</g>
</g>
<!-- Node21 -->
<g id="Node000021" class="node">
<title>Node21</title>
<g id="a_Node000021"><a xlink:title=" ">
<polygon fill="white" stroke="none" points="1390.5,-148 1341.5,-148 1341.5,-96 1390.5,-96 1390.5,-148"/>
<text text-anchor="start" x="1346.12" y="-134.5" font-family="Helvetica,sans-Serif" font-size="10.00">SetValue</text>
<text text-anchor="start" x="1364.5" y="-118.5" font-family="Helvetica,sans-Serif" font-size="10.00"> </text>
<text text-anchor="start" x="1364.5" y="-102.5" font-family="Helvetica,sans-Serif" font-size="10.00"> </text>
<polygon fill="#666666" stroke="#666666" points="1341.5,-130 1341.5,-130 1390.5,-130 1390.5,-130 1341.5,-130"/>
<polygon fill="#666666" stroke="#666666" points="1341.5,-114 1341.5,-114 1390.5,-114 1390.5,-114 1341.5,-114"/>
<polygon fill="none" stroke="#666666" points="1341.5,-96 1341.5,-148 1390.5,-148 1390.5,-96 1341.5,-96"/>
</a>
</g>
</g>
<!-- Node1&#45;&gt;Node21 -->
<g id="edge20_Node000001_Node000021" class="edge">
<title>Node1&#45;&gt;Node21</title>
<g id="a_edge20_Node000001_Node000021"><a xlink:title=" ">
<path fill="none" stroke="#63b8ff" d="M931.31,-215.16C1018.45,-209.65 1262.03,-191.4 1333,-156 1337.21,-153.9 1341.2,-151.06 1344.86,-147.92"/>
<polygon fill="none" stroke="#63b8ff" points="931.13,-211.67 921.37,-215.78 931.57,-218.65 931.13,-211.67"/>
</a>
</g>
</g>
<!-- Node22 -->
<g id="Node000022" class="node">
<title>Node22</title>
<g id="a_Node000022"><a xlink:title=" ">
<polygon fill="white" stroke="none" points="1461,-148 1409,-148 1409,-96 1461,-96 1461,-148"/>
<text text-anchor="start" x="1414" y="-134.5" font-family="Helvetica,sans-Serif" font-size="10.00">SubValue</text>
<text text-anchor="start" x="1433.5" y="-118.5" font-family="Helvetica,sans-Serif" font-size="10.00"> </text>
<text text-anchor="start" x="1433.5" y="-102.5" font-family="Helvetica,sans-Serif" font-size="10.00"> </text>
<polygon fill="#666666" stroke="#666666" points="1409,-130 1409,-130 1461,-130 1461,-130 1409,-130"/>
<polygon fill="#666666" stroke="#666666" points="1409,-114 1409,-114 1461,-114 1461,-114 1409,-114"/>
<polygon fill="none" stroke="#666666" points="1409,-96 1409,-148 1461,-148 1461,-96 1409,-96"/>
</a>
</g>
</g>
<!-- Node1&#45;&gt;Node22 -->
<g id="edge21_Node000001_Node000022" class="edge">
<title>Node1&#45;&gt;Node22</title>
<g id="a_edge21_Node000001_Node000022"><a xlink:title=" ">
<path fill="none" stroke="#63b8ff" d="M931.2,-215.73C1027.07,-211.43 1315.91,-195.46 1400,-156 1404.39,-153.94 1408.58,-151.12 1412.45,-147.99"/>
<polygon fill="none" stroke="#63b8ff" points="931.09,-212.23 921.25,-216.16 931.4,-219.22 931.09,-212.23"/>
</a>
</g>
</g>
<!-- Node2 -->
<g id="Node000002" class="node">
<title>Node2</title>
<g id="a_Node000002"><a xlink:href="interface_code_smile_1_1_statemachine_1_1_i_statemachine_events.html" target="_top" xlink:title="Event methods that the Statemachine calls at specific times.">
<polygon fill="white" stroke="none" points="950.5,-332 849.5,-332 849.5,-280 950.5,-280 950.5,-332"/>
<text text-anchor="start" x="854.25" y="-318.5" font-family="Helvetica,sans-Serif" font-size="10.00">IStatemachineEvents</text>
<text text-anchor="start" x="898.5" y="-302.5" font-family="Helvetica,sans-Serif" font-size="10.00"> </text>
<text text-anchor="start" x="898.5" y="-286.5" font-family="Helvetica,sans-Serif" font-size="10.00"> </text>
<polygon fill="#666666" stroke="#666666" points="849.5,-314 849.5,-314 950.5,-314 950.5,-314 849.5,-314"/>
<polygon fill="#666666" stroke="#666666" points="849.5,-298 849.5,-298 950.5,-298 950.5,-298 849.5,-298"/>
<polygon fill="none" stroke="#666666" points="849.5,-280 849.5,-332 950.5,-332 950.5,-280 849.5,-280"/>
</a>
</g>
</g>
<!-- Node2&#45;&gt;Node1 -->
<g id="edge1_Node000001_Node000002" class="edge">
<title>Node2&#45;&gt;Node1</title>
<g id="a_edge1_Node000001_Node000002"><a xlink:title=" ">
<path fill="none" stroke="#63b8ff" d="M900,-268.66C900,-260.29 900,-251.57 900,-243.82"/>
<polygon fill="none" stroke="#63b8ff" points="896.5,-268.61 900,-278.61 903.5,-268.61 896.5,-268.61"/>
</a>
</g>
</g>
<!-- Node6 -->
<g id="Node000006" class="node">
<title>Node6</title>
<g id="a_Node000006"><a xlink:href="class_code_smile_1_1_statemachine_1_1_services_1_1_authentication_1_1_actions_1_1_sign_in_anonymously.html" target="_top" xlink:title="Calls SignInAnonymouslyAsync.">
<polygon fill="white" stroke="none" points="195,-52 99,-52 99,0 195,0 195,-52"/>
<text text-anchor="start" x="103.88" y="-38.5" font-family="Helvetica,sans-Serif" font-size="10.00">SignInAnonymously</text>
<text text-anchor="start" x="145.5" y="-22.5" font-family="Helvetica,sans-Serif" font-size="10.00"> </text>
<text text-anchor="start" x="145.5" y="-6.5" font-family="Helvetica,sans-Serif" font-size="10.00"> </text>
<polygon fill="#666666" stroke="#666666" points="99,-34 99,-34 195,-34 195,-34 99,-34"/>
<polygon fill="#666666" stroke="#666666" points="99,-18 99,-18 195,-18 195,-18 99,-18"/>
<polygon fill="none" stroke="#666666" points="99,0 99,-52 195,-52 195,0 99,0"/>
</a>
</g>
</g>
<!-- Node5&#45;&gt;Node6 -->
<g id="edge5_Node000005_Node000006" class="edge">
<title>Node5&#45;&gt;Node6</title>
<g id="a_edge5_Node000005_Node000006"><a xlink:title=" ">
<path fill="none" stroke="#63b8ff" d="M217.27,-88.74C203.49,-76.62 188.04,-63.06 175.15,-51.73"/>
<polygon fill="none" stroke="#63b8ff" points="214.65,-91.09 224.47,-95.06 219.27,-85.83 214.65,-91.09"/>
</a>
</g>
</g>
<!-- Node7 -->
<g id="Node000007" class="node">
<title>Node7</title>
<g id="a_Node000007"><a xlink:href="class_code_smile_1_1_statemachine_1_1_services_1_1_core_1_1_actions_1_1_unity_services_init.html" target="_top" xlink:title="Initialize Unity Gaming Services. This must be called before any other service call.">
<polygon fill="white" stroke="none" points="295,-52 213,-52 213,0 295,0 295,-52"/>
<text text-anchor="start" x="218" y="-38.5" font-family="Helvetica,sans-Serif" font-size="10.00">UnityServicesInit</text>
<text text-anchor="start" x="252.5" y="-22.5" font-family="Helvetica,sans-Serif" font-size="10.00"> </text>
<text text-anchor="start" x="252.5" y="-6.5" font-family="Helvetica,sans-Serif" font-size="10.00"> </text>
<polygon fill="#666666" stroke="#666666" points="213,-34 213,-34 295,-34 295,-34 213,-34"/>
<polygon fill="#666666" stroke="#666666" points="213,-18 213,-18 295,-18 295,-18 213,-18"/>
<polygon fill="none" stroke="#666666" points="213,0 213,-52 295,-52 295,0 213,0"/>
</a>
</g>
</g>
<!-- Node5&#45;&gt;Node7 -->
<g id="edge6_Node000005_Node000007" class="edge">
<title>Node5&#45;&gt;Node7</title>
<g id="a_edge6_Node000005_Node000007"><a xlink:title=" ">
<path fill="none" stroke="#63b8ff" d="M254,-84.8C254,-73.79 254,-61.94 254,-51.86"/>
<polygon fill="none" stroke="#63b8ff" points="250.5,-84.79 254,-94.79 257.5,-84.79 250.5,-84.79"/>
</a>
</g>
</g>
<!-- Node8 -->
<g id="Node000008" class="node">
<title>Node8</title>
<g id="a_Node000008"><a xlink:href="class_code_smile_1_1_statemachine_1_1_services_1_1_relay_1_1_actions_1_1_relay_create_or_join_allocation.html" target="_top" xlink:title="Initializes Relay. Depending on role (server/host or client) this may create an allocation or will tr...">
<polygon fill="white" stroke="none" points="460.5,-52 313.5,-52 313.5,0 460.5,0 460.5,-52"/>
<text text-anchor="start" x="325.12" y="-38.5" font-family="Helvetica,sans-Serif" font-size="10.00">RelayCreateOrJoinAllocation</text>
<text text-anchor="start" x="385.5" y="-22.5" font-family="Helvetica,sans-Serif" font-size="10.00"> </text>
<text text-anchor="start" x="317.5" y="-6.5" font-family="Helvetica,sans-Serif" font-size="10.00">+</text>
<text text-anchor="start" x="327.5" y="-6.5" font-family="Helvetica,sans-Serif" font-size="10.00">RelayCreateOrJoinAllocation()</text>
<polygon fill="#666666" stroke="#666666" points="313.5,-34 313.5,-34 460.5,-34 460.5,-34 313.5,-34"/>
<polygon fill="#666666" stroke="#666666" points="313.5,-18 313.5,-18 460.5,-18 460.5,-18 313.5,-18"/>
<polygon fill="none" stroke="#666666" points="313.5,0 313.5,-52 460.5,-52 460.5,0 313.5,0"/>
</a>
</g>
</g>
<!-- Node5&#45;&gt;Node8 -->
<g id="edge7_Node000005_Node000008" class="edge">
<title>Node5&#45;&gt;Node8</title>
<g id="a_edge7_Node000005_Node000008"><a xlink:title=" ">
<path fill="none" stroke="#63b8ff" d="M294.93,-89.5C295.62,-89 296.31,-88.5 297,-88 313.99,-75.74 333.17,-62.64 349.44,-51.74"/>
<polygon fill="none" stroke="#63b8ff" points="292.95,-86.61 286.99,-95.38 297.11,-92.24 292.95,-86.61"/>
</a>
</g>
</g>
</g>
</svg>
