<?xml version="1.0" encoding="UTF-8" standalone="no"?>
<!DOCTYPE svg PUBLIC "-//W3C//DTD SVG 1.1//EN"
 "http://www.w3.org/Graphics/SVG/1.1/DTD/svg11.dtd">
<!-- Generated by graphviz version 9.0.0 (20230911.1827)
 -->
<!-- Title: GeneratedInput.IPlayerUIActions Pages: 1 -->
<svg width="159pt" height="124pt"
 viewBox="0.00 0.00 159.00 124.00" xmlns="http://www.w3.org/2000/svg" xmlns:xlink="http://www.w3.org/1999/xlink">
<g id="graph0" class="graph" transform="scale(1 1) rotate(0) translate(4 120)">
<title>GeneratedInput.IPlayerUIActions</title>
<!-- Node1 -->
<g id="Node000001" class="node">
<title>Node1</title>
<g id="a_Node000001"><a xlink:title=" ">
<polygon fill="#999999" stroke="none" points="151,-116 0,-116 0,0 151,0 151,-116"/>
<text text-anchor="start" x="5" y="-102.5" font-family="Helvetica,sans-Serif" font-size="10.00">GeneratedInput.IPlayerUIActions</text>
<text text-anchor="start" x="74" y="-86.5" font-family="Helvetica,sans-Serif" font-size="10.00"> </text>
<text text-anchor="start" x="17.5" y="-70.5" font-family="Helvetica,sans-Serif" font-size="10.00">+</text>
<text text-anchor="start" x="41" y="-70.5" font-family="Helvetica,sans-Serif" font-size="10.00">OnDown()</text>
<text text-anchor="start" x="17.5" y="-54.5" font-family="Helvetica,sans-Serif" font-size="10.00">+</text>
<text text-anchor="start" x="41" y="-54.5" font-family="Helvetica,sans-Serif" font-size="10.00">OnNext()</text>
<text text-anchor="start" x="17.5" y="-38.5" font-family="Helvetica,sans-Serif" font-size="10.00">+</text>
<text text-anchor="start" x="41" y="-38.5" font-family="Helvetica,sans-Serif" font-size="10.00">OnPrevious()</text>
<text text-anchor="start" x="17.5" y="-22.5" font-family="Helvetica,sans-Serif" font-size="10.00">+</text>
<text text-anchor="start" x="41" y="-22.5" font-family="Helvetica,sans-Serif" font-size="10.00">OnRequestMenu()</text>
<text text-anchor="start" x="17.5" y="-6.5" font-family="Helvetica,sans-Serif" font-size="10.00">+</text>
<text text-anchor="start" x="41" y="-6.5" font-family="Helvetica,sans-Serif" font-size="10.00">OnUp()</text>
<polygon fill="#666666" stroke="#666666" points="0,-98 0,-98 151,-98 151,-98 0,-98"/>
<polygon fill="#666666" stroke="#666666" points="0,-82 0,-82 151,-82 151,-82 0,-82"/>
<polygon fill="none" stroke="#666666" points="0,0 0,-116 151,-116 151,0 0,0"/>
</a>
</g>
</g>
</g>
</svg>
