<?xml version="1.0" encoding="UTF-8" standalone="no"?>
<!DOCTYPE svg PUBLIC "-//W3C//DTD SVG 1.1//EN"
 "http://www.w3.org/Graphics/SVG/1.1/DTD/svg11.dtd">
<!-- Generated by graphviz version 9.0.0 (20230911.1827)
 -->
<!-- Title: GeneratedInput.IPlayerKinematicsActions Pages: 1 -->
<svg width="361pt" height="776pt"
 viewBox="0.00 0.00 361.00 776.00" xmlns="http://www.w3.org/2000/svg" xmlns:xlink="http://www.w3.org/1999/xlink">
<g id="graph0" class="graph" transform="scale(1 1) rotate(0) translate(4 772)">
<title>GeneratedInput.IPlayerKinematicsActions</title>
<!-- Node1 -->
<g id="Node000001" class="node">
<title>Node1</title>
<g id="a_Node000001"><a xlink:title=" ">
<polygon fill="#999999" stroke="none" points="251,-768 94,-768 94,-640 251,-640 251,-768"/>
<text text-anchor="start" x="98.62" y="-754.5" font-family="Helvetica,sans-Serif" font-size="10.00">GeneratedInput.IPlayerKinematics</text>
<text text-anchor="start" x="156" y="-742.5" font-family="Helvetica,sans-Serif" font-size="10.00">Actions</text>
<text text-anchor="start" x="171" y="-726.5" font-family="Helvetica,sans-Serif" font-size="10.00"> </text>
<text text-anchor="start" x="120.5" y="-710.5" font-family="Helvetica,sans-Serif" font-size="10.00">+</text>
<text text-anchor="start" x="153" y="-710.5" font-family="Helvetica,sans-Serif" font-size="10.00">OnCrouch()</text>
<text text-anchor="start" x="120.5" y="-694.5" font-family="Helvetica,sans-Serif" font-size="10.00">+</text>
<text text-anchor="start" x="153" y="-694.5" font-family="Helvetica,sans-Serif" font-size="10.00">OnJump()</text>
<text text-anchor="start" x="120.5" y="-678.5" font-family="Helvetica,sans-Serif" font-size="10.00">+</text>
<text text-anchor="start" x="153" y="-678.5" font-family="Helvetica,sans-Serif" font-size="10.00">OnLook()</text>
<text text-anchor="start" x="120.5" y="-662.5" font-family="Helvetica,sans-Serif" font-size="10.00">+</text>
<text text-anchor="start" x="153" y="-662.5" font-family="Helvetica,sans-Serif" font-size="10.00">OnMove()</text>
<text text-anchor="start" x="120.5" y="-646.5" font-family="Helvetica,sans-Serif" font-size="10.00">+</text>
<text text-anchor="start" x="153" y="-646.5" font-family="Helvetica,sans-Serif" font-size="10.00">OnSprint()</text>
<polygon fill="#666666" stroke="#666666" points="94,-738 94,-738 251,-738 251,-738 94,-738"/>
<polygon fill="#666666" stroke="#666666" points="94,-722 94,-722 251,-722 251,-722 94,-722"/>
<polygon fill="none" stroke="#666666" points="94,-640 94,-768 251,-768 251,-640 94,-640"/>
</a>
</g>
</g>
<!-- Node2 -->
<g id="Node000002" class="node">
<title>Node2</title>
<g id="a_Node000002"><a xlink:href="class_code_smile_1_1_multi_pal_1_1_player_controller_1_1_player_controller_base.html" target="_top" xlink:title=" ">
<polygon fill="white" stroke="none" points="226,-604 119,-604 119,-168 226,-168 226,-604"/>
<text text-anchor="start" x="126.75" y="-590.5" font-family="Helvetica,sans-Serif" font-size="10.00">PlayerControllerBase</text>
<text text-anchor="start" x="123" y="-574.5" font-family="Helvetica,sans-Serif" font-size="10.00">+</text>
<text text-anchor="start" x="133" y="-574.5" font-family="Helvetica,sans-Serif" font-size="10.00">AnimatorParameters</text>
<text text-anchor="start" x="123" y="-558.5" font-family="Helvetica,sans-Serif" font-size="10.00">+</text>
<text text-anchor="start" x="133" y="-558.5" font-family="Helvetica,sans-Serif" font-size="10.00">CameraTarget</text>
<text text-anchor="start" x="123" y="-542.5" font-family="Helvetica,sans-Serif" font-size="10.00">+</text>
<text text-anchor="start" x="133" y="-542.5" font-family="Helvetica,sans-Serif" font-size="10.00">CharController</text>
<text text-anchor="start" x="123" y="-526.5" font-family="Helvetica,sans-Serif" font-size="10.00">+</text>
<text text-anchor="start" x="133" y="-526.5" font-family="Helvetica,sans-Serif" font-size="10.00">DefaultPan</text>
<text text-anchor="start" x="123" y="-510.5" font-family="Helvetica,sans-Serif" font-size="10.00">+</text>
<text text-anchor="start" x="133" y="-510.5" font-family="Helvetica,sans-Serif" font-size="10.00">DefaultRoll</text>
<text text-anchor="start" x="123" y="-494.5" font-family="Helvetica,sans-Serif" font-size="10.00">+</text>
<text text-anchor="start" x="133" y="-494.5" font-family="Helvetica,sans-Serif" font-size="10.00">DefaultTilt</text>
<text text-anchor="start" x="123" y="-478.5" font-family="Helvetica,sans-Serif" font-size="10.00">+</text>
<text text-anchor="start" x="133" y="-478.5" font-family="Helvetica,sans-Serif" font-size="10.00">LookSensitivity</text>
<text text-anchor="start" x="123" y="-462.5" font-family="Helvetica,sans-Serif" font-size="10.00">+</text>
<text text-anchor="start" x="133" y="-462.5" font-family="Helvetica,sans-Serif" font-size="10.00">MotionTarget</text>
<text text-anchor="start" x="123" y="-446.5" font-family="Helvetica,sans-Serif" font-size="10.00">+</text>
<text text-anchor="start" x="133" y="-446.5" font-family="Helvetica,sans-Serif" font-size="10.00">MoveSensitivity</text>
<text text-anchor="start" x="123" y="-430.5" font-family="Helvetica,sans-Serif" font-size="10.00">+</text>
<text text-anchor="start" x="133" y="-430.5" font-family="Helvetica,sans-Serif" font-size="10.00">PlayerIndex</text>
<text text-anchor="start" x="123" y="-414.5" font-family="Helvetica,sans-Serif" font-size="10.00">+</text>
<text text-anchor="start" x="133" y="-414.5" font-family="Helvetica,sans-Serif" font-size="10.00">Velocity</text>
<text text-anchor="start" x="123.38" y="-398.5" font-family="Helvetica,sans-Serif" font-size="10.00">#</text>
<text text-anchor="start" x="133" y="-398.5" font-family="Helvetica,sans-Serif" font-size="10.00">m_Forward</text>
<text text-anchor="start" x="123.38" y="-382.5" font-family="Helvetica,sans-Serif" font-size="10.00">#</text>
<text text-anchor="start" x="133" y="-382.5" font-family="Helvetica,sans-Serif" font-size="10.00">m_Pan</text>
<text text-anchor="start" x="123.38" y="-366.5" font-family="Helvetica,sans-Serif" font-size="10.00">#</text>
<text text-anchor="start" x="133" y="-366.5" font-family="Helvetica,sans-Serif" font-size="10.00">m_Roll</text>
<text text-anchor="start" x="123.38" y="-350.5" font-family="Helvetica,sans-Serif" font-size="10.00">#</text>
<text text-anchor="start" x="133" y="-350.5" font-family="Helvetica,sans-Serif" font-size="10.00">m_Sideways</text>
<text text-anchor="start" x="123.38" y="-334.5" font-family="Helvetica,sans-Serif" font-size="10.00">#</text>
<text text-anchor="start" x="133" y="-334.5" font-family="Helvetica,sans-Serif" font-size="10.00">m_Tilt</text>
<text text-anchor="start" x="123.38" y="-318.5" font-family="Helvetica,sans-Serif" font-size="10.00">#</text>
<text text-anchor="start" x="133" y="-318.5" font-family="Helvetica,sans-Serif" font-size="10.00">m_Vertical</text>
<text text-anchor="start" x="123" y="-302.5" font-family="Helvetica,sans-Serif" font-size="10.00">+</text>
<text text-anchor="start" x="133" y="-302.5" font-family="Helvetica,sans-Serif" font-size="10.00">OnCrouch()</text>
<text text-anchor="start" x="123" y="-286.5" font-family="Helvetica,sans-Serif" font-size="10.00">+</text>
<text text-anchor="start" x="133" y="-286.5" font-family="Helvetica,sans-Serif" font-size="10.00">OnJump()</text>
<text text-anchor="start" x="123" y="-270.5" font-family="Helvetica,sans-Serif" font-size="10.00">+</text>
<text text-anchor="start" x="133" y="-270.5" font-family="Helvetica,sans-Serif" font-size="10.00">OnLook()</text>
<text text-anchor="start" x="123" y="-254.5" font-family="Helvetica,sans-Serif" font-size="10.00">+</text>
<text text-anchor="start" x="133" y="-254.5" font-family="Helvetica,sans-Serif" font-size="10.00">OnMove()</text>
<text text-anchor="start" x="123" y="-238.5" font-family="Helvetica,sans-Serif" font-size="10.00">+</text>
<text text-anchor="start" x="133" y="-238.5" font-family="Helvetica,sans-Serif" font-size="10.00">OnSprint()</text>
<text text-anchor="start" x="123.38" y="-222.5" font-family="Helvetica,sans-Serif" font-size="10.00">#</text>
<text text-anchor="start" x="133" y="-222.5" font-family="Helvetica,sans-Serif" font-size="10.00">Move()</text>
<text text-anchor="start" x="123.38" y="-206.5" font-family="Helvetica,sans-Serif" font-size="10.00">#</text>
<text text-anchor="start" x="133" y="-206.5" font-family="Helvetica,sans-Serif" font-size="10.00">OnDisable()</text>
<text text-anchor="start" x="123.38" y="-190.5" font-family="Helvetica,sans-Serif" font-size="10.00">#</text>
<text text-anchor="start" x="133" y="-190.5" font-family="Helvetica,sans-Serif" font-size="10.00">OnEnable()</text>
<text text-anchor="start" x="123.38" y="-174.5" font-family="Helvetica,sans-Serif" font-size="10.00">#</text>
<text text-anchor="start" x="133" y="-174.5" font-family="Helvetica,sans-Serif" font-size="10.00">Rotate()</text>
<polygon fill="#bfbfbf" stroke="#bfbfbf" points="119,-586 119,-586 226,-586 226,-586 119,-586"/>
<polygon fill="#bfbfbf" stroke="#bfbfbf" points="119,-314 119,-314 131,-314 131,-314 119,-314"/>
<polygon fill="#bfbfbf" stroke="#bfbfbf" points="131,-314 131,-314 226,-314 226,-314 131,-314"/>
<polygon fill="none" stroke="#bfbfbf" points="119,-168 119,-604 226,-604 226,-168 119,-168"/>
</a>
</g>
</g>
<!-- Node1&#45;&gt;Node2 -->
<g id="edge1_Node000001_Node000002" class="edge">
<title>Node1&#45;&gt;Node2</title>
<g id="a_edge1_Node000001_Node000002"><a xlink:title=" ">
<path fill="none" stroke="#63b8ff" d="M172.5,-628.8C172.5,-620.82 172.5,-612.44 172.5,-603.78"/>
<polygon fill="none" stroke="#63b8ff" points="169,-628.68 172.5,-638.68 176,-628.68 169,-628.68"/>
</a>
</g>
</g>
<!-- Node3 -->
<g id="Node000003" class="node">
<title>Node3</title>
<g id="a_Node000003"><a xlink:href="class_code_smile_1_1_multi_pal_1_1_samples_1_1_robo_kyle_1_1_controller_1_1_dead_player_controller.html" target="_top" xlink:title=" ">
<polygon fill="white" stroke="none" points="101,-124 0,-124 0,-8 101,-8 101,-124"/>
<text text-anchor="start" x="4.75" y="-110.5" font-family="Helvetica,sans-Serif" font-size="10.00">DeadPlayerController</text>
<text text-anchor="start" x="49" y="-94.5" font-family="Helvetica,sans-Serif" font-size="10.00"> </text>
<text text-anchor="start" x="12.5" y="-78.5" font-family="Helvetica,sans-Serif" font-size="10.00">+</text>
<text text-anchor="start" x="31" y="-78.5" font-family="Helvetica,sans-Serif" font-size="10.00">OnCrouch()</text>
<text text-anchor="start" x="12.5" y="-62.5" font-family="Helvetica,sans-Serif" font-size="10.00">+</text>
<text text-anchor="start" x="31" y="-62.5" font-family="Helvetica,sans-Serif" font-size="10.00">OnJump()</text>
<text text-anchor="start" x="12.5" y="-46.5" font-family="Helvetica,sans-Serif" font-size="10.00">+</text>
<text text-anchor="start" x="31" y="-46.5" font-family="Helvetica,sans-Serif" font-size="10.00">OnLook()</text>
<text text-anchor="start" x="12.5" y="-30.5" font-family="Helvetica,sans-Serif" font-size="10.00">+</text>
<text text-anchor="start" x="31" y="-30.5" font-family="Helvetica,sans-Serif" font-size="10.00">OnMove()</text>
<text text-anchor="start" x="12.5" y="-14.5" font-family="Helvetica,sans-Serif" font-size="10.00">+</text>
<text text-anchor="start" x="31" y="-14.5" font-family="Helvetica,sans-Serif" font-size="10.00">OnSprint()</text>
<polygon fill="#bfbfbf" stroke="#bfbfbf" points="0,-106 0,-106 101,-106 101,-106 0,-106"/>
<polygon fill="#bfbfbf" stroke="#bfbfbf" points="0,-90 0,-90 101,-90 101,-90 0,-90"/>
<polygon fill="none" stroke="#bfbfbf" points="0,-8 0,-124 101,-124 101,-8 0,-8"/>
</a>
</g>
</g>
<!-- Node2&#45;&gt;Node3 -->
<g id="edge2_Node000002_Node000003" class="edge">
<title>Node2&#45;&gt;Node3</title>
<g id="a_edge2_Node000002_Node000003"><a xlink:title=" ">
<path fill="none" stroke="#63b8ff" d="M115.08,-235.34C99.81,-195.54 84.24,-154.95 72.22,-123.61"/>
<polygon fill="none" stroke="#63b8ff" points="111.77,-236.49 118.62,-244.57 118.31,-233.98 111.77,-236.49"/>
</a>
</g>
</g>
<!-- Node4 -->
<g id="Node000004" class="node">
<title>Node4</title>
<g id="a_Node000004"><a xlink:href="class_code_smile_1_1_multi_pal_1_1_samples_1_1_robo_kyle_1_1_controller_1_1_falling_player_controller.html" target="_top" xlink:title=" ">
<polygon fill="white" stroke="none" points="226,-124 119,-124 119,-8 226,-8 226,-124"/>
<text text-anchor="start" x="123.75" y="-110.5" font-family="Helvetica,sans-Serif" font-size="10.00">FallingPlayerController</text>
<text text-anchor="start" x="171" y="-94.5" font-family="Helvetica,sans-Serif" font-size="10.00"> </text>
<text text-anchor="start" x="133" y="-78.5" font-family="Helvetica,sans-Serif" font-size="10.00">+</text>
<text text-anchor="start" x="153" y="-78.5" font-family="Helvetica,sans-Serif" font-size="10.00">OnCrouch()</text>
<text text-anchor="start" x="133" y="-62.5" font-family="Helvetica,sans-Serif" font-size="10.00">+</text>
<text text-anchor="start" x="153" y="-62.5" font-family="Helvetica,sans-Serif" font-size="10.00">OnJump()</text>
<text text-anchor="start" x="133" y="-46.5" font-family="Helvetica,sans-Serif" font-size="10.00">+</text>
<text text-anchor="start" x="153" y="-46.5" font-family="Helvetica,sans-Serif" font-size="10.00">OnLook()</text>
<text text-anchor="start" x="133" y="-30.5" font-family="Helvetica,sans-Serif" font-size="10.00">+</text>
<text text-anchor="start" x="153" y="-30.5" font-family="Helvetica,sans-Serif" font-size="10.00">OnMove()</text>
<text text-anchor="start" x="133" y="-14.5" font-family="Helvetica,sans-Serif" font-size="10.00">+</text>
<text text-anchor="start" x="153" y="-14.5" font-family="Helvetica,sans-Serif" font-size="10.00">OnSprint()</text>
<polygon fill="#bfbfbf" stroke="#bfbfbf" points="119,-106 119,-106 226,-106 226,-106 119,-106"/>
<polygon fill="#bfbfbf" stroke="#bfbfbf" points="119,-90 119,-90 226,-90 226,-90 119,-90"/>
<polygon fill="none" stroke="#bfbfbf" points="119,-8 119,-124 226,-124 226,-8 119,-8"/>
</a>
</g>
</g>
<!-- Node2&#45;&gt;Node4 -->
<g id="edge3_Node000002_Node000004" class="edge">
<title>Node2&#45;&gt;Node4</title>
<g id="a_edge3_Node000002_Node000004"><a xlink:title=" ">
<path fill="none" stroke="#63b8ff" d="M172.5,-156.68C172.5,-145 172.5,-133.94 172.5,-123.84"/>
<polygon fill="none" stroke="#63b8ff" points="169,-156.54 172.5,-166.54 176,-156.54 169,-156.54"/>
</a>
</g>
</g>
<!-- Node5 -->
<g id="Node000005" class="node">
<title>Node5</title>
<g id="a_Node000005"><a xlink:href="class_code_smile_1_1_multi_pal_1_1_samples_1_1_robo_kyle_1_1_controller_1_1_simple_player_controller.html" target="_top" xlink:title=" ">
<polygon fill="white" stroke="none" points="353,-132 244,-132 244,0 353,0 353,-132"/>
<text text-anchor="start" x="249" y="-118.5" font-family="Helvetica,sans-Serif" font-size="10.00">SimplePlayerController</text>
<text text-anchor="start" x="297" y="-102.5" font-family="Helvetica,sans-Serif" font-size="10.00"> </text>
<text text-anchor="start" x="258.5" y="-86.5" font-family="Helvetica,sans-Serif" font-size="10.00">+</text>
<text text-anchor="start" x="279" y="-86.5" font-family="Helvetica,sans-Serif" font-size="10.00">OnCrouch()</text>
<text text-anchor="start" x="258.5" y="-70.5" font-family="Helvetica,sans-Serif" font-size="10.00">+</text>
<text text-anchor="start" x="279" y="-70.5" font-family="Helvetica,sans-Serif" font-size="10.00">OnJump()</text>
<text text-anchor="start" x="258.5" y="-54.5" font-family="Helvetica,sans-Serif" font-size="10.00">+</text>
<text text-anchor="start" x="279" y="-54.5" font-family="Helvetica,sans-Serif" font-size="10.00">OnLook()</text>
<text text-anchor="start" x="258.5" y="-38.5" font-family="Helvetica,sans-Serif" font-size="10.00">+</text>
<text text-anchor="start" x="279" y="-38.5" font-family="Helvetica,sans-Serif" font-size="10.00">OnMove()</text>
<text text-anchor="start" x="258.5" y="-22.5" font-family="Helvetica,sans-Serif" font-size="10.00">+</text>
<text text-anchor="start" x="279" y="-22.5" font-family="Helvetica,sans-Serif" font-size="10.00">OnSprint()</text>
<text text-anchor="start" x="258.88" y="-6.5" font-family="Helvetica,sans-Serif" font-size="10.00">#</text>
<text text-anchor="start" x="279" y="-6.5" font-family="Helvetica,sans-Serif" font-size="10.00">OnEnable()</text>
<polygon fill="#bfbfbf" stroke="#bfbfbf" points="244,-114 244,-114 353,-114 353,-114 244,-114"/>
<polygon fill="#bfbfbf" stroke="#bfbfbf" points="244,-98 244,-98 353,-98 353,-98 244,-98"/>
<polygon fill="none" stroke="#bfbfbf" points="244,0 244,-132 353,-132 353,0 244,0"/>
</a>
</g>
</g>
<!-- Node2&#45;&gt;Node5 -->
<g id="edge4_Node000002_Node000005" class="edge">
<title>Node2&#45;&gt;Node5</title>
<g id="a_edge4_Node000002_Node000005"><a xlink:title=" ">
<path fill="none" stroke="#63b8ff" d="M230.14,-239.54C245.08,-201.82 260.43,-163.09 272.79,-131.9"/>
<polygon fill="none" stroke="#63b8ff" points="226.92,-238.15 226.49,-248.73 233.43,-240.72 226.92,-238.15"/>
</a>
</g>
</g>
</g>
</svg>
